<?xml version="1.0" encoding="UTF-8" standalone="no"?>
<!-- Created with Inkscape (http://www.inkscape.org/) -->

<svg
   width="86.950546mm"
   height="117.94093mm"
   viewBox="0 0 86.950546 117.94093"
   version="1.1"
   id="svg5050"
   inkscape:version="1.1.2 (b8e25be8, 2022-02-05)"
   sodipodi:docname="Black_Pawn.svg"
   xmlns:inkscape="http://www.inkscape.org/namespaces/inkscape"
   xmlns:sodipodi="http://sodipodi.sourceforge.net/DTD/sodipodi-0.dtd"
   xmlns:xlink="http://www.w3.org/1999/xlink"
   xmlns="http://www.w3.org/2000/svg"
   xmlns:svg="http://www.w3.org/2000/svg">
  <sodipodi:namedview
     id="namedview5052"
     pagecolor="#505050"
     bordercolor="#ffffff"
     borderopacity="1"
     inkscape:pageshadow="0"
     inkscape:pageopacity="0"
     inkscape:pagecheckerboard="1"
     inkscape:document-units="mm"
     showgrid="false"
     fit-margin-top="0"
     fit-margin-left="0"
     fit-margin-right="0"
     fit-margin-bottom="0"
     inkscape:zoom="1.2633637"
     inkscape:cx="83.507227"
     inkscape:cy="307.5124"
     inkscape:window-width="3200"
     inkscape:window-height="1747"
     inkscape:window-x="0"
     inkscape:window-y="25"
     inkscape:window-maximized="0"
     inkscape:current-layer="layer2" />
  <defs
     id="defs5047">
    <color-profile
       name="_55S425"
       xlink:href="file:///Library/ColorSync/Profiles/Displays/55S425-9B062111-484B-46D6-9267-4313F2A9FDAE.icc"
       id="color-profile8153" />
  </defs>
  <g
     inkscape:label="Layer 1"
     inkscape:groupmode="layer"
     id="layer1">
    <g
       id="g1317"
       transform="matrix(0.26458333,0,0,0.26458333,-605.49604,-154.58255)">
      <polygon
         fill="#b78080"
         points="2479.921,991.833 2518.399,1025.57 2426.326,1030.01 "
         id="polygon1057" />
      <polygon
         fill="#c78b8b"
         points="2479.921,991.833 2426.326,1030.01 2346.422,999.52 "
         id="polygon1059" />
      <polygon
         fill="#c98c8c"
         points="2383.619,942.471 2473.494,938.796 2476.325,970.802 "
         id="polygon1061" />
      <polygon
         fill="#c28888"
         points="2383.619,942.471 2476.325,970.802 2389.673,969.538 "
         id="polygon1063" />
      <polygon
         fill="#9d6e6e"
         points="2389.673,969.538 2479.921,991.833 2346.422,999.52 "
         id="polygon1065" />
      <polygon
         fill="#825b5b"
         points="2389.673,969.538 2476.325,970.802 2479.921,991.833 "
         id="polygon1067" />
      <polygon
         fill="#b37d7d"
         points="2479.921,991.833 2571.087,989.831 2518.399,1025.57 "
         id="polygon1069" />
      <polygon
         fill="#775353"
         points="2476.325,970.802 2571.087,989.831 2479.921,991.833 "
         id="polygon1071" />
      <polygon
         fill="#bc8383"
         points="2538.16,940.243 2476.325,970.802 2473.494,938.796 "
         id="polygon1073" />
      <polygon
         fill="#6d4c4c"
         points="2551.366,971.299 2571.087,989.831 2476.325,970.802 "
         id="polygon1075" />
      <polygon
         fill="#ac7878"
         points="2538.16,940.243 2551.366,971.299 2476.325,970.802 "
         id="polygon1077" />
      <polygon
         fill="#916565"
         points="2518.399,1025.57 2571.087,989.831 2592.321,1023.064 "
         id="polygon1079" />
      <polygon
         fill="#916666"
         points="2538.16,940.243 2473.494,938.796 2491.146,877.24 "
         id="polygon1081" />
      <polygon
         fill="#926666"
         points="2491.146,877.24 2473.494,938.796 2435.644,854.904 "
         id="polygon1083" />
      <polygon
         fill="#a27171"
         points="2473.494,938.796 2383.619,942.471 2435.644,854.904 "
         id="polygon1085" />
      <polygon
         fill="#604343"
         points="2346.422,999.52 2331.59,970.287 2389.673,969.538 "
         id="polygon1087" />
      <polygon
         fill="#926666"
         points="2383.619,942.471 2389.673,969.538 2331.59,970.287 "
         id="polygon1089" />
      <polygon
         fill="#8c6262"
         points="2383.619,942.471 2331.59,970.287 2319.65,939.663 "
         id="polygon1091" />
      <polygon
         fill="#c08686"
         points="2379.337,685.94 2486.939,690.498 2428.886,732.608 "
         id="polygon1093" />
      <polygon
         fill="#9b6c6c"
         points="2428.886,732.608 2486.939,690.498 2495.896,734.313 "
         id="polygon1095" />
      <polygon
         fill="#c58a8a"
         points="2428.886,732.608 2495.896,734.313 2435.644,854.904 "
         id="polygon1097" />
      <polygon
         fill="#bd8484"
         points="2495.896,734.313 2502.819,821.984 2435.644,854.904 "
         id="polygon1099" />
      <polygon
         fill="#af7a7a"
         points="2491.146,877.24 2435.644,854.904 2502.819,821.984 "
         id="polygon1101" />
      <polygon
         fill="#714f4f"
         points="2319.65,939.663 2376.067,876.938 2383.619,942.471 "
         id="polygon1103" />
      <polygon
         fill="#735050"
         points="2383.619,942.471 2376.067,876.938 2435.644,854.904 "
         id="polygon1105" />
      <polygon
         fill="#513939"
         points="2379.337,685.94 2461.893,676.133 2486.939,690.498 "
         id="polygon1107" />
      <polygon
         fill="#c28888"
         points="2503.743,634.545 2461.893,676.133 2423.537,638.446 "
         id="polygon1109" />
      <polygon
         fill="#ac7878"
         points="2403.152,809.469 2435.644,854.904 2376.067,876.938 "
         id="polygon1111" />
      <polygon
         fill="#996b6b"
         points="2428.886,732.608 2435.644,854.904 2403.152,809.469 "
         id="polygon1113" />
      <polygon
         fill="#795555"
         points="2551.366,971.299 2538.16,940.243 2594.23,937.998 "
         id="polygon1115" />
      <polygon
         fill="#c18787"
         points="2476.526,584.249 2503.743,634.545 2423.537,638.446 "
         id="polygon1117" />
      <polygon
         fill="#6a4a4a"
         points="2533.102,874.106 2538.16,940.243 2491.146,877.24 "
         id="polygon1119" />
      <polygon
         fill="#855d5d"
         points="2533.102,874.106 2491.146,877.24 2502.819,821.984 "
         id="polygon1121" />
      <polygon
         fill="#624444"
         points="2594.23,937.998 2538.16,940.243 2533.102,874.106 "
         id="polygon1123" />
      <polygon
         fill="#5a3f3f"
         points="2346.422,999.52 2288.489,990.787 2331.59,970.287 "
         id="polygon1125" />
      <polygon
         fill="#624444"
         points="2571.087,989.831 2617.121,991.395 2592.321,1023.064 "
         id="polygon1127" />
      <polygon
         fill="#5e4242"
         points="2594.23,937.998 2589.798,970.649 2551.366,971.299 "
         id="polygon1129" />
      <polygon
         fill="#402d2d"
         points="2617.121,991.395 2571.087,989.831 2589.798,970.649 "
         id="polygon1131" />
      <polygon
         fill="#3f2c2c"
         points="2589.798,970.649 2571.087,989.831 2551.366,971.299 "
         id="polygon1133" />
      <polygon
         fill="#583d3d"
         points="2288.798,1028.583 2346.422,999.52 2426.326,1030.01 "
         id="polygon1135" />
      <polygon
         fill="#624545"
         points="2288.489,990.787 2346.422,999.52 2288.798,1028.583 "
         id="polygon1137" />
      <polygon
         fill="#9c6d6d"
         points="2419.805,586.847 2476.526,584.249 2423.537,638.446 "
         id="polygon1139" />
      <polygon
         fill="#805a5a"
         points="2423.537,638.446 2461.893,676.133 2418.625,674.985 "
         id="polygon1141" />
      <polygon
         fill="#332424"
         points="2418.625,674.985 2461.893,676.133 2379.337,685.94 "
         id="polygon1143" />
      <polygon
         fill="#785454"
         points="2428.886,732.608 2403.152,809.469 2390.409,729.366 "
         id="polygon1145" />
      <polygon
         fill="#5e4242"
         points="2379.337,685.94 2428.886,732.608 2390.409,729.366 "
         id="polygon1147" />
      <polygon
         fill="#342424"
         points="2494.239,674.577 2486.939,690.498 2461.893,676.133 "
         id="polygon1149" />
      <polygon
         fill="#694949"
         points="2461.893,676.133 2503.743,634.545 2494.239,674.577 "
         id="polygon1151" />
      <polygon
         fill="#573d3d"
         points="2393.449,640.43 2423.537,638.446 2418.625,674.985 "
         id="polygon1153" />
      <polygon
         fill="#573d3d"
         points="2423.537,638.446 2393.449,640.43 2419.805,586.847 "
         id="polygon1155" />
      <polygon
         fill="#372626"
         points="2495.896,734.313 2508.767,733.21 2502.819,821.984 "
         id="polygon1157" />
      <polygon
         fill="#2f2121"
         points="2535.708,688.176 2508.767,733.21 2495.896,734.313 "
         id="polygon1159" />
      <polygon
         fill="#5f4242"
         points="2486.939,690.498 2535.708,688.176 2495.896,734.313 "
         id="polygon1161" />
      <polygon
         fill="#352525"
         points="2486.939,690.498 2494.239,674.577 2535.708,688.176 "
         id="polygon1163" />
      <polygon
         fill="#3f2c2c"
         points="2390.409,729.366 2403.152,809.469 2387.509,849.819 "
         id="polygon1165" />
      <polygon
         fill="#2b1e1e"
         points="2376.067,876.938 2319.65,939.663 2387.509,849.819 "
         id="polygon1167" />
      <polygon
         fill="#eeeeee"
         points="2403.152,809.469 2376.067,876.938 2387.509,849.819 "
         id="polygon1169" />
      <polygon
         fill="#271b1b"
         points="2617.121,991.395 2605.355,1029.576 2592.321,1023.064 "
         id="polygon1171" />
      <polygon
         points="2605.355,1029.576 2426.326,1030.01 2518.399,1025.57 "
         id="polygon1173" />
      <polygon
         fill="#1b1313"
         points="2605.355,1029.576 2518.399,1025.57 2592.321,1023.064 "
         id="polygon1175" />
      <polygon
         fill="#2e2020"
         points="2502.819,821.984 2508.767,733.21 2516.803,857.43 "
         id="polygon1177" />
      <polygon
         fill="#1f1f1f"
         points="2502.819,821.984 2516.803,857.43 2533.102,874.106 "
         id="polygon1179" />
      <polygon
         fill="#dddddd"
         points="2533.102,874.106 2516.803,857.43 2594.23,937.998 "
         id="polygon1181" />
      <polygon
         fill="#1c1414"
         points="2288.489,990.787 2313.624,970.696 2331.59,970.287 "
         id="polygon1183" />
      <polygon
         fill="#2c1e1e"
         points="2331.59,970.287 2313.624,970.696 2319.65,939.663 "
         id="polygon1185" />
      <polygon
         points="2390.409,729.366 2376.879,682.967 2379.337,685.94 "
         id="polygon1187" />
      <polygon
         points="2376.879,682.967 2418.625,674.985 2379.337,685.94 "
         id="polygon1189" />
      <polygon
         fill="#101010"
         points="2503.743,634.545 2505.342,619.81 2494.239,674.577 "
         id="polygon1191" />
      <polygon
         fill="#211717"
         points="2476.526,584.249 2505.342,619.81 2503.743,634.545 "
         id="polygon1193" />
      <polygon
         fill="#3b3b3b"
         points="2393.449,640.43 2434.447,588.208 2419.805,586.847 "
         id="polygon1195" />
      <polygon
         fill="#434343"
         points="2434.447,588.208 2505.342,619.81 2476.526,584.249 "
         id="polygon1197" />
      <polygon
         fill="#131313"
         points="2434.447,588.208 2476.526,584.249 2419.805,586.847 "
         id="polygon1199" />
      <polygon
         fill="#7f7f7f"
         points="2505.342,619.81 2447.962,677.479 2494.239,674.577 "
         id="polygon1201" />
      <polygon
         fill="#1e1e1e"
         points="2376.879,682.967 2447.962,677.479 2418.625,674.985 "
         id="polygon1203" />
      <polygon
         fill="#4b4b4b"
         points="2447.962,677.479 2393.449,640.43 2418.625,674.985 "
         id="polygon1205" />
      <polygon
         fill="#848484"
         points="2508.767,733.21 2481.489,734.863 2516.803,857.43 "
         id="polygon1207" />
      <polygon
         fill="#767676"
         points="2535.708,688.176 2481.489,734.863 2508.767,733.21 "
         id="polygon1209" />
      <polygon
         points="2314.196,938.871 2319.65,939.663 2313.624,970.696 "
         id="polygon1211" />
      <polygon
         points="2319.65,939.663 2314.196,938.871 2387.509,849.819 "
         id="polygon1213" />
      <polygon
         fill="#949494"
         points="2444.29,640.399 2434.447,588.208 2393.449,640.43 "
         id="polygon1215" />
      <polygon
         fill="#aaaaaa"
         points="2505.342,619.81 2444.29,640.399 2447.962,677.479 "
         id="polygon1217" />
      <polygon
         fill="#8b8b8b"
         points="2444.29,640.399 2393.449,640.43 2447.962,677.479 "
         id="polygon1219" />
      <polygon
         fill="#b7b7b7"
         points="2434.447,588.208 2444.29,640.399 2505.342,619.81 "
         id="polygon1221" />
      <polygon
         fill="#636363"
         points="2390.409,729.366 2387.509,849.819 2426.109,712.792 "
         id="polygon1223" />
      <polygon
         fill="#6c6c6c"
         points="2426.109,712.792 2376.879,682.967 2390.409,729.366 "
         id="polygon1225" />
      <polygon
         fill="#8d8d8d"
         points="2516.803,857.43 2481.489,734.863 2481.591,860.329 "
         id="polygon1227" />
      <polygon
         fill="#cacaca"
         points="2481.591,860.329 2481.489,734.863 2436.101,850.637 "
         id="polygon1229" />
      <polygon
         fill="#c4c4c4"
         points="2481.489,734.863 2426.109,712.792 2436.101,850.637 "
         id="polygon1231" />
      <polygon
         fill="#9b9b9b"
         points="2436.101,850.637 2426.109,712.792 2387.509,849.819 "
         id="polygon1233" />
      <polygon
         fill="#b9b9b9"
         points="2481.489,734.863 2488.79,683.937 2426.109,712.792 "
         id="polygon1235" />
      <polygon
         fill="#b9b9b9"
         points="2426.109,712.792 2488.79,683.937 2376.879,682.967 "
         id="polygon1237" />
      <polygon
         fill="#252525"
         points="2447.962,677.479 2488.79,683.937 2494.239,674.577 "
         id="polygon1239" />
      <polygon
         fill="#272727"
         points="2494.239,674.577 2488.79,683.937 2535.708,688.176 "
         id="polygon1241" />
      <polygon
         fill="#808080"
         points="2535.708,688.176 2488.79,683.937 2481.489,734.863 "
         id="polygon1243" />
      <polygon
         fill="#494949"
         points="2376.879,682.967 2488.79,683.937 2447.962,677.479 "
         id="polygon1245" />
      <polygon
         fill="#272727"
         points="2302.295,989.949 2288.489,990.787 2288.798,1028.583 "
         id="polygon1247" />
      <polygon
         fill="#202020"
         points="2288.489,990.787 2302.295,989.949 2313.624,970.696 "
         id="polygon1249" />
      <polygon
         fill="#282828"
         points="2577.003,941.475 2594.23,937.998 2516.803,857.43 "
         id="polygon1251" />
      <polygon
         fill="#2a2a2a"
         points="2577.003,941.475 2589.798,970.649 2594.23,937.998 "
         id="polygon1253" />
      <polygon
         fill="#717171"
         points="2481.591,860.329 2577.003,941.475 2516.803,857.43 "
         id="polygon1255" />
      <polygon
         fill="#393939"
         points="2577.003,941.475 2563.594,969.008 2589.798,970.649 "
         id="polygon1257" />
      <polygon
         fill="#272727"
         points="2617.121,991.395 2589.798,970.649 2563.594,969.008 "
         id="polygon1259" />
      <polygon
         fill="#373737"
         points="2617.121,991.395 2588.371,1010.848 2605.355,1029.576 "
         id="polygon1261" />
      <polygon
         fill="#404040"
         points="2588.371,1010.848 2617.121,991.395 2563.594,969.008 "
         id="polygon1263" />
      <polygon
         fill="#484848"
         points="2332.011,1020.159 2302.295,989.949 2288.798,1028.583 "
         id="polygon1265" />
      <polygon
         fill="#474747"
         points="2313.624,970.696 2302.295,989.949 2384.513,969.523 "
         id="polygon1267" />
      <polygon
         fill="#7b7b7b"
         points="2384.513,969.523 2314.196,938.871 2313.624,970.696 "
         id="polygon1269" />
      <polygon
         fill="#797979"
         points="2481.591,860.329 2511.82,940.095 2577.003,941.475 "
         id="polygon1271" />
      <polygon
         fill="#9d9d9d"
         points="2511.82,940.095 2563.594,969.008 2577.003,941.475 "
         id="polygon1273" />
      <polygon
         fill="#a2a2a2"
         points="2468.294,970.574 2563.594,969.008 2511.82,940.095 "
         id="polygon1275" />
      <polygon
         fill="#797979"
         points="2314.196,938.871 2409.273,935.508 2387.509,849.819 "
         id="polygon1277" />
      <polygon
         fill="#bdbdbd"
         points="2409.273,935.508 2384.513,969.523 2468.294,970.574 "
         id="polygon1279" />
      <polygon
         fill="#7a7a7a"
         points="2387.509,849.819 2409.273,935.508 2436.101,850.637 "
         id="polygon1281" />
      <polygon
         fill="#9d9d9d"
         points="2409.273,935.508 2511.82,940.095 2481.591,860.329 "
         id="polygon1283" />
      <polygon
         fill="#a0a0a0"
         points="2436.101,850.637 2409.273,935.508 2481.591,860.329 "
         id="polygon1285" />
      <polygon
         fill="#cacaca"
         points="2468.294,970.574 2511.82,940.095 2409.273,935.508 "
         id="polygon1287" />
      <polygon
         fill="#9b9b9b"
         points="2384.513,969.523 2409.273,935.508 2314.196,938.871 "
         id="polygon1289" />
      <polygon
         fill="#5f5f5f"
         points="2528.884,990.035 2563.594,969.008 2468.294,970.574 "
         id="polygon1291" />
      <polygon
         fill="#767676"
         points="2528.884,990.035 2588.371,1010.848 2563.594,969.008 "
         id="polygon1293" />
      <polygon
         fill="#212121"
         points="2446.614,1029.631 2332.011,1020.159 2288.798,1028.583 "
         id="polygon1295" />
      <polygon
         fill="#424242"
         points="2588.371,1010.848 2446.614,1029.631 2605.355,1029.576 "
         id="polygon1297" />
      <polygon
         fill="#a0a0a0"
         points="2528.884,990.035 2446.614,1029.631 2588.371,1010.848 "
         id="polygon1299" />
      <polygon
         fill="#dddddd"
         points="2446.614,1029.631 2288.798,1028.583 2426.326,1030.01 "
         id="polygon1301" />
      <polygon
         fill="#cccccc"
         points="2446.614,1029.631 2426.326,1030.01 2605.355,1029.576 "
         id="polygon1303" />
      <polygon
         fill="#979797"
         points="2332.011,1020.159 2402.987,990.997 2302.295,989.949 "
         id="polygon1305" />
      <polygon
         fill="#a5a5a5"
         points="2402.987,990.997 2332.011,1020.159 2446.614,1029.631 "
         id="polygon1307" />
      <polygon
         fill="#c8c8c8"
         points="2528.884,990.035 2402.987,990.997 2446.614,1029.631 "
         id="polygon1309" />
      <polygon
         fill="#a2a2a2"
         points="2402.987,990.997 2528.884,990.035 2468.294,970.574 "
         id="polygon1311" />
      <polygon
         fill="#7c7c7c"
         points="2302.295,989.949 2402.987,990.997 2384.513,969.523 "
         id="polygon1313" />
      <polygon
         fill="#6d6d6d"
         points="2402.987,990.997 2468.294,970.574 2384.513,969.523 "
         id="polygon1315" />
    </g>
  </g>
  <g
     inkscape:groupmode="layer"
     id="layer2"
     inkscape:label="Layer 2"
     style="mix-blend-mode:darken;opacity:0.69">
    <path
       style="fill:#a0a0a0;stroke:none;stroke-width:0.791538"
       d="m 63.718785,370.74544 c -16.978484,-7.43372 -31.918087,-13.97752 -33.199118,-14.54176 -2.152778,-0.94822 -1.703246,-1.06248 5.936533,-1.50893 14.438905,-0.84378 82.35065,-3.0439 82.71485,-2.6797 0.56117,0.56118 -22.749081,32.27805 -23.710433,32.26138 -0.479525,-0.008 -14.763349,-6.09726 -31.741832,-13.53099 z"
       id="path5929"
       transform="scale(0.26458333)" />
    <path
       style="fill:#1a1a1a;stroke-width:0.791538"
       d="m 29.69009,350.56548 c 1.733775,-2.12959 17.225103,-20.96918 34.425173,-41.86578 17.20007,-20.89659 32.040432,-38.98057 32.978581,-40.18661 1.133705,-1.45744 1.841411,-1.85561 2.110327,-1.18731 0.284368,0.7067 0.422949,0.65268 0.46635,-0.18181 0.05342,-1.02708 2.652059,-1.15919 19.257279,-0.97898 10.55754,0.11458 21.206,0.29268 23.66324,0.39577 l 4.46771,0.18744 -11.86994,37.59804 c -6.52847,20.67893 -12.57629,39.59806 -13.4396,42.04252 l -1.56966,4.44447 -13.58694,0.51724 c -7.472811,0.28448 -16.970754,0.68192 -21.106539,0.88321 -4.135784,0.20129 -13.040583,0.54641 -19.788442,0.76693 -6.747859,0.22053 -18.319315,0.63403 -25.714347,0.91889 l -13.445511,0.51793 z m 90.17133,-4.60697 c -0.29114,-1.16 -0.682,-1.95645 -0.86858,-1.76988 -0.18658,0.18659 -0.10102,1.28834 0.19012,2.44834 0.29115,1.16001 0.68201,1.95645 0.86858,1.76988 0.18658,-0.18658 0.10102,-1.28833 -0.19012,-2.44834 z m -1.52653,-5.99307 c -0.30054,-1.3683 -0.69309,-2.34114 -0.87237,-2.16187 -0.17926,0.17927 -0.0984,1.46378 0.17977,2.85447 0.27814,1.39068 0.6707,2.36353 0.87236,2.16187 0.20165,-0.20166 0.12077,-1.48617 -0.17976,-2.85447 z m -1.43814,-4.89764 c -0.25268,-0.63143 -0.44024,-0.44387 -0.47822,0.47822 -0.0344,0.83441 0.15271,1.30192 0.41573,1.0389 0.26302,-0.26303 0.29114,-0.94573 0.0625,-1.51712 z m -0.79154,-3.16615 c -0.25267,-0.63144 -0.44024,-0.44387 -0.47821,0.47822 -0.0344,0.83441 0.1527,1.30192 0.41573,1.03889 0.26302,-0.26302 0.29113,-0.94572 0.0624,-1.51711 z m -0.79154,-3.16615 c -0.25267,-0.63144 -0.44023,-0.44388 -0.47821,0.47822 -0.0344,0.83441 0.1527,1.30191 0.41573,1.03889 0.26302,-0.26302 0.29113,-0.94572 0.0625,-1.51711 z m -0.79153,-3.16615 c -0.25268,-0.63144 -0.44024,-0.44388 -0.47822,0.47822 -0.0344,0.83441 0.1527,1.30191 0.41573,1.03889 0.26302,-0.26302 0.29114,-0.94572 0.0624,-1.51711 z m -0.79154,-3.16615 c -0.25268,-0.63144 -0.44024,-0.44388 -0.47822,0.47822 -0.0344,0.83441 0.15271,1.30191 0.41573,1.03889 0.26302,-0.26302 0.29114,-0.94572 0.0625,-1.51711 z m -0.79154,-3.16615 c -0.25267,-0.63144 -0.44024,-0.44388 -0.47822,0.47822 -0.0344,0.83441 0.15271,1.30191 0.41574,1.03889 0.26302,-0.26302 0.29113,-0.94572 0.0624,-1.51711 z m -0.79154,-3.16615 c -0.25267,-0.63144 -0.44023,-0.44388 -0.47821,0.47822 -0.0344,0.83441 0.1527,1.30191 0.41573,1.03889 0.26302,-0.26302 0.29113,-0.94572 0.0624,-1.51711 z m -0.79154,-3.16615 c -0.25267,-0.63144 -0.44023,-0.44388 -0.47821,0.47822 -0.0344,0.83441 0.1527,1.30191 0.41573,1.03889 0.26302,-0.26302 0.29114,-0.94572 0.0625,-1.51711 z m -0.79153,-3.16615 c -0.25268,-0.63144 -0.44024,-0.44388 -0.47822,0.47822 -0.0344,0.83441 0.15271,1.30191 0.41573,1.03889 0.26302,-0.26302 0.29114,-0.94572 0.0625,-1.51711 z m -2.59284,-10.46406 c -1.16306,-4.64155 -2.25978,-8.29406 -2.43714,-8.1167 -0.17736,0.17736 0.62911,4.12011 1.79218,8.76166 1.16306,4.64154 2.25977,8.29406 2.43713,8.1167 0.17736,-0.17737 -0.62911,-4.12011 -1.79217,-8.76166 z m -4.28017,-17.09135 c -0.97758,-3.95634 -1.92036,-7.0504 -2.09508,-6.87569 -0.17471,0.17472 0.47383,3.56302 1.4412,7.52957 0.96737,3.96654 1.91016,7.0606 2.09508,6.87568 0.18492,-0.18492 -0.46363,-3.57322 -1.4412,-7.52956 z m -2.62544,-9.64687 c -0.25268,-0.63143 -0.44024,-0.44387 -0.47822,0.47822 -0.0344,0.83442 0.15271,1.30192 0.41573,1.0389 0.26302,-0.26302 0.29114,-0.94573 0.0625,-1.51712 z m -0.79154,-3.16615 c -0.25268,-0.63143 -0.440239,-0.44387 -0.478221,0.47822 -0.03437,0.83442 0.15271,1.30192 0.415731,1.0389 0.26302,-0.26302 0.29114,-0.94573 0.0625,-1.51712 z"
       id="path6005"
       transform="scale(0.26458333)" />
    <path
       style="fill:#1a1a1a;stroke-width:0.791538"
       d="m 119.72008,385.28148 c -12.29852,-0.12267 -22.360943,-0.43441 -22.360943,-0.69274 0,-0.25833 5.225613,-7.64377 11.612483,-16.41208 6.38687,-8.76831 11.69166,-16.05272 11.78844,-16.18757 0.19577,-0.27279 54.91796,32.10204 56.10904,33.19532 0.42919,0.39396 -6.87549,0.61079 -17.01806,0.50516 -9.77351,-0.10178 -27.83245,-0.28542 -40.13096,-0.40809 z"
       id="path6044"
       transform="scale(0.26458333)" />
    <path
       style="fill:#1a1a1a;stroke-width:0.791538"
       d="m 219.8496,355.36721 c -0.10884,-0.0908 -7.14363,-0.3978 -15.63287,-0.68217 -8.48925,-0.28438 -17.75024,-0.693 -20.57998,-0.90805 -2.82975,-0.21506 -17.78072,-0.93788 -33.22438,-1.60628 -15.44366,-0.66839 -28.16042,-1.29628 -28.25945,-1.39532 -0.17932,-0.17932 21.48279,-22.91959 41.21915,-43.27071 5.70375,-5.88142 14.73381,-15.22305 20.06679,-20.75919 5.33299,-5.53614 9.69634,-9.96495 9.69634,-9.8418 0,0.12314 6.58955,17.64189 14.64345,38.93053 8.05389,21.28865 14.64344,38.92972 14.64344,39.20238 0,0.4512 -2.10397,0.7216 -2.57249,0.33061 z"
       id="path6083"
       transform="scale(0.26458333)" />
    <path
       style="fill:#1a1a1a;stroke-width:0.791538"
       d="m 122.03113,348.67236 c 0.21261,-0.65302 6.03474,-19.17501 12.93808,-41.15996 6.90334,-21.98496 12.66662,-40.12439 12.8073,-40.30984 0.14068,-0.18545 10.22544,1.76054 22.41057,4.32441 l 22.15479,4.66159 -3.03293,3.1952 c -2.2792,2.40114 -35.68686,37.19709 -67.28407,70.08013 -0.20916,0.21768 -0.20634,-0.13852 0.006,-0.79153 z"
       id="path6239"
       transform="scale(0.26458333)" />
    <path
       style="fill:#1a1a1a;stroke-width:0.791538"
       d="m 237.46131,355.97042 -13.85191,-0.22154 -10.60322,-28.07593 c -5.83178,-15.44176 -10.92853,-28.07593 -11.32613,-28.07593 -0.3976,0 -0.52805,-0.31528 -0.2899,-0.70062 0.59339,-0.96012 -1.10445,-5.63168 -2.0468,-5.63168 -0.41845,0 -0.55089,-0.33967 -0.29432,-0.75481 0.25657,-0.41514 -0.64809,-3.64503 -2.01037,-7.17752 -1.36227,-3.5325 -2.32451,-6.57508 -2.13829,-6.76129 0.18621,-0.18621 3.51619,2.38821 7.39996,5.72093 3.88376,3.33272 23.62432,20.11926 43.86789,37.30343 20.24358,17.18416 37.69699,32.10477 38.78535,33.1569 l 1.97885,1.91296 -17.8096,-0.23668 c -9.79528,-0.13017 -24.04296,-0.33637 -31.66151,-0.45822 z"
       id="path6278"
       transform="scale(0.26458333)" />
    <path
       style="fill:#1a1a1a;stroke-width:0.791538"
       d="m 245.31958,320.04426 c -45.79193,-38.9058 -49.35086,-41.99 -49.62945,-43.00931 -0.17871,-0.65388 32.27883,-3.97595 32.68496,-3.34535 0.0646,0.10035 12.67373,17.75365 28.02025,39.22957 15.34651,21.47592 27.75738,39.19249 27.57972,39.37015 -0.17766,0.17766 -17.57263,-14.33262 -38.65548,-32.24506 z"
       id="path6317"
       transform="scale(0.26458333)" />
    <path
       style="fill:#1a1a1a;stroke-width:0.791538"
       d="m 6.6909715,426.8367 c 3.2081873,-9.25109 6.1385795,-17.61857 6.5119815,-18.59439 0.624326,-1.63157 1.820303,-0.63151 14.874526,12.43784 7.807587,7.81664 13.942762,14.46492 13.633722,14.77396 -0.461742,0.46174 -38.4619411,8.19636 -40.2928273,8.20127 -0.3082589,8.2e-4 2.0644101,-7.56758 5.2725978,-16.81868 z"
       id="path6356"
       transform="scale(0.26458333)" />
    <path
       style="fill:#1a1a1a;stroke-width:0.791538"
       d="m 15.039216,404.48183 c 0,-0.31588 2.343042,-4.40813 5.206759,-9.09388 l 5.206759,-8.51956 32.038966,-0.58535 c 17.62143,-0.32194 32.182803,-0.44152 32.358605,-0.26571 0.175803,0.1758 -15.961438,4.37058 -35.860533,9.32173 -19.899096,4.95115 -36.80351,9.16297 -37.565365,9.3596 -0.761855,0.19663 -1.385191,0.0991 -1.385191,-0.21683 z"
       id="path6395"
       transform="scale(0.26458333)" />
    <path
       style="fill:#1a1a1a;stroke-width:0.791538"
       d="m 1.1873065,405.90216 c 2.1608778,-2.14423 21.1263295,-16.97465 21.3813815,-16.7196 0.161959,0.16196 -1.840281,3.93633 -4.449423,8.38749 l -4.743893,8.09302 H 8.3354991 c -2.7719299,0 -5.6923405,0.23052 -6.4898014,0.51227 -0.96132886,0.33964 -1.18319482,0.24758 -0.6583912,-0.27318 z"
       id="path6434"
       transform="scale(0.26458333)" />
    <path
       style="fill:#1a1a1a;stroke-width:0.791538"
       d="m 0.80425359,428.22189 c -0.0383741,-6.96553 -0.27705371,-14.7127 -0.53039912,-17.21594 l -0.46062808,-4.55134 2.66588431,-0.1063 c 3.4916595,-0.13923 9.7118523,0.1937 10.0761433,0.53932 0.260477,0.24713 -6.5935721,20.44166 -10.1960152,30.04118 l -1.48521417,3.95769 z"
       id="path6473"
       transform="scale(0.26458333)" />
    <path
       style="fill:#1a1a1a;stroke-width:0.791538"
       d="m 29.272729,420.90017 -13.622417,-14.04979 24.825774,-0.24983 c 13.654176,-0.13741 35.304993,-0.006 48.112927,0.2919 21.441477,0.4988 23.072597,0.63374 20.579977,1.70255 -1.48895,0.63845 -9.296721,3.84503 -17.350617,7.12573 -8.053896,3.28069 -14.821543,6.18889 -15.039216,6.46265 -0.217673,0.27376 -0.751961,0.49872 -1.187307,0.4999 -1.602487,0.004 -12.268834,4.6248 -12.268834,5.31461 0,0.39226 -0.322524,0.51387 -0.71672,0.27024 -0.394196,-0.24362 -4.54302,1.16012 -9.219608,3.11944 -4.676588,1.95932 -8.950335,3.56239 -9.497214,3.56239 -0.546879,0 -7.124414,-6.3224 -14.616745,-14.04979 z"
       id="path6512"
       transform="scale(0.26458333)" />
    <path
       style="fill:#1a1a1a;stroke-width:0.791538"
       d="m 81.132614,406.36759 c -2.176729,-0.31121 -17.492983,-0.62943 -34.036121,-0.70716 L 17.01806,405.5191 55.803408,395.71045 c 21.331941,-5.39476 39.199543,-9.72572 39.705779,-9.62435 0.968398,0.1939 18.001603,19.54638 17.547853,19.9372 -0.64259,0.55345 -28.369907,0.85248 -31.924426,0.34429 z"
       id="path6551"
       transform="scale(0.26458333)" />
    <path
       style="fill:#1a1a1a;stroke-width:0.791538"
       d="m 25.604688,377.44035 c 0.283831,-4.63886 0.516056,-11.4065 0.516056,-15.03922 0,-3.75083 0.332612,-6.60494 0.769728,-6.60494 0.42335,0 15.724733,6.53263 34.003071,14.51695 l 33.233342,14.51694 -21.93212,0.52074 c -12.062666,0.2864 -27.596274,0.52143 -34.519128,0.52227 l -12.587005,0.002 z"
       id="path6590"
       transform="scale(0.26458333)" />
    <path
       style="fill:#1a1a1a;stroke-width:0.791538"
       d="m 63.718785,370.74544 c -16.978484,-7.43372 -31.918087,-13.97752 -33.199118,-14.54176 -2.152778,-0.94822 -1.703246,-1.06248 5.936533,-1.50893 14.438905,-0.84378 82.35065,-3.0439 82.71485,-2.6797 0.56117,0.56118 -22.749081,32.27805 -23.710433,32.26138 -0.479525,-0.008 -14.763349,-6.09726 -31.741832,-13.53099 z"
       id="path6629"
       transform="scale(0.26458333)" />
    <path
       style="fill:#1a1a1a;stroke-width:0.791538"
       d="m 151.36968,369.05944 c -15.35249,-9.16819 -27.76555,-16.81749 -27.58459,-16.99846 0.18097,-0.18096 22.43714,0.65598 49.45816,1.85988 27.02102,1.2039 49.05126,2.24509 48.9561,2.31377 -6.26663,4.52245 -42.46505,29.61744 -42.64926,29.56712 -0.14674,-0.0401 -12.82793,-7.57413 -28.18041,-16.74231 z"
       id="path6668"
       transform="scale(0.26458333)" />
    <path
       style="fill:#1a1a1a;stroke-width:0.791538"
       d="m 118.33489,406.04154 c 0.43534,-0.15572 6.4906,-2.06769 13.45614,-4.24881 6.96553,-2.18112 20.62575,-6.46079 30.35604,-9.51039 l 17.69144,-5.54471 28.78437,9.22591 c 15.8314,5.07425 28.70748,9.28301 28.61351,9.3528 -0.094,0.0698 -27.06334,0.32523 -59.93195,0.56763 -32.8686,0.24239 -59.4049,0.3133 -58.96955,0.15757 z"
       id="path6707"
       transform="scale(0.26458333)" />
    <path
       style="fill:#1a1a1a;stroke-width:0.791538"
       d="m 136.95747,426.09855 -20.85627,-18.45664 23.67567,-0.58372 c 13.02161,-0.32105 40.29779,-0.49914 60.61371,-0.39577 l 36.93806,0.18796 -38.52113,18.52719 c -21.18662,10.18995 -39.07747,18.67354 -39.75745,18.85241 -0.76191,0.20042 -9.2395,-6.75716 -22.09259,-18.13143 z"
       id="path6746"
       transform="scale(0.26458333)" />
    <path
       style="fill:#1a1a1a;stroke-width:0.791538"
       d="m 97.754906,440.0491 c -26.991436,-2.31092 -49.787722,-4.23931 -50.658413,-4.2853 -0.870691,-0.046 2.335036,-1.69555 7.123839,-3.66567 4.788803,-1.97012 9.775491,-4.06078 11.081528,-4.6459 1.306037,-0.58512 12.845573,-5.37102 25.643414,-10.63535 19.291036,-7.93526 23.485716,-9.40594 24.537666,-8.60306 0.69788,0.53263 4.4746,3.83834 8.39271,7.34601 3.91811,3.50767 12.73386,11.29993 19.59056,17.31614 6.85669,6.01621 12.46672,11.08119 12.46672,11.25551 0,0.72045 -11.53591,-0.089 -58.178024,-4.08238 z"
       id="path6785"
       transform="scale(0.26458333)" />
    <path
       style="fill:#1a1a1a;stroke-width:0.791538"
       d="m 163.05677,443.50006 c 1.08836,-0.54225 11.40838,-5.55596 22.93338,-11.14157 11.525,-5.58562 21.14218,-10.40424 21.37152,-10.70805 0.22934,-0.30381 1.10961,-0.67296 1.95616,-0.82033 2.12325,-0.36962 17.39567,-8.06851 17.72321,-8.93434 0.14602,-0.38599 0.56975,-0.51376 0.94162,-0.28393 0.37187,0.22983 3.33486,-0.8977 6.58441,-2.50562 l 5.90827,-2.92349 28.16613,9.83228 c 15.49136,5.40775 28.1704,10.01925 28.17564,10.24778 0.007,0.3158 -118.5479,16.28515 -132.96881,17.91086 -2.68032,0.30216 -2.70605,0.28027 -0.79153,-0.67359 z"
       id="path6824"
       transform="scale(0.26458333)" />
    <path
       style="fill:#1a1a1a;stroke-width:0.791538"
       d="m 295.24356,424.75052 c -0.65302,-0.35907 -12.85009,-4.71159 -27.10461,-9.67227 -14.25452,-4.96068 -25.83076,-9.28324 -25.72498,-9.6057 0.10578,-0.32247 7.49427,-5.02049 16.41886,-10.44007 15.83697,-9.61721 16.2485,-9.81195 17.14227,-8.1116 0.50366,0.9582 5.75749,9.8773 11.67518,19.82024 5.91769,9.94293 10.75943,18.22034 10.75943,18.39423 0,0.53595 -1.91486,0.30321 -3.16615,-0.38483 z"
       id="path6863"
       transform="scale(0.26458333)" />
    <path
       style="fill:#1a1a1a;stroke-width:0.791538"
       d="m 288.28029,406.2235 c -6.52367,-10.97421 -11.74356,-20.07987 -11.59976,-20.23481 0.1438,-0.15493 6.07122,2.19269 13.17205,5.21695 7.10082,3.02425 18.51226,7.78151 25.35876,10.57169 6.84649,2.79017 12.45133,5.25114 12.45521,5.46882 0.004,0.21767 -6.18767,4.56607 -13.75899,9.66311 l -13.76604,9.26735 z"
       id="path6902"
       transform="scale(0.26458333)" />
    <path
       style="fill:#1a1a1a;stroke-width:0.791538"
       d="m 166.22292,444.70175 c 6.37415,-1.03922 133.98363,-17.69884 134.0906,-17.50575 0.0714,0.1289 2.96704,3.44031 6.43473,7.3587 3.46771,3.91838 6.98345,7.92554 7.81278,8.9048 l 1.50787,1.78045 -75.91241,-0.10779 c -41.75183,-0.0593 -75.02194,-0.25297 -73.93357,-0.43041 z"
       id="path6941"
       transform="scale(0.26458333)" />
    <path
       style="fill:#1a1a1a;stroke-width:0.791538"
       d="m 311.66797,439.64676 c -2.50324,-2.50797 -4.55134,-4.81804 -4.55134,-5.1335 0,-0.31546 -1.48921,-2.18916 -3.30934,-4.16377 l -3.30934,-3.59021 1.92415,-1.24754 c 1.05828,-0.68614 2.70399,-2.01119 3.65713,-2.94454 0.95315,-0.93336 1.92429,-1.50571 2.1581,-1.2719 0.23381,0.23381 0.64891,-0.15812 0.92245,-0.87094 0.27354,-0.71283 0.81323,-1.10083 1.1993,-0.86222 0.38608,0.23861 1.59543,-0.45963 2.68744,-1.55164 1.09202,-1.09202 1.99681,-1.73453 2.01066,-1.42781 0.0138,0.30672 0.54813,-0.13374 1.1873,-0.9788 0.63918,-0.84506 1.16214,-1.27703 1.16214,-0.95993 0,0.3171 2.1176,-0.86149 4.70579,-2.6191 2.58819,-1.7576 4.9012,-3.19564 5.14003,-3.19564 0.23883,0 0.28484,0.80143 0.10225,1.78096 -0.18259,0.97953 -0.3857,1.78096 -0.45136,1.78096 -0.0657,0 -0.24146,0.53429 -0.39066,1.18731 -0.1492,0.65302 -0.99324,3.23541 -1.87565,5.73865 -0.8824,2.50323 -1.40185,4.55134 -1.15432,4.55134 0.24753,0 0.007,0.53428 -0.53532,1.1873 -0.54196,0.65302 -0.78184,1.18731 -0.53308,1.18731 0.24877,0 -0.0478,1.197 -0.65912,2.66001 -0.61128,1.463 -1.28721,3.62943 -1.50207,4.81429 -0.45058,2.48483 -2.88638,9.31721 -3.57098,10.01656 -0.25455,0.26004 -2.51092,-1.57918 -5.01416,-4.08715 z"
       id="path6980"
       transform="scale(0.26458333)" />
    <path
       style="fill:#1a1a1a;stroke-width:0.791538"
       d="m 314.63623,400.94528 c -4.7888,-2.07852 -13.5155,-5.76184 -19.39267,-8.18517 -5.87717,-2.42332 -12.28862,-5.15882 -14.24768,-6.07887 l -3.56192,-1.67282 3.95769,0.40164 c 2.17673,0.2209 7.51961,0.62754 11.87307,0.90365 l 7.91537,0.50202 11.67518,8.75392 c 6.42135,4.81466 11.67519,8.87721 11.67519,9.0279 0,0.55357 -1.36516,0.0496 -9.89423,-3.65227 z"
       id="path7019"
       transform="scale(0.26458333)" />
    <path
       style="fill:#1a1a1a;stroke-width:0.791538"
       d="m 295.111,371.29912 c -4.16347,-9.58973 -5.6984,-13.91985 -4.93428,-13.91985 0.61003,0 1.11133,-0.26714 1.11398,-0.59365 0.003,-0.32651 1.68098,-0.64191 3.72959,-0.70089 2.04862,-0.059 3.84448,-0.46641 3.99081,-0.9054 0.14633,-0.43898 0.99782,-0.60679 1.8922,-0.37291 0.89438,0.23389 1.86623,0.0368 2.15966,-0.43801 0.29344,-0.4748 0.91708,-0.61492 1.38586,-0.31139 0.59511,0.38532 0.22661,5.17078 -1.22103,15.8569 l -2.07335,15.30504 z"
       id="path7058"
       transform="scale(0.26458333)" />
    <path
       style="fill:#1a1a1a;stroke-width:0.791538"
       d="m 284.01298,385.07916 c -3.78241,-0.23435 -7.0857,-0.63468 -7.34064,-0.88962 -0.25495,-0.25494 2.31166,-6.25315 5.70357,-13.32935 l 6.16709,-12.86582 5.52701,12.5283 c 3.03986,6.89057 5.78958,13.1823 6.1105,13.98162 0.63913,1.59187 0.38988,1.60073 -16.16753,0.57487 z"
       id="path7097"
       transform="scale(0.26458333)" />
    <path
       style="fill:#1a1a1a;stroke-width:0.791538"
       d="m 250.42725,370.55419 -24.39786,-13.57069 10.66307,-0.19802 c 5.86469,-0.10891 19.78386,0.0692 30.93149,0.39577 l 20.26842,0.59379 -6.53362,13.17492 -6.53363,13.17492 z"
       id="path7136"
       transform="scale(0.26458333)" />
    <path
       style="fill:#1a1a1a;stroke-width:0.791538"
       d="m 182.98958,384.54082 c 1.16776,-0.79012 10.74684,-7.457 21.28683,-14.8153 l 19.16363,-13.37873 4.83391,2.65477 c 2.65864,1.46013 13.83657,7.70797 24.83983,13.8841 l 20.00592,11.22932 -16.83977,0.47819 c -9.26188,0.26301 -30.01888,0.68205 -46.12667,0.93121 -28.46806,0.44035 -29.22753,0.41285 -27.16368,-0.98356 z"
       id="path7175"
       transform="scale(0.26458333)" />
    <path
       style="fill:#1a1a1a;stroke-width:0.791538"
       d="m 183.63675,384.96193 c 0,-0.3671 38.71291,-27.48683 39.69729,-27.80932 0.2839,-0.093 11.02545,5.70806 23.87012,12.89126 20.06543,11.22132 23.07278,13.13779 21.35723,13.61011 -2.2325,0.61466 -84.92464,1.88823 -84.92464,1.30795 z"
       id="path7214"
       transform="scale(0.26458333)" />
    <path
       style="fill:#1a1a1a;stroke-width:0.791538"
       d="m 193.19769,214.77888 c 0.0388,-37.99129 0.33716,-60.46972 0.78639,-59.24172 0.39814,1.08836 8.14283,27.87121 17.21041,59.51744 l 16.48651,57.5386 -2.82734,0.41911 c -1.55503,0.2305 -7.63593,0.79291 -13.51309,1.2498 -5.87717,0.45689 -12.37768,1.0347 -14.44557,1.28402 l -3.7598,0.45331 z"
       id="path7253"
       transform="scale(0.26458333)" />
    <path
       style="fill:#1a1a1a;stroke-width:0.791538"
       d="m 169.38907,270.65385 c -10.66597,-2.32419 -19.79416,-4.33187 -20.28486,-4.4615 -0.5599,-0.14791 0.37994,-3.47836 2.52357,-8.9426 1.87866,-4.7888 11.64755,-29.70993 21.70865,-55.38028 10.06109,-25.67035 18.45362,-46.83409 18.65006,-47.03053 0.19645,-0.19644 0.35717,26.77279 0.35717,59.93162 v 60.28879 l -1.78096,-0.0899 c -0.97953,-0.0494 -10.50766,-1.99146 -21.17363,-4.31565 z"
       id="path7292"
       transform="scale(0.26458333)" />
    <path
       style="fill:#1a1a1a;stroke-width:0.791538"
       d="m 122.79627,265.75911 -23.242445,-0.22241 0.393827,-1.76886 c 0.216608,-0.97288 8.716648,-31.29597 18.888988,-67.38466 l 18.49515,-65.6158 0.58916,7.04201 c 0.53855,6.43701 9.30506,127.14123 9.30506,128.11935 0,0.23303 -0.26714,0.34024 -0.59365,0.23824 -0.32651,-0.102 -11.05275,-0.28554 -23.83609,-0.40787 z"
       id="path7331"
       transform="scale(0.26458333)" />
    <path
       style="fill:#1a1a1a;stroke-width:0.791538"
       d="m 147.71256,261.49873 c -0.41804,-2.05106 -9.76534,-131.53735 -9.5234,-131.9259 0.18389,-0.29534 52.7345,20.49972 53.56469,21.19635 0.47429,0.39797 -42.33046,111.22487 -43.37858,112.31262 -0.15437,0.16021 -0.45259,-0.55218 -0.66271,-1.58307 z"
       id="path7370"
       transform="scale(0.26458333)" />
    <path
       style="fill:#1a1a1a;stroke-width:0.791538"
       d="m 99.802221,253.68783 c -0.0221,-4.13578 0.480589,-27.46636 1.117069,-51.84572 0.63649,-24.37936 1.16441,-47.10477 1.17316,-50.50092 l 0.0159,-6.1748 2.5725,-1.1031 c 1.41487,-0.60671 9.15691,-4.12591 17.20453,-7.82044 8.04762,-3.69454 14.69622,-6.65284 14.77467,-6.574 0.0785,0.0788 -1.75033,6.91098 -4.06395,15.18255 -12.55529,44.8871 -21.05574,75.14252 -26.57533,94.58875 l -6.178381,21.76729 z"
       id="path7409"
       transform="scale(0.26458333)" />
    <path
       style="fill:#1a1a1a;stroke-width:0.791538"
       d="m 100.61043,139.11275 c -9.353539,-31.9335 -11.171087,-38.45112 -10.820502,-38.80171 0.223912,-0.22391 0.860961,-0.0327 1.415663,0.42494 0.928371,0.7659 20.028009,12.44893 37.619599,23.01147 4.02828,2.4187 7.05592,4.66506 6.72807,4.99189 -0.51726,0.51567 -32.59305,15.71629 -33.16393,15.71629 -0.11766,0 -0.91817,-2.4043 -1.7789,-5.34288 z"
       id="path7448"
       transform="scale(0.26458333)" />
    <path
       style="fill:#1a1a1a;stroke-width:0.791538"
       d="m 114.77297,114.29062 c -11.97201,-7.36013 -22.301579,-13.7246 -22.954597,-14.14327 -1.32401,-0.848875 53.866887,-0.917237 86.268917,-0.10686 l 19.38398,0.4848 -29.55074,13.65402 c -16.25291,7.50972 -29.96239,13.61787 -30.46551,13.57369 -0.50312,-0.0442 -10.71005,-6.10226 -22.68205,-13.46238 z"
       id="path7487"
       transform="scale(0.26458333)" />
    <path
       style="fill:#1a1a1a;stroke-width:0.791538"
       d="m 167.41022,140.07078 c -13.49571,-5.39712 -25.42815,-10.22676 -26.51651,-10.73254 -1.89642,-0.88128 -1.69861,-1.05004 4.74923,-4.05155 27.50765,-12.80499 53.27733,-24.38517 53.58354,-24.07896 0.48741,0.48741 -6.30818,48.80474 -6.85396,48.73233 -0.23355,-0.031 -11.46658,-4.47216 -24.9623,-9.86928 z"
       id="path7526"
       transform="scale(0.26458333)" />
    <path
       style="fill:#1a1a1a;stroke-width:0.791538"
       d="m 193.92674,147.72928 c 0,-0.88378 1.41083,-11.29945 3.13517,-23.14594 1.72435,-11.84649 2.99452,-21.76666 2.82261,-22.04482 -0.17191,-0.27816 -0.0417,-0.94408 0.28945,-1.47982 0.47095,-0.76201 5.49417,-0.52979 23.07375,1.06669 12.35946,1.12241 22.53503,2.11204 22.61238,2.19917 0.0774,0.0871 -10.17599,9.06322 -22.78519,19.94686 -32.33614,27.91096 -29.14817,25.34535 -29.14817,23.45786 z"
       id="path7565"
       transform="scale(0.26458333)" />
    <path
       style="fill:#1a1a1a;stroke-width:0.791538"
       d="m 195.90558,148.53929 c 5.07299,-4.86378 47.29116,-40.56357 47.6022,-40.25253 0.20613,0.20612 -4.89907,9.20592 -11.34488,19.99955 -10.15641,17.0071 -12.03639,19.71277 -14.09426,20.28446 -1.30604,0.36283 -7.18321,0.84568 -13.06038,1.073 -10.54976,0.40805 -10.66561,0.39399 -9.10268,-1.10448 z"
       id="path7604"
       transform="scale(0.26458333)" />
    <path
       style="fill:#1a1a1a;stroke-width:0.791538"
       d="m 224.67542,259.02881 c -1.15507,-4.0259 -5.86114,-20.32083 -10.45793,-36.21095 -4.5968,-15.89012 -11.15205,-38.56651 -14.56724,-50.39199 l -6.20944,-21.50087 9.14776,-0.4852 c 5.03127,-0.26686 11.01777,-0.67952 13.30334,-0.91703 3.36639,-0.34982 4.15557,-0.20521 4.15557,0.76148 0,0.65632 1.61615,26.06063 3.59145,56.45402 1.9753,30.39339 3.48911,56.23938 3.36403,57.43554 -0.15932,1.52369 -0.85618,-0.0167 -2.32754,-5.145 z"
       id="path7643"
       transform="scale(0.26458333)" />
    <path
       style="fill:#1a1a1a;stroke-width:0.791538"
       d="m 168.34383,270.0457 -18.85484,-4.08903 0.43662,-2.20083 c 0.37206,-1.87541 33.80326,-87.58967 39.58446,-101.49061 l 1.97514,-4.74923 0.0359,9.89422 c 0.0198,5.44182 0.27102,31.71098 0.55837,58.37591 l 0.52246,48.48168 -2.70164,-0.0666 c -1.4859,-0.0366 -11.18632,-1.9066 -21.55648,-4.15557 z"
       id="path7682"
       transform="scale(0.26458333)" />
    <path
       style="fill:#1a1a1a;stroke-width:0.791538"
       d="m 148.04096,260.4159 c -0.0136,-0.87069 -0.36993,-5.32309 -0.79183,-9.89422 -0.4219,-4.57113 -2.36744,-30.92933 -4.3234,-58.57379 -1.95597,-27.64445 -3.76248,-52.84503 -4.01448,-56.00129 -0.25199,-3.15626 -0.24675,-5.73865 0.0117,-5.73865 0.2584,0 12.18064,4.65464 26.49385,10.34365 l 26.02402,10.34365 -1.84534,4.89345 c -15.10942,40.06683 -39.3985,102.56256 -40.78029,104.92754 -0.65043,1.11325 -0.75273,1.07357 -0.77419,-0.30034 z"
       id="path7721"
       transform="scale(0.26458333)" />
    <path
       style="fill:#1a1a1a;stroke-width:0.791538"
       d="m 139.06502,91.263017 c -9.03032,-0.767674 -10.07858,-1.238412 -12.31613,-5.530748 -0.59645,-1.144175 -2.11026,-3.20344 -3.36404,-4.576146 -1.25377,-1.372704 -2.27958,-2.654836 -2.27958,-2.84918 0,-0.194345 -3.02344,-4.51022 -6.71876,-9.590833 -3.69532,-5.080615 -6.58925,-9.366998 -6.43095,-9.525297 0.1583,-0.158298 2.55841,1.261378 5.33357,3.154837 2.77517,1.893459 12.34769,8.392608 21.27228,14.442554 8.92459,6.049945 17.61568,11.995758 19.31355,13.212919 l 3.08703,2.213019 -4.67011,-0.111853 c -2.56855,-0.06152 -8.52064,-0.439191 -13.22686,-0.839272 z"
       id="path7760"
       transform="scale(0.26458333)" />
    <path
       style="fill:#1a1a1a;stroke-width:0.791538"
       d="M 134.51683,75.754145 C 121.2633,66.72467 109.53882,58.719974 108.46243,57.965932 c -1.87414,-1.312884 -0.91632,-1.370987 22.60078,-1.370987 h 24.55787 l 1.66842,17.611714 c 0.91763,9.686443 1.59108,17.691138 1.49654,17.788213 -0.0945,0.09708 -11.01568,-7.211252 -24.26921,-16.240727 z"
       id="path7799"
       transform="scale(0.26458333)" />
    <path
       style="fill:#1a1a1a;stroke-width:0.791538"
       d="m 106.65077,54.813986 c 0.4282,-0.544183 9.37585,-11.973442 19.88366,-25.398356 10.60126,-13.544293 19.26559,-23.9377536 19.46565,-23.3503621 0.19829,0.5822143 1.9907,9.9633701 3.98314,20.8470141 1.99244,10.883643 3.96812,21.497886 4.39039,23.587206 0.42228,2.089321 0.76778,4.137425 0.76778,4.551342 0,0.459624 -9.58943,0.752578 -24.63459,0.752578 -19.59521,0 -24.47532,-0.202402 -23.85603,-0.989422 z"
       id="path7838"
       transform="scale(0.26458333)" />
    <path
       style="fill:#1a1a1a;stroke-width:0.791538"
       d="m 108.44066,50.109845 c 0,-0.258179 5.20048,-10.998441 11.55662,-23.86725 L 131.5539,2.8447604 136.81746,3.320186 c 2.89496,0.261484 5.85008,0.6899888 6.56693,0.9522328 1.02196,0.3738564 -2.41835,5.2330954 -15.93344,22.5050892 -17.26479,22.064027 -19.01029,24.206371 -19.01029,23.332337 z"
       id="path7877"
       transform="scale(0.26458333)" />
    <path
       style="fill:#1a1a1a;stroke-width:0.791538"
       d="M 181.12811,19.158519 C 163.42289,11.254275 149.07643,4.5612602 149.24707,4.2851515 c 0.17065,-0.2761086 3.43668,-0.7413288 7.25786,-1.0338225 3.82118,-0.2924937 12.22918,-1.0698496 18.68443,-1.7274575 11.21669,-1.14266282 15.29277,-1.01558058 14.38787,0.4485783 -0.22814,0.3691422 0.46699,1.3647873 1.54474,2.2125447 1.07775,0.8477575 1.77477,1.726152 1.54893,1.9519879 -0.22583,0.2258358 0.49863,1.1258171 1.60992,1.9999586 1.11129,0.874141 2.02053,1.957472 2.02053,2.407402 0,0.44993 0.8784,1.509004 1.952,2.353499 1.0736,0.844494 1.76723,1.720219 1.54139,1.946055 -0.22583,0.225836 0.54666,1.163602 1.71667,2.083925 1.17,0.920322 1.87826,1.673314 1.57391,1.673314 -0.30435,0 1.62955,2.67144 4.29756,5.936533 2.668,3.265093 5.24359,5.936532 5.72353,5.936532 0.47994,0 0.63824,0.234371 0.35179,0.520825 -0.28645,0.286454 -0.12411,0.998837 0.36077,1.583075 0.48487,0.584238 0.57083,1.037393 0.19101,1.00701 -0.37981,-0.03038 -15.17666,-6.522349 -32.88187,-14.426592 z"
       id="path7916"
       transform="scale(0.26458333)" />
    <path
       style="fill:#1a1a1a;stroke-width:0.791538"
       d="m 153.53025,42.089273 c -1.40644,-7.476654 -3.54241,-18.758699 -4.7466,-25.071213 -1.20419,-6.312513 -2.0552,-11.6177888 -1.89114,-11.789502 0.30924,-0.3236553 66.7502,29.034193 67.8267,29.970152 0.33454,0.290868 -12.72076,5.018867 -29.01177,10.506665 l -29.62002,9.977815 z"
       id="path7955"
       transform="scale(0.26458333)" />
    <path
       style="fill:#1a1a1a;stroke-width:0.791538"
       d="m 159.80999,91.22472 c -0.47911,-1.17592 -3.49132,-34.355982 -3.15046,-34.702923 0.25339,-0.257904 11.85885,-4.321591 25.78991,-9.030413 13.93106,-4.708823 25.5073,-8.772114 25.72497,-9.029535 0.21768,-0.257422 1.10816,-0.508937 1.97885,-0.558922 0.87069,-0.04999 2.29546,-0.372998 3.16615,-0.717804 1.5459,-0.6122 -31.51868,33.54025 -45.8045,47.311526 -6.8524,6.605586 -7.51801,7.186813 -7.70492,6.728071 z"
       id="path7994"
       transform="scale(0.26458333)" />
    <path
       style="fill:#1a1a1a;stroke-width:0.791538"
       d="m 160.74627,92.651214 c 3.07894,-3.324991 54.90985,-54.959155 55.03896,-54.830042 0.21167,0.211665 -10.03762,51.510701 -10.35978,51.852092 -0.11912,0.126226 -8.18699,0.739165 -17.9286,1.362084 -9.74161,0.62292 -19.82031,1.321905 -22.39712,1.553302 -2.57681,0.231396 -4.53587,0.25955 -4.35346,0.06256 z"
       id="path8033"
       transform="scale(0.26458333)" />
  </g>
</svg>
