<?xml version="1.0" encoding="UTF-8" standalone="no"?>
<!-- Created with Inkscape (http://www.inkscape.org/) -->

<svg
   width="111.11706mm"
   height="190.0219mm"
   viewBox="0 0 111.11706 190.0219"
   version="1.1"
   id="svg10296"
   xmlns="http://www.w3.org/2000/svg"
   xmlns:svg="http://www.w3.org/2000/svg">
  <defs
     id="defs10293" />
  <g
     id="layer1">
    <g
       id="g7051"
       transform="matrix(0.26458333,0,0,0.26458333,-367.00989,-82.658743)">
      <polygon
         fill="#b67f7f"
         points="1668.236,928.147 1659.466,971.479 1535.436,925.903 "
         id="polygon6659" />
      <polygon
         fill="#bb8383"
         points="1535.436,925.903 1659.466,971.479 1561.669,970.623 "
         id="polygon6661" />
      <polygon
         fill="#aa7777"
         points="1659.466,971.479 1696.42,1013.53 1543.052,1004.564 "
         id="polygon6663" />
      <polygon
         fill="#906464"
         points="1561.669,970.623 1659.466,971.479 1543.052,1004.564 "
         id="polygon6665" />
      <polygon
         fill="#704e4e"
         points="1543.052,1004.564 1696.42,1013.53 1548.054,1029.623 "
         id="polygon6667" />
      <polygon
         fill="#916565"
         points="1621.62,890.935 1668.236,928.147 1535.436,925.903 "
         id="polygon6669" />
      <polygon
         fill="#c08787"
         points="1555.516,815.816 1621.62,890.935 1523.26,891.743 "
         id="polygon6671" />
      <polygon
         fill="#6b4b4b"
         points="1621.62,890.935 1535.436,925.903 1523.26,891.743 "
         id="polygon6673" />
      <polygon
         fill="#c88c8c"
         points="1555.516,815.816 1650.983,697.662 1621.62,890.935 "
         id="polygon6675" />
      <polygon
         fill="#c88c8c"
         points="1582.315,682.28 1650.983,697.662 1555.516,815.816 "
         id="polygon6677" />
      <polygon
         fill="#694949"
         points="1668.236,928.147 1621.62,890.935 1758.702,919.918 "
         id="polygon6679" />
      <polygon
         fill="#805959"
         points="1621.62,890.935 1702.371,890.103 1758.702,919.918 "
         id="polygon6681" />
      <polygon
         fill="#b98181"
         points="1650.983,697.662 1702.371,890.103 1621.62,890.935 "
         id="polygon6683" />
      <polygon
         fill="#b17c7c"
         points="1523.26,891.743 1484.307,842.834 1555.516,815.816 "
         id="polygon6685" />
      <polygon
         fill="#a97676"
         points="1555.516,815.816 1484.307,842.834 1499.538,717.5 "
         id="polygon6687" />
      <polygon
         fill="#4b3434"
         points="1741.279,1029.475 1696.42,1013.53 1775.713,1010.642 "
         id="polygon6689" />
      <polygon
         fill="#352525"
         points="1741.279,1029.475 1548.054,1029.623 1696.42,1013.53 "
         id="polygon6691" />
      <polygon
         fill="#8b6161"
         points="1561.669,970.623 1463.762,971.525 1535.436,925.903 "
         id="polygon6693" />
      <polygon
         fill="#6f4e4e"
         points="1561.669,970.623 1543.052,1004.564 1463.762,971.525 "
         id="polygon6695" />
      <polygon
         fill="#926666"
         points="1668.236,928.147 1758.702,919.918 1749.95,970.762 "
         id="polygon6697" />
      <polygon
         fill="#7d5858"
         points="1775.713,1010.642 1696.42,1013.53 1749.95,970.762 "
         id="polygon6699" />
      <polygon
         fill="#7a5656"
         points="1749.95,970.762 1696.42,1013.53 1659.466,971.479 "
         id="polygon6701" />
      <polygon
         fill="#916666"
         points="1668.236,928.147 1749.95,970.762 1659.466,971.479 "
         id="polygon6703" />
      <polygon
         fill="#ad7979"
         points="1650.983,697.662 1715.942,763.864 1702.371,890.103 "
         id="polygon6705" />
      <polygon
         fill="#8e6363"
         points="1436.787,924.765 1535.436,925.903 1463.762,971.525 "
         id="polygon6707" />
      <polygon
         fill="#6b4a4a"
         points="1436.787,924.765 1523.26,891.743 1535.436,925.903 "
         id="polygon6709" />
      <polygon
         fill="#604343"
         points="1417.034,1008.927 1543.052,1004.564 1548.054,1029.623 "
         id="polygon6711" />
      <polygon
         fill="#805a5a"
         points="1543.052,1004.564 1417.034,1008.927 1463.762,971.525 "
         id="polygon6713" />
      <polygon
         fill="#936666"
         points="1474.828,549.382 1555.516,815.816 1499.538,717.5 "
         id="polygon6715" />
      <polygon
         fill="#c48989"
         points="1474.828,549.382 1582.315,682.28 1555.516,815.816 "
         id="polygon6717" />
      <polygon
         fill="#bb8383"
         points="1560.701,543.446 1650.983,697.662 1582.315,682.28 "
         id="polygon6719" />
      <polygon
         fill="#bf8585"
         points="1474.828,549.382 1560.701,543.446 1582.315,682.28 "
         id="polygon6721" />
      <polygon
         fill="#cb8e8e"
         points="1474.828,549.382 1508.192,404.035 1560.701,543.446 "
         id="polygon6723" />
      <polygon
         fill="#c88c8c"
         points="1508.192,404.035 1474.828,549.382 1448.507,435.406 "
         id="polygon6725" />
      <polygon
         fill="#c48989"
         points="1448.507,435.406 1507.542,343.314 1508.192,404.035 "
         id="polygon6727" />
      <polygon
         fill="#cb8e8e"
         points="1508.192,404.035 1744.553,439.031 1560.701,543.446 "
         id="polygon6729" />
      <polygon
         fill="#473232"
         points="1523.26,891.743 1436.787,924.765 1472.545,891.41 "
         id="polygon6731" />
      <polygon
         fill="#6d4c4c"
         points="1484.307,842.834 1523.26,891.743 1472.545,891.41 "
         id="polygon6733" />
      <polygon
         fill="#ca8d8d"
         points="1680.791,512.195 1744.553,439.031 1757.122,494.412 "
         id="polygon6735" />
      <polygon
         fill="#b07b7b"
         points="1744.553,439.031 1680.791,512.195 1560.701,543.446 "
         id="polygon6737" />
      <polygon
         fill="#c08787"
         points="1507.542,343.314 1596.433,392.028 1508.192,404.035 "
         id="polygon6739" />
      <polygon
         fill="#966969"
         points="1508.192,404.035 1596.433,392.028 1744.553,439.031 "
         id="polygon6741" />
      <polygon
         fill="#916565"
         points="1650.983,697.662 1719.426,660.879 1715.942,763.864 "
         id="polygon6743" />
      <polygon
         fill="#926666"
         points="1680.791,512.195 1631.413,547.96 1560.701,543.446 "
         id="polygon6745" />
      <polygon
         fill="#906565"
         points="1650.983,697.662 1631.413,547.96 1719.426,660.879 "
         id="polygon6747" />
      <polygon
         fill="#9e6e6e"
         points="1560.701,543.446 1631.413,547.96 1650.983,697.662 "
         id="polygon6749" />
      <polygon
         fill="#674848"
         points="1499.538,717.5 1484.307,842.834 1448.423,831.64 "
         id="polygon6751" />
      <polygon
         fill="#5a3f3f"
         points="1448.423,831.64 1484.307,842.834 1472.545,891.41 "
         id="polygon6753" />
      <polygon
         fill="#8d6262"
         points="1744.553,439.031 1596.433,392.028 1766.622,420.155 "
         id="polygon6755" />
      <polygon
         fill="#926666"
         points="1744.553,439.031 1766.622,420.155 1757.122,494.412 "
         id="polygon6757" />
      <polygon
         fill="#5b3f3f"
         points="1471.023,712.14 1499.538,717.5 1448.423,831.64 "
         id="polygon6759" />
      <polygon
         fill="#785454"
         points="1715.942,763.864 1719.426,660.879 1763.764,790.547 "
         id="polygon6761" />
      <polygon
         fill="#875e5e"
         points="1763.764,790.547 1702.371,890.103 1715.942,763.864 "
         id="polygon6763" />
      <polygon
         fill="#704e4e"
         points="1448.507,435.406 1469.557,364.69 1507.542,343.314 "
         id="polygon6765" />
      <polygon
         fill="#624545"
         points="1469.557,364.69 1448.507,435.406 1417.695,445.217 "
         id="polygon6767" />
      <polygon
         fill="#916565"
         points="1417.695,445.217 1474.828,549.382 1499.538,717.5 "
         id="polygon6769" />
      <polygon
         fill="#7f5858"
         points="1448.507,435.406 1474.828,549.382 1417.695,445.217 "
         id="polygon6771" />
      <polygon
         fill="#563c3c"
         points="1417.695,445.217 1499.538,717.5 1471.023,712.14 "
         id="polygon6773" />
      <polygon
         fill="#624545"
         points="1702.371,890.103 1763.764,790.547 1750.181,889.983 "
         id="polygon6775" />
      <polygon
         fill="#362626"
         points="1758.702,919.918 1702.371,890.103 1750.181,889.983 "
         id="polygon6777" />
      <polygon
         fill="#535353"
         points="1469.557,364.69 1555.523,355.005 1507.542,343.314 "
         id="polygon6779" />
      <polygon
         fill="#412d2d"
         points="1596.433,392.028 1507.542,343.314 1555.523,355.005 "
         id="polygon6781" />
      <polygon
         fill="#c38888"
         points="1555.523,355.005 1469.557,364.69 1559.465,312.411 "
         id="polygon6783" />
      <polygon
         fill="#a87575"
         points="1417.695,445.217 1432.744,338.25 1469.557,364.69 "
         id="polygon6785" />
      <polygon
         fill="#966969"
         points="1432.744,338.25 1559.465,312.411 1469.557,364.69 "
         id="polygon6787" />
      <polygon
         fill="#885f5f"
         points="1471.023,712.14 1448.423,831.64 1441.175,709.172 "
         id="polygon6789" />
      <polygon
         fill="#865e5e"
         points="1471.023,712.14 1441.175,709.172 1417.695,445.217 "
         id="polygon6791" />
      <polygon
         fill="#291d1d"
         points="1794.831,928.06 1758.702,919.918 1750.181,889.983 "
         id="polygon6793" />
      <polygon
         fill="#432f2f"
         points="1794.831,928.06 1749.95,970.762 1758.702,919.918 "
         id="polygon6795" />
      <polygon
         fill="#926666"
         points="1387.124,452.024 1432.744,338.25 1417.695,445.217 "
         id="polygon6797" />
      <polygon
         fill="#9d6e6e"
         points="1387.124,452.024 1417.695,445.217 1441.175,709.172 "
         id="polygon6799" />
      <polygon
         fill="#463131"
         points="1733.838,400.617 1766.622,420.155 1596.433,392.028 "
         id="polygon6801" />
      <polygon
         fill="#755252"
         points="1441.175,709.172 1448.423,831.64 1419.803,819.434 "
         id="polygon6803" />
      <polygon
         fill="#2d1f1f"
         points="1463.762,971.525 1417.258,924.088 1436.787,924.765 "
         id="polygon6805" />
      <polygon
         fill="#241919"
         points="1436.787,924.765 1417.258,924.088 1472.545,891.41 "
         id="polygon6807" />
      <polygon
         fill="#322323"
         points="1622.752,384.4 1733.838,400.617 1596.433,392.028 "
         id="polygon6809" />
      <polygon
         fill="#4b3535"
         points="1555.523,355.005 1622.752,384.4 1596.433,392.028 "
         id="polygon6811" />
      <polygon
         fill="#573d3d"
         points="1680.791,512.195 1757.122,494.412 1736.61,528.54 "
         id="polygon6813" />
      <polygon
         fill="#322323"
         points="1807.094,1010.015 1775.713,1010.642 1749.95,970.762 "
         id="polygon6815" />
      <polygon
         fill="#211717"
         points="1741.279,1029.475 1775.713,1010.642 1807.094,1010.015 "
         id="polygon6817" />
      <polygon
         fill="#8b8b8b"
         points="1432.744,338.25 1387.124,452.024 1432.872,396.157 "
         id="polygon6819" />
      <polygon
         fill="#231818"
         points="1767.629,970.389 1749.95,970.762 1794.831,928.06 "
         id="polygon6821" />
      <polygon
         fill="#201616"
         points="1807.094,1010.015 1749.95,970.762 1767.629,970.389 "
         id="polygon6823" />
      <polygon
         points="1417.258,924.088 1468.309,890.461 1472.545,891.41 "
         id="polygon6825" />
      <polygon
         fill="#241919"
         points="1463.762,971.525 1417.034,1008.927 1442.631,969.057 "
         id="polygon6827" />
      <polygon
         fill="#261a1a"
         points="1463.762,971.525 1442.631,969.057 1417.258,924.088 "
         id="polygon6829" />
      <polygon
         fill="#2f2121"
         points="1719.426,660.879 1757.916,736.015 1763.764,790.547 "
         id="polygon6831" />
      <polygon
         fill="#999999"
         points="1425.066,483.155 1387.124,452.024 1441.175,709.172 "
         id="polygon6833" />
      <polygon
         fill="#acacac"
         points="1387.124,452.024 1425.066,483.155 1432.872,396.157 "
         id="polygon6835" />
      <polygon
         fill="#7c7c7c"
         points="1555.523,355.005 1559.465,312.411 1523.397,348.058 "
         id="polygon6837" />
      <polygon
         fill="#232323"
         points="1523.397,348.058 1622.752,384.4 1555.523,355.005 "
         id="polygon6839" />
      <polygon
         fill="#858585"
         points="1559.465,312.411 1432.744,338.25 1523.397,348.058 "
         id="polygon6841" />
      <polygon
         fill="#b4b4b4"
         points="1432.872,396.157 1523.397,348.058 1432.744,338.25 "
         id="polygon6843" />
      <polygon
         points="1736.61,528.54 1684.727,517.13 1680.791,512.195 "
         id="polygon6845" />
      <polygon
         fill="#868686"
         points="1419.803,819.434 1470.317,715.7 1441.175,709.172 "
         id="polygon6847" />
      <polygon
         fill="#808080"
         points="1425.066,483.155 1441.175,709.172 1470.317,715.7 "
         id="polygon6849" />
      <polygon
         fill="#1a1212"
         points="1684.727,517.13 1629.101,551.35 1680.791,512.195 "
         id="polygon6851" />
      <polygon
         points="1680.791,512.195 1629.101,551.35 1631.413,547.96 "
         id="polygon6853" />
      <polygon
         fill="#251a1a"
         points="1548.054,1029.623 1425.037,1027.272 1417.034,1008.927 "
         id="polygon6855" />
      <polygon
         points="1719.426,660.879 1631.413,547.96 1712.786,646.346 "
         id="polygon6857" />
      <polygon
         fill="#ee9999"
         points="1712.786,646.346 1757.916,736.015 1719.426,660.879 "
         id="polygon6859" />
      <polygon
         fill="#161616"
         points="1712.786,646.346 1631.413,547.96 1629.101,551.35 "
         id="polygon6861" />
      <polygon
         fill="#271b1b"
         points="1766.622,420.155 1774.251,465.204 1757.122,494.412 "
         id="polygon6863" />
      <polygon
         fill="#dddddd"
         points="1757.122,494.412 1774.251,465.204 1736.61,528.54 "
         id="polygon6865" />
      <polygon
         fill="#848484"
         points="1470.317,715.7 1419.803,819.434 1450.919,839.778 "
         id="polygon6867" />
      <polygon
         fill="#191111"
         points="1448.423,831.64 1450.919,839.778 1419.803,819.434 "
         id="polygon6869" />
      <polygon
         fill="#ee9999"
         points="1450.919,839.778 1448.423,831.64 1472.545,891.41 "
         id="polygon6871" />
      <polygon
         points="1450.919,839.778 1472.545,891.41 1468.309,890.461 "
         id="polygon6873" />
      <polygon
         fill="#ffaaaa"
         points="1421.983,998.428 1442.631,969.057 1417.034,1008.927 "
         id="polygon6875" />
      <polygon
         fill="#151515"
         points="1421.983,998.428 1417.034,1008.927 1425.037,1027.272 "
         id="polygon6877" />
      <polygon
         fill="#555555"
         points="1622.752,384.4 1751.034,427.067 1733.838,400.617 "
         id="polygon6879" />
      <polygon
         fill="#2a2a2a"
         points="1751.034,427.067 1766.622,420.155 1733.838,400.617 "
         id="polygon6881" />
      <polygon
         fill="#2d2d2d"
         points="1766.622,420.155 1751.034,427.067 1774.251,465.204 "
         id="polygon6883" />
      <polygon
         fill="#202020"
         points="1763.764,790.547 1750.446,814.148 1750.181,889.983 "
         id="polygon6885" />
      <polygon
         fill="#242424"
         points="1757.916,736.015 1750.446,814.148 1763.764,790.547 "
         id="polygon6887" />
      <polygon
         fill="#595959"
         points="1729.442,503.818 1684.727,517.13 1736.61,528.54 "
         id="polygon6889" />
      <polygon
         fill="#515151"
         points="1774.251,465.204 1729.442,503.818 1736.61,528.54 "
         id="polygon6891" />
      <polygon
         fill="#aeaeae"
         points="1729.442,503.818 1774.251,465.204 1751.034,427.067 "
         id="polygon6893" />
      <polygon
         fill="#767676"
         points="1664.33,491.371 1684.727,517.13 1729.442,503.818 "
         id="polygon6895" />
      <polygon
         fill="#949494"
         points="1684.727,517.13 1664.33,491.371 1629.101,551.35 "
         id="polygon6897" />
      <polygon
         fill="#cbcbcb"
         points="1597.889,412.481 1664.33,491.371 1729.442,503.818 "
         id="polygon6899" />
      <polygon
         fill="#cbcbcb"
         points="1751.034,427.067 1597.889,412.481 1729.442,503.818 "
         id="polygon6901" />
      <polygon
         fill="#646464"
         points="1597.889,412.481 1751.034,427.067 1622.752,384.4 "
         id="polygon6903" />
      <polygon
         fill="#dddddd"
         points="1750.385,1030.604 1425.037,1027.272 1548.054,1029.623 "
         id="polygon6905" />
      <polygon
         points="1807.094,1010.015 1750.385,1030.604 1741.279,1029.475 "
         id="polygon6907" />
      <polygon
         fill="#ee9999"
         points="1750.385,1030.604 1548.054,1029.623 1741.279,1029.475 "
         id="polygon6909" />
      <polygon
         fill="#616161"
         points="1451.722,430.648 1432.872,396.157 1425.066,483.155 "
         id="polygon6911" />
      <polygon
         fill="#717171"
         points="1506.492,354.368 1597.889,412.481 1622.752,384.4 "
         id="polygon6913" />
      <polygon
         fill="#808080"
         points="1506.492,354.368 1432.872,396.157 1451.722,430.648 "
         id="polygon6915" />
      <polygon
         fill="#c9c9c9"
         points="1597.889,412.481 1506.492,354.368 1664.33,491.371 "
         id="polygon6917" />
      <polygon
         fill="#454545"
         points="1523.397,348.058 1506.492,354.368 1622.752,384.4 "
         id="polygon6919" />
      <polygon
         fill="#171010"
         points="1506.492,354.368 1523.397,348.058 1432.872,396.157 "
         id="polygon6921" />
      <polygon
         fill="#cacaca"
         points="1664.33,491.371 1506.492,354.368 1567.264,548.936 "
         id="polygon6923" />
      <polygon
         fill="#8f8f8f"
         points="1629.101,551.35 1664.33,491.371 1567.264,548.936 "
         id="polygon6925" />
      <polygon
         fill="#cbcbcb"
         points="1567.264,548.936 1506.492,354.368 1473.362,549.808 "
         id="polygon6927" />
      <polygon
         fill="#c9c9c9"
         points="1506.492,354.368 1451.722,430.648 1473.362,549.808 "
         id="polygon6929" />
      <polygon
         fill="#828282"
         points="1451.722,430.648 1425.066,483.155 1473.362,549.808 "
         id="polygon6931" />
      <polygon
         fill="#494949"
         points="1750.181,889.983 1750.446,814.148 1711.647,890.689 "
         id="polygon6933" />
      <polygon
         fill="#3b3b3b"
         points="1453.93,925.476 1468.309,890.461 1417.258,924.088 "
         id="polygon6935" />
      <polygon
         fill="#4d4d4d"
         points="1442.631,969.057 1453.93,925.476 1417.258,924.088 "
         id="polygon6937" />
      <polygon
         fill="#656565"
         points="1712.786,646.346 1691.001,684.224 1757.916,736.015 "
         id="polygon6939" />
      <polygon
         fill="#767676"
         points="1757.916,736.015 1691.001,684.224 1750.446,814.148 "
         id="polygon6941" />
      <polygon
         fill="#737373"
         points="1629.101,551.35 1691.001,684.224 1712.786,646.346 "
         id="polygon6943" />
      <polygon
         fill="#8d8d8d"
         points="1691.001,684.224 1629.101,551.35 1567.264,548.936 "
         id="polygon6945" />
      <polygon
         fill="#575757"
         points="1470.317,715.7 1503.191,717.532 1425.066,483.155 "
         id="polygon6947" />
      <polygon
         fill="#585858"
         points="1470.317,715.7 1450.919,839.778 1503.191,717.532 "
         id="polygon6949" />
      <polygon
         fill="#8d8d8d"
         points="1473.362,549.808 1425.066,483.155 1503.191,717.532 "
         id="polygon6951" />
      <polygon
         fill="#686868"
         points="1450.919,839.778 1468.309,890.461 1526.671,891.076 "
         id="polygon6953" />
      <polygon
         fill="#464646"
         points="1468.309,890.461 1453.93,925.476 1526.671,891.076 "
         id="polygon6955" />
      <polygon
         fill="#313131"
         points="1751.71,924.437 1794.831,928.06 1750.181,889.983 "
         id="polygon6957" />
      <polygon
         fill="#595959"
         points="1719.752,971.197 1767.629,970.389 1751.71,924.437 "
         id="polygon6959" />
      <polygon
         fill="#333333"
         points="1751.71,924.437 1750.181,889.983 1711.647,890.689 "
         id="polygon6961" />
      <polygon
         fill="#4c4c4c"
         points="1751.71,924.437 1767.629,970.389 1794.831,928.06 "
         id="polygon6963" />
      <polygon
         fill="#505050"
         points="1719.752,971.197 1755.597,1010.144 1767.629,970.389 "
         id="polygon6965" />
      <polygon
         fill="#3b3b3b"
         points="1807.094,1010.015 1755.597,1010.144 1750.385,1030.604 "
         id="polygon6967" />
      <polygon
         fill="#4c4c4c"
         points="1755.597,1010.144 1807.094,1010.015 1767.629,970.389 "
         id="polygon6969" />
      <polygon
         fill="#757575"
         points="1450.919,839.778 1500.916,837.611 1503.191,717.532 "
         id="polygon6971" />
      <polygon
         fill="#6b6b6b"
         points="1526.671,891.076 1500.916,837.611 1450.919,839.778 "
         id="polygon6973" />
      <polygon
         fill="#575757"
         points="1421.983,998.428 1473.637,1005.195 1442.631,969.057 "
         id="polygon6975" />
      <polygon
         fill="#676767"
         points="1425.037,1027.272 1473.637,1005.195 1421.983,998.428 "
         id="polygon6977" />
      <polygon
         fill="#646464"
         points="1442.631,969.057 1525.515,972.081 1453.93,925.476 "
         id="polygon6979" />
      <polygon
         fill="#565656"
         points="1473.637,1005.195 1525.515,972.081 1442.631,969.057 "
         id="polygon6981" />
      <polygon
         fill="#aeaeae"
         points="1590.264,680.242 1691.001,684.224 1567.264,548.936 "
         id="polygon6983" />
      <polygon
         fill="#bababa"
         points="1567.264,548.936 1473.362,549.808 1590.264,680.242 "
         id="polygon6985" />
      <polygon
         fill="#515151"
         points="1540.859,1026.985 1473.637,1005.195 1425.037,1027.272 "
         id="polygon6987" />
      <polygon
         fill="#ffffff"
         points="1750.385,1030.604 1540.859,1026.985 1425.037,1027.272 "
         id="polygon6989" />
      <polygon
         fill="#b0b0b0"
         points="1633.578,803.629 1633.74,893.89 1711.647,890.689 "
         id="polygon6991" />
      <polygon
         fill="#bebebe"
         points="1691.001,684.224 1590.264,680.242 1633.578,803.629 "
         id="polygon6993" />
      <polygon
         fill="#a6a6a6"
         points="1711.647,890.689 1750.446,814.148 1633.578,803.629 "
         id="polygon6995" />
      <polygon
         fill="#a6a6a6"
         points="1750.446,814.148 1691.001,684.224 1633.578,803.629 "
         id="polygon6997" />
      <polygon
         fill="#adadad"
         points="1633.74,893.89 1549.546,829.455 1526.671,891.076 "
         id="polygon6999" />
      <polygon
         fill="#cbcbcb"
         points="1633.578,803.629 1590.264,680.242 1549.546,829.455 "
         id="polygon7001" />
      <polygon
         fill="#c0c0c0"
         points="1590.264,680.242 1473.362,549.808 1549.546,829.455 "
         id="polygon7003" />
      <polygon
         fill="#a7a7a7"
         points="1526.671,891.076 1549.546,829.455 1500.916,837.611 "
         id="polygon7005" />
      <polygon
         fill="#acacac"
         points="1500.916,837.611 1549.546,829.455 1503.191,717.532 "
         id="polygon7007" />
      <polygon
         fill="#c6c6c6"
         points="1633.578,803.629 1549.546,829.455 1633.74,893.89 "
         id="polygon7009" />
      <polygon
         fill="#969696"
         points="1473.362,549.808 1503.191,717.532 1549.546,829.455 "
         id="polygon7011" />
      <polygon
         fill="#757575"
         points="1453.93,925.476 1543.752,924.951 1526.671,891.076 "
         id="polygon7013" />
      <polygon
         fill="#9d9d9d"
         points="1525.515,972.081 1543.752,924.951 1453.93,925.476 "
         id="polygon7015" />
      <polygon
         fill="#adadad"
         points="1639.521,971.512 1543.752,924.951 1525.515,972.081 "
         id="polygon7017" />
      <polygon
         fill="#717171"
         points="1643.519,922.505 1751.71,924.437 1711.647,890.689 "
         id="polygon7019" />
      <polygon
         fill="#a8a8a8"
         points="1639.521,971.512 1719.752,971.197 1643.519,922.505 "
         id="polygon7021" />
      <polygon
         fill="#6f6f6f"
         points="1543.752,924.951 1643.519,922.505 1526.671,891.076 "
         id="polygon7023" />
      <polygon
         fill="#6b6b6b"
         points="1643.519,922.505 1711.647,890.689 1633.74,893.89 "
         id="polygon7025" />
      <polygon
         fill="#777777"
         points="1643.519,922.505 1633.74,893.89 1526.671,891.076 "
         id="polygon7027" />
      <polygon
         fill="#bababa"
         points="1643.519,922.505 1543.752,924.951 1639.521,971.512 "
         id="polygon7029" />
      <polygon
         fill="#a8a8a8"
         points="1751.71,924.437 1643.519,922.505 1719.752,971.197 "
         id="polygon7031" />
      <polygon
         fill="#898989"
         points="1664.124,1012.886 1719.752,971.197 1639.521,971.512 "
         id="polygon7033" />
      <polygon
         fill="#484848"
         points="1664.124,1012.886 1750.385,1030.604 1755.597,1010.144 "
         id="polygon7035" />
      <polygon
         fill="#8e8e8e"
         points="1664.124,1012.886 1755.597,1010.144 1719.752,971.197 "
         id="polygon7037" />
      <polygon
         fill="#313131"
         points="1664.124,1012.886 1540.859,1026.985 1750.385,1030.604 "
         id="polygon7039" />
      <polygon
         fill="#a2a2a2"
         points="1556.02,1005.183 1664.124,1012.886 1639.521,971.512 "
         id="polygon7041" />
      <polygon
         fill="#838383"
         points="1556.02,1005.183 1639.521,971.512 1525.515,972.081 "
         id="polygon7043" />
      <polygon
         fill="#929292"
         points="1556.02,1005.183 1525.515,972.081 1473.637,1005.195 "
         id="polygon7045" />
      <polygon
         fill="#777777"
         points="1556.02,1005.183 1540.859,1026.985 1664.124,1012.886 "
         id="polygon7047" />
      <polygon
         fill="#818181"
         points="1556.02,1005.183 1473.637,1005.195 1540.859,1026.985 "
         id="polygon7049" />
    </g>
  </g>
  <g
     id="layer4"
     style="opacity:0.69">
    <path
       style="fill:#000000;stroke-width:0.998878"
       d="m 42.163196,713.29423 c 0.708389,-0.77149 1.512727,-1.33749 1.787418,-1.25778 1.012622,0.29383 9.988776,-3.52335 9.988776,-4.24781 0,-0.41238 0.59832,-0.74978 1.329599,-0.74978 0.731279,0 7.794067,-3.03362 15.695084,-6.74137 9.658754,-4.53262 15.195871,-6.59788 16.899918,-6.30342 1.393937,0.24087 15.537519,4.66043 31.430179,9.82124 l 28.89575,9.3833 -17.90809,0.62448 c -9.84946,0.34347 -33.995266,0.68059 -53.657357,0.74916 -30.644237,0.10687 -35.565332,-0.0756 -34.461277,-1.27802 z"
       id="path11449"
       transform="scale(0.26458333)" />
    <path
       style="fill:#000000;stroke-width:0.998878"
       d="m 36.920259,700.70904 c -0.707535,-7.14396 -1.041066,-13.23437 -0.741181,-13.53426 0.299885,-0.29988 11.039017,0.82548 23.864738,2.5008 12.825721,1.67532 23.778656,3.05365 24.339856,3.06296 0.5612,0.009 -9.40982,4.72901 -22.157823,10.48822 -12.748001,5.7592 -23.367404,10.47128 -23.598673,10.47128 -0.231269,0 -0.999382,-5.84505 -1.706917,-12.989 z"
       id="path11488"
       transform="scale(0.26458333)" />
    <path
       style="fill:#000000;stroke-width:0.998878"
       d="m 77.413014,691.20065 c -0.549383,-0.2004 -8.640291,-1.30671 -17.979797,-2.45846 -9.339505,-1.15175 -18.430327,-2.34866 -20.201825,-2.6598 l -3.220906,-0.5657 7.715855,-11.17224 c 4.243721,-6.14473 8.642851,-12.43581 9.775845,-13.98017 l 2.05999,-2.80794 12.34544,14.33629 c 6.789992,7.88495 13.476133,15.57239 14.858091,17.08319 l 2.512651,2.74692 -3.433233,-0.0789 c -1.888278,-0.0434 -3.882728,-0.24283 -4.432111,-0.44323 z"
       id="path11527"
       transform="scale(0.26458333)" />
    <path
       style="fill:#000000;stroke-width:0.998878"
       d="m 121.86307,703.72768 -29.466892,-9.77374 11.487092,-0.36644 c 6.3179,-0.20155 23.26544,-0.23982 37.6612,-0.0851 l 26.1741,0.2814 -7.01892,9.9571 c -3.8604,5.47641 -7.54784,9.91286 -8.1943,9.85879 -0.64647,-0.0541 -14.43549,-4.4965 -30.64228,-9.87205 z"
       id="path11566"
       transform="scale(0.26458333)" />
    <path
       style="fill:#000000;stroke-width:0.998878"
       d="m 93.489913,688.92523 c 3.244125,-2.08801 14.640987,-9.36227 25.326367,-16.16501 l 19.42797,-12.36863 8.83452,9.42259 c 4.85899,5.18242 11.5579,12.45668 14.88647,16.16501 l 6.05193,6.74243 H 127.80434 87.591504 Z"
       id="path11605"
       transform="scale(0.26458333)" />
    <path
       style="fill:#000000;stroke-width:0.998878"
       d="m 161.97909,703.45258 7.0335,-10.24547 49.32533,3.47108 c 27.12893,1.90909 48.99629,3.75261 48.59414,4.09671 -0.58154,0.49759 -108.72647,13.08876 -111.29709,12.95817 -0.37916,-0.0193 2.47569,-4.64549 6.34412,-10.28049 z"
       id="path11644"
       transform="scale(0.26458333)" />
    <path
       style="fill:#000000;stroke-width:0.998878"
       d="m 222.7497,696.18562 c -24.44752,-1.8011 -45.96587,-3.4297 -47.81855,-3.61909 -2.74232,-0.28034 4.00585,-3.31531 36.30121,-16.3264 21.81834,-8.79012 39.97733,-16.09836 40.35331,-16.24054 0.49762,-0.18817 20.20755,32.03928 23.83055,38.96501 0.55786,1.06641 -3.06672,0.87516 -52.66652,-2.77898 z"
       id="path11683"
       transform="scale(0.26458333)" />
    <path
       style="fill:#000000;stroke-width:0.998878"
       d="m 279.68573,699.46279 c 0,-0.2776 11.92317,-9.36683 26.49593,-20.1983 l 26.49593,-19.69357 6.71675,7.31022 c 3.69421,4.02061 11.50893,12.49088 17.36605,18.82282 l 10.6493,11.5126 -18.14088,0.62932 c -41.37637,1.43536 -69.58308,2.0908 -69.58308,1.61691 z"
       id="path11722"
       transform="scale(0.26458333)" />
    <path
       style="fill:#000000;stroke-width:0.998878"
       d="m 343.61389,713.64528 c -10.16358,-2.12318 -28.12541,-5.78923 -39.91519,-8.14677 l -21.43595,-4.28644 10.4483,-0.63387 c 5.74657,-0.34863 17.661,-0.66908 26.47653,-0.71211 8.81553,-0.043 16.31365,-0.36365 16.6625,-0.71249 0.64971,-0.64972 30.87449,-0.63519 31.52483,0.0152 0.46399,0.464 -3.8503,16.81591 -4.66514,17.68167 -0.33915,0.36035 -8.9323,-1.08196 -19.09588,-3.20514 z"
       id="path11761"
       transform="scale(0.26458333)" />
    <path
       style="fill:#000000;stroke-width:0.998878"
       d="m 364.95878,713.44833 c 0.29229,-1.7855 1.28327,-6.0557 2.20217,-9.48934 l 1.67074,-6.24299 24.09986,0.0811 c 21.26602,0.0716 23.74748,0.24247 21.10322,1.45326 -1.64815,0.75468 -3.55851,1.39241 -4.24523,1.41719 -0.68673,0.0248 -1.2486,0.52108 -1.2486,1.10288 0,0.58181 -0.38934,0.81721 -0.8652,0.52311 -0.47585,-0.29409 -10.02762,2.81952 -21.22615,6.91914 -11.19852,4.09962 -20.73474,7.46018 -21.1916,7.46791 -0.45685,0.008 -0.5915,-1.4468 -0.29921,-3.23229 z"
       id="path11800"
       transform="scale(0.26458333)" />
    <path
       style="fill:#000000;stroke-width:0.998878"
       d="m 262.20537,716.09572 c -39.55555,-0.71876 -78.43686,-1.4399 -86.40291,-1.60253 l -14.48373,-0.29571 17.23064,-1.90062 c 9.47685,-1.04535 17.2331,-2.16908 17.23612,-2.4972 0.003,-0.32811 2.81235,-0.64392 6.24298,-0.70181 3.43063,-0.0579 18.59862,-1.55565 33.70664,-3.32838 15.10803,-1.77272 30.6156,-3.56897 34.46128,-3.99167 5.52901,-0.60771 9.7094,-0.27504 19.97755,1.58981 10.01675,1.81919 32.85316,6.3886 43.95062,8.79422 0.54938,0.11909 2.79685,0.57359 4.99439,1.00999 2.19753,0.4364 7.14197,1.60757 10.98765,2.6026 l 6.99214,1.80914 -11.48709,-0.0905 c -6.3179,-0.0498 -43.85073,-0.67858 -83.40628,-1.39734 z"
       id="path11839"
       transform="scale(0.26458333)" />
    <path
       style="fill:#000000;stroke-width:0.998878"
       d="m 267.12556,682.97762 c -5.37366,-9.19944 -10.63841,-17.98825 -11.69944,-19.53069 -1.06103,-1.54243 -1.72481,-3.00876 -1.47506,-3.25851 0.24975,-0.24975 17.45553,-0.33624 38.23507,-0.19221 l 37.78097,0.26188 -25.39041,19.03058 c -13.96472,10.46682 -25.90575,19.34212 -26.53562,19.7229 -0.73403,0.44374 -4.65324,-5.31324 -10.91551,-16.03395 z"
       id="path11878"
       transform="scale(0.26458333)" />
    <path
       style="fill:#000000;stroke-width:0.998878"
       d="m 350.9415,677.8929 -17.1449,-18.63368 22.53635,-0.26885 c 12.395,-0.14787 22.69125,-0.11396 22.88057,0.0754 0.34932,0.34932 -10.16,36.52786 -10.7863,37.13206 -0.18745,0.18084 -8.05603,-8.05636 -17.48572,-18.30489 z"
       id="path11917"
       transform="scale(0.26458333)" />
    <path
       style="fill:#000000;stroke-width:0.998878"
       d="m 368.79569,697.12971 c 0.29099,-0.50161 2.90563,-8.77818 5.81032,-18.39238 2.90468,-9.6142 5.56128,-17.80852 5.90354,-18.2096 0.34227,-0.40108 8.91989,7.57746 19.06139,17.73008 l 18.43908,18.45932 h -9.57011 c -5.26356,0 -16.45583,0.29803 -24.8717,0.6623 -9.15104,0.39609 -15.08893,0.29571 -14.77252,-0.24972 z"
       id="path11956"
       transform="scale(0.26458333)" />
    <path
       style="fill:#000000;stroke-width:0.998878"
       d="m 335.31142,655.89519 c 12.39397,-18.83132 28.81072,-41.94331 29.36916,-41.34676 0.7945,0.84873 15.03978,42.42863 14.64437,42.74481 -0.13799,0.11035 -10.50469,0.45963 -23.0371,0.77617 l -22.78621,0.57553 z"
       id="path11995"
       transform="scale(0.26458333)" />
    <path
       style="fill:#000000;stroke-width:0.998878"
       d="m 372.82562,634.61731 c -3.98602,-11.621 -7.02881,-21.34759 -6.76175,-21.61466 0.47248,-0.47247 39.69351,2.68551 40.24874,3.24073 0.42295,0.42295 -24.94622,39.521 -25.63737,39.51139 -0.33127,-0.005 -3.8636,-9.51647 -7.84962,-21.13746 z"
       id="path12034"
       transform="scale(0.26458333)" />
    <path
       style="fill:#000000;stroke-width:0.998878"
       d="m 386.39003,613.52014 c -1.2181,-0.43427 -4.2615,-0.76115 -6.76311,-0.7264 -2.50161,0.0348 -6.90823,-0.229 -9.79249,-0.5861 l -5.24411,-0.64928 -0.0812,-4.11815 c -0.0446,-2.26498 -0.21852,-5.24188 -0.38643,-6.61533 -1.11925,-9.1555 -1.35299,-22.98258 -0.37831,-22.3802 0.59637,0.36858 10.50368,8.71623 22.01625,18.55034 l 20.93194,17.8802 -9.04393,-0.28275 c -4.97416,-0.15551 -10.04055,-0.63806 -11.25866,-1.07233 z"
       id="path12073"
       transform="scale(0.26458333)" />
    <path
       style="fill:#000000;stroke-width:0.998878"
       d="m 343.78087,541.80141 18.31226,-36.36934 0.26267,35.36396 c 0.14447,19.45018 0.0942,35.53242 -0.11168,35.73831 -0.20589,0.20589 -8.5646,0.65831 -18.57492,1.00538 l -18.20058,0.63103 z"
       id="path12112"
       transform="scale(0.26458333)" />
    <path
       style="fill:#000000;stroke-width:0.998878"
       d="m 355.48584,603.63986 c -4.05735,-3.49523 -12.23318,-10.39054 -18.16852,-15.32291 l -10.79153,-8.96794 4.29882,-0.64813 c 4.1036,-0.61869 16.87646,-1.05074 27.02329,-0.91409 l 4.74467,0.0639 0.0711,7.24186 c 0.0391,3.98303 0.3899,10.74622 0.77958,15.02933 0.38968,4.2831 0.41851,8.25669 0.0641,8.8302 -0.37384,0.60487 -3.74219,-1.62583 -8.02145,-5.31222 z"
       id="path12151"
       transform="scale(0.26458333)" />
    <path
       style="fill:#000000;stroke-width:0.998878"
       d="m 318.14252,610.76322 c -18.67902,-0.36611 -39.80528,-0.76716 -46.94725,-0.89122 l -12.98541,-0.22556 4.49495,-2.05414 c 2.47222,-1.12977 15.50757,-7.2124 28.96745,-13.51694 13.45987,-6.30454 26.3311,-12.27132 28.60271,-13.2595 l 4.13022,-1.79669 6.85744,5.63704 c 3.77159,3.10037 12.60771,10.47888 19.63581,16.39668 l 12.77837,10.75964 -5.78623,-0.19183 c -3.18242,-0.1055 -21.06905,-0.49137 -39.74806,-0.85748 z"
       id="path12190"
       transform="scale(0.26458333)" />
    <path
       style="fill:#000000;stroke-width:0.998878"
       d="m 296.61758,635.21127 c -19.4761,-12.41702 -35.86058,-23.02638 -36.40997,-23.57634 -1.01658,-1.01765 75.18415,-0.38504 94.02308,0.78057 l 9.11848,0.56418 -14.4396,21.14201 c -7.94178,11.62811 -14.98889,21.70991 -15.66025,22.404 -0.97557,1.00861 -8.33036,-3.27082 -36.63174,-21.31442 z"
       id="path12229"
       transform="scale(0.26458333)" />
    <path
       style="fill:#000000;stroke-width:0.998878"
       d="m 253.18174,654.01511 c 0.29399,-2.60957 1.23129,-13.27045 2.0829,-23.69085 0.85161,-10.42039 1.63793,-19.01245 1.74736,-19.09346 0.24411,-0.1807 72.34749,45.92702 73.28163,46.86116 0.3673,0.3673 -16.95288,0.66782 -38.4893,0.66782 h -39.15711 z"
       id="path12268"
       transform="scale(0.26458333)" />
    <path
       style="fill:#000000;stroke-width:0.998878"
       d="m 205.00469,635.57092 c -24.86778,-12.13505 -45.09376,-22.18411 -44.94661,-22.33126 0.52733,-0.52733 94.76459,-2.65008 95.26869,-2.14599 0.5255,0.52551 -2.32184,40.33303 -3.17725,44.41975 -0.25873,1.23612 -0.79898,2.21907 -1.20055,2.18435 -0.40157,-0.0347 -21.0765,-9.9918 -45.94428,-22.12685 z"
       id="path12307"
       transform="scale(0.26458333)" />
    <path
       style="fill:#000000;stroke-width:0.998878"
       d="m 140.09316,657.01174 c 1.10372,-3.99207 15.98668,-41.77633 16.78551,-42.61437 0.51569,-0.54101 4.2321,0.73445 9.14703,3.13923 4.55314,2.22775 25.1345,12.2334 45.73635,22.23476 20.60185,10.00137 37.6452,18.36523 37.87411,18.58636 0.22891,0.22113 -24.43336,0.40206 -54.80505,0.40206 -52.10986,0 -55.19402,-0.0985 -54.73795,-1.74804 z"
       id="path12346"
       transform="scale(0.26458333)" />
    <path
       style="fill:#000000;stroke-width:0.998878"
       d="m 165.28423,688.47639 c -1.48764,-1.7855 -7.25866,-8.14636 -12.82449,-14.13525 -5.56582,-5.98889 -10.70704,-11.71995 -11.42492,-12.73569 -1.26517,-1.79011 0.37515,-1.84485 53.43995,-1.78348 30.10986,0.0348 53.8462,0.43252 52.74744,0.88377 -28.84377,11.84585 -77.04061,31.017 -77.97768,31.017 -0.69053,0 -2.47266,-1.46086 -3.9603,-3.24635 z"
       id="path12385"
       transform="scale(0.26458333)" />
    <path
       style="fill:#000000;stroke-width:0.998878"
       d="M 78.202792,682.48312 C 67.593515,670.21233 56.948375,657.39727 57.21829,657.22111 c 0.285836,-0.18656 71.06434,2.38454 75.77612,2.75263 3.45336,0.26979 2.37201,1.09005 -21.11502,16.01668 -13.61513,8.65277 -24.964771,15.73232 -25.221422,15.73232 -0.256652,0 -4.061481,-4.15783 -8.455176,-9.23962 z"
       id="path12424"
       transform="scale(0.26458333)" />
    <path
       style="fill:#000000;stroke-width:0.998878"
       d="m 49.435315,644.84572 c -3.132501,-5.53245 -6.124059,-10.05901 -6.647907,-10.05901 -0.523848,0 -0.730635,-0.3589 -0.459527,-0.79756 0.271107,-0.43866 -2.136492,-5.49548 -5.350221,-11.23738 -3.213729,-5.74189 -5.768865,-10.49301 -5.67808,-10.55804 0.475314,-0.34049 33.698163,1.35429 34.082503,1.73863 0.249431,0.24944 -0.414837,3.80759 -1.476153,7.90702 -1.061315,4.09943 -2.201783,9.24199 -2.534372,11.42791 -0.332589,2.18593 -0.817885,4.31934 -1.078435,4.74092 -0.260549,0.42158 -0.672991,1.66718 -0.916536,2.76802 -0.243545,1.10083 -0.667556,2.9005 -0.942247,3.99926 -1.292162,5.16865 -1.632736,6.58024 -1.860759,7.71239 -0.61376,3.04736 -1.812369,1.76415 -7.138266,-7.64216 z"
       id="path12463"
       transform="scale(0.26458333)" />
    <path
       style="fill:#000000;stroke-width:0.998878"
       d="m 83.905718,657.25258 c -15.108023,-0.65197 -27.48883,-1.25381 -27.512904,-1.33742 -0.11531,-0.40048 10.420348,-41.32313 10.704733,-41.57938 0.327287,-0.2949 65.951883,42.26473 67.344193,43.67484 0.96314,0.97546 -16.40187,0.71499 -50.536022,-0.75804 z"
       id="path12502"
       transform="scale(0.26458333)" />
    <path
       style="fill:#000000;stroke-width:0.998878"
       d="m 60.276927,612.56034 c -0.311658,-0.50427 -3.550705,-0.82897 -7.197884,-0.72154 -3.647179,0.10742 -10.132542,0.14546 -14.411918,0.0845 -6.602268,-0.094 -7.585614,-0.32184 -6.492705,-1.50426 0.708389,-0.76641 1.628276,-1.18742 2.044193,-0.93557 0.415917,0.25185 1.024886,-0.24224 1.353264,-1.09798 0.328378,-0.85574 1.00262,-1.30524 1.498316,-0.99888 0.495696,0.30636 1.169939,-0.14314 1.498317,-0.99888 0.328378,-0.85574 0.971819,-1.32427 1.429869,-1.04118 0.458052,0.28309 1.278323,-0.28136 1.822827,-1.25433 0.544503,-0.97298 1.179401,-1.5443 1.410882,-1.26961 0.231481,0.27469 8.18826,-4.57329 17.68173,-10.7733 9.493472,-6.20001 17.511107,-11.02249 17.816966,-10.71663 0.526861,0.52686 -3.470939,11.06104 -8.345129,21.98937 -1.225161,2.74691 -2.519843,5.9569 -2.877071,7.13331 -0.683621,2.25128 -6.156658,3.84435 -7.231657,2.10496 z"
       id="path12541"
       transform="scale(0.26458333)" />
    <path
       style="fill:#000000;stroke-width:0.998878"
       d="m 68.127041,610.72779 c 0.298574,-0.77685 3.364173,-8.22775 6.812443,-16.55756 5.001238,-12.08124 6.693906,-15.21339 8.367067,-15.48261 1.153616,-0.18562 13.714959,-0.11274 27.914099,0.16195 l 25.81661,0.49944 -33.80763,15.90595 c -18.594203,8.74828 -34.221145,16.12631 -34.726543,16.39562 -0.505398,0.26932 -0.674619,-0.14593 -0.376046,-0.92279 z"
       id="path12580"
       transform="scale(0.26458333)" />
    <path
       style="fill:#000000;stroke-width:0.998878"
       d="m 80.909086,607.06531 c 6.3179,-3.06328 22.050224,-10.57043 34.960714,-16.68255 l 23.47363,-11.11293 8.21157,16.11868 8.21157,16.11868 -12.70652,0.64806 c -6.98859,0.35643 -26.41612,0.61017 -43.17229,0.56386 l -30.465767,-0.0842 z"
       id="path12619"
       transform="scale(0.26458333)" />
    <path
       style="fill:#000000;stroke-width:0.998878"
       d="m 128.83929,652.94018 c -4.67851,-3.11712 -19.91391,-13.08416 -33.856442,-22.14898 l -25.350055,-16.48148 19.372713,-0.61634 c 10.654992,-0.33899 30.096304,-0.67611 43.202924,-0.74916 22.31102,-0.12435 23.78825,-0.0214 23.17196,1.61522 -7.20434,19.13175 -17.15409,44.16184 -17.53528,44.11266 -0.27469,-0.0354 -4.32731,-2.6148 -9.00582,-5.73192 z"
       id="path12658"
       transform="scale(0.26458333)" />
    <path
       style="fill:#000000;stroke-width:0.998878"
       d="m 170.05025,612.0332 -13.2438,-0.27878 -8.05334,-16.083 c -7.31096,-14.60043 -7.83962,-16.03834 -5.73488,-15.59851 1.27515,0.26647 22.77048,6.00661 47.76739,12.75587 24.99691,6.74926 49.04489,13.2198 53.43995,14.37897 l 7.99102,2.10759 -12.23625,0.28046 c -6.72993,0.15425 -12.23579,0.60375 -12.23524,0.99888 5.5e-4,0.39512 -8.09036,0.56964 -17.97981,0.3878 -9.88944,-0.18184 -19.89116,0.0429 -22.22603,0.49944 -2.33487,0.45653 -10.20493,0.7046 -17.48901,0.55128 z"
       id="path12697"
       transform="scale(0.26458333)" />
    <path
       style="fill:#000000;stroke-width:0.998878"
       d="m 219.25363,599.69591 c -19.77777,-5.3569 -44.82409,-12.10198 -55.65849,-14.98906 -10.83439,-2.88708 -19.59954,-5.33166 -19.47811,-5.43241 0.32435,-0.2691 102.00947,2.62153 102.23926,2.90638 0.45806,0.56784 9.35137,26.95275 9.13024,27.08788 -0.15031,0.0919 -16.45512,-4.21589 -36.2329,-9.57279 z"
       id="path12736"
       transform="scale(0.26458333)" />
    <path
       style="fill:#000000;stroke-width:0.998878"
       d="m 251.84936,595.7592 c -2.39951,-7.15663 -4.16215,-13.21265 -3.91697,-13.45782 0.61239,-0.6124 71.90798,-3.58523 72.47135,-3.02187 0.24854,0.24855 -1.05754,1.10528 -2.90242,1.90385 -1.84487,0.79856 -15.9239,7.34257 -31.28672,14.54224 -15.36282,7.19966 -28.39817,13.08025 -28.96745,13.06797 -0.56928,-0.0123 -2.99828,-5.87775 -5.39779,-13.03437 z"
       id="path12775"
       transform="scale(0.26458333)" />
    <path
       style="fill:#000000;stroke-width:0.998878"
       d="m 246.72277,536.6662 v -44.18113 l 2.86846,2.97743 c 8.34318,8.66012 73.13191,81.6366 72.7851,81.98341 -0.36814,0.36813 -64.60951,3.38049 -72.40721,3.39527 l -3.24635,0.006 z"
       id="path12814"
       transform="scale(0.26458333)" />
    <path
       style="fill:#000000;stroke-width:0.998878"
       d="m 286.03811,534.68956 c -37.65404,-41.94979 -37.896,-42.24719 -34.87045,-42.86057 l 3.04669,-0.61767 -3.35322,-0.13149 c -2.74559,-0.10767 -3.23748,-0.44825 -2.71448,-1.87953 1.63504,-4.4746 55.0866,-115.05854 55.62844,-115.08761 0.33865,-0.0182 8.05832,16.26116 17.15482,36.17628 9.09649,19.91513 22.16975,48.49007 29.05168,63.49987 l 12.51259,27.29056 -9.19042,-0.50087 -9.19043,-0.50088 9.26289,1.03514 9.26289,1.03513 -18.62656,36.60279 c -10.24461,20.13154 -18.94848,36.95806 -19.34193,37.39227 -0.39346,0.43421 -17.77808,-18.21983 -38.63251,-41.45342 z m 54.84261,-35.45446 c -1.22856,-0.23709 -3.47604,-0.24324 -4.99439,-0.0136 -1.51836,0.2296 -0.51318,0.42359 2.23374,0.43109 2.74691,0.008 3.9892,-0.18036 2.76065,-0.41745 z m -11.50083,-1.01119 c -1.5108,-0.22887 -3.98303,-0.22887 -5.49383,0 -1.5108,0.22887 -0.27469,0.41613 2.74692,0.41613 3.0216,0 4.25771,-0.18726 2.74691,-0.41613 z m -10.98766,-0.99887 c -1.5108,-0.22888 -3.98302,-0.22888 -5.49382,0 -1.5108,0.22886 -0.27469,0.41612 2.74691,0.41612 3.02161,0 4.25772,-0.18726 2.74691,-0.41612 z m -10.98765,-0.99888 c -1.5108,-0.22887 -3.98302,-0.22887 -5.49383,0 -1.5108,0.22886 -0.27469,0.41612 2.74692,0.41612 3.0216,0 4.25771,-0.18726 2.74691,-0.41612 z m -10.98765,-0.99888 c -1.5108,-0.22887 -3.98303,-0.22887 -5.49383,0 -1.5108,0.22886 -0.27469,0.41612 2.74691,0.41612 3.02161,0 4.25772,-0.18726 2.74692,-0.41612 z m -10.98766,-0.99888 c -1.5108,-0.22887 -3.98302,-0.22887 -5.49382,0 -1.51081,0.22887 -0.27469,0.41613 2.74691,0.41613 3.02161,0 4.25772,-0.18726 2.74691,-0.41613 z m -10.98765,-0.99887 c -1.5108,-0.22888 -3.98302,-0.22888 -5.49383,0 -1.5108,0.22886 -0.27469,0.41612 2.74692,0.41612 3.0216,0 4.25771,-0.18726 2.74691,-0.41612 z m -11.47336,-0.98657 c -1.22855,-0.2371 -3.47603,-0.24324 -4.99439,-0.0136 -1.51835,0.22959 -0.51317,0.42358 2.23374,0.43109 2.74692,0.008 3.98921,-0.18036 2.76065,-0.41745 z"
       id="path12853"
       transform="scale(0.26458333)" />
    <path
       style="fill:#000000;stroke-width:0.998878"
       d="m 352.88381,477.82152 c -5.61396,-12.28333 -14.31623,-31.32323 -19.33838,-42.31089 -5.02214,-10.98765 -9.41857,-20.2023 -9.76985,-20.47699 -0.35127,-0.27469 -0.77862,-1.17368 -0.94966,-1.99775 -0.6703,-3.22956 -11.50181,-25.97082 -12.36972,-25.97082 -0.50712,0 -0.65377,-0.43408 -0.32588,-0.96462 0.32789,-0.53054 -0.34609,-2.81159 -1.49773,-5.069 -1.15165,-2.25742 -1.93617,-4.57759 -1.74338,-5.15595 0.19278,-0.57835 14.54968,10.00053 31.90421,23.50863 l 31.5537,24.56018 -0.46624,4.28484 c -0.25644,2.35667 -1.88906,19.50405 -3.62805,38.10528 l -3.16181,33.82044 z"
       id="path12892"
       transform="scale(0.26458333)" />
    <path
       style="fill:#000000;stroke-width:0.998878"
       d="m 163.81593,514.76911 c 0,-1.17982 38.93573,-143.98141 39.38214,-144.43885 0.13597,-0.13933 9.74495,26.80786 21.35329,59.88265 11.60834,33.07478 20.91128,60.33076 20.6732,60.56884 -0.39909,0.39909 -80.12754,25.13853 -81.0146,25.13853 -0.21672,0 -0.39403,-0.51803 -0.39403,-1.15117 z"
       id="path12931"
       transform="scale(0.26458333)" />
    <path
       style="fill:#000000;stroke-width:0.998878"
       d="m 204.56502,548.64363 c -22.36268,-17.13152 -40.54201,-31.26564 -40.3985,-31.40915 0.50666,-0.50666 81.03617,-25.14255 81.30545,-24.87326 0.15023,0.15023 0.156,19.88358 0.0128,43.85189 l -0.26033,43.57874 z"
       id="path12970"
       transform="scale(0.26458333)" />
    <path
       style="fill:#000000;stroke-width:0.998878"
       d="m 182.62796,579.43686 c -22.34165,-0.5977 -40.92013,-1.38575 -41.28551,-1.75122 -0.65014,-0.6503 19.95788,-57.65299 21.29541,-58.90404 0.37324,-0.34911 10.56752,6.96613 22.65393,16.2561 12.08642,9.28996 28.01765,21.48403 35.40273,27.09792 7.38508,5.6139 15.89167,12.12063 18.90355,14.4594 l 5.47613,4.2523 -10.91253,-0.16187 c -6.00189,-0.089 -29.19206,-0.65089 -51.53371,-1.24859 z"
       id="path13009"
       transform="scale(0.26458333)" />
    <path
       style="fill:#000000;stroke-width:0.998878"
       d="m 126.94318,551.437 c -6.78841,-14.07483 -12.16937,-25.72934 -11.95769,-25.89892 0.64624,-0.5177 45.96189,-7.83001 46.25109,-7.46325 0.14861,0.18845 -4.14124,12.20657 -9.533,26.70692 -5.39175,14.50036 -9.56536,26.74909 -9.27468,27.21942 0.29067,0.47032 0.12116,0.85513 -0.37669,0.85513 -0.49785,0 -1.32397,0.93854 -1.83582,2.08565 -0.78094,1.75014 -2.91609,-2.03091 -13.27321,-23.50495 z"
       id="path13048"
       transform="scale(0.26458333)" />
    <path
       style="fill:#000000;stroke-width:0.998878"
       d="m 101.73704,552.54331 -35.608627,-24.13706 4.143984,-0.62427 c 2.279191,-0.34335 12.91536,-0.95035 23.63593,-1.34888 l 19.491943,-0.72462 12.22977,25.23136 c 6.72637,13.87725 12.11409,25.34592 11.9727,25.48594 -0.14139,0.14002 -16.28095,-10.60709 -35.8657,-23.88247 z"
       id="path13087"
       transform="scale(0.26458333)" />
    <path
       style="fill:#000000;stroke-width:0.998878"
       d="m 81.382768,576.60209 c -3.747256,-10.11646 -16.332201,-47.15401 -16.100972,-47.38523 0.171542,-0.17155 2.746494,1.38901 5.722117,3.46789 2.975623,2.07888 17.996081,12.26196 33.378797,22.62906 15.38271,10.3671 29.04055,19.67899 30.35075,20.69308 2.33265,1.80546 1.80747,1.8438 -25.253,1.8438 -21.195575,0 -27.742967,-0.29095 -28.097692,-1.2486 z"
       id="path13126"
       transform="scale(0.26458333)" />
    <path
       style="fill:#000000;stroke-width:0.998878"
       d="m 62.267191,520.74444 c -0.690214,-1.54683 -4.894521,-3.86284 -14.361062,-7.91102 -7.361827,-3.14815 -13.515229,-6.11417 -13.674227,-6.59116 -0.158998,-0.477 7.580517,-16.96815 17.198922,-36.647 9.618405,-19.67885 17.237572,-36.18495 16.931481,-36.68022 -0.306091,-0.49526 -0.05398,-0.90048 0.560249,-0.90048 0.614229,0 0.838977,-0.44949 0.499439,-0.99888 -0.339537,-0.54938 -0.11479,-0.99887 0.499439,-0.99887 0.614229,0 0.838976,-0.4495 0.499439,-0.99888 -0.339538,-0.54938 -0.11479,-0.99888 0.499439,-0.99888 0.614228,0 0.838976,-0.44949 0.499438,-0.99888 -0.339537,-0.54938 -0.11479,-0.99887 0.499439,-0.99887 0.614229,0 0.838976,-0.4495 0.499439,-0.99888 -0.339538,-0.54938 -0.231317,-0.99888 0.24049,-0.99888 0.471807,0 2.606117,-3.58582 4.742912,-7.96849 2.136795,-4.38267 4.018651,-7.83492 4.181902,-7.67167 0.163252,0.16326 -3.048258,21.61688 -7.136686,47.67474 -9.594854,61.15339 -10.395001,66.06431 -10.835835,66.50515 -0.202563,0.20256 -0.807461,-0.61591 -1.344218,-1.81883 z"
       id="path13165"
       transform="scale(0.26458333)" />
    <path
       style="fill:#000000;stroke-width:0.998878"
       d="m 34.978578,499.4388 c -0.06239,-0.79667 19.050737,-101.47295 19.372229,-102.04106 0.355032,-0.62737 27.557156,6.18512 27.557156,6.90141 0,0.50407 -2.211256,5.26065 -4.913902,10.57016 -2.702646,5.30952 -11.845032,24.03751 -20.316413,41.61775 -17.356066,36.0182 -21.586301,44.39165 -21.69907,42.95174 z"
       id="path13204"
       transform="scale(0.26458333)" />
    <path
       style="fill:#000000;stroke-width:0.998878"
       d="m 65.479167,519.41691 c 0.346921,-2.19723 0.787364,-5.91672 0.978762,-8.26555 0.191398,-2.34883 0.589795,-5.04605 0.885328,-5.99383 0.504059,-1.61652 12.185435,-75.89199 12.445832,-79.13623 0.06615,-0.82408 0.892755,-6.08734 1.836913,-11.69614 l 1.716651,-10.19783 6.524518,-0.34447 6.524517,-0.34447 -6.492704,-0.20497 -6.492704,-0.20498 -10.870321,-56.17752 c -5.978676,-30.89765 -15.5375,-80.00077 -21.241833,-109.11805 -5.704332,-29.11728 -10.252082,-53.5739 -10.106109,-54.34803 0.286348,-1.5186 73.682903,219.43267 73.682903,221.81328 0,1.40787 -15.322403,37.83571 -38.379393,91.24405 -6.592132,15.26976 -11.369489,25.23661 -11.01236,22.97474 z M 108.60566,404.31589 c -2.07244,-0.21623 -5.2189,-0.21261 -6.99214,0.008 -1.773244,0.22066 -0.0776,0.39758 3.76807,0.39315 3.84568,-0.004 5.29651,-0.18498 3.22407,-0.40121 z"
       id="path13243"
       transform="scale(0.26458333)" />
    <path
       style="fill:#000000;stroke-width:0.998878"
       d="m 65.356421,525.1599 c 1.264599,-3.43728 49.935449,-117.02872 50.056749,-116.82594 0.38999,0.65201 -2.12777,115.50143 -2.54108,115.91321 -0.39973,0.39827 -39.930193,2.66076 -46.488826,2.66076 -1.169513,0 -1.477232,-0.52384 -1.026843,-1.74803 z"
       id="path13282"
       transform="scale(0.26458333)" />
    <path
       style="fill:#000000;stroke-width:0.998878"
       d="m 114.2216,518.71676 c 0.32609,-3.4609 0.88978,-28.54255 1.25264,-55.73699 0.36286,-27.19445 0.96304,-50.2735 1.33374,-51.28678 0.46383,-1.26786 7.55573,14.77293 22.74345,51.44219 12.1382,29.3065 21.98674,53.37419 21.88564,53.48376 -0.10109,0.10956 -9.83322,1.79788 -21.62694,3.75183 -11.79372,1.95393 -22.50925,3.79695 -23.81228,4.09558 -2.34486,0.5374 -2.36307,0.47844 -1.77625,-5.74959 z"
       id="path13321"
       transform="scale(0.26458333)" />
    <path
       style="fill:#000000;stroke-width:0.998878"
       d="m 136.9938,454.64411 -20.32942,-49.0998 -12.91693,-72.37438 c -7.104314,-39.8059 -12.789407,-73.0183 -12.633541,-73.80533 0.155865,-0.78703 15.297681,53.70065 33.648481,121.08373 18.3508,67.38308 33.18413,122.69039 32.96296,122.90514 -0.22117,0.21475 -9.55037,-21.70446 -20.73155,-48.70936 z"
       id="path13360"
       transform="scale(0.26458333)" />
    <path
       style="fill:#000000;stroke-width:0.998878"
       d="M 125.05684,377.86972 C 104.56341,302.59201 87.932098,240.88208 88.098364,240.73655 c 0.769023,-0.6731 114.056076,126.93463 113.949196,128.35358 -0.106,1.40709 -39.19174,145.07711 -39.58088,145.49001 -0.082,0.087 -16.91642,-61.43269 -37.40984,-136.71042 z"
       id="path13399"
       transform="scale(0.26458333)" />
    <path
       style="fill:#000000;stroke-width:0.998878"
       d="m 77.118612,286.76077 c -19.890547,-60.0694 -36.16463,-109.55711 -36.16463,-109.97269 0,-0.41558 0.837252,0.31638 1.860561,1.62658 2.372348,3.03745 41.415557,56.9177 42.405019,58.5196 0.40738,0.65953 4.117398,20.21256 8.244485,43.45118 4.127087,23.23861 10.422203,58.60617 13.989143,78.59457 3.56694,19.9884 6.33791,36.48999 6.1577,36.67019 -0.1802,0.18021 -16.60173,-48.82004 -36.492278,-108.88943 z"
       id="path13438"
       transform="scale(0.26458333)" />
    <path
       style="fill:#000000;stroke-width:0.998878"
       d="M 66.43212,399.14854 54.452349,396.43104 47.22679,296.10553 c -3.974058,-55.17904 -7.123564,-102.56801 -6.998903,-105.30884 0.156875,-3.44909 6.612754,27.91865 20.969333,101.88551 11.408473,58.77787 20.735492,107.43071 20.72671,108.11744 -0.02145,1.67677 -1.53015,1.51597 -15.49181,-1.6511 z"
       id="path13477"
       transform="scale(0.26458333)" />
    <path
       style="fill:#000000;stroke-width:0.998878"
       d="M 44.639486,349.93201 C 40.348614,329.42619 28.765106,274.26334 18.898357,227.34792 9.0316085,180.4325 1.1073714,141.8986 1.2889407,141.71704 1.47051,141.53547 9.6828068,148.03032 19.538488,156.15005 l 17.919422,14.76314 7.688282,106.82734 c 4.228555,58.75504 7.599767,107.42303 7.491582,108.15108 -0.108185,0.72805 -3.707414,-15.45377 -7.998288,-35.9596 z"
       id="path13516"
       transform="scale(0.26458333)" />
    <path
       style="fill:#000000;stroke-width:0.998878"
       d="m 225.01962,428.77907 c -11.6121,-33.08934 -21.02983,-60.24551 -20.9283,-60.34705 0.30591,-0.30591 98.04341,3.79063 98.37609,4.1233 0.16945,0.16945 -4.94907,11.25725 -11.37448,24.63956 -33.10979,68.95829 -43.4338,90.22001 -44.16103,90.94725 -0.43966,0.43966 -10.30018,-26.27372 -21.91228,-59.36306 z"
       id="path13555"
       transform="scale(0.26458333)" />
    <path
       style="fill:#000000;stroke-width:0.998878"
       d="M 355.49831,411.19213 C 323.46888,386.6554 304.61949,371.70722 304.8765,371.0474 c 0.93112,-2.39043 20.22716,-34.92509 20.71378,-34.92509 0.73144,0 43.33949,83.89964 42.84855,84.3732 -0.19384,0.18698 -6.01707,-3.99954 -12.94052,-9.30338 z"
       id="path13594"
       transform="scale(0.26458333)" />
    <path
       style="fill:#000000;stroke-width:0.998878"
       d="m 299.00565,360.34509 c -2.4955,-5.35648 -6.11459,-13.11026 -8.04243,-17.23063 -1.92784,-4.12037 -6.09567,-13.11027 -9.26185,-19.97756 -5.67921,-12.31793 -22.61267,-48.59403 -32.12569,-68.82203 -2.68688,-5.71323 -4.74726,-10.52566 -4.57863,-10.6943 0.16863,-0.16863 10.45458,11.24826 22.85766,25.37086 12.40308,14.1226 30.25139,34.44261 39.6629,45.15558 10.99013,12.50986 16.91825,20.01413 16.57068,20.97642 -0.90333,2.501 -19.51945,34.96072 -20.05048,34.96072 -0.27219,0 -2.53666,-4.38257 -5.03216,-9.73906 z"
       id="path13633"
       transform="scale(0.26458333)" />
    <path
       style="fill:#000000;stroke-width:0.998878"
       d="m 276.12409,340.88429 c -13.11065,-14.43081 -26.36435,-28.93482 -29.45268,-32.23111 -3.08834,-3.2963 -10.296,-11.13451 -16.01703,-17.41825 -5.72103,-6.28374 -19.03928,-20.89232 -29.59611,-32.46352 l -19.19424,-21.03854 7.70715,-0.54773 c 4.23893,-0.30125 8.83088,-0.15685 10.20434,0.32088 1.37346,0.47774 7.66639,0.85458 13.98429,0.83743 6.3179,-0.0171 15.2381,0.28794 19.82267,0.67799 l 8.33558,0.70918 29.44552,63.27202 c 16.19503,34.79961 29.25483,63.46271 29.02178,63.69577 -0.23306,0.23305 -11.15063,-11.3833 -24.26127,-25.81412 z"
       id="path13672"
       transform="scale(0.26458333)" />
    <path
       style="fill:#000000;stroke-width:0.998878"
       d="m 256.71154,369.53754 c -15.6574,-0.68491 -33.18771,-1.34991 -38.95622,-1.47777 -5.76852,-0.12788 -11.37675,-0.55294 -12.46273,-0.9446 -1.76766,-0.63752 -3.14448,-7.39969 -13.14241,-64.54777 -6.14234,-35.10961 -11.09725,-63.89657 -11.0109,-63.97103 0.24926,-0.21492 119.98519,130.79108 120.35527,131.68365 0.41226,0.99424 -8.43354,0.84759 -44.78301,-0.74248 z"
       id="path13711"
       transform="scale(0.26458333)" />
    <path
       style="fill:#000000;stroke-width:0.998878"
       d="m 144.70258,301.88794 -56.57125,-63.15619 6.627373,-0.62509 c 3.645055,-0.3438 24.221317,-0.68092 45.725037,-0.74916 l 39.09766,-0.12407 0.53267,2.24747 c 1.44983,6.11714 21.72894,123.89823 21.46517,124.66982 -0.16797,0.49138 -25.76247,-27.52687 -56.87666,-62.26278 z"
       id="path13750"
       transform="scale(0.26458333)" />
    <path
       style="fill:#000000;stroke-width:0.350328"
       d="M 31.670183,165.38292 C 15.466372,152.03985 2.95387,141.77834 1.7336703,140.83197 0.98837794,140.25393 0.41164557,139.66416 0.45204283,139.52138 0.56119132,139.1356 45.276973,84.572128 45.390742,84.685896 c 0.0536,0.0536 -0.286033,4.353067 -0.75474,9.554366 -0.468711,5.201299 -2.196313,24.426038 -3.839118,42.721638 -1.642805,18.29561 -3.020594,33.28473 -3.061757,33.30916 -0.04116,0.0244 -2.770386,-2.17523 -6.064944,-4.88814 z"
       id="path13789"
       transform="scale(0.26458333)" />
    <path
       style="fill:#000000;stroke-width:0.350328"
       d="m 1.0509848,137.75105 c 0,-0.15291 3.6409741,-9.37523 8.0910533,-20.49406 6.5626829,-16.39732 35.0003339,-87.296623 36.0713989,-89.931384 0.156657,-0.385362 0.294132,12.147632 0.305504,27.851097 l 0.02067,28.551755 -6.695397,8.232714 c -3.682466,4.527993 -7.110616,8.720248 -7.618109,9.316118 -0.507494,0.59588 -1.809992,2.17236 -2.894441,3.50329 -1.084448,1.33093 -7.022571,8.59435 -13.195827,16.14093 -6.1732566,7.54659 -11.1977702,13.77367 -11.1655859,13.83797 0.032191,0.0643 -0.6114788,0.82625 -1.4303711,1.69324 -0.8188923,0.86698 -1.4888952,1.45123 -1.4888952,1.29833 z"
       id="path13828"
       transform="scale(0.26458333)" />
    <path
       style="fill:#000000;stroke-width:0.350328"
       d="M 45.893004,54.603593 V 26.004221 l 1.488895,0.190431 c 0.818893,0.104737 20.984735,2.28916 44.812984,4.854274 l 43.324087,4.663842 -8.46642,3.190451 c -6.45221,2.431419 -9.54992,3.815164 -13.0207,5.816317 -2.50484,1.444226 -7.62839,4.368152 -11.38567,6.497614 C 91.86891,57.325251 83.472004,62.088754 75.145415,66.818133 46.235321,83.238632 46.298592,83.202966 46.08032,83.202966 c -0.103024,0 -0.187316,-12.86972 -0.187316,-28.599373 z"
       id="path13867"
       transform="scale(0.26458333)" />
    <path
       style="fill:#000000;stroke-width:0.350328"
       d="M 91.900527,30.706271 C 67.782104,28.076183 47.965114,25.839542 47.862772,25.735959 c -0.102342,-0.103583 6.546153,-1.554052 14.774432,-3.223264 8.22828,-1.669213 22.764071,-4.627382 32.301759,-6.57371 9.537687,-1.946329 25.460107,-5.193419 35.383157,-7.2157566 9.92305,-2.022338 23.05797,-4.7037015 29.18872,-5.9585857 6.13075,-1.2548844 11.31263,-2.22633713 11.51529,-2.15878396 0.35786,0.11928695 -34.66315,34.98753626 -35.07041,34.91742526 -0.11193,-0.01927 -19.93677,-2.186925 -44.055193,-4.817013 z"
       id="path13906"
       transform="scale(0.26458333)" />
    <path
       style="fill:#000000;stroke-width:0.350328"
       d="m 152.15514,38.94301 c -8.12696,-1.769757 -14.86668,-3.30814 -14.97717,-3.418626 -0.11048,-0.110487 5.12001,-5.495586 11.62333,-11.966886 15.79753,-15.7197513 22.96231,-22.69569823 23.13387,-22.5241423 0.15021,0.1502082 -3.3399,39.0469353 -3.62436,40.3929633 -0.0984,0.465537 -0.41484,0.777224 -0.77299,0.761337 -0.33352,-0.01478 -7.25572,-1.474886 -15.38268,-3.244646 z"
       id="path13945"
       transform="scale(0.26458333)" />
    <path
       style="fill:#000000;stroke-width:0.350328"
       d="m 58.520542,106.75771 c -3.349306,-6.11495 -7.48185,-13.659467 -9.183429,-16.765589 -1.701579,-3.106126 -3.093781,-5.787196 -3.093781,-5.957935 0,-0.386272 68.290678,-36.704815 68.542848,-36.452648 0.13425,0.134252 -48.578147,68.428312 -49.955131,70.036352 -0.121471,0.14186 -2.9612,-4.74522 -6.310507,-10.86018 z"
       id="path13984"
       transform="scale(0.26458333)" />
    <path
       style="fill:#000000;stroke-width:0.350328"
       d="m 38.314774,167.80724 c 0.931697,-9.66384 3.673418,-41.05596 3.656333,-41.86422 -0.0061,-0.28903 0.07405,-0.99844 0.178137,-1.57648 0.161547,-0.89716 0.866574,-8.76382 0.926217,-10.33469 0.01097,-0.28902 0.495231,-5.33374 1.076128,-11.2105 0.580897,-5.876758 1.005539,-11.197369 0.943649,-11.82358 -0.06189,-0.626212 0.01347,-1.138567 0.167456,-1.138567 0.15399,0 0.282135,-0.827651 0.284766,-1.839224 0.0026,-1.011573 0.102284,-2.203272 0.221452,-2.648221 0.192526,-0.718858 0.340978,-0.58224 1.33235,1.226149 7.445486,13.581523 9.840474,17.840263 10.154884,18.057303 0.20507,0.14156 0.241762,0.25979 0.08154,0.26274 -0.312473,0.006 1.097958,2.49 1.616479,2.84716 0.171138,0.11789 0.281452,0.27553 0.245141,0.35033 -0.115343,0.2376 1.177067,2.76346 1.413986,2.76346 0.12488,0 0.229047,0.19706 0.231482,0.43791 0.0025,0.24085 0.811635,1.88696 1.798221,3.65801 l 1.793793,3.22011 -2.032414,3.96162 c -1.117829,2.1789 -6.969484,13.73579 -13.003678,25.68198 -6.034194,11.9462 -11.042657,21.79918 -11.129917,21.89552 -0.08726,0.0963 -0.06746,-0.77072 0.044,-1.92681 z"
       id="path14023"
       transform="scale(0.26458333)" />
    <path
       style="fill:#000000;stroke-width:0.350328"
       d="M 78.939418,227.10168 C 75.279328,222.04306 68.05348,212.07122 62.881976,204.94204 57.710473,197.81286 51.517201,189.26047 49.11915,185.93673 c -2.554415,-3.54046 -4.596812,-6.04538 -4.931687,-6.04852 -0.379265,-0.004 -0.435088,-0.0922 -0.165904,-0.26351 0.270573,-0.17217 -0.638462,-1.69233 -2.729395,-4.56433 l -3.135083,-4.30619 11.564451,-22.84349 c 13.868322,-27.39438 14.501364,-28.62424 14.732829,-28.62272 0.216839,0.001 21.450133,116.70083 21.266894,116.88407 -0.06992,0.0699 -3.121747,-4.01174 -6.781837,-9.07036 z"
       id="path14062"
       transform="scale(0.26458333)" />
    <path
       style="fill:#000000;stroke-width:0.350328"
       d="M 86.090091,235.07027 C 85.961138,234.68491 81.115256,208.24802 75.321466,176.32162 L 64.787302,118.27362 90.654705,82.258477 C 104.88178,62.450147 117.00869,45.573464 117.60341,44.754737 l 1.08129,-1.488596 0.14246,1.220319 c 0.0784,0.671176 0.0413,1.26222 -0.0822,1.313432 -0.34945,0.144806 -2.53066,13.494406 -2.27299,13.911324 0.1258,0.203546 0.0439,0.370083 -0.18204,0.370083 -0.25713,0 -0.35307,0.393087 -0.25651,1.050985 0.0848,0.578042 0.006,1.050985 -0.17517,1.050985 -0.18118,0 -0.26,0.472943 -0.17516,1.050985 0.0848,0.578041 0.006,1.050985 -0.17516,1.050985 -0.18118,0 -0.26057,0.469095 -0.17642,1.042434 0.0841,0.573338 0.0532,1.085693 -0.0687,1.138567 -0.34889,0.151304 -2.20004,11.397789 -1.94419,11.811755 0.126,0.203887 0.0443,0.370703 -0.18166,0.370703 -0.25714,0 -0.35308,0.393086 -0.25652,1.050985 0.0848,0.578041 0.006,1.050985 -0.17516,1.050985 -0.18118,0 -0.26,0.472943 -0.17516,1.050984 0.0848,0.578042 0.006,1.050985 -0.17517,1.050985 -0.18118,0 -0.26,0.472943 -0.17516,1.050985 0.0848,0.578042 0.006,1.050985 -0.17517,1.050985 -0.18118,0 -0.26056,0.469096 -0.17642,1.042433 0.0841,0.57334 0.0532,1.085696 -0.0687,1.138567 -0.34889,0.151303 -2.20004,11.39779 -1.9442,11.811756 0.12601,0.203887 0.0443,0.370703 -0.18166,0.370703 -0.25713,0 -0.35307,0.393086 -0.25651,1.050984 0.0848,0.57804 0.006,1.05099 -0.17516,1.05099 -0.18118,0 -0.26001,0.47294 -0.17517,1.05098 0.0848,0.57804 0.006,1.05099 -0.17516,1.05099 -0.18118,0 -0.26,0.47294 -0.17517,1.05098 0.0848,0.57804 0.006,1.05099 -0.17516,1.05099 -0.18118,0 -0.26057,0.46909 -0.17642,1.04243 0.0841,0.57334 0.0532,1.08569 -0.0687,1.13857 -0.34889,0.1513 -2.20004,11.39779 -1.9442,11.81175 0.12601,0.20389 0.0443,0.3707 -0.18166,0.3707 -0.25713,0 -0.35307,0.39309 -0.25651,1.05099 0.0848,0.57804 0.006,1.05098 -0.17517,1.05098 -0.18118,0 -0.26,0.47295 -0.17516,1.05099 0.0848,0.57804 0.006,1.05098 -0.17516,1.05098 -0.18118,0 -0.26001,0.47295 -0.17517,1.05099 0.0848,0.57804 0.006,1.05098 -0.17516,1.05098 -0.18118,0 -0.26057,0.4691 -0.17642,1.04244 0.0841,0.57334 0.0532,1.08569 -0.0687,1.13856 -0.34888,0.15131 -2.20004,11.39779 -1.94419,11.81176 0.126,0.20389 0.0443,0.3707 -0.18166,0.3707 -0.25713,0 -0.35308,0.39309 -0.25651,1.05099 0.0848,0.57804 0.006,1.05098 -0.17517,1.05098 -0.18118,0 -0.26,0.47295 -0.17516,1.05099 0.0848,0.57804 0.006,1.05098 -0.17517,1.05098 -0.18118,0 -0.26,0.47295 -0.17516,1.05099 0.0848,0.57804 0.006,1.05098 -0.17517,1.05098 -0.18117,0 -0.26056,0.4691 -0.17641,1.04244 0.0841,0.57334 0.0532,1.08569 -0.0687,1.13856 -0.34889,0.15131 -2.200041,11.39779 -1.944195,11.81176 0.126007,0.20389 0.04426,0.3707 -0.181659,0.3707 -0.257133,0 -0.353074,0.39309 -0.256514,1.05099 0.08484,0.57804 0.006,1.05098 -0.175164,1.05098 -0.181179,0 -0.260003,0.47294 -0.175165,1.05099 0.08484,0.57804 0.006,1.05098 -0.175164,1.05098 -0.181179,0 -0.260003,0.47294 -0.175164,1.05099 0.08484,0.57804 0.006,1.05098 -0.175164,1.05098 -0.181179,0 -0.260003,0.47294 -0.175164,1.05098 0.08484,0.57805 0.006,1.05099 -0.175164,1.05099 -0.181179,0 -0.260568,0.4691 -0.17642,1.04243 0.08415,0.57334 0.04873,1.0857 -0.0787,1.13857 -0.35441,0.14705 -2.195291,11.38925 -1.934148,11.81179 0.125999,0.20387 0.04425,0.37067 -0.181677,0.37067 -0.257132,0 -0.353073,0.39308 -0.256513,1.05098 0.08484,0.57805 0.006,1.05099 -0.175165,1.05099 -0.181178,0 -0.260002,0.47294 -0.175164,1.05098 0.08484,0.57805 0.006,1.05099 -0.175164,1.05099 -0.181179,0 -0.260003,0.47294 -0.175164,1.05098 0.08484,0.57804 0.006,1.05099 -0.175164,1.05099 -0.181179,0 -0.260568,0.46909 -0.176419,1.04243 0.08415,0.57334 0.04873,1.0857 -0.0787,1.13857 -0.35441,0.14705 -2.19529,11.38925 -1.934148,11.81179 0.125999,0.20387 0.04424,0.37067 -0.181676,0.37067 -0.257133,0 -0.353073,0.39308 -0.256514,1.05098 0.08484,0.57804 0.006,1.05099 -0.175164,1.05099 -0.181179,0 -0.260003,0.47294 -0.175164,1.05098 0.08484,0.57804 0.006,1.05099 -0.175165,1.05099 -0.181178,0 -0.260002,0.47294 -0.175164,1.05098 0.08484,0.57804 0.006,1.05099 -0.175164,1.05099 -0.181179,0 -0.260003,0.47294 -0.175164,1.05098 0.08484,0.57804 0.04824,1.05099 -0.08133,1.05099 -0.337051,0 -2.193004,11.46975 -1.925889,11.90195 0.122213,0.19775 0.03736,0.35954 -0.188561,0.35954 -0.257133,0 -0.353073,0.39308 -0.256514,1.05098 0.08484,0.57804 0.006,1.05099 -0.175164,1.05099 -0.181179,0 -0.260003,0.47294 -0.175164,1.05098 0.08484,0.57804 0.006,1.05098 -0.175164,1.05098 -0.181179,0 -0.260003,0.47295 -0.175164,1.05099 0.08484,0.57804 0.0418,1.05098 -0.09564,1.05098 -0.137438,0 -0.393076,0.90648 -0.568084,2.01439 -0.224762,1.42288 -0.387045,1.80865 -0.552658,1.31373 z"
       id="path14101"
       transform="scale(0.26458333)" />
    <path
       style="fill:#000000;stroke-width:0.350328"
       d="m 86.531084,237.03174 c 0,-0.15182 1.659839,-10.0353 3.68853,-21.96328 2.028692,-11.92799 4.473486,-26.33786 5.432876,-32.02194 2.671287,-15.82651 6.25167,-36.97605 10.85314,-64.11007 0.93125,-5.4914 2.50773,-14.79261 3.50328,-20.669369 3.8989,-23.015069 5.26519,-31.055384 7.02469,-41.338736 1.00553,-5.876757 1.90099,-11.276192 1.98992,-11.998744 0.0889,-0.722552 0.27955,-1.313731 0.4236,-1.313731 0.31816,0 60.42418,192.29411 60.18178,192.5365 -0.0941,0.0942 -14.97082,0.31593 -33.05928,0.49283 -18.08845,0.1769 -38.99694,0.39835 -46.46332,0.49211 -7.466367,0.0938 -13.575216,0.0462 -13.575216,-0.10557 z"
       id="path14140"
       transform="scale(0.26458333)" />
    <path
       style="fill:#000000;stroke-width:0.350328"
       d="M 150.88447,142.30012 C 134.74534,90.624968 121.16081,47.113424 120.69663,45.607794 c -0.46419,-1.505629 -0.71547,-2.687987 -0.55841,-2.627462 0.2541,0.09792 15.84689,13.591099 43.465,37.61231 5.10608,4.44108 31.43329,27.287328 58.50491,50.769438 27.07161,23.48211 50.45025,43.79488 51.95252,45.13949 l 2.73141,2.44474 -5.88436,3.50767 c -3.2364,1.92921 -7.93378,4.71913 -10.43863,6.19982 -2.50484,1.48068 -9.2837,5.49874 -15.06411,8.92901 -16.99587,10.08586 -39.80387,23.60746 -51.84859,30.73816 -6.16578,3.65025 -11.68695,6.92868 -12.26927,7.28539 l -1.05877,0.64857 z"
       id="path14179"
       transform="scale(0.26458333)" />
    <path
       style="fill:#000000;stroke-width:0.350328"
       d="M 231.69658,139.21786 C 208.79266,119.33304 174.96492,89.970316 156.52383,73.967354 138.08274,57.964393 123.05148,44.814157 123.12103,44.744606 c 0.0695,-0.06955 19.7295,12.334524 43.68878,27.564609 41.6027,26.445401 43.65442,27.797855 45.6098,30.065005 8.92932,10.35306 61.22348,72.69482 61.09032,72.82798 -0.0934,0.0934 -18.90943,-16.09953 -41.81335,-35.98434 z"
       id="path14218"
       transform="scale(0.26458333)" />
    <path
       style="fill:#000000;stroke-width:0.350328"
       d="m 236.75848,238.68785 c -0.25413,-0.12982 -12.04917,-0.64661 -26.21119,-1.14842 -14.16202,-0.50181 -26.56669,-0.99686 -27.56594,-1.1001 -1.7181,-0.17752 -1.78472,-0.22088 -1.22615,-0.79785 0.32487,-0.33558 0.74832,-0.6181 0.941,-0.62783 0.53693,-0.0271 7.18173,-4.00317 7.18173,-4.29733 0,-0.14229 0.19706,-0.26225 0.43791,-0.26659 0.57258,-0.0103 3.06537,-1.50398 3.06537,-1.83675 0,-0.14153 0.20458,-0.25733 0.45462,-0.25733 0.57,0 7.2526,-3.96711 7.2526,-4.30549 0,-0.13683 0.19706,-0.255 0.43791,-0.26261 0.46697,-0.0148 29.31925,-17.05622 29.66232,-17.51992 0.11174,-0.15103 0.36081,-0.3013 0.55349,-0.33393 0.45318,-0.0767 27.57494,-16.15177 27.83175,-16.49583 0.10699,-0.14333 0.35216,-0.28699 0.54484,-0.31924 0.19269,-0.0323 3.93682,-2.19109 8.3203,-4.7974 4.38348,-2.60632 7.96997,-4.6426 7.96997,-4.52506 0,0.2239 -1.02954,1.99381 -12.30621,21.15592 -3.81114,6.47615 -6.97607,11.98068 -7.03317,12.23229 -0.0571,0.25162 -0.38547,0.75225 -0.72969,1.11253 -0.34422,0.36027 -0.53198,0.80694 -0.41724,0.99259 0.11474,0.18566 0.0567,0.33755 -0.12909,0.33755 -0.39756,0 -2.27271,3.09642 -2.27271,3.75289 0,0.24808 -0.11341,0.45105 -0.25202,0.45105 -0.339,0 -3.25127,4.92835 -3.25127,5.50204 0,0.24945 -0.11529,0.45354 -0.2562,0.45354 -0.33638,0 -5.69938,9.14422 -5.69938,9.71775 0,0.24298 -0.12128,0.44177 -0.26952,0.44177 -0.14824,0 -0.61716,0.61853 -1.04204,1.37451 -0.76685,1.36443 -0.78995,1.37534 -3.15123,1.48889 -1.30829,0.0629 -2.58663,0.008 -2.84076,-0.12164 z"
       id="path14257"
       transform="scale(0.26458333)" />
    <path
       style="fill:#000000;stroke-width:0.350328"
       d="m 243.4089,236.9095 c 0.3787,-0.62622 1.78386,-3.03034 3.12258,-5.34251 2.52445,-4.3601 17.11366,-29.23414 25.01636,-42.65193 2.48999,-4.22769 4.76891,-8.15403 5.06428,-8.72521 l 0.53704,-1.03852 6.20672,7.8156 c 13.13638,16.54151 13.83772,17.48732 13.32243,17.96639 -0.51925,0.48276 -53.53038,33.11474 -53.79538,33.11474 -0.0894,0 0.14727,-0.51235 0.52597,-1.13856 z"
       id="path14296"
       transform="scale(0.26458333)" />
    <path
       style="fill:#000000;stroke-width:0.350328"
       d="m 296.90321,204.06622 c -0.47699,-0.20497 -0.5329,-0.31248 -0.17516,-0.33678 0.3602,-0.0245 0.21632,-0.30769 -0.45745,-0.90044 -0.54061,-0.47561 -0.89896,-0.86475 -0.79631,-0.86475 0.10264,0 -3.8312,-5.06957 -8.74186,-11.2657 -4.91067,-6.19614 -8.88764,-11.30253 -8.83771,-11.34754 0.0499,-0.045 10.18022,1.85216 22.51178,4.21593 12.33155,2.36376 26.48044,5.06568 31.44196,6.00425 4.96152,0.93858 9.02095,1.79904 9.02095,1.91214 0,0.18163 -10.85409,3.46757 -35.37805,10.71027 -4.13982,1.22262 -7.60807,2.21187 -7.70722,2.19833 -0.0991,-0.0136 -0.49556,-0.16011 -0.88093,-0.32571 z"
       id="path14335"
       transform="scale(0.26458333)" />
    <path
       style="fill:#000000;stroke-width:0.350328"
       d="m 348.54744,215.83652 c -0.0803,-0.0775 -11.02366,-2.53051 -24.31862,-5.45118 -28.63414,-6.29043 -25.78897,-5.6209 -25.54734,-6.01188 0.10833,-0.17527 0.32351,-0.24045 0.47819,-0.14486 0.15468,0.0956 1.75968,-0.29473 3.56666,-0.8674 1.80698,-0.57267 11.42832,-3.45648 21.38075,-6.40847 l 18.09533,-5.36725 1.07426,3.70049 c 3.74837,12.91192 5.65536,19.45483 5.83827,20.03112 0.18493,0.58267 -0.1676,0.90534 -0.5675,0.51943 z"
       id="path14374"
       transform="scale(0.26458333)" />
    <path
       style="fill:#000000;stroke-width:0.350328"
       d="m 342.97599,189.99495 c 0.003,-0.25705 0.76506,-3.14736 1.6945,-6.42293 0.92943,-3.27557 5.61738,-19.94518 10.41765,-37.04358 4.80028,-17.0984 8.81006,-31.08964 8.91064,-31.09164 0.1572,-0.003 22.4171,36.41363 22.68686,37.11524 0.0541,0.14074 -3.71583,3.55191 -8.37763,7.58038 -36.5109,31.5507 -35.3389,30.56012 -35.33202,29.86253 z"
       id="path14450"
       transform="scale(0.26458333)" />
    <path
       style="fill:#000000;stroke-width:0.350328"
       d="m 322.82751,177.66016 c -10.59743,-7.36719 -39.88954,-27.70995 -65.09357,-45.20613 -25.20404,-17.49618 -45.76466,-31.8721 -45.69028,-31.94648 0.13853,-0.13853 151.33941,14.20084 151.50697,14.36839 0.10911,0.10911 -20.81276,74.72567 -21.19497,75.59055 -0.2143,0.48493 -3.65278,-1.76998 -19.52815,-12.80633 z"
       id="path14489"
       transform="scale(0.26458333)" />
    <path
       style="fill:#000000;stroke-width:0.350328"
       d="m 338.76744,190.54761 c -0.28902,-0.0687 -14.24084,-2.73993 -31.00405,-5.93614 -16.76321,-3.19621 -30.57543,-5.91998 -30.69383,-6.05283 -3.61657,-4.05801 -64.06215,-76.21221 -63.94404,-76.33032 0.0943,-0.0943 2.50874,1.44593 5.36531,3.42285 13.582,9.39956 119.91774,83.24965 121.11741,84.11595 1.2151,0.87744 1.27325,0.98213 0.5255,0.94599 -0.46244,-0.0223 -1.07728,-0.0968 -1.3663,-0.1655 z"
       id="path14565"
       transform="scale(0.26458333)" />
    <path
       style="fill:#000000;stroke-width:0.350328"
       d="m 354.70738,113.62935 c -3.46825,-0.36569 -6.81578,-0.61432 -7.43894,-0.55251 -0.62318,0.0618 -1.17494,-0.0106 -1.22615,-0.16103 -0.0512,-0.15038 -1.70738,-0.31549 -3.68036,-0.36692 -1.97299,-0.0514 -3.58887,-0.22696 -3.59086,-0.39007 -0.002,-0.16311 -0.79197,-0.24193 -1.75551,-0.17516 -0.96354,0.0668 -1.79119,0.0161 -1.83922,-0.11262 -0.048,-0.1287 -1.66382,-0.28635 -3.59063,-0.35033 -1.9268,-0.064 -3.58263,-0.22036 -3.67962,-0.34751 -0.097,-0.12716 -1.75229,-0.28481 -3.67844,-0.35033 -1.92617,-0.0655 -3.58094,-0.20946 -3.67728,-0.31986 -0.27764,-0.31815 -13.91757,-1.47616 -14.33664,-1.21716 -0.20743,0.1282 -0.37715,0.0545 -0.37715,-0.16389 0,-0.24983 -0.61681,-0.37111 -1.66405,-0.32719 -0.91524,0.0384 -1.93931,-0.0454 -2.27571,-0.18612 -0.33641,-0.14076 -1.24288,-0.19572 -2.01439,-0.12214 -0.77151,0.0736 -1.40274,-3.2e-4 -1.40274,-0.1642 0,-0.16389 -0.74883,-0.26658 -1.66406,-0.22819 -0.91523,0.0384 -1.9393,-0.0454 -2.2757,-0.18613 -0.33641,-0.14075 -1.24154,-0.19584 -2.0114,-0.12242 -0.76986,0.0734 -1.44051,0.018 -1.49032,-0.12303 -0.0498,-0.14108 -1.70493,-0.30276 -3.67802,-0.3593 -1.9731,-0.0565 -3.58899,-0.19221 -3.59087,-0.30151 -0.005,-0.28976 -10.39169,-1.14391 -10.8049,-0.88854 -0.19205,0.11869 -0.40205,0.0662 -0.46668,-0.11675 -0.0646,-0.1829 -1.69398,-0.38094 -3.62079,-0.44009 -1.9268,-0.0591 -3.5821,-0.19692 -3.67845,-0.30616 -0.0963,-0.10924 -12.23285,-1.34178 -26.97002,-2.73898 -14.73717,-1.3972 -26.84157,-2.587075 -26.89866,-2.644166 -0.0571,-0.05709 0.80761,-1.116923 1.92155,-2.355181 6.58225,-7.316816 20.1197,-22.722872 20.17591,-22.960825 0.0952,-0.402854 2.20236,-2.209901 2.56506,-2.199682 0.16725,0.0047 28.68067,9.449977 63.36317,20.989477 34.6825,11.539497 62.7438,20.974717 62.35843,20.967157 -0.38536,-0.008 -3.53831,-0.31296 -7.00656,-0.67864 z"
       id="path14641"
       transform="scale(0.26458333)" />
    <path
       style="fill:#000000;stroke-width:0.350328"
       d="M 166.30441,71.570974 C 142.06716,56.133929 122.3612,43.383997 122.51337,43.237792 c 0.15218,-0.146206 8.15908,1.778262 17.7931,4.276593 9.63403,2.498332 34.8367,9.020116 56.00594,14.492853 21.16924,5.472738 38.56457,10.025482 38.6563,10.11721 0.0917,0.09173 -1.77908,2.365994 -4.15735,5.053925 -2.37827,2.687929 -7.79238,8.838317 -12.03135,13.667526 -4.23897,4.829205 -7.86487,8.783087 -8.05755,8.786401 -0.19268,0.0032 -20.18081,-12.624279 -44.41805,-28.061326 z"
       id="path14680"
       transform="scale(0.26458333)" />
    <path
       style="fill:#000000;stroke-width:0.350328"
       d="m 227.55768,69.880292 c -1.33806,-0.356186 -2.55983,-0.569123 -2.71504,-0.473195 -0.15522,0.09593 -0.28222,0.02132 -0.28222,-0.165794 0,-0.28329 -2.04234,-0.851277 -3.32811,-0.925567 -0.19268,-0.01113 -0.55788,-0.150096 -0.81155,-0.308808 -0.25367,-0.158712 -0.55446,-0.195325 -0.66842,-0.08136 -0.11396,0.113962 -0.37936,0.07157 -0.58977,-0.09421 -0.33284,-0.262239 -3.60038,-1.18649 -4.5865,-1.297331 -0.19268,-0.02166 -0.60416,-0.150779 -0.91439,-0.286937 -0.31024,-0.136157 -0.94083,-0.297135 -1.40132,-0.357726 -0.46048,-0.06059 -1.07372,-0.20315 -1.36274,-0.316794 -0.55557,-0.218455 -4.29303,-1.179853 -5.44826,-1.401472 -0.37536,-0.07201 -0.93631,-0.241839 -1.24655,-0.377397 -0.31023,-0.135558 -0.94082,-0.296044 -1.40131,-0.356635 -0.46048,-0.06059 -1.07372,-0.203149 -1.36274,-0.316794 -0.61398,-0.241419 -4.33366,-1.178614 -5.60525,-1.412276 -0.48171,-0.08852 -1.32258,-0.334213 -1.86863,-0.545995 -0.54604,-0.211783 -1.12632,-0.302536 -1.28952,-0.201675 -0.1632,0.100862 -0.3847,0.04104 -0.49223,-0.132943 -0.10752,-0.173981 -0.70959,-0.413629 -1.33793,-0.532551 -1.76734,-0.334496 -2.34973,-0.475574 -5.17121,-1.252687 -1.44511,-0.398021 -8.06631,-2.135436 -14.71379,-3.860921 -18.36565,-4.767171 -47.08446,-12.255709 -47.39321,-12.357956 -0.15073,-0.04992 2.65377,-1.641192 6.23222,-3.536167 l 6.50627,-3.445409 10.7587,3.925517 c 5.91729,2.159034 15.64579,5.70716 21.61888,7.884726 35.72325,13.023344 62.02729,22.670527 62.15408,22.795419 0.27812,0.27397 -0.85799,0.07752 -3.27946,-0.567064 z"
       id="path14719"
       transform="scale(0.26458333)" />
    <path
       style="fill:#000000;stroke-width:0.350328"
       d="m 359.26165,112.91722 c -2.11949,-0.73334 -4.05067,-1.26044 -4.29152,-1.17134 -0.24086,0.0891 -0.43791,-0.008 -0.43791,-0.2148 0,-0.20725 -0.23648,-0.28607 -0.5255,-0.17516 -0.28902,0.1109 -0.52549,0.0321 -0.52549,-0.17517 0,-0.20725 -0.22629,-0.28998 -0.50286,-0.18385 -0.27657,0.10613 -0.55245,0.0602 -0.61307,-0.10204 -0.0606,-0.16225 -10.19967,-3.64676 -22.53123,-7.74336 -59.05532,-19.61844 -91.3904,-30.447582 -90.92978,-30.452729 0.9789,-0.01094 106.35385,15.398438 107.12088,15.664691 0.51249,0.177898 3.5935,4.595953 9.05861,12.989718 4.55509,6.99607 8.22561,12.76001 8.15672,12.80876 -0.0689,0.0487 -1.85937,-0.51137 -3.97885,-1.24472 z"
       id="path14758"
       transform="scale(0.26458333)" />
  </g>
</svg>
