<?xml version="1.0" encoding="UTF-8" standalone="no"?>
<!-- Created with Inkscape (http://www.inkscape.org/) -->

<svg
   width="97.156319mm"
   height="201.58366mm"
   viewBox="0 0 97.156319 201.58366"
   version="1.1"
   id="svg9020"
   xmlns="http://www.w3.org/2000/svg"
   xmlns:svg="http://www.w3.org/2000/svg">
  <defs
     id="defs9017" />
  <g
     id="layer1">
    <g
       id="g7695"
       transform="matrix(0.26458333,0,0,0.26458333,-262.92095,-70.961514)">
      <polygon
         fill="#7f5959"
         points="1264.635,1030.092 1080.382,1022.825 1147.681,996.246 "
         id="polygon7315" />
      <polygon
         fill="#c08686"
         points="1274.446,987.956 1264.635,1030.092 1147.681,996.246 "
         id="polygon7317" />
      <polygon
         fill="#a07070"
         points="1213.399,960.736 1274.446,987.956 1147.681,996.246 "
         id="polygon7319" />
      <polygon
         fill="#c48989"
         points="1125.31,919.06 1225.248,926.335 1130.094,962.852 "
         id="polygon7321" />
      <polygon
         fill="#825b5b"
         points="1147.681,996.246 1130.094,962.852 1213.399,960.736 "
         id="polygon7323" />
      <polygon
         fill="#bb8282"
         points="1130.094,962.852 1225.248,926.335 1213.399,960.736 "
         id="polygon7325" />
      <polygon
         fill="#ac7878"
         points="1125.31,919.06 1130.094,962.852 1053.118,924.195 "
         id="polygon7327" />
      <polygon
         fill="#ab7878"
         points="1080.382,1022.825 1025.156,983.846 1147.681,996.246 "
         id="polygon7329" />
      <polygon
         fill="#8a6161"
         points="1210.266,845.238 1302.064,922.102 1225.248,926.335 "
         id="polygon7331" />
      <polygon
         fill="#9e6f6f"
         points="1210.266,845.238 1125.31,919.06 1141.874,856.331 "
         id="polygon7333" />
      <polygon
         fill="#a37272"
         points="1225.248,926.335 1125.31,919.06 1210.266,845.238 "
         id="polygon7335" />
      <polygon
         fill="#996b6b"
         points="1130.094,962.852 1049.964,961.215 1053.118,924.195 "
         id="polygon7337" />
      <polygon
         fill="#895f5f"
         points="1147.681,996.246 1049.964,961.215 1130.094,962.852 "
         id="polygon7339" />
      <polygon
         fill="#785454"
         points="1147.681,996.246 1025.156,983.846 1049.964,961.215 "
         id="polygon7341" />
      <polygon
         fill="#624545"
         points="1301.668,962.272 1274.446,987.956 1213.399,960.736 "
         id="polygon7343" />
      <polygon
         fill="#976a6a"
         points="1225.248,926.335 1301.668,962.272 1213.399,960.736 "
         id="polygon7345" />
      <polygon
         fill="#9c6d6d"
         points="1225.248,926.335 1302.064,922.102 1301.668,962.272 "
         id="polygon7347" />
      <polygon
         fill="#906565"
         points="1264.635,1030.092 1274.446,987.956 1335.563,1022.322 "
         id="polygon7349" />
      <polygon
         fill="#694949"
         points="1338.432,984.864 1274.446,987.956 1301.668,962.272 "
         id="polygon7351" />
      <polygon
         fill="#875e5e"
         points="1338.432,984.864 1335.563,1022.322 1274.446,987.956 "
         id="polygon7353" />
      <polygon
         fill="#c88c8c"
         points="1153.655,332.55 1181.729,439.702 1126.135,405.657 "
         id="polygon7355" />
      <polygon
         fill="#c18787"
         points="1181.729,439.702 1206.227,437.649 1166.913,520.838 "
         id="polygon7357" />
      <polygon
         fill="#ca8d8d"
         points="1126.135,405.657 1181.729,439.702 1166.913,520.838 "
         id="polygon7359" />
      <polygon
         fill="#cb8e8e"
         points="1137.462,780.387 1161.183,604.342 1201.979,769.752 "
         id="polygon7361" />
      <polygon
         fill="#b88181"
         points="1210.266,845.238 1141.874,856.331 1137.462,780.387 "
         id="polygon7363" />
      <polygon
         fill="#bf8686"
         points="1210.266,845.238 1137.462,780.387 1201.979,769.752 "
         id="polygon7365" />
      <polygon
         fill="#7a5555"
         points="1080.382,1022.825 1012.164,1028.383 1025.156,983.846 "
         id="polygon7367" />
      <polygon
         fill="#1e1515"
         points="1012.164,1028.383 1080.382,1022.825 1264.635,1030.092 "
         id="polygon7369" />
      <polygon
         fill="#9b6c6c"
         points="1088.356,846.081 1137.462,780.387 1141.874,856.331 "
         id="polygon7371" />
      <polygon
         fill="#865e5e"
         points="1125.31,919.06 1053.118,924.195 1088.356,846.081 "
         id="polygon7373" />
      <polygon
         fill="#865e5e"
         points="1125.31,919.06 1088.356,846.081 1141.874,856.331 "
         id="polygon7375" />
      <polygon
         fill="#5a3f3f"
         points="1213.645,604.688 1161.183,604.342 1149.664,591.184 "
         id="polygon7377" />
      <polygon
         fill="#5f4242"
         points="1233.253,592.041 1213.645,604.688 1149.664,591.184 "
         id="polygon7379" />
      <polygon
         fill="#c78b8b"
         points="1161.183,604.342 1213.645,604.688 1201.979,769.752 "
         id="polygon7381" />
      <polygon
         fill="#b98282"
         points="1222.91,517.426 1233.253,592.041 1149.664,591.184 "
         id="polygon7383" />
      <polygon
         fill="#bf8585"
         points="1166.913,520.838 1206.227,437.649 1222.91,517.426 "
         id="polygon7385" />
      <polygon
         fill="#bc8484"
         points="1206.227,437.649 1222.183,387.076 1222.91,517.426 "
         id="polygon7387" />
      <polygon
         fill="#ba8282"
         points="1166.913,520.838 1222.91,517.426 1149.664,591.184 "
         id="polygon7389" />
      <polygon
         fill="#ab7777"
         points="1166.913,520.838 1122.656,519.274 1126.135,405.657 "
         id="polygon7391" />
      <polygon
         fill="#a27171"
         points="1149.664,591.184 1122.656,519.274 1166.913,520.838 "
         id="polygon7393" />
      <polygon
         fill="#976969"
         points="1126.135,405.657 1122.656,519.274 1090.682,438.866 "
         id="polygon7395" />
      <polygon
         fill="#a87676"
         points="1161.183,604.342 1137.462,780.387 1120.281,606.568 "
         id="polygon7397" />
      <polygon
         fill="#4a3434"
         points="1161.183,604.342 1120.281,606.568 1149.664,591.184 "
         id="polygon7399" />
      <polygon
         fill="#604343"
         points="1301.668,962.272 1302.064,922.102 1337.209,922.482 "
         id="polygon7401" />
      <polygon
         fill="#916666"
         points="1153.655,332.55 1126.135,405.657 1093.019,365.024 "
         id="polygon7403" />
      <polygon
         fill="#7e5858"
         points="1093.019,365.024 1126.135,405.657 1090.682,438.866 "
         id="polygon7405" />
      <polygon
         fill="#8f6464"
         points="1122.656,519.274 1149.664,591.184 1081.417,591.435 "
         id="polygon7407" />
      <polygon
         fill="#593e3e"
         points="1120.281,606.568 1081.417,591.435 1149.664,591.184 "
         id="polygon7409" />
      <polygon
         fill="#513939"
         points="1278.275,846.037 1337.209,922.482 1302.064,922.102 "
         id="polygon7411" />
      <polygon
         fill="#6e4d4d"
         points="1302.064,922.102 1210.266,845.238 1278.275,846.037 "
         id="polygon7413" />
      <polygon
         fill="#926666"
         points="1201.979,769.752 1213.645,604.688 1246.749,768.103 "
         id="polygon7415" />
      <polygon
         fill="#8c6262"
         points="1210.266,845.238 1201.979,769.752 1246.749,768.103 "
         id="polygon7417" />
      <polygon
         fill="#8b6161"
         points="1210.266,845.238 1246.749,768.103 1278.275,846.037 "
         id="polygon7419" />
      <polygon
         fill="#936666"
         points="1181.729,439.702 1153.655,332.55 1182.627,272.716 "
         id="polygon7421" />
      <polygon
         fill="#5c4141"
         points="1053.118,924.195 1049.964,961.215 1008.901,922.811 "
         id="polygon7423" />
      <polygon
         fill="#513838"
         points="1053.118,924.195 1008.901,922.811 1088.356,846.081 "
         id="polygon7425" />
      <polygon
         fill="#765353"
         points="1246.749,768.103 1213.645,604.688 1242.239,605.62 "
         id="polygon7427" />
      <polygon
         fill="#3a2828"
         points="1242.239,605.62 1213.645,604.688 1233.253,592.041 "
         id="polygon7429" />
      <polygon
         fill="#8e6363"
         points="1222.91,517.426 1222.183,387.076 1278.732,415.841 "
         id="polygon7431" />
      <polygon
         fill="#755252"
         points="1120.281,606.568 1137.462,780.387 1100.694,768.142 "
         id="polygon7433" />
      <polygon
         fill="#765353"
         points="1137.462,780.387 1088.356,846.081 1100.694,768.142 "
         id="polygon7435" />
      <polygon
         fill="#442f2f"
         points="1025.156,983.846 1012.164,1028.383 993.717,987.59 "
         id="polygon7437" />
      <polygon
         fill="#835b5b"
         points="1222.183,387.076 1216.701,312.192 1261.302,336.638 "
         id="polygon7439" />
      <polygon
         fill="#7a5555"
         points="1278.732,415.841 1222.183,387.076 1261.302,336.638 "
         id="polygon7441" />
      <polygon
         fill="#6b4b4b"
         points="1233.253,592.041 1222.91,517.426 1276.882,582.894 "
         id="polygon7443" />
      <polygon
         fill="#3b2929"
         points="1276.882,582.894 1242.239,605.62 1233.253,592.041 "
         id="polygon7445" />
      <polygon
         fill="#2e2020"
         points="1049.964,961.215 1025.156,983.846 1025.515,960.049 "
         id="polygon7447" />
      <polygon
         fill="#382727"
         points="1049.964,961.215 1025.515,960.049 1008.901,922.811 "
         id="polygon7449" />
      <polygon
         fill="#2c1f1f"
         points="993.717,987.59 1025.515,960.049 1025.156,983.846 "
         id="polygon7451" />
      <polygon
         fill="#8b6161"
         points="1153.655,332.55 1145.903,268.201 1182.627,272.716 "
         id="polygon7453" />
      <polygon
         fill="#785454"
         points="1153.655,332.55 1093.019,365.024 1145.903,268.201 "
         id="polygon7455" />
      <polygon
         fill="#3d2a2a"
         points="1103.663,525.605 1122.656,519.274 1081.417,591.435 "
         id="polygon7457" />
      <polygon
         fill="#503838"
         points="1090.682,438.866 1122.656,519.274 1103.663,525.605 "
         id="polygon7459" />
      <polygon
         fill="#3d2b2b"
         points="1120.281,606.568 1100.694,768.142 1106.703,605.166 "
         id="polygon7461" />
      <polygon
         fill="#1a1212"
         points="1106.703,605.166 1081.417,591.435 1120.281,606.568 "
         id="polygon7463" />
      <polygon
         fill="#402d2d"
         points="1241.644,513.371 1276.882,582.894 1222.91,517.426 "
         id="polygon7465" />
      <polygon
         fill="#392727"
         points="1241.644,513.371 1222.91,517.426 1278.732,415.841 "
         id="polygon7467" />
      <polygon
         fill="#281c1c"
         points="1090.682,438.866 1081.45,424.398 1093.019,365.024 "
         id="polygon7469" />
      <polygon
         fill="#1d1414"
         points="1103.663,525.605 1081.45,424.398 1090.682,438.866 "
         id="polygon7471" />
      <polygon
         fill="#2a1d1d"
         points="1301.668,962.272 1337.209,922.482 1325.655,960.411 "
         id="polygon7473" />
      <polygon
         fill="#231818"
         points="1325.655,960.411 1338.432,984.864 1301.668,962.272 "
         id="polygon7475" />
      <polygon
         fill="#181818"
         points="1276.882,582.894 1233.786,607.091 1242.239,605.62 "
         id="polygon7477" />
      <polygon
         fill="#333333"
         points="1110.564,761.799 1106.703,605.166 1100.694,768.142 "
         id="polygon7479" />
      <polygon
         fill="#332323"
         points="1338.432,984.864 1360.922,1003.356 1335.563,1022.322 "
         id="polygon7481" />
      <polygon
         points="1360.922,1003.356 1338.432,984.864 1325.655,960.411 "
         id="polygon7483" />
      <polygon
         fill="#272727"
         points="1110.564,761.799 1100.694,768.142 1078.031,842.928 "
         id="polygon7485" />
      <polygon
         fill="#221717"
         points="1100.694,768.142 1088.356,846.081 1078.031,842.928 "
         id="polygon7487" />
      <polygon
         fill="#1f1616"
         points="1008.901,922.811 1078.031,842.928 1088.356,846.081 "
         id="polygon7489" />
      <polygon
         fill="#1c1414"
         points="1261.302,336.638 1216.701,312.192 1226.174,310.661 "
         id="polygon7491" />
      <polygon
         fill="#6d6d6d"
         points="1261.302,336.638 1226.174,310.661 1263.554,412.658 "
         id="polygon7493" />
      <polygon
         fill="#414141"
         points="1278.732,415.841 1261.302,336.638 1263.554,412.658 "
         id="polygon7495" />
      <polygon
         fill="#454545"
         points="1263.554,412.658 1241.644,513.371 1278.732,415.841 "
         id="polygon7497" />
      <polygon
         fill="#1c1414"
         points="1012.164,1028.383 1001.49,1023.145 993.717,987.59 "
         id="polygon7499" />
      <polygon
         fill="#2c2c2c"
         points="1233.786,607.091 1242.146,781.781 1242.239,605.62 "
         id="polygon7501" />
      <polygon
         fill="#1b1b1b"
         points="1246.749,768.103 1242.239,605.62 1242.146,781.781 "
         id="polygon7503" />
      <polygon
         fill="#282828"
         points="1246.749,768.103 1242.146,781.781 1278.275,846.037 "
         id="polygon7505" />
      <polygon
         fill="#121212"
         points="1145.903,268.201 1093.019,365.024 1100.393,355.902 "
         id="polygon7507" />
      <polygon
         fill="#181818"
         points="1100.393,355.902 1093.019,365.024 1081.45,424.398 "
         id="polygon7509" />
      <polygon
         fill="#878787"
         points="1100.393,355.902 1179.276,290.083 1145.903,268.201 "
         id="polygon7511" />
      <polygon
         fill="#151515"
         points="1182.627,272.716 1179.276,290.083 1181.729,439.702 "
         id="polygon7513" />
      <polygon
         fill="#3d3d3d"
         points="1179.276,290.083 1182.627,272.716 1145.903,268.201 "
         id="polygon7515" />
      <polygon
         fill="#1f1f1f"
         points="1081.417,591.435 1089.658,591.353 1103.663,525.605 "
         id="polygon7517" />
      <polygon
         fill="#171717"
         points="1089.658,591.353 1081.417,591.435 1106.703,605.166 "
         id="polygon7519" />
      <polygon
         fill="#2f2f2f"
         points="1130.547,605.692 1089.658,591.353 1106.703,605.166 "
         id="polygon7521" />
      <polygon
         fill="#6c6c6c"
         points="1130.547,605.692 1106.703,605.166 1110.564,761.799 "
         id="polygon7523" />
      <polygon
         fill="#747474"
         points="1103.663,525.605 1132.151,517.278 1081.45,424.398 "
         id="polygon7525" />
      <polygon
         fill="#5c5c5c"
         points="1132.151,517.278 1103.663,525.605 1089.658,591.353 "
         id="polygon7527" />
      <polygon
         fill="#292929"
         points="1266.885,852.989 1278.275,846.037 1242.146,781.781 "
         id="polygon7529" />
      <polygon
         fill="#292929"
         points="1330.315,922.568 1278.275,846.037 1266.885,852.989 "
         id="polygon7531" />
      <polygon
         fill="#171717"
         points="1330.315,922.568 1337.209,922.482 1278.275,846.037 "
         id="polygon7533" />
      <polygon
         fill="#1a1a1a"
         points="1337.209,922.482 1330.315,922.568 1325.655,960.411 "
         id="polygon7535" />
      <polygon
         fill="#262626"
         points="1008.901,922.811 1024.199,922.496 1078.031,842.928 "
         id="polygon7537" />
      <polygon
         fill="#767676"
         points="1203.311,508.908 1241.644,513.371 1263.554,412.658 "
         id="polygon7539" />
      <polygon
         fill="#717171"
         points="1241.644,513.371 1203.311,508.908 1276.882,582.894 "
         id="polygon7541" />
      <polygon
         fill="#6f6f6f"
         points="1132.151,517.278 1113.368,438.286 1081.45,424.398 "
         id="polygon7543" />
      <polygon
         fill="#828282"
         points="1113.368,438.286 1100.393,355.902 1081.45,424.398 "
         id="polygon7545" />
      <polygon
         fill="#a9a9a9"
         points="1242.146,781.781 1233.786,607.091 1184.742,604.985 "
         id="polygon7547" />
      <polygon
         fill="#9a9a9a"
         points="1078.031,842.928 1149.724,766.504 1110.564,761.799 "
         id="polygon7549" />
      <polygon
         fill="#9c9c9c"
         points="1110.564,761.799 1149.724,766.504 1130.547,605.692 "
         id="polygon7551" />
      <polygon
         fill="#c1c1c1"
         points="1184.742,604.985 1130.547,605.692 1149.724,766.504 "
         id="polygon7553" />
      <polygon
         fill="#a1a1a1"
         points="1242.146,781.781 1184.742,604.985 1202.167,778.742 "
         id="polygon7555" />
      <polygon
         fill="#cbcbcb"
         points="1184.742,604.985 1149.724,766.504 1202.167,778.742 "
         id="polygon7557" />
      <polygon
         fill="#232323"
         points="1226.174,310.661 1216.701,312.192 1216.251,416.961 "
         id="polygon7559" />
      <polygon
         fill="#101010"
         points="1222.183,387.076 1206.227,437.649 1216.251,416.961 "
         id="polygon7561" />
      <polygon
         fill="#9f9f9f"
         points="1263.554,412.658 1226.174,310.661 1216.251,416.961 "
         id="polygon7563" />
      <polygon
         points="1216.701,312.192 1222.183,387.076 1216.251,416.961 "
         id="polygon7565" />
      <polygon
         fill="#9d9d9d"
         points="1216.251,416.961 1203.311,508.908 1263.554,412.658 "
         id="polygon7567" />
      <polygon
         fill="#212121"
         points="993.717,987.59 1013.858,982.517 1025.515,960.049 "
         id="polygon7569" />
      <polygon
         fill="#373737"
         points="1013.858,982.517 993.717,987.59 1001.49,1023.145 "
         id="polygon7571" />
      <polygon
         fill="#414141"
         points="1233.786,607.091 1233.022,593.69 1184.742,604.985 "
         id="polygon7573" />
      <polygon
         fill="#656565"
         points="1276.882,582.894 1203.311,508.908 1233.022,593.69 "
         id="polygon7575" />
      <polygon
         fill="#383838"
         points="1276.882,582.894 1233.022,593.69 1233.786,607.091 "
         id="polygon7577" />
      <polygon
         fill="#292929"
         points="1025.515,960.049 1013.858,982.517 1045.907,962.483 "
         id="polygon7579" />
      <polygon
         fill="#2a2a2a"
         points="1045.907,962.483 1024.199,922.496 1008.901,922.811 "
         id="polygon7581" />
      <polygon
         fill="#343434"
         points="1045.907,962.483 1008.901,922.811 1025.515,960.049 "
         id="polygon7583" />
      <polygon
         fill="#bebebe"
         points="1132.151,517.278 1180.918,446.002 1113.368,438.286 "
         id="polygon7585" />
      <polygon
         fill="#181111"
         points="1206.227,437.649 1180.918,446.002 1216.251,416.961 "
         id="polygon7587" />
      <polygon
         fill="#bbbbbb"
         points="1180.918,446.002 1203.311,508.908 1216.251,416.961 "
         id="polygon7589" />
      <polygon
         fill="#dddddd"
         points="1181.729,439.702 1179.276,290.083 1180.918,446.002 "
         id="polygon7591" />
      <polygon
         fill="#bfbfbf"
         points="1203.311,508.908 1180.918,446.002 1132.151,517.278 "
         id="polygon7593" />
      <polygon
         fill="#131313"
         points="1181.729,439.702 1180.918,446.002 1206.227,437.649 "
         id="polygon7595" />
      <polygon
         fill="#a0a0a0"
         points="1179.276,290.083 1100.393,355.902 1145.249,387.7 "
         id="polygon7597" />
      <polygon
         fill="#b5b5b5"
         points="1179.276,290.083 1145.249,387.7 1180.918,446.002 "
         id="polygon7599" />
      <polygon
         fill="#c1c1c1"
         points="1180.918,446.002 1145.249,387.7 1113.368,438.286 "
         id="polygon7601" />
      <polygon
         fill="#9d9d9d"
         points="1145.249,387.7 1100.393,355.902 1113.368,438.286 "
         id="polygon7603" />
      <polygon
         fill="#575757"
         points="1142.936,591.411 1089.658,591.353 1130.547,605.692 "
         id="polygon7605" />
      <polygon
         fill="#4f4f4f"
         points="1184.742,604.985 1142.936,591.411 1130.547,605.692 "
         id="polygon7607" />
      <polygon
         fill="#b3b3b3"
         points="1203.311,508.908 1132.151,517.278 1142.936,591.411 "
         id="polygon7609" />
      <polygon
         fill="#c6c6c6"
         points="1203.311,508.908 1142.936,591.411 1233.022,593.69 "
         id="polygon7611" />
      <polygon
         fill="#777777"
         points="1233.022,593.69 1142.936,591.411 1184.742,604.985 "
         id="polygon7613" />
      <polygon
         fill="#989898"
         points="1142.936,591.411 1132.151,517.278 1089.658,591.353 "
         id="polygon7615" />
      <polygon
         fill="#bfbfbf"
         points="1149.724,766.504 1143.975,846.193 1202.167,778.742 "
         id="polygon7617" />
      <polygon
         fill="#919191"
         points="1143.975,846.193 1149.724,766.504 1078.031,842.928 "
         id="polygon7619" />
      <polygon
         fill="#979797"
         points="1266.885,852.989 1242.146,781.781 1210.087,856.352 "
         id="polygon7621" />
      <polygon
         fill="#959595"
         points="1210.087,856.352 1242.146,781.781 1202.167,778.742 "
         id="polygon7623" />
      <polygon
         fill="#bcbcbc"
         points="1202.167,778.742 1143.975,846.193 1210.087,856.352 "
         id="polygon7625" />
      <polygon
         fill="#5d5d5d"
         points="1013.858,982.517 1001.49,1023.145 1037.6,1017.242 "
         id="polygon7627" />
      <polygon
         fill="#7c7c7c"
         points="1210.087,856.352 1277.016,920.885 1266.885,852.989 "
         id="polygon7629" />
      <polygon
         fill="#686868"
         points="1266.885,852.989 1277.016,920.885 1330.315,922.568 "
         id="polygon7631" />
      <polygon
         fill="#171717"
         points="1360.922,1003.356 1291.309,1028.792 1335.563,1022.322 "
         id="polygon7633" />
      <polygon
         fill="#dd9999"
         points="1335.563,1022.322 1291.309,1028.792 1264.635,1030.092 "
         id="polygon7635" />
      <polygon
         fill="#7a7a7a"
         points="1277.016,920.885 1250.36,963.222 1330.315,922.568 "
         id="polygon7637" />
      <polygon
         fill="#717171"
         points="1325.655,960.411 1330.315,922.568 1250.36,963.222 "
         id="polygon7639" />
      <polygon
         fill="#4f4f4f"
         points="1250.36,963.222 1285.718,985.313 1325.655,960.411 "
         id="polygon7641" />
      <polygon
         fill="#7a7a7a"
         points="1360.922,1003.356 1285.718,985.313 1291.309,1028.792 "
         id="polygon7643" />
      <polygon
         fill="#575757"
         points="1285.718,985.313 1360.922,1003.356 1325.655,960.411 "
         id="polygon7645" />
      <polygon
         fill="#959595"
         points="1136.479,961.697 1098.999,920.96 1045.907,962.483 "
         id="polygon7647" />
      <polygon
         fill="#8c8c8c"
         points="1045.907,962.483 1098.999,920.96 1024.199,922.496 "
         id="polygon7649" />
      <polygon
         fill="#767676"
         points="1078.031,842.928 1098.999,920.96 1143.975,846.193 "
         id="polygon7651" />
      <polygon
         fill="#717171"
         points="1024.199,922.496 1098.999,920.96 1078.031,842.928 "
         id="polygon7653" />
      <polygon
         fill="#676767"
         points="1013.858,982.517 1079.766,984.054 1045.907,962.483 "
         id="polygon7655" />
      <polygon
         fill="#8c8c8c"
         points="1037.6,1017.242 1079.766,984.054 1013.858,982.517 "
         id="polygon7657" />
      <polygon
         fill="#5c5c5c"
         points="1079.766,984.054 1136.479,961.697 1045.907,962.483 "
         id="polygon7659" />
      <polygon
         fill="#9d9d9d"
         points="1206.726,922.994 1210.087,856.352 1143.975,846.193 "
         id="polygon7661" />
      <polygon
         fill="#a6a6a6"
         points="1098.999,920.96 1206.726,922.994 1143.975,846.193 "
         id="polygon7663" />
      <polygon
         fill="#c7c7c7"
         points="1136.479,961.697 1206.726,922.994 1098.999,920.96 "
         id="polygon7665" />
      <polygon
         fill="#b2b2b2"
         points="1250.36,963.222 1206.726,922.994 1136.479,961.697 "
         id="polygon7667" />
      <polygon
         fill="#979797"
         points="1206.726,922.994 1277.016,920.885 1210.087,856.352 "
         id="polygon7669" />
      <polygon
         fill="#b8b8b8"
         points="1250.36,963.222 1277.016,920.885 1206.726,922.994 "
         id="polygon7671" />
      <polygon
         fill="#cc9999"
         points="1264.635,1030.092 1138.412,1029.587 1012.164,1028.383 "
         id="polygon7673" />
      <polygon
         fill="#dddddd"
         points="1291.309,1028.792 1138.412,1029.587 1264.635,1030.092 "
         id="polygon7675" />
      <polygon
         fill="#141414"
         points="1138.412,1029.587 1001.49,1023.145 1012.164,1028.383 "
         id="polygon7677" />
      <polygon
         fill="#2c2c2c"
         points="1138.412,1029.587 1037.6,1017.242 1001.49,1023.145 "
         id="polygon7679" />
      <polygon
         fill="#ababab"
         points="1079.766,984.054 1037.6,1017.242 1138.412,1029.587 "
         id="polygon7681" />
      <polygon
         fill="#c3c3c3"
         points="1187.296,989.642 1079.766,984.054 1138.412,1029.587 "
         id="polygon7683" />
      <polygon
         fill="#bababa"
         points="1285.718,985.313 1187.296,989.642 1291.309,1028.792 "
         id="polygon7685" />
      <polygon
         fill="#717171"
         points="1187.296,989.642 1250.36,963.222 1136.479,961.697 "
         id="polygon7687" />
      <polygon
         fill="#8d8d8d"
         points="1187.296,989.642 1285.718,985.313 1250.36,963.222 "
         id="polygon7689" />
      <polygon
         fill="#969696"
         points="1187.296,989.642 1136.479,961.697 1079.766,984.054 "
         id="polygon7691" />
      <polygon
         fill="#a8a8a8"
         points="1138.412,1029.587 1291.309,1028.792 1187.296,989.642 "
         id="polygon7693" />
    </g>
  </g>
  <g
     id="layer2"
     style="opacity:0.69;mix-blend-mode:normal">
    <path
       style="fill:#000000;stroke-width:0.500915"
       d="m 96.676506,322.59682 c 0,-0.13343 5.210974,-9.31895 11.579944,-20.41227 6.36898,-11.09331 15.66658,-27.31158 20.66134,-36.04059 4.99477,-8.72901 9.22059,-15.60407 9.39072,-15.2779 0.17012,0.32617 0.44386,1.60739 0.6083,2.84715 0.16444,1.23977 2.44905,17.04207 5.0769,35.11624 2.62785,18.07417 4.77791,33.12039 4.77791,33.43605 0,0.42393 -6.80743,0.57392 -26.04756,0.57392 -14.32615,0 -26.047554,-0.10917 -26.047554,-0.2426 z"
       id="path1908"
       transform="scale(0.26458333)" />
    <path
       style="fill:#000000;stroke-width:0.500915"
       d="m 16.034992,654.06916 c 0.0031,-0.20663 3.522058,-4.43309 7.819797,-9.39215 4.297739,-4.95905 14.151313,-16.34234 21.89683,-25.29618 28.851998,-33.35302 33.023854,-38.10459 33.253794,-37.87465 0.129512,0.12951 -10.734704,16.44926 -24.142695,36.26612 l -24.378168,36.03065 -3.796818,0.32094 c -5.132009,0.43382 -10.659754,0.40542 -10.65274,-0.0547 z"
       id="path1947"
       transform="scale(0.26458333)" />
    <path
       style="fill:#000000;stroke-width:0.500915"
       d="m 34.758741,675.33593 c -8.273625,-8.87282 -15.874306,-17.06345 -16.890403,-18.2014 l -1.847448,-2.06901 4.637647,-0.32458 c 6.024256,-0.42162 9.359744,-0.50954 9.567105,-0.25216 0.631279,0.78353 19.886497,36.66911 19.749272,36.80634 -0.09527,0.0953 -6.942547,-7.08637 -15.216173,-15.95919 z"
       id="path1986"
       transform="scale(0.26458333)" />
    <path
       style="fill:#000000;stroke-width:0.500915"
       d="m 42.828193,692.98053 c -3.857042,-0.50188 -7.91445,-0.93157 -9.016462,-0.95488 l -2.003658,-0.0424 -7.764175,-17.55092 c -4.270297,-9.653 -7.83861,-17.81738 -7.929584,-18.14307 -0.209324,-0.74936 1.208664,0.73221 17.655304,18.44697 7.415419,7.98719 14.507409,15.59286 15.759978,16.9015 2.632141,2.74997 3.215282,2.63312 -6.701403,1.34278 z"
       id="path2025"
       transform="scale(0.26458333)" />
    <path
       style="fill:#000000;stroke-width:0.500915"
       d="m 26.351946,702.57201 5.456127,-10.61084 2.254116,0.27188 c 1.239763,0.14953 3.589635,0.41243 5.221938,0.58422 1.632302,0.17179 3.322889,0.37498 3.756859,0.45153 0.43397,0.0766 2.42327,0.30272 4.420667,0.50259 1.997396,0.19987 3.622547,0.50598 3.611447,0.68024 -0.02037,0.3197 -28.552895,18.18632 -29.608692,18.5405 -0.312724,0.1049 1.886668,-4.58415 4.887538,-10.42012 z"
       id="path2064"
       transform="scale(0.26458333)" />
    <path
       style="fill:#000000;stroke-width:0.500915"
       d="M 2.2680297,717.60818 C 5.4133391,714.5717 30.21693,693.51127 30.414773,693.70911 c 0.343971,0.34397 -8.685286,17.85166 -10.012462,19.41412 -0.938563,1.10495 -2.456416,1.64466 -9.497122,3.37691 -9.6064432,2.36351 -9.98838489,2.41251 -8.6371593,1.10804 z"
       id="path2103"
       transform="scale(0.26458333)" />
    <path
       style="fill:#000000;stroke-width:0.500915"
       d="m 7.4872072,753.62592 c -0.1006197,-0.44231 -0.3949721,-2.20108 -0.7007474,-4.187 -0.1636859,-1.06308 -0.5099075,-2.32956 -0.7693812,-2.81439 -0.2594737,-0.48484 -0.3708506,-0.98244 -0.2475039,-1.10578 0.1233467,-0.12335 -0.00987,-0.99828 -0.296042,-1.94429 -0.2861694,-0.94602 -0.628278,-2.50897 -0.7602415,-3.47323 -0.1319629,-0.96426 -0.4973184,-2.65485 -0.811901,-3.75686 -0.3145827,-1.10201 -0.5406059,-2.14734 -0.5022738,-2.32296 0.038332,-0.17561 -0.1608015,-1.07726 -0.442519,-2.00365 -0.2817176,-0.9264 -0.6269768,-2.57642 -0.7672428,-3.66672 -0.140266,-1.09029 -0.3978169,-2.21339 -0.5723352,-2.49576 -0.1745184,-0.28238 -0.3701594,-0.85549 -0.4347578,-1.27359 -0.334961,-2.16796 -0.59716086,-3.34644 -0.91460658,-4.11078 -0.39509735,-0.9513 -1.15334206,-0.69608 11.37860798,-3.82994 4.339172,-1.0851 7.889404,-1.76524 7.889404,-1.51144 0,0.25381 -1.670864,5.91992 -3.71303,12.59135 -2.042166,6.67144 -4.545534,14.94754 -5.56304,18.39133 -1.6692107,5.6495 -2.6139876,8.21003 -2.7723898,7.51371 z"
       id="path2142"
       transform="scale(0.26458333)" />
    <path
       style="fill:#000000;stroke-width:0.500915"
       d="m 12.798424,739.26705 c 2.578984,-8.49505 5.321814,-17.50146 6.095178,-20.01425 l 1.406117,-4.56871 5.582756,8.32557 c 3.070516,4.57906 8.287502,12.28069 11.593303,17.11473 l 6.010549,8.78916 -16.60879,2.66042 c -9.134834,1.46323 -17.094651,2.76801 -17.6884824,2.89952 -1.00346,0.22221 -0.7486147,-0.85146 3.6093694,-15.20644 z"
       id="path2181"
       transform="scale(0.26458333)" />
    <path
       style="fill:#000000;stroke-width:0.500915"
       d="m 78.89404,758.13558 c -26.999294,-1.30996 -51.907269,-2.51757 -55.351057,-2.68356 -3.443787,-0.16599 -7.820528,-0.30665 -9.72609,-0.31258 -1.905563,-0.006 -3.32332,-0.15211 -3.150573,-0.32486 0.409166,-0.40917 4.305151,-1.25021 5.683847,-1.227 0.58975,0.01 7.013979,-0.95462 14.276064,-2.14344 l 13.203791,-2.16148 45.583223,5.62902 c 25.070775,3.09596 44.005345,5.62376 42.076825,5.61734 -1.92852,-0.006 -25.59674,-1.08347 -52.59603,-2.39344 z"
       id="path2220"
       transform="scale(0.26458333)" />
    <path
       style="fill:#000000;stroke-width:0.500915"
       d="m 32.388509,731.78682 c -6.292832,-9.24378 -11.340218,-16.90817 -11.216413,-17.03197 0.251967,-0.25197 43.207005,0.67929 55.842798,1.21067 l 8.139145,0.34227 -10.643718,8.36683 c -5.854044,4.60176 -15.089701,11.87128 -20.523681,16.15449 -5.43398,4.28322 -9.94221,7.78248 -10.018291,7.77613 -0.07608,-0.006 -5.287008,-7.57464 -11.57984,-16.81842 z"
       id="path2259"
       transform="scale(0.26458333)" />
    <path
       style="fill:#000000;stroke-width:0.500915"
       d="m 57.605172,715.02968 c -24.81655,-0.61616 -35.716944,-0.96105 -35.891494,-1.1356 -0.184664,-0.18466 29.332619,-18.70709 30.221399,-18.96426 0.494226,-0.14301 32.71948,19.99388 32.71948,20.44572 0,0.22745 -8.161726,0.1231 -27.049385,-0.34586 z"
       id="path2298"
       transform="scale(0.26458333)" />
    <path
       style="fill:#000000;stroke-width:0.500915"
       d="m 45.319845,681.04972 c -3.831312,-7.05635 -8.614996,-15.84687 -10.630409,-19.5345 -2.015413,-3.68763 -3.600913,-6.7656 -3.523333,-6.83994 0.203465,-0.19497 72.724717,-1.69864 72.911587,-1.51177 0.1268,0.1268 -23.818868,18.97188 -47.253741,37.18838 l -4.538083,3.52756 z"
       id="path2337"
       transform="scale(0.26458333)" />
    <path
       style="fill:#000000;stroke-width:0.500915"
       d="m 39.282581,641.72192 c 4.601769,-6.79162 11.075255,-16.3437 14.385525,-21.22684 3.310271,-4.88313 11.463529,-16.93689 18.118352,-26.78612 6.654823,-9.84924 12.398582,-17.9077 12.763909,-17.9077 0.365327,0 0.532587,0.21301 0.371688,0.47335 -0.406482,0.65769 1.249502,7.04037 1.82662,7.04037 0.258267,0 0.33685,0.21476 0.174629,0.47724 -0.162226,0.26249 1.043245,5.3906 2.678816,11.39581 8.815375,32.36669 15.22123,56.787 14.96374,57.04449 -0.29019,0.29019 -20.000376,0.82173 -55.171035,1.48783 l -18.479096,0.34998 z"
       id="path2376"
       transform="scale(0.26458333)" />
    <path
       style="fill:#000000;stroke-width:0.500915"
       d="m 55.684941,691.88833 c 1.469382,-1.19081 8.87042,-6.99808 16.446753,-12.90506 7.576332,-5.90698 18.022859,-14.07003 23.214504,-18.14011 5.191642,-4.07008 9.621192,-7.40014 9.843452,-7.40014 0.36275,0 37.13049,39.71687 36.91083,39.87143 -0.0502,0.0353 -20.11529,0.21601 -44.589175,0.40158 l -44.497966,0.3374 z"
       id="path2415"
       transform="scale(0.26458333)" />
    <path
       style="fill:#000000;stroke-width:0.500915"
       d="M 70.158192,705.54247 C 61.496434,700.03564 54.208816,695.32933 53.963486,695.084 c -0.575592,-0.57559 40.840461,-1.18256 66.506464,-0.97468 l 19.53566,0.15823 -11.27057,4.45854 c -27.35176,10.82012 -42.605199,16.83027 -42.712467,16.82956 -0.06365,-4.2e-4 -7.202622,-4.50636 -15.864381,-10.01318 z"
       id="path2454"
       transform="scale(0.26458333)" />
    <path
       style="fill:#000000;stroke-width:0.500915"
       d="m 93.170104,754.8611 c -25.208524,-3.11592 -46.474457,-5.73924 -47.25763,-5.82959 -1.308995,-0.15101 -0.904612,-0.57163 5.009146,-5.21021 3.538202,-2.77526 12.776824,-10.04478 20.53027,-16.15449 7.753447,-6.10971 14.334179,-11.10856 14.62385,-11.10856 0.446997,0 10.601587,7.7576 33.14192,25.31878 18.39523,14.33172 22.37499,17.45488 23.02418,18.06845 0.63143,0.5968 0.4572,0.68543 -1.25229,0.63709 -1.09217,-0.0309 -22.61092,-2.60554 -47.819446,-5.72147 z"
       id="path2493"
       transform="scale(0.26458333)" />
    <path
       style="fill:#000000;stroke-width:0.500915"
       d="M 140.72718,757.99862 C 138.92002,756.5579 126.13051,746.60426 112.30606,735.87942 98.481602,725.15459 87.224436,716.327 87.290135,716.26256 c 0.147806,-0.14497 92.174975,4.60778 99.858585,5.1572 l 5.5672,0.39809 -23.55994,19.22912 c -12.95797,10.57601 -23.91614,19.30607 -24.35149,19.40013 -0.43536,0.0941 -2.27015,-1.00775 -4.07731,-2.44848 z"
       id="path2532"
       transform="scale(0.26458333)" />
    <path
       style="fill:#000000;stroke-width:0.500915"
       d="m 137.39586,718.34916 c -26.78163,-1.42212 -48.807753,-2.69954 -48.946926,-2.83871 -0.267536,-0.26753 53.270236,-21.49336 54.212576,-21.49336 0.4992,0 44.38961,23.89629 47.93647,26.09918 l 1.50275,0.93333 -3.00549,-0.0574 c -1.65302,-0.0316 -24.91774,-1.22094 -51.69938,-2.64306 z"
       id="path2571"
       transform="scale(0.26458333)" />
    <path
       style="fill:#000000;stroke-width:0.500915"
       d="m 146.26705,760.52329 c 2.71521,-2.67267 47.34864,-38.67451 47.78966,-38.5477 1.45684,0.41891 63.8863,23.86242 93.71869,35.19324 l 9.01646,3.4246 -36.06584,0.023 c -19.83622,0.0127 -53.87336,0.16327 -75.6381,0.33473 -34.89847,0.27491 -39.4835,0.22437 -38.82087,-0.42787 z"
       id="path2610"
       transform="scale(0.26458333)" />
    <path
       style="fill:#000000;stroke-width:0.500915"
       d="m 249.95635,742.39171 c -53.62391,-20.17803 -55.11355,-20.75058 -54.09877,-20.79328 0.41326,-0.0174 21.15112,-0.933 46.08414,-2.0347 24.93302,-1.10169 46.35731,-2.00321 47.60952,-2.00337 l 2.27675,-2.8e-4 2.66246,20.74731 c 1.46435,11.41103 2.58122,20.96346 2.48193,21.22763 -0.0993,0.26418 -21.2565,-7.45032 -47.01603,-17.14331 z"
       id="path2649"
       transform="scale(0.26458333)" />
    <path
       style="fill:#000000;stroke-width:0.500915"
       d="m 196.3585,720.60718 c 0.65873,-0.37596 17.49205,-7.4497 50.0817,-21.04545 5.36694,-2.23898 10.02532,-4.008 10.35195,-3.93116 0.32664,0.0768 8.16852,4.87337 17.42641,10.65893 l 16.83252,10.5192 -6.39653,0.35505 c -8.18446,0.45428 -86.20513,3.90773 -87.82669,3.8875 -0.93155,-0.0116 -1.04274,-0.11682 -0.46936,-0.44407 z"
       id="path2688"
       transform="scale(0.26458333)" />
    <path
       style="fill:#000000;stroke-width:0.500915"
       d="m 175.57055,711.31275 c -9.64261,-5.32057 -17.70107,-9.57209 -17.9077,-9.44783 -0.20663,0.12426 -0.37568,0.0286 -0.37568,-0.21247 0,-0.24113 -3.0352,-2.10315 -6.74488,-4.13784 -3.70968,-2.03469 -6.69638,-3.7226 -6.63712,-3.75092 0.17178,-0.0821 64.0089,0.73372 89.02009,1.13763 l 22.79161,0.36806 -4.75869,1.95498 c -2.61727,1.07525 -5.66033,2.35347 -6.76234,2.84049 -1.10201,0.48703 -6.6246,2.7903 -12.27241,5.11838 -5.64781,2.32808 -16.51626,6.85421 -24.15211,10.05806 -7.63585,3.20385 -14.06008,5.8072 -14.27606,5.7852 -0.21599,-0.022 -8.28211,-4.39317 -17.92471,-9.71374 z"
       id="path2727"
       transform="scale(0.26458333)" />
    <path
       style="fill:#000000;stroke-width:0.500915"
       d="m 181.39923,693.80154 -37.75088,-0.53582 34.31948,-18.90952 c 18.87571,-10.40024 34.59039,-18.90953 34.9215,-18.90953 0.3311,0 4.80558,3.90919 9.94328,8.68708 8.46184,7.86923 25.72212,23.80733 30.84834,28.48528 l 2.03592,1.85789 -18.28338,-0.0698 c -10.05586,-0.0384 -35.27127,-0.3109 -56.03426,-0.6056 z"
       id="path2766"
       transform="scale(0.26458333)" />
    <path
       style="fill:#000000;stroke-width:0.500915"
       d="m 124.32902,673.14045 c -9.99964,-10.90011 -18.09861,-19.90093 -17.99772,-20.00182 0.20064,-0.20064 72.60412,1.12519 92.84331,1.70012 l 12.58393,0.35747 -29.57962,16.27972 c -16.26879,8.95385 -31.72672,17.46313 -34.35095,18.90952 -2.62424,1.44639 -4.89429,2.61711 -5.04456,2.60159 -0.15027,-0.0155 -8.45475,-8.94649 -18.45439,-19.8466 z"
       id="path2805"
       transform="scale(0.26458333)" />
    <path
       style="fill:#000000;stroke-width:0.500915"
       d="m 296.37801,749.2709 c -0.7689,-6.00758 -1.99359,-15.47977 -2.72152,-21.04932 -0.72793,-5.56955 -1.19918,-10.25078 -1.04722,-10.40274 0.23415,-0.23415 16.35753,3.55954 65.25362,15.3536 l 8.475,2.04422 -11.9814,4.38198 c -6.58977,2.41009 -21.6741,7.93379 -33.52073,12.2749 -11.84663,4.3411 -21.88141,7.98906 -22.29953,8.10658 -0.63387,0.17815 -0.99253,-1.60153 -2.15822,-10.70922 z"
       id="path2844"
       transform="scale(0.26458333)" />
    <path
       style="fill:#000000;stroke-width:0.500915"
       d="m 333.10817,726.78923 c -17.49444,-4.23266 -32.08984,-7.59701 -32.43422,-7.47634 -0.34438,0.12067 -0.62614,0.0424 -0.62614,-0.17389 0,-0.21632 -1.46725,-0.68494 -3.26055,-1.04139 -1.7933,-0.35646 -3.3716,-0.82779 -3.50734,-1.04742 -0.13574,-0.21962 3.30386,-2.60584 7.64355,-5.3027 20.07978,-12.47837 30.31092,-18.77368 30.67369,-18.87375 0.2839,-0.0783 28.71786,34.08105 34.20402,41.09129 0.34161,0.4365 0.2818,0.61006 -0.19746,0.57305 -0.37811,-0.0292 -15.00111,-3.51619 -32.49555,-7.74885 z"
       id="path2883"
       transform="scale(0.26458333)" />
    <path
       style="fill:#000000;stroke-width:0.500915"
       d="m 274.41864,705.86816 c -9.27474,-5.82933 -16.82603,-10.62605 -16.78064,-10.65937 0.11982,-0.088 14.38358,-0.62819 31.38969,-1.18882 8.12734,-0.26794 17.2565,-0.60546 20.28704,-0.75005 3.03053,-0.1446 8.64928,-0.37945 12.48612,-0.5219 3.83683,-0.14245 7.55612,-0.39772 8.26509,-0.56726 2.25759,-0.53988 2.45077,-0.67295 -15.49161,10.67135 -13.38538,8.46308 -22.06139,13.69989 -22.63178,13.66048 -0.36341,-0.0251 -8.24917,-4.81511 -17.52391,-10.64443 z"
       id="path2922"
       transform="scale(0.26458333)" />
    <path
       style="fill:#000000;stroke-width:0.500915"
       d="m 258.51364,694.33622 c 0.1148,-0.1 8.99977,-4.64037 19.74439,-10.08976 36.76174,-18.64461 42.07701,-21.39294 42.24483,-21.84328 0.0924,-0.24797 0.37417,-0.32345 0.62614,-0.16772 0.25197,0.15573 0.45813,0.0311 0.45813,-0.2769 0,-0.30802 0.22542,-0.42072 0.50092,-0.25045 0.2755,0.17027 0.50091,0.0576 0.50091,-0.25046 0,-0.30802 0.22541,-0.42073 0.50092,-0.25046 0.2755,0.17027 0.50091,0.0333 0.50091,-0.30438 0,-0.33768 0.13889,-0.47508 0.30864,-0.30532 0.16975,0.16975 2.98739,-1.03418 6.26143,-2.67541 4.86639,-2.43944 5.95079,-2.82335 5.94181,-2.10358 -0.0221,1.77489 -4.32087,35.68462 -4.55318,35.91693 -0.24997,0.24997 -63.78524,2.78258 -69.80637,2.78258 -1.89101,0 -3.34427,-0.0818 -3.22948,-0.18179 z"
       id="path2961"
       transform="scale(0.26458333)" />
    <path
       style="fill:#000000;stroke-width:0.500915"
       d="m 267.59091,678.11306 c 5.52678,-8.74722 11.28217,-17.89254 12.78977,-20.32292 1.5076,-2.43039 3.04756,-4.53648 3.42212,-4.68021 0.37456,-0.14374 11.11432,0.0994 23.86614,0.54031 12.75181,0.44091 24.31217,0.81419 25.68969,0.82952 l 2.50457,0.0279 -8.51555,4.25973 c -4.68355,2.34285 -12.12213,6.13206 -16.53018,8.42045 -12.75512,6.6217 -52.66146,26.82929 -52.98298,26.82929 -0.16074,0 4.22965,-7.15681 9.75642,-15.90403 z"
       id="path3000"
       transform="scale(0.26458333)" />
    <path
       style="fill:#000000;stroke-width:0.500915"
       d="m 332.85771,654.11015 c -1.10201,-0.0878 -12.58287,-0.4963 -25.51302,-0.90774 -24.61379,-0.78323 -24.29113,-0.74325 -24.32959,-3.01534 -0.009,-0.551 -2.14362,-15.19454 -4.74287,-32.5412 -2.59924,-17.34665 -4.65974,-31.60553 -4.57887,-31.6864 0.0809,-0.0809 7.48003,7.91303 16.44258,17.76422 8.96254,9.85119 22.86132,25.11257 30.88617,33.91418 8.02485,8.80161 14.59063,16.18384 14.59063,16.40495 0,0.22111 -0.16906,0.36264 -0.37568,0.31451 -0.20663,-0.0481 -1.27734,-0.15936 -2.37935,-0.24718 z"
       id="path3039"
       transform="scale(0.26458333)" />
    <path
       style="fill:#000000;stroke-width:0.500915"
       d="m 278.25521,647.55403 c -2.47798,-2.3696 -7.66191,-7.36749 -11.51985,-11.10641 -9.91654,-9.61062 -31.72097,-30.59116 -33.8101,-32.53257 -5.85498,-5.44099 -15.50058,-15.34972 -15.07892,-15.49028 0.94652,-0.3155 55.1521,-3.37899 55.16203,-3.11753 0.005,0.14402 2.24185,15.13797 4.96974,33.31989 2.72787,18.18192 4.91989,33.09791 4.87114,33.14666 -0.0487,0.0487 -2.11606,-1.85014 -4.59404,-4.21976 z"
       id="path3078"
       transform="scale(0.26458333)" />
    <path
       style="fill:#000000;stroke-width:0.500915"
       d="m 213.65491,646.30498 c 0.29769,-7.4411 2.48321,-49.99583 2.83926,-55.28374 l 0.15137,-2.2481 32.89625,31.70593 c 18.09293,17.43827 32.85501,31.74717 32.80461,31.79758 -0.29702,0.29701 -56.7943,2.16292 -65.6058,2.16672 l -3.41133,0.001 z"
       id="path3117"
       transform="scale(0.26458333)" />
    <path
       style="fill:#000000;stroke-width:0.500915"
       d="m 235.19497,674.897 c -11.76366,-10.82003 -21.20051,-19.7287 -20.97078,-19.79705 0.78585,-0.2338 67.95498,-2.16054 68.16035,-1.95517 0.14927,0.14927 -24.80167,40.26573 -25.67082,41.27388 -0.0717,0.0831 -9.75509,-8.70163 -21.51875,-19.52166 z"
       id="path3156"
       transform="scale(0.26458333)" />
    <path
       style="fill:#000000;stroke-width:0.500915"
       d="m 181.78634,616.26218 c -16.96854,-20.73824 -30.82243,-37.75238 -30.78643,-37.80919 0.145,-0.22882 64.46881,9.77963 64.76651,10.07733 0.29678,0.29679 -2.1008,52.75817 -2.81266,61.54359 l -0.31554,3.89416 z"
       id="path3195"
       transform="scale(0.26458333)" />
    <path
       style="fill:#000000;stroke-width:0.500915"
       d="m 156.28534,653.6172 c -19.97397,-0.37216 -39.49447,-0.81075 -43.37888,-0.97464 l -7.06257,-0.29798 22.09001,-36.76478 c 12.1495,-20.22063 22.22155,-36.76664 22.38233,-36.76891 0.27666,-0.004 7.55687,8.85036 44.47804,54.09463 8.65564,10.60686 16.19441,19.79239 16.75282,20.41227 l 1.01531,1.12705 -9.98038,-0.0755 c -5.48921,-0.0415 -26.32272,-0.37999 -46.29668,-0.75216 z"
       id="path3234"
       transform="scale(0.26458333)" />
    <path
       style="fill:#000000;stroke-width:0.500915"
       d="m 104.79376,650.06184 c -0.63891,-2.15512 -7.390013,-27.3168 -14.683197,-54.72491 -2.749132,-10.33136 -5.098779,-19.12241 -5.221437,-19.53567 -0.189381,-0.63805 0.512662,-0.73073 4.655125,-0.61449 4.185987,0.11745 59.790699,2.96687 60.083649,3.07893 0.0577,0.0221 -1.59396,2.91006 -3.67036,6.41775 -2.0764,3.50768 -3.81419,6.60628 -3.86177,6.88576 -0.0476,0.27948 -0.34757,0.73438 -0.66667,1.01088 -0.48216,0.4178 -17.40258,28.3786 -32.20837,53.22398 -2.01117,3.37491 -3.7047,6.1362 -3.76339,6.1362 -0.0587,0 -0.3573,-0.84529 -0.66358,-1.87843 z"
       id="path3273"
       transform="scale(0.26458333)" />
    <path
       style="fill:#000000;stroke-width:0.500915"
       d="m 115.96172,576.05274 c -16.805687,-0.88846 -30.631697,-1.64662 -30.724471,-1.6848 -0.09277,-0.0382 2.749911,-3.16883 6.317076,-6.957 8.027682,-8.52503 50.981115,-54.39315 58.423695,-62.38815 3.00529,-3.22836 5.53081,-5.8031 5.61227,-5.72164 0.0814,0.0815 -1.07907,17.04553 -2.57894,37.69796 -1.49987,20.65243 -2.72927,38.28245 -2.73201,39.17784 -0.005,1.55861 -0.085,1.62506 -1.88341,1.55957 -1.03313,-0.0376 -15.62853,-0.79533 -32.43421,-1.68378 z"
       id="path3312"
       transform="scale(0.26458333)" />
    <path
       style="fill:#000000;stroke-width:0.500915"
       d="m 85.668568,572.40834 c 0.0067,-0.20017 7.05328,-17.91848 15.659072,-39.37404 l 15.64688,-39.0101 2.37425,-0.0612 c 1.30583,-0.0337 2.37406,0.1315 2.37385,0.36706 -2.1e-4,0.23557 0.90126,0.34232 2.00327,0.23722 1.10201,-0.10509 2.00366,0.007 2.00366,0.24829 0,0.24165 1.01435,0.35868 2.25411,0.26008 1.23977,-0.0986 2.25412,0.0151 2.25412,0.25263 0,0.23755 0.90165,0.34593 2.00366,0.24083 1.10201,-0.10509 2.00366,0.008 2.00366,0.25046 0,0.24285 0.90164,0.35555 2.00365,0.25046 1.10202,-0.1051 2.00366,0.007 2.00366,0.24828 0,0.24165 1.01435,0.35869 2.25412,0.26009 1.23976,-0.0986 2.25411,-0.0395 2.25411,0.13127 0,0.1708 2.81765,0.59783 6.26144,0.94895 3.44378,0.35113 6.26143,0.74508 6.26143,0.87544 0,0.13036 -1.72834,2.07178 -3.84076,4.31425 -2.11242,2.24248 -10.50588,11.1777 -18.65214,19.85604 -43.191928,46.01305 -47.137812,50.17514 -47.122042,49.70402 z"
       id="path3351"
       transform="scale(0.26458333)" />
    <path
       style="fill:#000000;stroke-width:0.500915"
       d="m 142.00927,496.39979 c -7.16308,-0.913 -15.67236,-1.94687 -18.90952,-2.29749 -3.23716,-0.35062 -5.88575,-0.85556 -5.88575,-1.1221 0,-0.26653 3.16289,-25.18891 7.02863,-55.38305 3.86575,-30.19414 8.15057,-63.8022 9.52183,-74.68457 1.37126,-10.88237 2.6936,-20.46236 2.93853,-21.28886 l 0.44532,-1.50275 0.0511,1.58202 c 0.0281,0.87011 0.38729,4.25128 0.79814,7.51372 0.41086,3.26243 1.76363,14.49734 3.00617,24.96645 1.24254,10.46911 2.70805,22.75404 3.25671,27.29984 1.89009,15.66014 5.00851,41.8914 8.00944,67.37301 1.65473,14.05065 3.14224,26.39193 3.30558,27.42507 0.16334,1.03314 0.10812,1.85599 -0.12272,1.82857 -0.23085,-0.0274 -6.28042,-0.79686 -13.4435,-1.70986 z"
       id="path3390"
       transform="scale(0.26458333)" />
    <path
       style="fill:#000000;stroke-width:0.500915"
       d="m 116.28783,463.0467 c -0.34361,-14.98808 -1.17503,-49.11597 -1.84758,-75.83976 -0.67255,-26.72379 -1.22524,-48.87048 -1.22819,-49.21486 -0.006,-0.69506 12.6856,-0.89555 19.61452,-0.30984 l 3.74179,0.3163 -0.40209,2.81441 c -0.22115,1.54793 -2.22178,17.12806 -4.44585,34.6225 -2.22406,17.49444 -5.37316,42.177 -6.998,54.85014 -1.62483,12.67314 -3.9857,31.15688 -5.24636,41.07499 -1.26066,9.91811 -2.35317,18.23638 -2.4278,18.48504 -0.0746,0.24867 -0.41682,-11.81084 -0.76044,-26.79892 z"
       id="path3429"
       transform="scale(0.26458333)" />
    <path
       style="fill:#000000;stroke-width:0.500915"
       d="m 107.19571,497.79895 c 0,-1.79655 1.35117,-38.95552 1.74456,-47.97769 0.39263,-9.00467 3.76235,-101.34458 3.76409,-103.14666 7.5e-4,-0.80355 0.12203,-1.34037 0.26946,-1.19295 0.14743,0.14743 0.3367,5.0877 0.42059,10.97838 0.16583,11.64336 0.24804,15.28219 1.38216,61.17754 0.13786,5.57889 0.36353,14.76438 0.50148,20.41219 0.13796,5.64782 0.36957,14.88969 0.5147,20.5375 0.14513,5.64781 0.28736,14.49521 0.31608,19.6609 0.0287,5.16568 0.23278,9.39211 0.45347,9.39207 0.22068,-4e-5 0.28854,1.3363 0.15079,2.96964 l -0.25046,2.96972 -3.9781,2.59298 c -5.19222,3.38437 -5.28882,3.41407 -5.28882,1.62638 z"
       id="path3468"
       transform="scale(0.26458333)" />
    <path
       style="fill:#000000;stroke-width:0.500915"
       d="m 182.90638,582.79632 c -17.45453,-2.71136 -31.79397,-4.99997 -31.86542,-5.0858 -0.0715,-0.0858 12.74434,-15.07003 28.47956,-33.29821 15.73521,-18.22818 28.66372,-32.99263 28.73004,-32.8099 0.18237,0.50258 7.64219,73.79699 7.64295,75.09374 3.6e-4,0.61989 -0.28111,1.1052 -0.62549,1.07848 -0.34438,-0.0267 -14.90711,-2.26696 -32.36164,-4.97831 z"
       id="path3507"
       transform="scale(0.26458333)" />
    <path
       style="fill:#000000;stroke-width:0.500915"
       d="m 103.18839,525.54129 c 0,-0.46002 0.78895,-5.69718 1.75321,-11.63814 0.96426,-5.94096 1.7532,-11.30867 1.7532,-11.92824 0,-0.65783 0.7294,-1.77225 1.7532,-2.67866 0.96426,-0.85369 1.7532,-1.46149 1.7532,-1.35068 0,0.11082 1.22893,-0.58465 2.73097,-1.54548 1.50203,-0.96084 2.83336,-1.74698 2.95851,-1.74698 0.22731,0 -12.11543,31.12083 -12.49941,31.51587 -0.11158,0.11479 -0.20288,-0.16767 -0.20288,-0.62769 z"
       id="path3546"
       transform="scale(0.26458333)" />
    <path
       style="fill:#000000;stroke-width:0.500915"
       d="m 216.95298,587.44709 c 1.67465,-4.63199 31.33784,-72.61288 31.5739,-72.35979 0.39778,0.42645 23.97063,68.30008 23.97063,69.01895 0,0.31099 -9.1476,1.03685 -23.91867,1.89796 -13.15527,0.76691 -25.69632,1.5257 -27.869,1.6862 -2.70237,0.19963 -3.88921,0.12276 -3.75686,-0.24332 z"
       id="path3585"
       transform="scale(0.26458333)" />
    <path
       style="fill:#000000;stroke-width:0.500915"
       d="m 150.79327,575.30035 c -0.003,-2.87882 5.38131,-76.19523 5.61233,-76.42624 0.23304,-0.23304 49.19562,11.08273 50.56613,11.68637 0.68005,0.29952 -4.40022,6.44689 -25.97334,31.42905 -14.75031,17.08119 -27.58032,31.95835 -28.51113,33.06036 l -1.69238,2.00366 -0.002,-1.7532 z"
       id="path3624"
       transform="scale(0.26458333)" />
    <path
       style="fill:#000000;stroke-width:0.500915"
       d="m 216.39508,586.73049 c 0,-0.27355 -3.38034,-33.73568 -6.05193,-59.90833 -0.87965,-8.61755 -1.51205,-15.75248 -1.40534,-15.8554 0.21186,-0.20433 38.65218,2.69234 38.89043,2.93059 0.14862,0.14862 -30.85167,72.49948 -31.22799,72.88229 -0.11284,0.11479 -0.20517,0.0927 -0.20517,-0.0491 z"
       id="path3663"
       transform="scale(0.26458333)" />
    <path
       style="fill:#000000;stroke-width:0.500915"
       d="m 226.91429,511.82203 c -8.95385,-0.67183 -16.7869,-1.42368 -17.40678,-1.67076 -0.68934,-0.27477 -1.12706,-0.87564 -1.12706,-1.54712 0,-0.60383 -3.72528,-38.19604 -8.2784,-83.53824 -4.55312,-45.3422 -8.21606,-82.87672 -8.13986,-83.41003 0.0762,-0.53332 5.97469,17.04878 13.10777,39.07133 7.13307,22.02255 13.15017,40.11192 13.37132,40.1986 0.22115,0.0867 0.27793,0.48114 0.12618,0.8766 -0.15175,0.39545 -0.0131,0.719 0.30816,0.719 0.32124,0 0.46256,0.19661 0.31405,0.43691 -0.34813,0.56329 4.67533,16.28945 5.27441,16.51174 0.24904,0.0924 0.3485,0.33676 0.22103,0.54301 -0.31041,0.50225 5.72411,19.28222 6.26047,19.48315 0.23136,0.0867 0.2965,0.48115 0.14475,0.87661 -0.15175,0.39545 -0.0131,0.719 0.30816,0.719 0.32123,0 0.46256,0.19661 0.31404,0.43691 -0.34813,0.56329 4.67534,16.28945 5.27442,16.51174 0.24903,0.0924 0.34849,0.33676 0.22102,0.54301 -0.3104,0.50224 5.72412,19.28222 6.26047,19.48315 0.23136,0.0867 0.2965,0.48115 0.14475,0.8766 -0.15175,0.39546 -0.0131,0.71901 0.30816,0.71901 0.32124,0 0.4654,0.19201 0.32036,0.4267 -0.14504,0.23468 0.62628,3.22138 1.71405,6.63711 1.08777,3.41574 1.98207,6.26678 1.98735,6.33566 0.0196,0.25612 -5.17434,-0.0501 -21.02882,-1.23969 z"
       id="path3702"
       transform="scale(0.26458333)" />
    <path
       style="fill:#000000;stroke-width:0.500915"
       d="m 200.36582,508.44806 c -3.71929,-0.90326 -10.25623,-2.45544 -14.52653,-3.44929 -13.51335,-3.14504 -27.25813,-6.33786 -28.45536,-6.60999 -0.79792,-0.18136 -1.0804,-0.52876 -0.91279,-1.12256 0.1335,-0.47295 7.86555,-36.08047 17.18233,-79.12781 9.31679,-43.04734 17.05342,-78.26786 17.19252,-78.26782 0.1391,4e-5 4.09874,38.32 8.79921,85.15547 5.47385,54.54145 8.35516,85.13902 8.01463,85.10984 -0.29242,-0.025 -3.57472,-0.78458 -7.29401,-1.68784 z"
       id="path3741"
       transform="scale(0.26458333)" />
    <path
       style="fill:#000000;stroke-width:0.500915"
       d="m 146.59533,417.43444 c -5.18678,-43.53133 -9.30187,-79.27652 -9.14465,-79.43374 0.22063,-0.22063 52.92038,-1.14588 53.21589,-0.93432 0.0377,0.027 -3.96559,18.64556 -8.89626,41.37455 -4.93067,22.729 -12.70249,58.56944 -17.27071,79.64542 -4.56822,21.07597 -8.34364,38.35956 -8.38981,38.40796 -0.0462,0.0484 -4.32768,-35.52853 -9.51446,-79.05987 z"
       id="path3780"
       transform="scale(0.26458333)" />
    <path
       style="fill:#000000;stroke-width:0.500915"
       d="m 247.0511,508.67871 c -0.35812,-1.23976 -2.12109,-6.76234 -3.9177,-12.2724 -3.53456,-10.84024 -8.07144,-24.79805 -12.69984,-39.07134 -1.60808,-4.95905 -4.39431,-13.52469 -6.19164,-19.03475 -16.31851,-50.02754 -32.85788,-101.1353 -32.75085,-101.20232 0.0598,-0.0374 10.98485,0.39005 24.27787,0.95 l 24.16912,1.01808 v 1.16267 c 0,0.63947 1.81091,38.85868 4.02424,84.9316 2.21332,46.0729 3.96026,84.21974 3.88208,84.77075 -0.0897,0.63224 -0.38235,0.17025 -0.79328,-1.25229 z"
       id="path3819"
       transform="scale(0.26458333)" />
    <path
       style="fill:#000000;stroke-width:0.500915"
       d="m 240.242,337.50517 c -0.15035,-0.48983 -0.40321,-3.37828 -0.56191,-6.41878 l -0.28855,-5.52819 19.96982,-4.88926 c 10.9834,-2.6891 20.5173,-5.01643 21.18644,-5.17184 0.66915,-0.15541 -6.44736,4.04055 -15.81447,9.32437 -25.97903,14.65432 -24.17346,13.71924 -24.49133,12.6837 z"
       id="path3858"
       transform="scale(0.26458333)" />
    <path
       style="fill:#000000;stroke-width:0.500915"
       d="m 239.3641,338.99064 c -0.0976,-0.24287 -10.61815,-0.87684 -23.37906,-1.40882 l -23.20164,-0.96725 22.9367,-5.36043 c 14.91078,-3.48473 23.04985,-5.17737 23.26004,-4.83728 0.31802,0.51458 0.9747,12.55334 0.70141,12.85882 -0.077,0.0861 -0.21988,-0.0422 -0.31745,-0.28504 z"
       id="path3897"
       transform="scale(0.26458333)" />
    <path
       style="fill:#000000;stroke-width:0.500915"
       d="m 137.10863,337.02772 c 0.33518,-0.12927 3.19922,-3.23957 6.36454,-6.9118 l 5.75512,-6.67677 14.67387,4.76012 c 8.07063,2.61806 16.92799,5.50145 19.68302,6.40752 l 5.00914,1.64741 -2.50457,0.30009 c -2.99445,0.35879 -49.85838,0.81175 -48.98112,0.47343 z"
       id="path3936"
       transform="scale(0.26458333)" />
    <path
       style="fill:#000000;stroke-width:0.500915"
       d="m 121.95618,336.88218 -9.03298,-0.26761 -7.38401,-5.9572 c -4.0612,-3.27646 -7.302016,-6.03919 -7.201808,-6.1394 0.135485,-0.13548 31.464678,10.60651 36.408628,12.4836 0.41326,0.15691 -0.26298,0.25444 -1.50274,0.21675 -1.23977,-0.0377 -6.31896,-0.18896 -11.28709,-0.33614 z"
       id="path3975"
       transform="scale(0.26458333)" />
    <path
       style="fill:#000000;stroke-width:0.500915"
       d="m 123.22498,332.55254 c -7.30083,-2.58506 -16.09188,-5.7024 -19.53567,-6.92742 l -6.261432,-2.2273 25.703672,-0.0287 25.70367,-0.0288 -6.09224,7.01281 c -3.35073,3.85704 -6.12633,6.98731 -6.168,6.95616 -0.0417,-0.0312 -6.04917,-2.17169 -13.35,-4.75676 z"
       id="path4014"
       transform="scale(0.26458333)" />
    <path
       style="fill:#000000;stroke-width:0.500915"
       d="m 170.69961,329.97084 c -10.6686,-3.47739 -19.34695,-6.36143 -19.28521,-6.40898 0.24639,-0.18978 81.84241,1.86767 82.94748,2.09152 0.65239,0.13216 1.10322,0.31807 1.00183,0.41313 -0.33642,0.31545 -43.5371,10.29826 -44.40987,10.26223 -0.47122,-0.0195 -9.58563,-2.88051 -20.25423,-6.3579 z"
       id="path4053"
       transform="scale(0.26458333)" />
    <path
       style="fill:#000000;stroke-width:0.500915"
       d="m 96.684945,320.78189 c -0.0046,-0.16738 1.12521,-5.57725 2.510781,-12.02195 1.385574,-6.44469 4.338914,-20.28326 6.562974,-30.75237 2.22407,-10.46911 4.33946,-19.50436 4.70089,-20.07833 0.36142,-0.57396 0.95831,-1.04837 1.32643,-1.05423 0.82738,-0.0132 8.49988,-2.15986 9.17603,-2.56734 0.27066,-0.16312 0.83419,-0.33163 1.25229,-0.37447 0.4181,-0.0428 3.99751,-1.02387 7.95424,-2.18006 3.95673,-1.15619 7.25858,-2.03345 7.33745,-1.94947 0.0789,0.084 -2.83855,5.33715 -6.48315,11.67372 -3.6446,6.33657 -12.43953,21.66455 -19.54428,34.06219 -13.500525,23.55809 -14.779828,25.74096 -14.793655,25.24231 z"
       id="path4092"
       transform="scale(0.26458333)" />
    <path
       style="fill:#000000;stroke-width:0.500915"
       d="m 149.27253,322.21334 c 0,-0.17904 -2.3688,-16.60205 -5.264,-36.49558 -2.8952,-19.89352 -5.19291,-36.24113 -5.10601,-36.32802 0.25866,-0.25867 68.6475,-8.2421 69.29592,-8.08932 0.32771,0.0772 -1.88241,3.52156 -4.91139,7.65411 -3.02897,4.13254 -8.80359,12.02194 -12.83249,17.532 -42.39357,57.97896 -41.18203,56.33952 -41.18203,55.72681 z"
       id="path4131"
       transform="scale(0.26458333)" />
    <path
       style="fill:#000000;stroke-width:0.500915"
       d="m 192.48769,324.11541 c -22.92942,-0.59755 -41.8344,-1.23101 -42.01108,-1.40769 -0.17668,-0.17667 9.17631,-13.30683 20.78442,-29.17813 11.6081,-15.8713 24.8778,-34.02292 29.48822,-40.33694 4.61041,-6.31401 8.50781,-11.48483 8.66088,-11.49071 0.15308,-0.006 6.75027,18.46481 14.66043,41.04597 7.91017,22.58115 14.51503,41.40301 14.67749,41.82636 0.24274,0.63259 -0.1381,0.75706 -2.13757,0.69866 -1.33811,-0.0391 -21.19337,-0.55996 -44.12279,-1.15752 z"
       id="path4170"
       transform="scale(0.26458333)" />
    <path
       style="fill:#000000;stroke-width:0.500915"
       d="m 236.53252,316.69301 c -1.66832,-4.74681 -4.53023,-12.91339 -6.3598,-18.14794 -1.82957,-5.23456 -4.08102,-11.65879 -5.00324,-14.27607 -10.22605,-29.022 -14.28681,-40.81749 -14.17128,-41.16407 0.0759,-0.22759 16.24503,15.69447 35.93147,35.38235 19.68644,19.68789 35.69052,35.88742 35.5646,35.99895 -0.12591,0.11153 -9.69621,2.51608 -21.26734,5.34345 -11.57112,2.82736 -21.17851,5.22014 -21.34975,5.31728 -0.17124,0.0971 -1.67634,-3.70713 -3.34466,-8.45395 z"
       id="path4209"
       transform="scale(0.26458333)" />
    <path
       style="fill:#000000;stroke-width:0.500915"
       d="m 245.92113,276.92811 c -19.40761,-19.45045 -35.03225,-35.45808 -34.72141,-35.57252 0.31083,-0.11444 7.40732,0.6031 15.76998,1.59453 8.36265,0.99143 15.60327,1.6984 16.09025,1.57105 0.48699,-0.12735 0.88543,-0.0272 0.88543,0.22248 0,0.24971 0.84529,0.45784 1.87843,0.46252 l 1.87843,0.009 16.90058,33.39109 c 9.29531,18.3651 16.83403,33.45763 16.75272,33.53894 -0.0813,0.0813 -16.0268,-15.76615 -35.43441,-35.21659 z"
       id="path4285"
       transform="scale(0.26458333)" />
    <path
       style="fill:#000000;stroke-width:0.500915"
       d="m 227.41624,242.59499 c -9.22878,-1.09283 -16.85304,-2.06041 -16.9428,-2.15017 -0.26225,-0.26224 0.93443,-2.25892 9.80091,-16.35299 4.61622,-7.33791 17.4096,-27.77542 28.42972,-45.41669 11.02012,-17.64126 20.09695,-31.91251 20.17072,-31.71389 0.0738,0.19862 -2.0007,10.15449 -4.60997,22.12416 -2.60927,11.96967 -7.34692,33.69197 -10.52812,48.27179 -3.1812,14.57982 -5.784,26.69569 -5.784,26.92415 0,0.65099 -2.60305,0.43724 -20.53646,-1.68636 z"
       id="path4324"
       transform="scale(0.26458333)" />
    <path
       style="fill:#000000;stroke-width:0.500915"
       d="m 249.28874,239.47479 c -0.15975,-0.41631 -0.096,-0.8771 0.14165,-1.02399 0.35125,-0.21708 0.86191,-2.56739 1.30937,-6.02645 0.0356,-0.27551 0.19202,-0.83904 0.34751,-1.25229 0.45071,-1.19788 1.39004,-5.44753 1.29824,-5.87342 -0.046,-0.21341 0.051,-0.72613 0.21562,-1.13938 0.62456,-1.56817 2.89055,-12.66457 2.63783,-12.91729 -0.14562,-0.14562 -0.0326,-0.54455 0.25122,-0.8865 0.28379,-0.34194 0.59388,-1.37704 0.68909,-2.3002 0.0952,-0.92316 0.30577,-2.0166 0.46791,-2.42985 0.72245,-1.84135 3.86425,-17.06872 3.60745,-17.48423 -0.15742,-0.25472 -0.10452,-0.53873 0.11757,-0.63114 0.54186,-0.22546 2.75053,-10.3017 2.38701,-10.88988 -0.15743,-0.25473 -0.10014,-0.53875 0.1273,-0.63116 0.22745,-0.0924 1.82441,-6.70494 3.5488,-14.69453 1.7244,-7.98959 3.24469,-14.99369 3.37844,-15.56469 0.22686,-0.96853 2.01965,-1.42688 2.68376,-0.68613 0.49395,0.55096 10.8613,2.50517 11.66141,2.19814 0.96273,-0.36943 0.7493,0.5337 -1.36772,5.78759 -0.72158,1.79077 -1.38196,3.59406 -1.46752,4.00732 -0.0856,0.41325 -0.6479,1.85622 -1.24965,3.20659 -0.60174,1.35037 -1.15483,2.81554 -1.22908,3.25594 -0.0743,0.4404 -0.40455,1.29087 -0.73401,1.88993 -0.32946,0.59907 -0.68,1.50071 -0.77897,2.00366 -0.099,0.50295 -0.52905,1.7034 -0.95572,2.66766 -0.99156,2.2409 -8.43803,21.86519 -8.60572,22.67936 -0.0695,0.33724 -0.61881,1.71801 -1.22078,3.06838 -0.60197,1.35037 -1.15524,2.81554 -1.22949,3.25594 -0.0743,0.4404 -0.40456,1.29088 -0.73401,1.88993 -0.32946,0.59907 -0.68,1.50071 -0.77898,2.00366 -0.099,0.50296 -0.54303,1.73349 -0.98679,2.73452 -1.37916,3.11108 -3.31382,8.44869 -3.0623,8.44869 0.13176,0 -0.0772,0.50717 -0.46436,1.12705 -0.65043,1.04142 -4.76541,11.67306 -5.04927,13.04551 -0.0687,0.33243 -0.61752,1.70926 -1.21949,3.05963 -0.60197,1.35037 -1.15524,2.81555 -1.22949,3.25595 -0.0743,0.4404 -0.40456,1.29087 -0.73402,1.88993 -0.32946,0.59906 -0.66953,1.55125 -0.75571,2.11598 -0.21171,1.38728 -0.66377,1.76052 -1.0171,0.83977 z"
       id="path4363"
       transform="scale(0.26458333)" />
    <path
       style="fill:#000000;stroke-width:0.500915"
       d="m 276.25437,145.6374 c -3.30604,-0.70824 -6.04945,-1.30803 -6.09647,-1.33287 -0.17436,-0.0921 -2.24372,-71.513338 -2.07686,-71.680194 0.1296,-0.129608 15.03882,66.757014 16.33142,73.267024 0.28693,1.44505 -0.31454,1.42633 -8.15809,-0.25396 z"
       id="path4402"
       transform="scale(0.26458333)" />
    <path
       style="fill:#000000;stroke-width:0.500915"
       d="m 254.74276,102.5477 c -7.94443,-21.687859 -15.55324,-42.475524 -16.90847,-46.194814 -1.35522,-3.719291 -2.71631,-7.325876 -3.02465,-8.014633 -0.30833,-0.688758 -0.58777,-1.364992 -0.62097,-1.502744 -0.0332,-0.137751 -0.23893,-0.77462 -0.45717,-1.415264 -0.21824,-0.640644 -0.29489,-1.266715 -0.17034,-1.39127 0.12456,-0.124554 7.41466,5.086258 16.20024,11.579582 8.78557,6.493324 16.348,12.07845 16.80541,12.41139 0.74427,0.54175 0.9436,4.440518 1.89736,37.111433 0.58615,20.07834 0.98861,36.58319 0.89437,36.67743 -0.0942,0.0942 -6.67134,-17.57326 -14.61578,-39.26111 z"
       id="path4441"
       transform="scale(0.26458333)" />
    <path
       style="fill:#000000;stroke-width:0.500915"
       d="m 222.90834,148.46402 c 7.5e-4,-0.10632 1.31388,-6.84296 2.91807,-14.9703 l 2.91671,-14.77697 -0.70722,-9.51738 -0.70722,-9.517377 2.54783,-27.085818 c 1.40131,-14.897201 2.56071,-27.520247 2.57646,-28.051215 0.0157,-0.530967 0.71305,0.837897 1.54958,3.041921 3.62175,9.542267 35.46484,96.613489 35.35755,96.681089 -0.0652,0.0411 -9.58582,0.91824 -21.15695,1.94923 -11.57112,1.031 -21.99641,2.0018 -23.16729,2.15734 -1.17089,0.15554 -2.12827,0.1958 -2.12752,0.0895 z"
       id="path4480"
       transform="scale(0.26458333)" />
    <path
       style="fill:#000000;stroke-width:0.500915"
       d="m 210.38411,237.78432 c 0,-0.58764 2.03832,-15.55872 4.52962,-33.26908 2.49129,-17.71035 5.22716,-37.2724 6.07971,-43.47122 0.85256,-6.19881 1.72041,-11.46054 1.92857,-11.69273 0.42121,-0.46985 42.50106,-4.44669 44.71426,-4.22581 1.36457,0.13618 0.65924,1.32483 -27.72566,46.72479 -16.01921,25.62178 -29.21599,46.67897 -29.32617,46.79377 -0.11019,0.11479 -0.20033,-0.27209 -0.20033,-0.85972 z"
       id="path4519"
       transform="scale(0.26458333)" />
    <path
       style="fill:#000000;stroke-width:0.500915"
       d="m 139.55787,248.07793 c 1.43495,-2.47684 47.45793,-69.49419 47.61562,-69.3365 0.11028,0.11028 5.126,14.03734 11.14604,30.94903 6.57296,18.46495 10.71881,30.79766 10.378,30.87152 -0.60139,0.13035 -68.69911,8.14209 -69.20561,8.14209 -0.16324,0 -0.13356,-0.28177 0.066,-0.62614 z"
       id="path4558"
       transform="scale(0.26458333)" />
    <path
       style="fill:#000000;stroke-width:0.500915"
       d="m 198.47563,208.75613 c -5.85423,-16.4613 -10.64035,-30.15505 -10.6358,-30.43055 0.005,-0.27551 5.52969,-2.28786 12.2781,-4.47191 6.74841,-2.18404 12.26983,-4.13494 12.26983,-4.33533 0,-0.2004 -0.84529,-0.27121 -1.87843,-0.15737 -4.49058,0.4948 -13.34248,1.17392 -13.48205,1.03435 -0.084,-0.084 5.39564,-4.71031 12.17689,-10.28077 6.78126,-5.57046 12.44702,-10.01065 12.59058,-9.86709 0.32419,0.32418 -12.0376,88.43832 -12.40726,88.43832 -0.14728,0 -5.05762,-13.46834 -10.91186,-29.92965 z"
       id="path4597"
       transform="scale(0.26458333)" />
    <path
       style="fill:#000000;stroke-width:0.500915"
       d="m 129.33824,209.7591 c -5.01961,-21.14548 -9.12481,-38.6203 -9.12266,-38.83294 0.005,-0.53116 8.00783,-0.21978 8.01378,0.31182 0.003,0.23437 1.01911,0.34545 2.25888,0.24685 1.23976,-0.0986 2.25411,-0.0491 2.25411,0.11003 0,0.2885 11.49433,1.6059 12.33212,1.41343 0.24266,-0.0557 0.83844,0.0723 1.32395,0.28457 0.48551,0.21226 1.55622,0.28709 2.37935,0.16628 0.82312,-0.12081 1.49659,-0.0738 1.49659,0.10452 0,0.31231 11.43256,1.65496 12.33212,1.44829 0.24266,-0.0558 0.83844,0.0723 1.32395,0.28457 0.48551,0.21226 1.55622,0.28708 2.37934,0.16627 0.82313,-0.1208 1.4966,-0.0738 1.4966,0.10452 0,0.31232 11.43255,1.65496 12.33212,1.4483 0.24266,-0.0558 0.83844,0.0723 1.32395,0.28456 0.48551,0.21227 1.51657,0.29291 2.29124,0.17921 3.75035,-0.55043 3.69958,-0.46406 -20.73982,35.28612 -12.85333,18.80195 -23.63504,34.46764 -23.95936,34.81265 -0.4566,0.48571 -2.64946,-8.04967 -9.71626,-37.81905 z"
       id="path4636"
       transform="scale(0.26458333)" />
    <path
       style="fill:#000000;stroke-width:0.500915"
       d="m 133.41859,239.51051 c -20.43828,-37.57917 -31.83981,-58.20816 -32.24831,-58.34746 -0.27099,-0.0924 -0.36529,-0.37417 -0.20956,-0.62614 0.15573,-0.25197 0.0311,-0.45813 -0.2769,-0.45813 -0.30802,0 -0.45092,-0.17656 -0.31755,-0.39236 0.13337,-0.21579 -2.431396,-5.332 -5.699475,-11.36934 -3.268079,-6.03735 -5.815246,-11.18203 -5.66037,-11.43262 0.166018,-0.26862 0.410086,-0.25895 0.594663,0.0236 0.172189,0.26355 1.665541,1.06272 3.318559,1.77593 12.671023,5.46699 25.171853,10.94355 25.797103,11.3016 0.49809,0.28523 2.168,6.40671 4.95402,18.16029 2.31145,9.75151 4.39791,17.80563 4.63658,17.89804 0.23866,0.0924 0.31387,0.36226 0.16713,0.59969 -0.38459,0.62228 1.84538,10.00196 2.37791,10.00196 0.24549,0 0.31076,0.21938 0.14505,0.4875 -0.16572,0.26813 1.18248,6.72161 2.996,14.34107 1.81351,7.61946 3.23191,14.02638 3.15199,14.2376 -0.0799,0.21123 -1.75699,-2.57932 -3.72684,-6.2012 z"
       id="path4675"
       transform="scale(0.26458333)" />
    <path
       style="fill:#000000;stroke-width:0.500915"
       d="m 109.74897,255.28263 c -1.15392,-4.57201 -21.036365,-95.95905 -20.905597,-96.08982 0.136771,-0.13677 6.600727,11.52857 10.879345,19.63368 1.018052,1.92852 2.690782,4.97158 3.717192,6.76235 1.02641,1.79077 9.19374,16.66793 18.14962,33.06036 8.95589,16.39242 16.35096,29.92306 16.43349,30.06808 0.0825,0.14502 -2.81879,1.1069 -6.44739,2.13751 -3.6286,1.0306 -9.92068,2.85795 -13.9824,4.06077 l -7.38495,2.18696 z"
       id="path4714"
       transform="scale(0.26458333)" />
    <path
       style="fill:#000000;stroke-width:0.500915"
       d="m 184.58701,177.23126 c -0.82651,-0.10607 -15.47826,-1.77212 -32.55945,-3.70235 -17.08118,-1.93023 -31.22898,-3.55769 -31.43954,-3.61658 -0.27023,-0.0756 29.93958,-48.78421 30.88751,-49.80131 0.0556,-0.0597 6.33367,10.08385 13.95126,22.54115 7.61759,12.4573 15.54291,25.41092 17.61181,28.78583 2.0689,3.37491 3.60178,6.10243 3.40639,6.06115 -0.19538,-0.0413 -1.03147,-0.16183 -1.85798,-0.26789 z"
       id="path4753"
       transform="scale(0.26458333)" />
    <path
       style="fill:#000000;stroke-width:0.500915"
       d="m 114.70943,167.78024 c -2.06627,-0.93925 -8.82862,-3.95506 -15.027437,-6.70179 -8.840676,-3.91736 -11.259642,-5.18839 -11.219857,-5.89542 0.03704,-0.65828 14.411034,-53.20124 17.718334,-64.767956 l 0.35807,-1.252286 0.33332,1.502743 c 0.46892,2.114129 12.3458,77.604189 12.3458,78.470549 0,0.63077 -0.40742,0.50824 -4.50823,-1.35584 z"
       id="path4792"
       transform="scale(0.26458333)" />
    <path
       style="fill:#000000;stroke-width:0.500915"
       d="m 119.52768,167.73065 c -0.16073,-0.78486 -0.51352,-2.8922 -0.78398,-4.68297 -0.27046,-1.79077 -2.98835,-19.12061 -6.03975,-38.51076 -3.05141,-19.39015 -5.48271,-35.42385 -5.4029,-35.630451 0.0798,-0.206601 5.21688,3.225051 11.4157,7.625894 6.19881,4.400847 16.05509,11.374897 21.90283,15.497887 l 10.63226,7.49635 -1.3156,2.09965 c -9.79569,15.6335 -29.46538,46.78135 -29.74732,47.10623 -0.20295,0.23386 -0.50051,-0.21696 -0.66124,-1.00183 z"
       id="path4831"
       transform="scale(0.26458333)" />
    <path
       style="fill:#000000;stroke-width:0.500915"
       d="m 108.19754,85.619213 c 0,-0.70958 43.8501,-84.85210256 44.22389,-84.85976605 0.46239,-0.00948 30.84241,19.80574105 31.84445,20.77038805 0.56685,0.545698 -5.62869,5.921354 -37.04244,32.140468 -20.74773,17.316841 -38.01627,31.665428 -38.37452,31.885745 -0.35826,0.220317 -0.65138,0.248739 -0.65138,0.06316 z"
       id="path4870"
       transform="scale(0.26458333)" />
    <path
       style="fill:#000000;stroke-width:0.500915"
       d="m 129.08963,103.31839 -21.93611,-15.603576 2.14998,-1.832671 c 8.38352,-7.146212 75.53396,-63.042502 75.53396,-62.874756 0,0.225745 -10.64983,30.900045 -23.0555,66.405858 -4.18733,11.984385 -8.19925,23.536725 -8.91539,25.671875 -0.71614,2.13514 -1.4233,3.8719 -1.57146,3.85947 -0.14816,-0.0125 -10.14062,-7.04423 -22.20548,-15.6262 z"
       id="path4909"
       transform="scale(0.26458333)" />
    <path
       style="fill:#000000;stroke-width:0.500915"
       d="m 169.19058,147.94045 -17.40009,-28.45347 6.68053,-19.16942 c 3.67429,-10.54317 11.16621,-32.052779 16.64871,-47.799125 5.48251,-15.746346 10.01722,-28.583347 10.07714,-28.52667 0.19886,0.188102 1.70954,145.251505 1.55021,148.859755 l -0.15641,3.54239 z"
       id="path4948"
       transform="scale(0.26458333)" />
    <path
       style="fill:#000000;stroke-width:0.500915"
       d="M 169.59842,11.123563 C 156.4412,2.5173053 154.34238,0.98208989 155.58053,0.86999273 c 1.74193,-0.15770706 32.19183,3.65112777 32.62112,4.08042337 0.31326,0.313258 -2.25116,14.6429819 -2.80794,15.6905229 -0.21286,0.400467 -5.54167,-2.810385 -15.79529,-9.517376 z"
       id="path4987"
       transform="scale(0.26458333)" />
  </g>
</svg>
