<?xml version="1.0" encoding="UTF-8" standalone="no"?>
<!-- Created with Inkscape (http://www.inkscape.org/) -->

<svg
   width="114.44975mm"
   height="257.93805mm"
   viewBox="0 0 114.44975 257.93805"
   version="1.1"
   id="svg5755"
   xmlns="http://www.w3.org/2000/svg"
   xmlns:svg="http://www.w3.org/2000/svg">
  <defs
     id="defs5752" />
  <g
     id="layer1">
    <g
       id="g5340"
       transform="matrix(0.26458333,0,0,0.26458333,-15.113529,-14.584891)">
      <polygon
         fill="#c48989"
         points="365.387,986.902 302.557,1016.977 228.019,985.505 "
         id="polygon4868" />
      <polygon
         fill="#ba8282"
         points="228.019,985.505 302.557,1016.977 180.722,1025.527 "
         id="polygon4870" />
      <polygon
         fill="#c18787"
         points="322.48,918.735 236.232,960.869 228.785,911.023 "
         id="polygon4872" />
      <polygon
         fill="#775353"
         points="236.232,960.869 345.236,957.706 228.019,985.505 "
         id="polygon4874" />
      <polygon
         fill="#b07b7b"
         points="322.48,918.735 345.236,957.706 236.232,960.869 "
         id="polygon4876" />
      <polygon
         fill="#8a6161"
         points="345.236,957.706 365.387,986.902 228.019,985.505 "
         id="polygon4878" />
      <polygon
         fill="#b98181"
         points="180.722,1025.527 125.152,989.84 228.019,985.505 "
         id="polygon4880" />
      <polygon
         fill="#a37272"
         points="365.387,986.902 395.894,1030.008 302.557,1016.977 "
         id="polygon4882" />
      <polygon
         fill="#3c2a2a"
         points="395.894,1030.008 180.722,1025.527 302.557,1016.977 "
         id="polygon4884" />
      <polygon
         fill="#c38888"
         points="288.836,119.464 234.302,151.294 196.431,97.763 "
         id="polygon4886" />
      <polygon
         fill="#b07b7b"
         points="228.785,911.023 236.232,960.869 139.828,918.861 "
         id="polygon4888" />
      <polygon
         fill="#a87676"
         points="196.431,97.763 285.811,78.811 288.836,119.464 "
         id="polygon4890" />
      <polygon
         fill="#a57373"
         points="285.811,78.811 365.294,111.803 288.836,119.464 "
         id="polygon4892" />
      <polygon
         fill="#aa7777"
         points="408.359,911.579 345.236,957.706 322.48,918.735 "
         id="polygon4894" />
      <polygon
         fill="#a07070"
         points="139.828,918.861 236.232,960.869 140.768,957.914 "
         id="polygon4896" />
      <polygon
         fill="#6d4c4c"
         points="236.232,960.869 228.019,985.505 140.768,957.914 "
         id="polygon4898" />
      <polygon
         fill="#755252"
         points="140.768,957.914 228.019,985.505 125.152,989.84 "
         id="polygon4900" />
      <polygon
         fill="#b27d7d"
         points="151.242,132.304 196.431,97.763 234.302,151.294 "
         id="polygon4902" />
      <polygon
         fill="#ae7a7a"
         points="322.48,918.735 228.785,911.023 267.397,795.235 "
         id="polygon4904" />
      <polygon
         fill="#966969"
         points="365.387,986.902 457.474,986.827 395.894,1030.008 "
         id="polygon4906" />
      <polygon
         fill="#654747"
         points="457.474,986.827 365.387,986.902 345.236,957.706 "
         id="polygon4908" />
      <polygon
         fill="#875e5e"
         points="125.152,989.84 180.722,1025.527 98.6,1028.475 "
         id="polygon4910" />
      <polygon
         points="395.894,1030.008 98.6,1028.475 180.722,1025.527 "
         id="polygon4912" />
      <polygon
         fill="#c88c8c"
         points="247.42,674.482 286.676,682.1 267.397,795.235 "
         id="polygon4914" />
      <polygon
         fill="#ad7979"
         points="234.302,151.294 288.836,119.464 279.72,251.32 "
         id="polygon4916" />
      <polygon
         fill="#a57373"
         points="365.294,111.803 279.72,251.32 288.836,119.464 "
         id="polygon4918" />
      <polygon
         fill="#b17c7c"
         points="181.706,328.114 279.72,251.32 256.947,337.86 "
         id="polygon4920" />
      <polygon
         fill="#be8585"
         points="340.463,327.233 256.947,337.86 279.72,251.32 "
         id="polygon4922" />
      <polygon
         fill="#cb8e8e"
         points="247.42,674.482 291.925,343.925 286.676,682.1 "
         id="polygon4924" />
      <polygon
         fill="#cb8e8e"
         points="246.962,345.184 291.925,343.925 247.42,674.482 "
         id="polygon4926" />
      <polygon
         fill="#382727"
         points="246.962,345.184 181.706,328.114 256.947,337.86 "
         id="polygon4928" />
      <polygon
         fill="#2e2020"
         points="291.925,343.925 246.962,345.184 256.947,337.86 "
         id="polygon4930" />
      <polygon
         fill="#845c5c"
         points="345.236,957.706 408.359,911.579 429.149,960.247 "
         id="polygon4932" />
      <polygon
         fill="#543a3a"
         points="429.149,960.247 457.474,986.827 345.236,957.706 "
         id="polygon4934" />
      <polygon
         fill="#9a6c6c"
         points="408.359,911.579 322.48,918.735 350.349,789.053 "
         id="polygon4936" />
      <polygon
         fill="#9e6e6e"
         points="267.397,795.235 350.349,789.053 322.48,918.735 "
         id="polygon4938" />
      <polygon
         fill="#bb8383"
         points="286.676,682.1 350.349,789.053 267.397,795.235 "
         id="polygon4940" />
      <polygon
         fill="#986a6a"
         points="228.785,911.023 139.828,918.861 183.913,791.88 "
         id="polygon4942" />
      <polygon
         fill="#9a6b6b"
         points="183.913,791.88 267.397,795.235 228.785,911.023 "
         id="polygon4944" />
      <polygon
         fill="#b98181"
         points="183.913,791.88 247.42,674.482 267.397,795.235 "
         id="polygon4946" />
      <polygon
         fill="#725050"
         points="86.384,916.316 139.828,918.861 140.768,957.914 "
         id="polygon4948" />
      <polygon
         fill="#6c4c4c"
         points="139.828,918.861 86.384,916.316 183.913,791.88 "
         id="polygon4950" />
      <polygon
         fill="#9b6c6c"
         points="234.302,151.294 226.973,255.508 151.242,132.304 "
         id="polygon4952" />
      <polygon
         fill="#b37d7d"
         points="279.72,251.32 181.706,328.114 226.973,255.508 "
         id="polygon4954" />
      <polygon
         fill="#a47373"
         points="234.302,151.294 279.72,251.32 226.973,255.508 "
         id="polygon4956" />
      <polygon
         fill="#b67f7f"
         points="202.628,678.025 247.42,674.482 183.913,791.88 "
         id="polygon4958" />
      <polygon
         fill="#745151"
         points="125.152,989.84 98.6,1028.475 64.072,987.573 "
         id="polygon4960" />
      <polygon
         fill="#583d3d"
         points="125.152,989.84 64.072,987.573 140.768,957.914 "
         id="polygon4962" />
      <polygon
         fill="#bc8484"
         points="286.676,682.1 336.455,650.872 350.349,789.053 "
         id="polygon4964" />
      <polygon
         fill="#ba8282"
         points="291.925,343.925 336.455,650.872 286.676,682.1 "
         id="polygon4966" />
      <polygon
         fill="#8d6363"
         points="196.431,97.763 151.242,132.304 111.054,99.814 "
         id="polygon4968" />
      <polygon
         fill="#b47e7e"
         points="246.962,345.184 247.42,674.482 209.438,360.924 "
         id="polygon4970" />
      <polygon
         fill="#b78080"
         points="247.42,674.482 202.628,678.025 209.438,360.924 "
         id="polygon4972" />
      <polygon
         fill="#6b4b4b"
         points="415.725,119.29 365.294,111.803 412.852,85.637 "
         id="polygon4974" />
      <polygon
         fill="#5b3f3f"
         points="285.811,78.811 412.852,85.637 365.294,111.803 "
         id="polygon4976" />
      <polygon
         fill="#9c6d6d"
         points="339.67,252.609 340.463,327.233 279.72,251.32 "
         id="polygon4978" />
      <polygon
         fill="#815a5a"
         points="365.294,111.803 415.725,119.29 339.67,252.609 "
         id="polygon4980" />
      <polygon
         fill="#976a6a"
         points="365.294,111.803 339.67,252.609 279.72,251.32 "
         id="polygon4982" />
      <polygon
         fill="#493333"
         points="340.463,327.233 338.02,345.112 256.947,337.86 "
         id="polygon4984" />
      <polygon
         fill="#ab7878"
         points="291.925,343.925 338.02,345.112 336.455,650.872 "
         id="polygon4986" />
      <polygon
         fill="#463131"
         points="338.02,345.112 291.925,343.925 256.947,337.86 "
         id="polygon4988" />
      <polygon
         fill="#694949"
         points="408.359,911.579 460.282,913.929 429.149,960.247 "
         id="polygon4990" />
      <polygon
         fill="#593e3e"
         points="408.359,911.579 350.349,789.053 460.282,913.929 "
         id="polygon4992" />
      <polygon
         fill="#432f2f"
         points="201.614,61.561 285.811,78.811 196.431,97.763 "
         id="polygon4994" />
      <polygon
         fill="#412d2d"
         points="196.431,97.763 111.054,99.814 201.614,61.561 "
         id="polygon4996" />
      <polygon
         fill="#5e4242"
         points="151.242,132.304 114.616,148.962 111.054,99.814 "
         id="polygon4998" />
      <polygon
         fill="#583d3d"
         points="415.725,119.29 421.828,154.913 339.67,252.609 "
         id="polygon5000" />
      <polygon
         fill="#352525"
         points="140.768,957.914 64.072,987.573 95.253,959.922 "
         id="polygon5002" />
      <polygon
         fill="#563c3c"
         points="86.384,916.316 140.768,957.914 95.253,959.922 "
         id="polygon5004" />
      <polygon
         fill="#795454"
         points="226.973,255.508 181.706,328.114 186.904,254.743 "
         id="polygon5006" />
      <polygon
         fill="#735151"
         points="226.973,255.508 186.904,254.743 151.242,132.304 "
         id="polygon5008" />
      <polygon
         fill="#5d4141"
         points="151.242,132.304 186.904,254.743 114.616,148.962 "
         id="polygon5010" />
      <polygon
         fill="#352525"
         points="186.133,343.955 181.706,328.114 246.962,345.184 "
         id="polygon5012" />
      <polygon
         fill="#835c5c"
         points="209.438,360.924 186.133,343.955 246.962,345.184 "
         id="polygon5014" />
      <polygon
         fill="#5f4242"
         points="477.408,1025.694 395.894,1030.008 457.474,986.827 "
         id="polygon5016" />
      <polygon
         fill="#725050"
         points="202.628,678.025 183.913,791.88 174.361,670.455 "
         id="polygon5018" />
      <polygon
         fill="#765353"
         points="209.438,360.924 174.361,670.455 186.133,343.955 "
         id="polygon5020" />
      <polygon
         fill="#704e4e"
         points="209.438,360.924 202.628,678.025 174.361,670.455 "
         id="polygon5022" />
      <polygon
         fill="#634545"
         points="186.904,254.743 181.706,328.114 153.947,301.698 "
         id="polygon5024" />
      <polygon
         fill="#684949"
         points="338.02,345.112 366.563,677.267 336.455,650.872 "
         id="polygon5026" />
      <polygon
         fill="#614444"
         points="350.349,789.053 336.455,650.872 366.563,677.267 "
         id="polygon5028" />
      <polygon
         fill="#483232"
         points="355.167,255.259 339.67,252.609 421.828,154.913 "
         id="polygon5030" />
      <polygon
         fill="#2e2020"
         points="201.614,61.561 309.206,55.124 285.811,78.811 "
         id="polygon5032" />
      <polygon
         fill="#342424"
         points="309.206,55.124 412.852,85.637 285.811,78.811 "
         id="polygon5034" />
      <polygon
         fill="#442f2f"
         points="397.625,334.493 338.02,345.112 340.463,327.233 "
         id="polygon5036" />
      <polygon
         fill="#644646"
         points="340.463,327.233 339.67,252.609 397.625,334.493 "
         id="polygon5038" />
      <polygon
         fill="#432f2f"
         points="397.625,334.493 339.67,252.609 355.167,255.259 "
         id="polygon5040" />
      <polygon
         fill="#5b4040"
         points="350.349,789.053 366.563,677.267 385.603,792.478 "
         id="polygon5042" />
      <polygon
         fill="#4a3333"
         points="350.349,789.053 385.603,792.478 460.282,913.929 "
         id="polygon5044" />
      <polygon
         fill="#1c1414"
         points="397.625,334.493 356.926,345.072 338.02,345.112 "
         id="polygon5046" />
      <polygon
         fill="#4b3535"
         points="338.02,345.112 356.926,345.072 366.563,677.267 "
         id="polygon5048" />
      <polygon
         fill="#302121"
         points="86.384,916.316 95.253,959.922 71.564,918.359 "
         id="polygon5050" />
      <polygon
         fill="#402d2d"
         points="64.072,987.573 98.6,1028.475 58.06,1020.808 "
         id="polygon5052" />
      <polygon
         fill="#3a2828"
         points="443.712,107.926 421.828,154.913 415.725,119.29 "
         id="polygon5054" />
      <polygon
         fill="#442f2f"
         points="415.725,119.29 412.852,85.637 443.712,107.926 "
         id="polygon5056" />
      <polygon
         fill="#261a1a"
         points="448.466,960.1 457.474,986.827 429.149,960.247 "
         id="polygon5058" />
      <polygon
         fill="#312222"
         points="429.149,960.247 460.282,913.929 448.466,960.1 "
         id="polygon5060" />
      <polygon
         fill="#281c1c"
         points="152.852,793.71 86.384,916.316 71.564,918.359 "
         id="polygon5062" />
      <polygon
         fill="#3f2c2c"
         points="183.913,791.88 86.384,916.316 152.852,793.71 "
         id="polygon5064" />
      <polygon
         fill="#4d3636"
         points="152.852,793.71 174.361,670.455 183.913,791.88 "
         id="polygon5066" />
      <polygon
         points="174.361,670.455 173.136,664.304 186.133,343.955 "
         id="polygon5068" />
      <polygon
         points="184.945,344.293 186.133,343.955 173.136,664.304 "
         id="polygon5070" />
      <polygon
         points="173.136,664.304 174.361,670.455 152.852,793.71 "
         id="polygon5072" />
      <polygon
         points="385.603,792.478 465.175,918.678 460.282,913.929 "
         id="polygon5074" />
      <polygon
         fill="#1c1414"
         points="448.466,960.1 460.282,913.929 465.175,918.678 "
         id="polygon5076" />
      <polygon
         fill="#3f2c2c"
         points="153.947,301.698 181.706,328.114 147.185,333.999 "
         id="polygon5078" />
      <polygon
         fill="#2d1f1f"
         points="186.133,343.955 147.185,333.999 181.706,328.114 "
         id="polygon5080" />
      <polygon
         fill="#ffaaaa"
         points="184.945,344.293 147.185,333.999 186.133,343.955 "
         id="polygon5082" />
      <polygon
         fill="#1b1b1b"
         points="366.563,677.267 364.811,690.672 385.603,792.478 "
         id="polygon5084" />
      <polygon
         fill="#141414"
         points="356.926,345.072 364.811,690.672 366.563,677.267 "
         id="polygon5086" />
      <polygon
         points="153.947,301.698 185.674,252.602 186.904,254.743 "
         id="polygon5088" />
      <polygon
         fill="#dddddd"
         points="185.674,252.602 114.616,148.962 186.904,254.743 "
         id="polygon5090" />
      <polygon
         fill="#352525"
         points="457.474,986.827 489.688,990.833 477.408,1025.694 "
         id="polygon5092" />
      <polygon
         fill="#241919"
         points="448.466,960.1 489.688,990.833 457.474,986.827 "
         id="polygon5094" />
      <polygon
         fill="#201616"
         points="201.614,61.561 111.054,99.814 118.233,85.456 "
         id="polygon5096" />
      <polygon
         fill="#dd9999"
         points="111.054,99.814 99.045,120.08 118.233,85.456 "
         id="polygon5098" />
      <polygon
         fill="#261b1b"
         points="99.045,120.08 111.054,99.814 114.616,148.962 "
         id="polygon5100" />
      <polygon
         fill="#131313"
         points="114.616,148.962 185.674,252.602 99.045,120.08 "
         id="polygon5102" />
      <polygon
         fill="#111111"
         points="421.828,154.913 443.712,107.926 420.815,153.079 "
         id="polygon5104" />
      <polygon
         fill="#111111"
         points="421.828,154.913 420.815,153.079 355.167,255.259 "
         id="polygon5106" />
      <polygon
         fill="#181010"
         points="57.122,985.425 64.072,987.573 58.06,1020.808 "
         id="polygon5108" />
      <polygon
         points="64.072,987.573 57.122,985.425 95.253,959.922 "
         id="polygon5110" />
      <polygon
         points="201.614,61.561 247.939,56.839 309.206,55.124 "
         id="polygon5112" />
      <polygon
         fill="#181818"
         points="201.614,61.561 118.233,85.456 247.939,56.839 "
         id="polygon5114" />
      <polygon
         fill="#141414"
         points="381.698,310.117 397.625,334.493 355.167,255.259 "
         id="polygon5116" />
      <polygon
         fill="#212121"
         points="204.866,344.949 147.185,333.999 184.945,344.293 "
         id="polygon5118" />
      <polygon
         fill="#505050"
         points="356.926,345.072 333.556,343.828 364.811,690.672 "
         id="polygon5120" />
      <polygon
         fill="#232323"
         points="397.625,334.493 333.556,343.828 356.926,345.072 "
         id="polygon5122" />
      <polygon
         fill="#373737"
         points="420.815,153.079 332.82,255.102 355.167,255.259 "
         id="polygon5124" />
      <polygon
         fill="#363636"
         points="332.82,255.102 381.698,310.117 355.167,255.259 "
         id="polygon5126" />
      <polygon
         fill="#414141"
         points="385.603,792.478 364.811,690.672 365.907,794.259 "
         id="polygon5128" />
      <polygon
         fill="#656565"
         points="204.866,344.949 184.945,344.293 195.122,700.966 "
         id="polygon5130" />
      <polygon
         fill="#636363"
         points="173.136,664.304 195.122,700.966 184.945,344.293 "
         id="polygon5132" />
      <polygon
         fill="#686868"
         points="173.136,664.304 152.852,793.71 195.122,700.966 "
         id="polygon5134" />
      <polygon
         fill="#121212"
         points="95.253,959.922 57.122,985.425 102.396,959.553 "
         id="polygon5136" />
      <polygon
         fill="#181818"
         points="102.396,959.553 71.564,918.359 95.253,959.922 "
         id="polygon5138" />
      <polygon
         fill="#727272"
         points="364.811,690.672 333.556,343.828 338.02,685.716 "
         id="polygon5140" />
      <polygon
         fill="#6e6e6e"
         points="364.811,690.672 338.02,685.716 365.907,794.259 "
         id="polygon5142" />
      <polygon
         fill="#3e3e3e"
         points="185.674,252.602 153.947,301.698 182.679,301.526 "
         id="polygon5144" />
      <polygon
         fill="#797979"
         points="182.679,301.526 229.22,254.1 185.674,252.602 "
         id="polygon5146" />
      <polygon
         fill="#383838"
         points="153.947,301.698 147.185,333.999 182.679,301.526 "
         id="polygon5148" />
      <polygon
         fill="#585858"
         points="187.514,795.9 195.122,700.966 152.852,793.71 "
         id="polygon5150" />
      <polygon
         fill="#ffffff"
         points="309.206,55.124 392.731,81.728 412.852,85.637 "
         id="polygon5152" />
      <polygon
         fill="#292929"
         points="247.939,56.839 392.731,81.728 309.206,55.124 "
         id="polygon5154" />
      <polygon
         fill="#151515"
         points="443.712,107.926 412.852,85.637 392.731,81.728 "
         id="polygon5156" />
      <polygon
         fill="#aeaeae"
         points="204.866,344.949 195.122,700.966 240.136,704.707 "
         id="polygon5158" />
      <polygon
         fill="#afafaf"
         points="246.251,345.409 204.866,344.949 240.136,704.707 "
         id="polygon5160" />
      <polygon
         fill="#acacac"
         points="240.136,704.707 195.122,700.966 187.514,795.9 "
         id="polygon5162" />
      <polygon
         fill="#3b3b3b"
         points="465.175,918.678 421.662,960.629 448.466,960.1 "
         id="polygon5164" />
      <polygon
         fill="#2a2a2a"
         points="489.688,990.833 448.466,960.1 421.662,960.629 "
         id="polygon5166" />
      <polygon
         fill="#b5b5b5"
         points="333.556,343.828 290.64,346.07 289.679,680.625 "
         id="polygon5168" />
      <polygon
         fill="#cbcbcb"
         points="289.679,680.625 246.251,345.409 240.136,704.707 "
         id="polygon5170" />
      <polygon
         fill="#cbcbcb"
         points="290.64,346.07 246.251,345.409 289.679,680.625 "
         id="polygon5172" />
      <polygon
         fill="#b7b7b7"
         points="338.02,685.716 333.556,343.828 289.679,680.625 "
         id="polygon5174" />
      <polygon
         fill="#3c3c3c"
         points="102.396,959.553 96.993,915.517 71.564,918.359 "
         id="polygon5176" />
      <polygon
         fill="#4c4c4c"
         points="96.993,915.517 187.514,795.9 152.852,793.71 "
         id="polygon5178" />
      <polygon
         fill="#323232"
         points="71.564,918.359 96.993,915.517 152.852,793.71 "
         id="polygon5180" />
      <polygon
         fill="#999999"
         points="365.907,794.259 338.02,685.716 326.005,792.904 "
         id="polygon5182" />
      <polygon
         fill="#b3b3b3"
         points="338.02,685.716 289.679,680.625 326.005,792.904 "
         id="polygon5184" />
      <polygon
         fill="#3c3c3c"
         points="385.603,792.478 437.862,914.786 465.175,918.678 "
         id="polygon5186" />
      <polygon
         fill="#4a4a4a"
         points="437.862,914.786 421.662,960.629 465.175,918.678 "
         id="polygon5188" />
      <polygon
         fill="#3b3b3b"
         points="437.862,914.786 385.603,792.478 365.907,794.259 "
         id="polygon5190" />
      <polygon
         fill="#343434"
         points="397.625,334.493 324.492,334.75 333.556,343.828 "
         id="polygon5192" />
      <polygon
         fill="#a4a4a4"
         points="324.492,334.75 332.82,255.102 277.32,253.18 "
         id="polygon5194" />
      <polygon
         fill="#5f5f5f"
         points="381.698,310.117 324.492,334.75 397.625,334.493 "
         id="polygon5196" />
      <polygon
         fill="#303030"
         points="324.492,334.75 290.64,346.07 333.556,343.828 "
         id="polygon5198" />
      <polygon
         fill="#919191"
         points="381.698,310.117 332.82,255.102 324.492,334.75 "
         id="polygon5200" />
      <polygon
         fill="#bbbbbb"
         points="240.136,704.707 187.514,795.9 264.311,799.952 "
         id="polygon5202" />
      <polygon
         fill="#c2c2c2"
         points="326.005,792.904 289.679,680.625 264.311,799.952 "
         id="polygon5204" />
      <polygon
         fill="#c6c6c6"
         points="240.136,704.707 264.311,799.952 289.679,680.625 "
         id="polygon5206" />
      <polygon
         fill="#767676"
         points="229.22,254.1 140.753,119.874 185.674,252.602 "
         id="polygon5208" />
      <polygon
         fill="#585858"
         points="140.753,119.874 99.045,120.08 185.674,252.602 "
         id="polygon5210" />
      <polygon
         fill="#5b5b5b"
         points="99.045,120.08 140.753,119.874 118.233,85.456 "
         id="polygon5212" />
      <polygon
         fill="#8c8c8c"
         points="230.784,331.169 182.679,301.526 147.185,333.999 "
         id="polygon5214" />
      <polygon
         fill="#434343"
         points="230.784,331.169 204.866,344.949 246.251,345.409 "
         id="polygon5216" />
      <polygon
         fill="#bfbfbf"
         points="324.492,334.75 277.32,253.18 230.784,331.169 "
         id="polygon5218" />
      <polygon
         fill="#afafaf"
         points="230.784,331.169 277.32,253.18 229.22,254.1 "
         id="polygon5220" />
      <polygon
         fill="#505050"
         points="324.492,334.75 230.784,331.169 290.64,346.07 "
         id="polygon5222" />
      <polygon
         fill="#a4a4a4"
         points="182.679,301.526 230.784,331.169 229.22,254.1 "
         id="polygon5224" />
      <polygon
         fill="#515151"
         points="230.784,331.169 246.251,345.409 290.64,346.07 "
         id="polygon5226" />
      <polygon
         fill="#4c4c4c"
         points="230.784,331.169 147.185,333.999 204.866,344.949 "
         id="polygon5228" />
      <polygon
         fill="#505050"
         points="395.539,111.576 420.815,153.079 443.712,107.926 "
         id="polygon5230" />
      <polygon
         fill="#4d4d4d"
         points="392.731,81.728 395.539,111.576 443.712,107.926 "
         id="polygon5232" />
      <polygon
         fill="#656565"
         points="332.82,255.102 420.815,153.079 395.539,111.576 "
         id="polygon5234" />
      <polygon
         fill="#2e2e2e"
         points="118.233,85.456 186.198,86.343 247.939,56.839 "
         id="polygon5236" />
      <polygon
         fill="#616161"
         points="118.233,85.456 140.753,119.874 186.198,86.343 "
         id="polygon5238" />
      <polygon
         fill="#3d3d3d"
         points="421.662,960.629 433.532,981.98 489.688,990.833 "
         id="polygon5240" />
      <polygon
         fill="#dd9999"
         points="111.635,1029.118 98.6,1028.475 395.894,1030.008 "
         id="polygon5242" />
      <polygon
         fill="#484848"
         points="57.122,985.425 58.06,1020.808 111.635,1029.118 "
         id="polygon5244" />
      <polygon
         fill="#dddddd"
         points="111.635,1029.118 58.06,1020.808 98.6,1028.475 "
         id="polygon5246" />
      <polygon
         fill="#7a7a7a"
         points="172.411,959.651 96.993,915.517 102.396,959.553 "
         id="polygon5248" />
      <polygon
         fill="#545454"
         points="349.008,959.064 433.532,981.98 421.662,960.629 "
         id="polygon5250" />
      <polygon
         fill="#484848"
         points="124.194,983.599 172.411,959.651 102.396,959.553 "
         id="polygon5252" />
      <polygon
         fill="#6a6a6a"
         points="111.635,1029.118 124.194,983.599 57.122,985.425 "
         id="polygon5254" />
      <polygon
         fill="#4c4c4c"
         points="57.122,985.425 124.194,983.599 102.396,959.553 "
         id="polygon5256" />
      <polygon
         fill="#818181"
         points="267.541,91.665 395.539,111.576 392.731,81.728 "
         id="polygon5258" />
      <polygon
         fill="#414141"
         points="267.541,91.665 392.731,81.728 247.939,56.839 "
         id="polygon5260" />
      <polygon
         fill="#454545"
         points="186.198,86.343 267.541,91.665 247.939,56.839 "
         id="polygon5262" />
      <polygon
         fill="#eeeeee"
         points="404.823,1027.833 111.635,1029.118 395.894,1030.008 "
         id="polygon5264" />
      <polygon
         fill="#6b6b6b"
         points="433.532,981.98 404.823,1027.833 489.688,990.833 "
         id="polygon5266" />
      <polygon
         fill="#dddddd"
         points="395.894,1030.008 477.408,1025.694 404.823,1027.833 "
         id="polygon5268" />
      <polygon
         fill="#3c3c3c"
         points="489.688,990.833 404.823,1027.833 477.408,1025.694 "
         id="polygon5270" />
      <polygon
         fill="#7d7d7d"
         points="96.993,915.517 161.832,914.673 187.514,795.9 "
         id="polygon5272" />
      <polygon
         fill="#898989"
         points="96.993,915.517 172.411,959.651 161.832,914.673 "
         id="polygon5274" />
      <polygon
         fill="#a7a7a7"
         points="214.892,121.824 229.22,254.1 277.32,253.18 "
         id="polygon5276" />
      <polygon
         fill="#a1a1a1"
         points="186.198,86.343 214.892,121.824 267.541,91.665 "
         id="polygon5278" />
      <polygon
         fill="#a1a1a1"
         points="140.753,119.874 214.892,121.824 186.198,86.343 "
         id="polygon5280" />
      <polygon
         fill="#959595"
         points="140.753,119.874 229.22,254.1 214.892,121.824 "
         id="polygon5282" />
      <polygon
         fill="#cbcbcb"
         points="267.541,91.665 214.892,121.824 309.558,126.88 "
         id="polygon5284" />
      <polygon
         fill="#a9a9a9"
         points="395.539,111.576 267.541,91.665 309.558,126.88 "
         id="polygon5286" />
      <polygon
         fill="#afafaf"
         points="309.558,126.88 214.892,121.824 277.32,253.18 "
         id="polygon5288" />
      <polygon
         fill="#9d9d9d"
         points="277.32,253.18 332.82,255.102 309.558,126.88 "
         id="polygon5290" />
      <polygon
         fill="#989898"
         points="395.539,111.576 309.558,126.88 332.82,255.102 "
         id="polygon5292" />
      <polygon
         fill="#808080"
         points="365.907,794.259 326.005,792.904 370.025,916.037 "
         id="polygon5294" />
      <polygon
         fill="#8d8d8d"
         points="421.662,960.629 370.025,916.037 349.008,959.064 "
         id="polygon5296" />
      <polygon
         fill="#7e7e7e"
         points="365.907,794.259 370.025,916.037 437.862,914.786 "
         id="polygon5298" />
      <polygon
         fill="#8b8b8b"
         points="421.662,960.629 437.862,914.786 370.025,916.037 "
         id="polygon5300" />
      <polygon
         fill="#626262"
         points="363.878,984.986 433.532,981.98 349.008,959.064 "
         id="polygon5302" />
      <polygon
         fill="#9c9c9c"
         points="404.823,1027.833 433.532,981.98 363.878,984.986 "
         id="polygon5304" />
      <polygon
         fill="#767676"
         points="259.014,958.155 363.878,984.986 349.008,959.064 "
         id="polygon5306" />
      <polygon
         fill="#b9b9b9"
         points="370.025,916.037 260.054,915.33 349.008,959.064 "
         id="polygon5308" />
      <polygon
         fill="#a0a0a0"
         points="264.311,799.952 187.514,795.9 260.054,915.33 "
         id="polygon5310" />
      <polygon
         fill="#b1b1b1"
         points="260.054,915.33 172.411,959.651 259.014,958.155 "
         id="polygon5312" />
      <polygon
         fill="#b4b4b4"
         points="349.008,959.064 260.054,915.33 259.014,958.155 "
         id="polygon5314" />
      <polygon
         fill="#a0a0a0"
         points="161.832,914.673 260.054,915.33 187.514,795.9 "
         id="polygon5316" />
      <polygon
         fill="#b4b4b4"
         points="260.054,915.33 161.832,914.673 172.411,959.651 "
         id="polygon5318" />
      <polygon
         fill="#a6a6a6"
         points="260.054,915.33 326.005,792.904 264.311,799.952 "
         id="polygon5320" />
      <polygon
         fill="#a7a7a7"
         points="370.025,916.037 326.005,792.904 260.054,915.33 "
         id="polygon5322" />
      <polygon
         fill="#6f6f6f"
         points="172.411,959.651 251.424,978.91 259.014,958.155 "
         id="polygon5324" />
      <polygon
         fill="#7b7b7b"
         points="251.424,978.91 363.878,984.986 259.014,958.155 "
         id="polygon5326" />
      <polygon
         fill="#7c7c7c"
         points="251.424,978.91 172.411,959.651 124.194,983.599 "
         id="polygon5328" />
      <polygon
         fill="#b0b0b0"
         points="245.359,1013.517 124.194,983.599 111.635,1029.118 "
         id="polygon5330" />
      <polygon
         fill="#c6c6c6"
         points="363.878,984.986 251.424,978.91 245.359,1013.517 "
         id="polygon5332" />
      <polygon
         fill="#b5b5b5"
         points="404.823,1027.833 363.878,984.986 245.359,1013.517 "
         id="polygon5334" />
      <polygon
         fill="#b8b8b8"
         points="245.359,1013.517 251.424,978.91 124.194,983.599 "
         id="polygon5336" />
      <polygon
         fill="#373737"
         points="404.823,1027.833 245.359,1013.517 111.635,1029.118 "
         id="polygon5338" />
    </g>
  </g>
</svg>
