<?xml version="1.0" encoding="UTF-8" standalone="no"?>
<!-- Created with Inkscape (http://www.inkscape.org/) -->

<svg
   width="96.830093mm"
   height="164.76134mm"
   viewBox="0 0 96.830093 164.76134"
   version="1.1"
   id="svg3160"
   xmlns="http://www.w3.org/2000/svg"
   xmlns:svg="http://www.w3.org/2000/svg">
  <defs
     id="defs3157" />
  <g
     id="layer1">
    <g
       id="g661"
       transform="matrix(0.26458333,0,0,0.26458333,-496.97137,-107.72643)">
      <polygon
         fill="#cb8e8e"
         points="1997.946,987.567 2122.176,995.487 2002.911,1026.329 "
         id="polygon9" />
      <polygon
         fill="#c68a8a"
         points="2017.458,914.504 2119.41,916.773 2050.39,961.82 "
         id="polygon11" />
      <polygon
         fill="#a17070"
         points="2050.39,961.82 2122.176,995.487 1997.946,987.567 "
         id="polygon13" />
      <polygon
         fill="#c98d8d"
         points="2085.746,444.692 2098.39,446.522 2088.675,511.704 "
         id="polygon15" />
      <polygon
         fill="#cb8e8e"
         points="2085.746,444.692 2088.675,511.704 2027.13,410.015 "
         id="polygon17" />
      <polygon
         fill="#ca8d8d"
         points="2027.13,410.015 2088.04,408.981 2085.746,444.692 "
         id="polygon19" />
      <polygon
         points="2025.816,445.753 2023.262,442.794 2088.675,511.704 "
         id="polygon21" />
      <polygon
         fill="#c68b8b"
         points="2088.675,511.704 2023.262,442.794 2027.13,410.015 "
         id="polygon23" />
      <polygon
         fill="#ca8d8d"
         points="1990.199,512.021 1996.992,446.944 2025.816,445.753 "
         id="polygon25" />
      <polygon
         fill="#c98d8d"
         points="2088.675,511.704 1990.199,512.021 2025.816,445.753 "
         id="polygon27" />
      <polygon
         fill="#382727"
         points="2088.04,408.981 2027.13,410.015 2083.91,407.4 "
         id="polygon29" />
      <polygon
         fill="#a77575"
         points="2088.675,511.704 2098.39,446.522 2128.511,446.226 "
         id="polygon31" />
      <polygon
         fill="#2d2020"
         points="2098.39,446.522 2085.746,444.692 2128.511,446.226 "
         id="polygon33" />
      <polygon
         fill="#3c2a2a"
         points="1996.992,446.944 1981.186,444.552 2025.816,445.753 "
         id="polygon35" />
      <polygon
         fill="#9d6e6e"
         points="1981.186,444.552 1996.992,446.944 1990.199,512.021 "
         id="polygon37" />
      <polygon
         fill="#af7a7a"
         points="2050.39,961.82 1972.703,961.742 2017.458,914.504 "
         id="polygon39" />
      <polygon
         fill="#745151"
         points="2050.39,961.82 1997.946,987.567 1972.703,961.742 "
         id="polygon41" />
      <polygon
         fill="#3c3c3c"
         points="2027.13,410.015 2023.262,442.794 2032.744,408.55 "
         id="polygon43" />
      <polygon
         fill="#181010"
         points="2027.13,410.015 2032.744,408.55 2083.91,407.4 "
         id="polygon45" />
      <polygon
         fill="#a97676"
         points="2177.167,918.221 2165.847,960.349 2119.41,916.773 "
         id="polygon47" />
      <polygon
         fill="#a97676"
         points="2119.41,916.773 2165.847,960.349 2050.39,961.82 "
         id="polygon49" />
      <polygon
         fill="#775353"
         points="2122.176,995.487 2050.39,961.82 2165.847,960.349 "
         id="polygon51" />
      <polygon
         fill="#533a3a"
         points="2046.213,525.748 1990.199,512.021 2088.675,511.704 "
         id="polygon53" />
      <polygon
         fill="#c88c8c"
         points="2046.213,525.748 2095.961,527.823 2049.701,606.307 "
         id="polygon55" />
      <polygon
         fill="#473131"
         points="2095.961,527.823 2046.213,525.748 2088.675,511.704 "
         id="polygon57" />
      <polygon
         fill="#885f5f"
         points="2208.631,983.472 2122.176,995.487 2165.847,960.349 "
         id="polygon59" />
      <polygon
         fill="#996b6b"
         points="2122.176,995.487 2208.631,983.472 2202.324,1029.452 "
         id="polygon61" />
      <polygon
         fill="#765252"
         points="2202.324,1029.452 2002.911,1026.329 2122.176,995.487 "
         id="polygon63" />
      <polygon
         fill="#b88080"
         points="2017.458,914.504 2028.809,794.557 2087.367,787.19 "
         id="polygon65" />
      <polygon
         fill="#ba8282"
         points="2119.41,916.773 2017.458,914.504 2087.367,787.19 "
         id="polygon67" />
      <polygon
         fill="#cb8e8e"
         points="2049.701,606.307 2095.961,527.823 2087.367,787.19 "
         id="polygon69" />
      <polygon
         fill="#cb8e8e"
         points="2049.701,606.307 2087.367,787.19 2028.809,794.557 "
         id="polygon71" />
      <polygon
         fill="#231818"
         points="1985.185,410.3 1943.199,407.974 1991.921,408.16 "
         id="polygon73" />
      <polygon
         fill="#a97676"
         points="1943.199,407.974 1985.185,410.3 1981.186,444.552 "
         id="polygon75" />
      <polygon
         fill="#a67474"
         points="1990.199,512.021 1943.199,407.974 1981.186,444.552 "
         id="polygon77" />
      <polygon
         fill="#a77474"
         points="1921.526,912.876 2017.458,914.504 1972.703,961.742 "
         id="polygon79" />
      <polygon
         fill="#9a6c6c"
         points="2028.809,794.557 2017.458,914.504 1921.526,912.876 "
         id="polygon81" />
      <polygon
         fill="#7f5959"
         points="1997.946,987.567 1896.647,989.639 1972.703,961.742 "
         id="polygon83" />
      <polygon
         fill="#a47272"
         points="1896.647,989.639 1997.946,987.567 2002.911,1026.329 "
         id="polygon85" />
      <polygon
         fill="#6c4c4c"
         points="2130.913,436.547 2128.511,446.226 2113.184,408.064 "
         id="polygon87" />
      <polygon
         fill="#684949"
         points="2130.913,436.547 2113.184,408.064 2128.525,408.727 "
         id="polygon89" />
      <polygon
         fill="#9e6e6e"
         points="1943.199,407.974 1990.199,512.021 1933.471,511.551 "
         id="polygon91" />
      <polygon
         fill="#835c5c"
         points="2130.913,436.547 2128.525,408.727 2172.985,444.514 "
         id="polygon93" />
      <polygon
         fill="#5c4040"
         points="1933.471,511.551 1935.011,445.662 1943.199,407.974 "
         id="polygon95" />
      <polygon
         fill="#b57f7f"
         points="2128.511,446.226 2130.913,436.547 2196.894,497.535 "
         id="polygon97" />
      <polygon
         fill="#ad7979"
         points="2196.894,497.535 2088.675,511.704 2128.511,446.226 "
         id="polygon99" />
      <polygon
         fill="#825b5b"
         points="2196.894,497.535 2130.913,436.547 2172.985,444.514 "
         id="polygon101" />
      <polygon
         fill="#432f2f"
         points="1978.914,525.433 1933.471,511.551 1990.199,512.021 "
         id="polygon103" />
      <polygon
         fill="#3f2c2c"
         points="1978.914,525.433 1990.199,512.021 2046.213,525.748 "
         id="polygon105" />
      <polygon
         fill="#bc8383"
         points="2046.213,525.748 2049.701,606.307 1978.914,525.433 "
         id="polygon107" />
      <polygon
         fill="#1a1212"
         points="1942.722,407.155 1943.199,407.974 1937.495,409.814 "
         id="polygon109" />
      <polygon
         fill="#4d3636"
         points="1935.011,445.662 1937.495,409.814 1943.199,407.974 "
         id="polygon111" />
      <polygon
         points="2128.525,408.727 2113.184,408.064 2159.719,407.585 "
         id="polygon113" />
      <polygon
         fill="#7a5555"
         points="2128.525,408.727 2159.719,407.585 2172.985,444.514 "
         id="polygon115" />
      <polygon
         fill="#a47272"
         points="2087.367,787.19 2129.076,785 2119.41,916.773 "
         id="polygon117" />
      <polygon
         fill="#9d6e6e"
         points="2129.076,785 2177.167,918.221 2119.41,916.773 "
         id="polygon119" />
      <polygon
         fill="#b37d7d"
         points="2095.961,527.823 2129.076,785 2087.367,787.19 "
         id="polygon121" />
      <polygon
         fill="#3c3c3c"
         points="2023.262,442.794 2025.816,445.753 2055.709,443.501 "
         id="polygon123" />
      <polygon
         points="1981.186,444.552 2055.709,443.501 2025.816,445.753 "
         id="polygon125" />
      <polygon
         fill="#535353"
         points="2055.709,443.501 2085.746,444.692 2088.04,408.981 "
         id="polygon127" />
      <polygon
         fill="#676767"
         points="2083.91,407.4 2055.709,443.501 2088.04,408.981 "
         id="polygon129" />
      <polygon
         fill="#ac7979"
         points="2049.701,606.307 1981.672,571.254 1978.914,525.433 "
         id="polygon131" />
      <polygon
         fill="#bd8484"
         points="1981.672,571.254 2049.701,606.307 2028.809,794.557 "
         id="polygon133" />
      <polygon
         fill="#111111"
         points="2083.91,407.4 2032.744,408.55 2052.636,409.59 "
         id="polygon135" />
      <polygon
         fill="#5f5f5f"
         points="2083.91,407.4 2052.636,409.59 2055.709,443.501 "
         id="polygon137" />
      <polygon
         fill="#5f5f5f"
         points="2052.636,409.59 2023.262,442.794 2055.709,443.501 "
         id="polygon139" />
      <polygon
         fill="#535353"
         points="2023.262,442.794 2052.636,409.59 2032.744,408.55 "
         id="polygon141" />
      <polygon
         fill="#6d6d6d"
         points="1966.276,409.457 1942.722,407.155 1937.495,409.814 "
         id="polygon143" />
      <polygon
         fill="#171010"
         points="1966.276,409.457 1943.199,407.974 1942.722,407.155 "
         id="polygon145" />
      <polygon
         fill="#996b6b"
         points="2028.809,794.557 1921.526,912.876 1972.509,799.445 "
         id="polygon147" />
      <polygon
         fill="#ac7878"
         points="2028.809,794.557 1972.509,799.445 1981.672,571.254 "
         id="polygon149" />
      <polygon
         fill="#141414"
         points="2113.184,408.064 2124.028,409.137 2159.719,407.585 "
         id="polygon151" />
      <polygon
         fill="#b6b6b6"
         points="2124.028,409.137 2172.985,444.514 2159.719,407.585 "
         id="polygon153" />
      <polygon
         fill="#6d4c4c"
         points="2165.847,960.349 2177.167,918.221 2214.955,915.204 "
         id="polygon155" />
      <polygon
         fill="#a07070"
         points="2129.076,785 2095.961,527.823 2149.634,529.102 "
         id="polygon157" />
      <polygon
         fill="#563c3c"
         points="2149.634,529.102 2088.675,511.704 2196.894,497.535 "
         id="polygon159" />
      <polygon
         fill="#4b3434"
         points="2095.961,527.823 2088.675,511.704 2149.634,529.102 "
         id="polygon161" />
      <polygon
         fill="#bcbcbc"
         points="2172.985,444.514 2124.028,409.137 2101.47,443.363 "
         id="polygon163" />
      <polygon
         points="2085.746,444.692 2101.47,443.363 2128.511,446.226 "
         id="polygon165" />
      <polygon
         fill="#ffaaaa"
         points="2101.47,443.363 2085.746,444.692 2055.709,443.501 "
         id="polygon167" />
      <polygon
         fill="#553b3b"
         points="2128.511,446.226 2097.844,409.056 2113.184,408.064 "
         id="polygon169" />
      <polygon
         fill="#4d3636"
         points="2097.844,409.056 2128.511,446.226 2101.47,443.363 "
         id="polygon171" />
      <polygon
         fill="#c7c7c7"
         points="2124.028,409.137 2097.844,409.056 2101.47,443.363 "
         id="polygon173" />
      <polygon
         fill="#121212"
         points="2097.844,409.056 2124.028,409.137 2113.184,408.064 "
         id="polygon175" />
      <polygon
         fill="#bebebe"
         points="1937.495,409.814 1935.011,445.662 2011.849,443.659 "
         id="polygon177" />
      <polygon
         fill="#eeaaaa"
         points="2055.709,443.501 1981.186,444.552 2011.849,443.659 "
         id="polygon179" />
      <polygon
         fill="#533a3a"
         points="1991.921,408.16 2011.849,443.659 1985.185,410.3 "
         id="polygon181" />
      <polygon
         fill="#563c3c"
         points="2011.849,443.659 1981.186,444.552 1985.185,410.3 "
         id="polygon183" />
      <polygon
         fill="#bbbbbb"
         points="2011.849,443.659 1966.276,409.457 1937.495,409.814 "
         id="polygon185" />
      <polygon
         fill="#4b3535"
         points="1991.921,408.16 2011.707,407.801 2011.849,443.659 "
         id="polygon187" />
      <polygon
         fill="#c1c1c1"
         points="2011.849,443.659 2011.707,407.801 1966.276,409.457 "
         id="polygon189" />
      <polygon
         fill="#ee9999"
         points="2011.707,407.801 1991.921,408.16 1943.199,407.974 "
         id="polygon191" />
      <polygon
         fill="#232323"
         points="1966.276,409.457 2011.707,407.801 1943.199,407.974 "
         id="polygon193" />
      <polygon
         fill="#845c5c"
         points="2172.985,444.514 2204.594,446.567 2196.894,497.535 "
         id="polygon195" />
      <polygon
         fill="#171010"
         points="1918.381,443.797 2011.849,443.659 1935.011,445.662 "
         id="polygon197" />
      <polygon
         fill="#5c4040"
         points="1933.471,511.551 1918.381,443.797 1935.011,445.662 "
         id="polygon199" />
      <polygon
         fill="#765252"
         points="1896.647,989.639 2002.911,1026.329 1891.594,1029.875 "
         id="polygon201" />
      <polygon
         points="1891.594,1029.875 2002.911,1026.329 2202.324,1029.452 "
         id="polygon203" />
      <polygon
         fill="#3e2c2c"
         points="2204.594,446.567 2172.985,444.514 2203.059,444.894 "
         id="polygon205" />
      <polygon
         fill="#865d5d"
         points="1914.877,446.646 1918.381,443.797 1933.471,511.551 "
         id="polygon207" />
      <polygon
         fill="#6c4b4b"
         points="2177.167,918.221 2129.076,785 2159.15,796.314 "
         id="polygon209" />
      <polygon
         fill="#885f5f"
         points="2129.076,785 2149.634,529.102 2159.15,796.314 "
         id="polygon211" />
      <polygon
         fill="#6c4c4c"
         points="2177.167,918.221 2159.15,796.314 2214.955,915.204 "
         id="polygon213" />
      <polygon
         fill="#724f4f"
         points="1921.526,912.876 1972.703,961.742 1908.882,962.57 "
         id="polygon215" />
      <polygon
         fill="#473232"
         points="1896.647,989.639 1908.882,962.57 1972.703,961.742 "
         id="polygon217" />
      <polygon
         fill="#704e4e"
         points="1916.92,440.044 1906.048,416.129 1916.962,411.188 "
         id="polygon219" />
      <polygon
         fill="#845d5d"
         points="2191.588,411.44 2209.686,409.774 2203.983,441.989 "
         id="polygon221" />
      <polygon
         fill="#1c1313"
         points="2132.251,409.299 2209.686,409.774 2191.588,411.44 "
         id="polygon223" />
      <polygon
         fill="#604343"
         points="1905.566,510.793 1906.048,416.129 1916.92,440.044 "
         id="polygon225" />
      <polygon
         fill="#513939"
         points="1905.566,510.793 1914.877,446.646 1933.471,511.551 "
         id="polygon227" />
      <polygon
         fill="#898989"
         points="1914.877,446.646 1905.566,510.793 1916.92,440.044 "
         id="polygon229" />
      <polygon
         fill="#503838"
         points="1921.526,912.876 1908.882,962.57 1891.585,920.739 "
         id="polygon231" />
      <polygon
         fill="#563c3c"
         points="2208.631,983.472 2244.289,993.701 2202.324,1029.452 "
         id="polygon233" />
      <polygon
         fill="#201616"
         points="2165.847,960.349 2244.289,993.701 2208.631,983.472 "
         id="polygon235" />
      <polygon
         fill="#bc8484"
         points="2118.985,443.811 2132.251,409.299 2191.588,411.44 "
         id="polygon237" />
      <polygon
         fill="#bc8484"
         points="2203.983,441.989 2118.985,443.811 2191.588,411.44 "
         id="polygon239" />
      <polygon
         fill="#cc8888"
         points="2172.985,444.514 2118.985,443.811 2203.059,444.894 "
         id="polygon241" />
      <polygon
         fill="#dddddd"
         points="2118.985,443.811 2172.985,444.514 2101.47,443.363 "
         id="polygon243" />
      <polygon
         fill="#ac7878"
         points="2203.983,441.989 2203.059,444.894 2118.985,443.811 "
         id="polygon245" />
      <polygon
         fill="#2a1e1e"
         points="2196.894,497.535 2169.163,526.555 2149.634,529.102 "
         id="polygon247" />
      <polygon
         fill="#af7b7b"
         points="2132.251,409.299 2118.985,443.811 2116.784,408.609 "
         id="polygon249" />
      <polygon
         fill="#281c1c"
         points="1948.263,528.013 1933.471,511.551 1978.914,525.433 "
         id="polygon251" />
      <polygon
         fill="#563c3c"
         points="1978.914,525.433 1981.672,571.254 1948.263,528.013 "
         id="polygon253" />
      <polygon
         fill="#251919"
         points="1948.263,528.013 1905.566,510.793 1933.471,511.551 "
         id="polygon255" />
      <polygon
         fill="#b57e7e"
         points="1934.646,407.292 1995.07,408.178 1916.962,411.188 "
         id="polygon257" />
      <polygon
         fill="#bc8383"
         points="1995.07,408.178 1916.92,440.044 1916.962,411.188 "
         id="polygon259" />
      <polygon
         fill="#af7b7b"
         points="1914.877,446.646 1916.92,440.044 1992.791,443.308 "
         id="polygon261" />
      <polygon
         fill="#dd9999"
         points="2055.709,443.501 1992.791,443.308 2101.47,443.363 "
         id="polygon263" />
      <polygon
         fill="#b98181"
         points="1916.92,440.044 1995.07,408.178 1992.791,443.308 "
         id="polygon265" />
      <polygon
         fill="#eeeeee"
         points="2101.47,443.363 1992.791,443.308 2118.985,443.811 "
         id="polygon267" />
      <polygon
         fill="#eeaaaa"
         points="2011.849,443.659 1992.791,443.308 2055.709,443.501 "
         id="polygon269" />
      <polygon
         fill="#696969"
         points="1918.381,443.797 1914.877,446.646 1992.791,443.308 "
         id="polygon271" />
      <polygon
         fill="#eeaaaa"
         points="2011.849,443.659 1918.381,443.797 1992.791,443.308 "
         id="polygon273" />
      <polygon
         fill="#513838"
         points="2210.103,962.157 2165.847,960.349 2214.955,915.204 "
         id="polygon275" />
      <polygon
         fill="#3e2b2b"
         points="2210.103,962.157 2244.289,993.701 2165.847,960.349 "
         id="polygon277" />
      <polygon
         fill="#453030"
         points="1952.84,785.094 1981.672,571.254 1972.509,799.445 "
         id="polygon279" />
      <polygon
         fill="#644646"
         points="1948.263,528.013 1981.672,571.254 1952.84,785.094 "
         id="polygon281" />
      <polygon
         fill="#412d2d"
         points="1952.84,785.094 1921.526,912.876 1891.585,920.739 "
         id="polygon283" />
      <polygon
         fill="#4f3737"
         points="1952.84,785.094 1972.509,799.445 1921.526,912.876 "
         id="polygon285" />
      <polygon
         points="2116.784,408.609 2135.408,408.58 2132.251,409.299 "
         id="polygon287" />
      <polygon
         fill="#b3b3b3"
         points="2135.408,408.58 2116.784,408.609 2118.985,443.811 "
         id="polygon289" />
      <polygon
         points="2209.686,409.774 2132.251,409.299 2135.408,408.58 "
         id="polygon291" />
      <polygon
         fill="#563c3c"
         points="2169.163,526.555 2161.315,782.198 2149.634,529.102 "
         id="polygon293" />
      <polygon
         fill="#2f2121"
         points="2159.15,796.314 2161.315,782.198 2214.955,915.204 "
         id="polygon295" />
      <polygon
         fill="#171010"
         points="2149.634,529.102 2161.315,782.198 2159.15,796.314 "
         id="polygon297" />
      <polygon
         points="1934.646,407.292 1916.962,411.188 1925.795,407.442 "
         id="polygon299" />
      <polygon
         fill="#dddddd"
         points="1934.646,407.292 1925.795,407.442 1995.07,408.178 "
         id="polygon301" />
      <polygon
         points="2194.031,408.203 2209.686,409.774 2135.408,408.58 "
         id="polygon303" />
      <polygon
         fill="#282828"
         points="1905.566,510.793 1912.879,444.472 1906.048,416.129 "
         id="polygon305" />
      <polygon
         fill="#241919"
         points="2214.955,915.204 2224.951,917.742 2210.103,962.157 "
         id="polygon307" />
      <polygon
         fill="#1f1515"
         points="2214.955,915.204 2161.315,782.198 2224.951,917.742 "
         id="polygon309" />
      <polygon
         fill="#bfbfbf"
         points="2135.408,408.58 2202.313,445.844 2194.031,408.203 "
         id="polygon311" />
      <polygon
         fill="#b9b9b9"
         points="2202.313,445.844 2135.408,408.58 2118.985,443.811 "
         id="polygon313" />
      <polygon
         fill="#474747"
         points="2209.686,409.774 2194.031,408.203 2202.313,445.844 "
         id="polygon315" />
      <polygon
         fill="#111111"
         points="1915.747,413.582 1916.962,411.188 1906.048,416.129 "
         id="polygon317" />
      <polygon
         fill="#101010"
         points="1916.962,411.188 1915.747,413.582 1925.795,407.442 "
         id="polygon319" />
      <polygon
         fill="#bababa"
         points="1992.791,443.308 1995.07,408.178 1915.747,413.582 "
         id="polygon321" />
      <polygon
         fill="#2e2e2e"
         points="1912.879,444.472 1915.747,413.582 1906.048,416.129 "
         id="polygon323" />
      <polygon
         fill="#939393"
         points="1995.07,408.178 1925.795,407.442 1915.747,413.582 "
         id="polygon325" />
      <polygon
         fill="#bbbbbb"
         points="1915.747,413.582 1912.879,444.472 1992.791,443.308 "
         id="polygon327" />
      <polygon
         fill="#1b1313"
         points="1905.566,510.793 1912.35,444.89 1912.879,444.472 "
         id="polygon329" />
      <polygon
         fill="#281c1c"
         points="1878.317,986.595 1896.647,989.639 1891.594,1029.875 "
         id="polygon331" />
      <polygon
         fill="#251a1a"
         points="1896.647,989.639 1878.317,986.595 1908.882,962.57 "
         id="polygon333" />
      <polygon
         fill="#dd9999"
         points="2118.985,443.811 1992.791,443.308 2102.307,443.595 "
         id="polygon335" />
      <polygon
         fill="#dddddd"
         points="2011.098,443.303 1992.791,443.308 1912.879,444.472 "
         id="polygon337" />
      <polygon
         fill="#1a1a1a"
         points="1912.35,444.89 2011.098,443.303 1912.879,444.472 "
         id="polygon339" />
      <polygon
         fill="#241919"
         points="2203.983,441.989 2209.686,409.774 2209.988,503.665 "
         id="polygon341" />
      <polygon
         fill="#434343"
         points="2209.988,503.665 2209.686,409.774 2202.313,445.844 "
         id="polygon343" />
      <polygon
         fill="#211717"
         points="2209.988,503.665 2196.894,497.535 2204.594,446.567 "
         id="polygon345" />
      <polygon
         fill="#313131"
         points="2203.059,444.894 2209.988,503.665 2204.594,446.567 "
         id="polygon347" />
      <polygon
         fill="#1f1616"
         points="2209.988,503.665 2169.163,526.555 2196.894,497.535 "
         id="polygon349" />
      <polygon
         fill="#583d3d"
         points="2203.059,444.894 2203.983,441.989 2209.988,503.665 "
         id="polygon351" />
      <polygon
         fill="#323232"
         points="2156.414,789.478 2224.951,917.742 2161.315,782.198 "
         id="polygon353" />
      <polygon
         fill="#242424"
         points="2161.315,782.198 2158.327,526.661 2156.414,789.478 "
         id="polygon355" />
      <polygon
         fill="#1a1a1a"
         points="2209.988,503.665 2158.327,526.661 2169.163,526.555 "
         id="polygon357" />
      <polygon
         fill="#2e2e2e"
         points="2158.327,526.661 2161.315,782.198 2169.163,526.555 "
         id="polygon359" />
      <polygon
         fill="#c08686"
         points="2100.438,408.264 2152.948,410.059 2102.307,443.595 "
         id="polygon361" />
      <polygon
         fill="#dd9999"
         points="2056.397,443.642 1992.791,443.308 2011.098,443.303 "
         id="polygon363" />
      <polygon
         fill="#dddddd"
         points="2102.307,443.595 1992.791,443.308 2056.397,443.642 "
         id="polygon365" />
      <polygon
         fill="#1a1212"
         points="2202.324,1029.452 2244.289,993.701 2219.588,1027.698 "
         id="polygon367" />
      <polygon
         fill="#c08686"
         points="1946.171,407.666 2015.385,409.746 2011.098,443.303 "
         id="polygon369" />
      <polygon
         fill="#2b2b2b"
         points="2224.951,917.742 2196.789,963.24 2210.103,962.157 "
         id="polygon371" />
      <polygon
         fill="#131313"
         points="1892.626,1021.259 1878.317,986.595 1891.594,1029.875 "
         id="polygon373" />
      <polygon
         fill="#3d3d3d"
         points="1967.562,526.574 1948.263,528.013 1952.84,785.094 "
         id="polygon375" />
      <polygon
         fill="#3d3d3d"
         points="1966.779,783.98 1967.562,526.574 1952.84,785.094 "
         id="polygon377" />
      <polygon
         fill="#dddddd"
         points="2011.098,443.303 1912.35,444.89 1919.934,444.892 "
         id="polygon379" />
      <polygon
         fill="#c08686"
         points="1946.171,407.666 2011.098,443.303 1926.558,409.031 "
         id="polygon381" />
      <polygon
         fill="#363636"
         points="1966.779,783.98 1952.84,785.094 1904.351,917.324 "
         id="polygon383" />
      <polygon
         fill="#2a2a2a"
         points="1904.351,917.324 1891.585,920.739 1908.882,962.57 "
         id="polygon385" />
      <polygon
         fill="#242424"
         points="1904.351,917.324 1952.84,785.094 1891.585,920.739 "
         id="polygon387" />
      <polygon
         fill="#454545"
         points="2188.652,445.154 2209.988,503.665 2202.313,445.844 "
         id="polygon389" />
      <polygon
         fill="#b78080"
         points="2188.652,445.154 2152.948,410.059 2181.705,408.79 "
         id="polygon391" />
      <polygon
         fill="#bd8484"
         points="2152.948,410.059 2188.652,445.154 2102.307,443.595 "
         id="polygon393" />
      <polygon
         fill="#dddddd"
         points="2102.307,443.595 2188.652,445.154 2118.985,443.811 "
         id="polygon395" />
      <polygon
         fill="#ee9999"
         points="2188.652,445.154 2202.313,445.844 2118.985,443.811 "
         id="polygon397" />
      <polygon
         fill="#2e2e2e"
         points="1923.558,446.154 2011.098,443.303 1919.934,444.892 "
         id="polygon399" />
      <polygon
         fill="#bc8383"
         points="2011.098,443.303 1923.558,446.154 1926.558,409.031 "
         id="polygon401" />
      <polygon
         fill="#eeeeee"
         points="1946.171,407.666 1999.218,409.493 2015.385,409.746 "
         id="polygon403" />
      <polygon
         fill="#252525"
         points="1924.853,961.707 1904.351,917.324 1908.882,962.57 "
         id="polygon405" />
      <polygon
         fill="#191919"
         points="1908.882,962.57 1878.317,986.595 1924.853,961.707 "
         id="polygon407" />
      <polygon
         fill="#333333"
         points="1925.44,510.837 1919.934,444.892 1912.35,444.89 "
         id="polygon409" />
      <polygon
         fill="#333333"
         points="1905.566,510.793 1925.44,510.837 1912.35,444.89 "
         id="polygon411" />
      <polygon
         fill="#1b1b1b"
         points="1948.263,528.013 1925.44,510.837 1905.566,510.793 "
         id="polygon413" />
      <polygon
         fill="#6e6e6e"
         points="1923.558,446.154 1919.934,444.892 1925.44,510.837 "
         id="polygon415" />
      <polygon
         fill="#1f1f1f"
         points="1967.562,526.574 1925.44,510.837 1948.263,528.013 "
         id="polygon417" />
      <polygon
         fill="#5f4242"
         points="2040.798,408.388 2056.18,408.326 2056.397,443.642 "
         id="polygon419" />
      <polygon
         fill="#7d7d7d"
         points="1904.351,917.324 1996.191,781.136 1966.779,783.98 "
         id="polygon421" />
      <polygon
         fill="#8c8c8c"
         points="1996.191,781.136 1967.562,526.574 1966.779,783.98 "
         id="polygon423" />
      <polygon
         fill="#5a3f3f"
         points="2056.397,443.642 2056.18,408.326 2073.403,407.711 "
         id="polygon425" />
      <polygon
         fill="#ee9999"
         points="2056.18,408.326 2040.798,408.388 2073.403,407.711 "
         id="polygon427" />
      <polygon
         fill="#979797"
         points="2158.327,526.661 2111.832,627.974 2156.414,789.478 "
         id="polygon429" />
      <polygon
         fill="#383838"
         points="2218.425,989.649 2219.588,1027.698 2244.289,993.701 "
         id="polygon431" />
      <polygon
         fill="#252525"
         points="2210.103,962.157 2218.425,989.649 2244.289,993.701 "
         id="polygon433" />
      <polygon
         fill="#262626"
         points="2218.425,989.649 2210.103,962.157 2196.789,963.24 "
         id="polygon435" />
      <polygon
         fill="#808080"
         points="2113.82,800.169 2156.414,789.478 2111.832,627.974 "
         id="polygon437" />
      <polygon
         fill="#a5a5a5"
         points="1996.191,781.136 2017.511,528.948 1967.562,526.574 "
         id="polygon439" />
      <polygon
         fill="#c9c9c9"
         points="2111.832,627.974 2046.484,696.725 2113.82,800.169 "
         id="polygon441" />
      <polygon
         fill="#c2c2c2"
         points="2046.484,696.725 2017.511,528.948 1996.191,781.136 "
         id="polygon443" />
      <polygon
         fill="#535353"
         points="2156.414,789.478 2189.744,917.677 2224.951,917.742 "
         id="polygon445" />
      <polygon
         fill="#7d7d7d"
         points="2156.414,789.478 2113.82,800.169 2189.744,917.677 "
         id="polygon447" />
      <polygon
         fill="#575757"
         points="2189.744,917.677 2196.789,963.24 2224.951,917.742 "
         id="polygon449" />
      <polygon
         fill="#cbcbcb"
         points="2091.793,527.993 2017.511,528.948 2046.484,696.725 "
         id="polygon451" />
      <polygon
         fill="#9e9e9e"
         points="2111.832,627.974 2158.327,526.661 2091.793,527.993 "
         id="polygon453" />
      <polygon
         fill="#c2c2c2"
         points="2091.793,527.993 2046.484,696.725 2111.832,627.974 "
         id="polygon455" />
      <polygon
         fill="#483232"
         points="2056.397,443.642 2031.218,407.773 2040.798,408.388 "
         id="polygon457" />
      <polygon
         points="2073.403,407.711 2040.798,408.388 2031.218,407.773 "
         id="polygon459" />
      <polygon
         fill="#ffaaaa"
         points="2080.086,407.371 2073.403,407.711 2031.218,407.773 "
         id="polygon461" />
      <polygon
         fill="#ffbbbb"
         points="1980.629,408.181 1999.218,409.493 1946.171,407.666 "
         id="polygon463" />
      <polygon
         fill="#b3b3b3"
         points="2045.498,805.495 2046.484,696.725 1996.191,781.136 "
         id="polygon465" />
      <polygon
         fill="#c7c7c7"
         points="2046.484,696.725 2045.498,805.495 2113.82,800.169 "
         id="polygon467" />
      <polygon
         points="2152.948,410.059 2166.517,407.733 2181.705,408.79 "
         id="polygon469" />
      <polygon
         fill="#444444"
         points="2188.652,445.154 2181.705,408.79 2166.517,407.733 "
         id="polygon471" />
      <polygon
         fill="#434343"
         points="2188.652,445.154 2166.517,407.733 2209.988,503.665 "
         id="polygon473" />
      <polygon
         points="2166.517,407.733 2152.948,410.059 2100.438,408.264 "
         id="polygon475" />
      <polygon
         fill="#151515"
         points="2109.325,409.268 2166.517,407.733 2100.438,408.264 "
         id="polygon477" />
      <polygon
         fill="#181010"
         points="2128.259,407.381 2166.517,407.733 2109.325,409.268 "
         id="polygon479" />
      <polygon
         fill="#181818"
         points="2130.775,407.874 2166.517,407.733 2128.259,407.381 "
         id="polygon481" />
      <polygon
         fill="#2f2f2f"
         points="2209.988,503.665 2159.63,512.864 2158.327,526.661 "
         id="polygon483" />
      <polygon
         fill="#323232"
         points="2159.63,512.864 2091.793,527.993 2158.327,526.661 "
         id="polygon485" />
      <polygon
         fill="#787878"
         points="2209.988,503.665 2166.517,407.733 2159.63,512.864 "
         id="polygon487" />
      <polygon
         fill="#797979"
         points="1959.936,409.643 1926.558,409.031 1923.558,446.154 "
         id="polygon489" />
      <polygon
         fill="#828282"
         points="1925.44,510.837 1959.936,409.643 1923.558,446.154 "
         id="polygon491" />
      <polygon
         fill="#161616"
         points="1959.936,409.643 1980.629,408.181 1946.171,407.666 "
         id="polygon493" />
      <polygon
         fill="#161616"
         points="1926.558,409.031 1959.936,409.643 1946.171,407.666 "
         id="polygon495" />
      <polygon
         fill="#585858"
         points="1878.317,986.595 1892.626,1021.259 1916.828,993.917 "
         id="polygon497" />
      <polygon
         fill="#4f4f4f"
         points="1878.317,986.595 1916.828,993.917 1924.853,961.707 "
         id="polygon499" />
      <polygon
         fill="#2c2c2c"
         points="1980.629,408.181 1959.936,409.643 1976.013,409.904 "
         id="polygon501" />
      <polygon
         fill="#272727"
         points="2134.979,409.492 2166.517,407.733 2130.775,407.874 "
         id="polygon503" />
      <polygon
         fill="#4d4d4d"
         points="2015.385,409.746 1977.827,446.175 2011.098,443.303 "
         id="polygon505" />
      <polygon
         fill="#555555"
         points="1977.827,446.175 2015.385,409.746 1999.218,409.493 "
         id="polygon507" />
      <polygon
         fill="#9f9f9f"
         points="1975.721,441.107 1959.936,409.643 1925.44,510.837 "
         id="polygon509" />
      <polygon
         fill="#bcbcbc"
         points="1976.013,409.904 1959.936,409.643 1975.721,441.107 "
         id="polygon511" />
      <polygon
         fill="#666666"
         points="1975.721,441.107 1980.629,408.181 1976.013,409.904 "
         id="polygon513" />
      <polygon
         fill="#6c6c6c"
         points="1975.721,441.107 1977.827,446.175 1999.218,409.493 "
         id="polygon515" />
      <polygon
         fill="#606060"
         points="1975.721,441.107 1999.218,409.493 1980.629,408.181 "
         id="polygon517" />
      <polygon
         fill="#b5b5b5"
         points="1977.827,446.175 1975.721,441.107 1925.44,510.837 "
         id="polygon519" />
      <polygon
         fill="#dddddd"
         points="2056.397,443.642 2137.122,443.76 2102.307,443.595 "
         id="polygon521" />
      <polygon
         fill="#5e5e5e"
         points="2109.325,409.268 2133.944,445.875 2128.259,407.381 "
         id="polygon523" />
      <polygon
         fill="#444444"
         points="2133.944,445.875 2130.775,407.874 2128.259,407.381 "
         id="polygon525" />
      <polygon
         fill="#4f4f4f"
         points="2130.775,407.874 2133.944,445.875 2134.979,409.492 "
         id="polygon527" />
      <polygon
         fill="#c1c1c1"
         points="2133.944,445.875 2166.517,407.733 2134.979,409.492 "
         id="polygon529" />
      <polygon
         fill="#1d1414"
         points="1977.827,446.175 1925.44,510.837 1975.943,447.869 "
         id="polygon531" />
      <polygon
         fill="#6d4c4c"
         points="2137.25,446.885 2133.944,445.875 2109.325,409.268 "
         id="polygon533" />
      <polygon
         fill="#4e4e4e"
         points="2137.25,446.885 2100.438,408.264 2102.307,443.595 "
         id="polygon535" />
      <polygon
         fill="#4e3737"
         points="2137.122,443.76 2137.25,446.885 2102.307,443.595 "
         id="polygon537" />
      <polygon
         fill="#b4b4b4"
         points="2159.63,512.864 2166.517,407.733 2137.25,446.885 "
         id="polygon539" />
      <polygon
         fill="#aaaaaa"
         points="2166.517,407.733 2133.944,445.875 2137.25,446.885 "
         id="polygon541" />
      <polygon
         fill="#3a3a3a"
         points="2100.438,408.264 2137.25,446.885 2109.325,409.268 "
         id="polygon543" />
      <polygon
         fill="#7d7d7d"
         points="2189.744,917.677 2135.483,962.312 2196.789,963.24 "
         id="polygon545" />
      <polygon
         fill="#515151"
         points="2135.483,962.312 2218.425,989.649 2196.789,963.24 "
         id="polygon547" />
      <polygon
         fill="#604343"
         points="2031.218,407.773 2056.397,443.642 2018.229,411.221 "
         id="polygon549" />
      <polygon
         fill="#5a3f3f"
         points="2056.397,443.642 2073.403,407.711 2094.848,410.962 "
         id="polygon551" />
      <polygon
         fill="#2b1e1e"
         points="2073.403,407.711 2080.086,407.371 2094.848,410.962 "
         id="polygon553" />
      <polygon
         fill="#282828"
         points="2031.218,407.773 2094.848,410.962 2080.086,407.371 "
         id="polygon555" />
      <polygon
         fill="#848484"
         points="1924.853,961.707 1964.538,917.082 1904.351,917.324 "
         id="polygon557" />
      <polygon
         fill="#7c7c7c"
         points="1964.538,917.082 1996.191,781.136 1904.351,917.324 "
         id="polygon559" />
      <polygon
         fill="#afafaf"
         points="2045.498,805.495 1996.191,781.136 1964.538,917.082 "
         id="polygon561" />
      <polygon
         fill="#151515"
         points="2137.122,443.76 2056.397,443.642 2095.357,446.159 "
         id="polygon563" />
      <polygon
         fill="#583d3d"
         points="2094.848,410.962 2095.357,446.159 2056.397,443.642 "
         id="polygon565" />
      <polygon
         fill="#ffffff"
         points="2018.764,444.725 2011.098,443.303 1977.827,446.175 "
         id="polygon567" />
      <polygon
         fill="#525252"
         points="1975.943,447.869 2018.764,444.725 1977.827,446.175 "
         id="polygon569" />
      <polygon
         fill="#553b3b"
         points="2056.397,443.642 2018.764,444.725 2018.229,411.221 "
         id="polygon571" />
      <polygon
         fill="#ffffff"
         points="2011.098,443.303 2018.764,444.725 2056.397,443.642 "
         id="polygon573" />
      <polygon
         fill="#747474"
         points="1967.321,1026.606 1916.828,993.917 1892.626,1021.259 "
         id="polygon575" />
      <polygon
         fill="#1b1b1b"
         points="1967.321,1026.606 1892.626,1021.259 1891.594,1029.875 "
         id="polygon577" />
      <polygon
         fill="#9f9f9f"
         points="1925.44,510.837 2003.414,507.657 1975.943,447.869 "
         id="polygon579" />
      <polygon
         fill="#4c4c4c"
         points="2003.414,507.657 1967.562,526.574 2017.511,528.948 "
         id="polygon581" />
      <polygon
         fill="#484848"
         points="2003.414,507.657 1925.44,510.837 1967.562,526.574 "
         id="polygon583" />
      <polygon
         fill="#5e5e5e"
         points="2003.414,507.657 2017.511,528.948 2091.793,527.993 "
         id="polygon585" />
      <polygon
         fill="#bebebe"
         points="2018.764,444.725 1975.943,447.869 2003.414,507.657 "
         id="polygon587" />
      <polygon
         fill="#666666"
         points="2219.588,1027.698 2218.425,989.649 2166.031,1016.915 "
         id="polygon589" />
      <polygon
         fill="#8f8f8f"
         points="1964.538,917.082 1924.853,961.707 2020.155,962.583 "
         id="polygon591" />
      <polygon
         fill="#bebebe"
         points="2090.523,511.694 2137.122,443.76 2095.357,446.159 "
         id="polygon593" />
      <polygon
         fill="#4d4d4d"
         points="2090.523,511.694 2003.414,507.657 2091.793,527.993 "
         id="polygon595" />
      <polygon
         fill="#b5b5b5"
         points="2159.63,512.864 2137.25,446.885 2090.523,511.694 "
         id="polygon597" />
      <polygon
         fill="#acacac"
         points="2137.25,446.885 2137.122,443.76 2090.523,511.694 "
         id="polygon599" />
      <polygon
         fill="#4e4e4e"
         points="2090.523,511.694 2091.793,527.993 2159.63,512.864 "
         id="polygon601" />
      <polygon
         fill="#bcbcbc"
         points="2095.357,446.159 2094.848,410.962 2054.706,412.506 "
         id="polygon603" />
      <polygon
         fill="#212121"
         points="2094.848,410.962 2031.218,407.773 2054.706,412.506 "
         id="polygon605" />
      <polygon
         fill="#242424"
         points="2031.218,407.773 2018.229,411.221 2054.706,412.506 "
         id="polygon607" />
      <polygon
         fill="#bbbbbb"
         points="2018.764,444.725 2003.414,507.657 2054.706,412.506 "
         id="polygon609" />
      <polygon
         fill="#cbcbcb"
         points="2054.706,412.506 2003.414,507.657 2090.523,511.694 "
         id="polygon611" />
      <polygon
         fill="#b9b9b9"
         points="2054.706,412.506 2018.229,411.221 2018.764,444.725 "
         id="polygon613" />
      <polygon
         fill="#c0c0c0"
         points="2090.523,511.694 2095.357,446.159 2054.706,412.506 "
         id="polygon615" />
      <polygon
         fill="#959595"
         points="2189.744,917.677 2113.82,800.169 2121.506,914.929 "
         id="polygon617" />
      <polygon
         fill="#b9b9b9"
         points="2020.155,962.583 2135.483,962.312 2121.506,914.929 "
         id="polygon619" />
      <polygon
         fill="#a1a1a1"
         points="2135.483,962.312 2189.744,917.677 2121.506,914.929 "
         id="polygon621" />
      <polygon
         fill="#b4b4b4"
         points="2045.498,805.495 2121.506,914.929 2113.82,800.169 "
         id="polygon623" />
      <polygon
         fill="#bdbdbd"
         points="2020.155,962.583 2038.971,918.196 1964.538,917.082 "
         id="polygon625" />
      <polygon
         fill="#b9b9b9"
         points="2038.971,918.196 2121.506,914.929 2045.498,805.495 "
         id="polygon627" />
      <polygon
         fill="#b0b0b0"
         points="1964.538,917.082 2038.971,918.196 2045.498,805.495 "
         id="polygon629" />
      <polygon
         fill="#bcbcbc"
         points="2121.506,914.929 2038.971,918.196 2020.155,962.583 "
         id="polygon631" />
      <polygon
         fill="#747474"
         points="2020.155,962.583 2119.118,985.066 2135.483,962.312 "
         id="polygon633" />
      <polygon
         fill="#a1a1a1"
         points="2166.031,1016.915 2218.425,989.649 2119.118,985.066 "
         id="polygon635" />
      <polygon
         fill="#7f7f7f"
         points="2119.118,985.066 2218.425,989.649 2135.483,962.312 "
         id="polygon637" />
      <polygon
         fill="#bbbbbb"
         points="2166.031,1016.915 2119.118,985.066 2074.855,1029.251 "
         id="polygon639" />
      <polygon
         fill="#383838"
         points="2166.031,1016.915 2074.855,1029.251 2219.588,1027.698 "
         id="polygon641" />
      <polygon
         fill="#eeeeee"
         points="2074.855,1029.251 2202.324,1029.452 2219.588,1027.698 "
         id="polygon643" />
      <polygon
         fill="#121212"
         points="2074.855,1029.251 1967.321,1026.606 1891.594,1029.875 "
         id="polygon645" />
      <polygon
         fill="#dddddd"
         points="2074.855,1029.251 1891.594,1029.875 2202.324,1029.452 "
         id="polygon647" />
      <polygon
         fill="#6c6c6c"
         points="1916.828,993.917 2000.898,987.962 1924.853,961.707 "
         id="polygon649" />
      <polygon
         fill="#939393"
         points="2000.898,987.962 2119.118,985.066 2020.155,962.583 "
         id="polygon651" />
      <polygon
         fill="#a8a8a8"
         points="1967.321,1026.606 2000.898,987.962 1916.828,993.917 "
         id="polygon653" />
      <polygon
         fill="#cbcbcb"
         points="2119.118,985.066 2000.898,987.962 2074.855,1029.251 "
         id="polygon655" />
      <polygon
         fill="#6a6a6a"
         points="1924.853,961.707 2000.898,987.962 2020.155,962.583 "
         id="polygon657" />
      <polygon
         fill="#adadad"
         points="1967.321,1026.606 2074.855,1029.251 2000.898,987.962 "
         id="polygon659" />
    </g>
  </g>
</svg>
