<?xml version="1.0" encoding="UTF-8" standalone="no"?>
<!-- Created with Inkscape (http://www.inkscape.org/) -->

<svg
   width="86.950546mm"
   height="117.94093mm"
   viewBox="0 0 86.950546 117.94093"
   version="1.1"
   id="svg5050"
   xmlns="http://www.w3.org/2000/svg"
   xmlns:svg="http://www.w3.org/2000/svg">
  <defs
     id="defs5047" />
  <g
     id="layer1">
    <g
       id="g1317"
       transform="matrix(0.26458333,0,0,0.26458333,-605.49604,-154.58255)">
      <polygon
         fill="#b78080"
         points="2479.921,991.833 2518.399,1025.57 2426.326,1030.01 "
         id="polygon1057" />
      <polygon
         fill="#c78b8b"
         points="2479.921,991.833 2426.326,1030.01 2346.422,999.52 "
         id="polygon1059" />
      <polygon
         fill="#c98c8c"
         points="2383.619,942.471 2473.494,938.796 2476.325,970.802 "
         id="polygon1061" />
      <polygon
         fill="#c28888"
         points="2383.619,942.471 2476.325,970.802 2389.673,969.538 "
         id="polygon1063" />
      <polygon
         fill="#9d6e6e"
         points="2389.673,969.538 2479.921,991.833 2346.422,999.52 "
         id="polygon1065" />
      <polygon
         fill="#825b5b"
         points="2389.673,969.538 2476.325,970.802 2479.921,991.833 "
         id="polygon1067" />
      <polygon
         fill="#b37d7d"
         points="2479.921,991.833 2571.087,989.831 2518.399,1025.57 "
         id="polygon1069" />
      <polygon
         fill="#775353"
         points="2476.325,970.802 2571.087,989.831 2479.921,991.833 "
         id="polygon1071" />
      <polygon
         fill="#bc8383"
         points="2538.16,940.243 2476.325,970.802 2473.494,938.796 "
         id="polygon1073" />
      <polygon
         fill="#6d4c4c"
         points="2551.366,971.299 2571.087,989.831 2476.325,970.802 "
         id="polygon1075" />
      <polygon
         fill="#ac7878"
         points="2538.16,940.243 2551.366,971.299 2476.325,970.802 "
         id="polygon1077" />
      <polygon
         fill="#916565"
         points="2518.399,1025.57 2571.087,989.831 2592.321,1023.064 "
         id="polygon1079" />
      <polygon
         fill="#916666"
         points="2538.16,940.243 2473.494,938.796 2491.146,877.24 "
         id="polygon1081" />
      <polygon
         fill="#926666"
         points="2491.146,877.24 2473.494,938.796 2435.644,854.904 "
         id="polygon1083" />
      <polygon
         fill="#a27171"
         points="2473.494,938.796 2383.619,942.471 2435.644,854.904 "
         id="polygon1085" />
      <polygon
         fill="#604343"
         points="2346.422,999.52 2331.59,970.287 2389.673,969.538 "
         id="polygon1087" />
      <polygon
         fill="#926666"
         points="2383.619,942.471 2389.673,969.538 2331.59,970.287 "
         id="polygon1089" />
      <polygon
         fill="#8c6262"
         points="2383.619,942.471 2331.59,970.287 2319.65,939.663 "
         id="polygon1091" />
      <polygon
         fill="#c08686"
         points="2379.337,685.94 2486.939,690.498 2428.886,732.608 "
         id="polygon1093" />
      <polygon
         fill="#9b6c6c"
         points="2428.886,732.608 2486.939,690.498 2495.896,734.313 "
         id="polygon1095" />
      <polygon
         fill="#c58a8a"
         points="2428.886,732.608 2495.896,734.313 2435.644,854.904 "
         id="polygon1097" />
      <polygon
         fill="#bd8484"
         points="2495.896,734.313 2502.819,821.984 2435.644,854.904 "
         id="polygon1099" />
      <polygon
         fill="#af7a7a"
         points="2491.146,877.24 2435.644,854.904 2502.819,821.984 "
         id="polygon1101" />
      <polygon
         fill="#714f4f"
         points="2319.65,939.663 2376.067,876.938 2383.619,942.471 "
         id="polygon1103" />
      <polygon
         fill="#735050"
         points="2383.619,942.471 2376.067,876.938 2435.644,854.904 "
         id="polygon1105" />
      <polygon
         fill="#513939"
         points="2379.337,685.94 2461.893,676.133 2486.939,690.498 "
         id="polygon1107" />
      <polygon
         fill="#c28888"
         points="2503.743,634.545 2461.893,676.133 2423.537,638.446 "
         id="polygon1109" />
      <polygon
         fill="#ac7878"
         points="2403.152,809.469 2435.644,854.904 2376.067,876.938 "
         id="polygon1111" />
      <polygon
         fill="#996b6b"
         points="2428.886,732.608 2435.644,854.904 2403.152,809.469 "
         id="polygon1113" />
      <polygon
         fill="#795555"
         points="2551.366,971.299 2538.16,940.243 2594.23,937.998 "
         id="polygon1115" />
      <polygon
         fill="#c18787"
         points="2476.526,584.249 2503.743,634.545 2423.537,638.446 "
         id="polygon1117" />
      <polygon
         fill="#6a4a4a"
         points="2533.102,874.106 2538.16,940.243 2491.146,877.24 "
         id="polygon1119" />
      <polygon
         fill="#855d5d"
         points="2533.102,874.106 2491.146,877.24 2502.819,821.984 "
         id="polygon1121" />
      <polygon
         fill="#624444"
         points="2594.23,937.998 2538.16,940.243 2533.102,874.106 "
         id="polygon1123" />
      <polygon
         fill="#5a3f3f"
         points="2346.422,999.52 2288.489,990.787 2331.59,970.287 "
         id="polygon1125" />
      <polygon
         fill="#624444"
         points="2571.087,989.831 2617.121,991.395 2592.321,1023.064 "
         id="polygon1127" />
      <polygon
         fill="#5e4242"
         points="2594.23,937.998 2589.798,970.649 2551.366,971.299 "
         id="polygon1129" />
      <polygon
         fill="#402d2d"
         points="2617.121,991.395 2571.087,989.831 2589.798,970.649 "
         id="polygon1131" />
      <polygon
         fill="#3f2c2c"
         points="2589.798,970.649 2571.087,989.831 2551.366,971.299 "
         id="polygon1133" />
      <polygon
         fill="#583d3d"
         points="2288.798,1028.583 2346.422,999.52 2426.326,1030.01 "
         id="polygon1135" />
      <polygon
         fill="#624545"
         points="2288.489,990.787 2346.422,999.52 2288.798,1028.583 "
         id="polygon1137" />
      <polygon
         fill="#9c6d6d"
         points="2419.805,586.847 2476.526,584.249 2423.537,638.446 "
         id="polygon1139" />
      <polygon
         fill="#805a5a"
         points="2423.537,638.446 2461.893,676.133 2418.625,674.985 "
         id="polygon1141" />
      <polygon
         fill="#332424"
         points="2418.625,674.985 2461.893,676.133 2379.337,685.94 "
         id="polygon1143" />
      <polygon
         fill="#785454"
         points="2428.886,732.608 2403.152,809.469 2390.409,729.366 "
         id="polygon1145" />
      <polygon
         fill="#5e4242"
         points="2379.337,685.94 2428.886,732.608 2390.409,729.366 "
         id="polygon1147" />
      <polygon
         fill="#342424"
         points="2494.239,674.577 2486.939,690.498 2461.893,676.133 "
         id="polygon1149" />
      <polygon
         fill="#694949"
         points="2461.893,676.133 2503.743,634.545 2494.239,674.577 "
         id="polygon1151" />
      <polygon
         fill="#573d3d"
         points="2393.449,640.43 2423.537,638.446 2418.625,674.985 "
         id="polygon1153" />
      <polygon
         fill="#573d3d"
         points="2423.537,638.446 2393.449,640.43 2419.805,586.847 "
         id="polygon1155" />
      <polygon
         fill="#372626"
         points="2495.896,734.313 2508.767,733.21 2502.819,821.984 "
         id="polygon1157" />
      <polygon
         fill="#2f2121"
         points="2535.708,688.176 2508.767,733.21 2495.896,734.313 "
         id="polygon1159" />
      <polygon
         fill="#5f4242"
         points="2486.939,690.498 2535.708,688.176 2495.896,734.313 "
         id="polygon1161" />
      <polygon
         fill="#352525"
         points="2486.939,690.498 2494.239,674.577 2535.708,688.176 "
         id="polygon1163" />
      <polygon
         fill="#3f2c2c"
         points="2390.409,729.366 2403.152,809.469 2387.509,849.819 "
         id="polygon1165" />
      <polygon
         fill="#2b1e1e"
         points="2376.067,876.938 2319.65,939.663 2387.509,849.819 "
         id="polygon1167" />
      <polygon
         fill="#eeeeee"
         points="2403.152,809.469 2376.067,876.938 2387.509,849.819 "
         id="polygon1169" />
      <polygon
         fill="#271b1b"
         points="2617.121,991.395 2605.355,1029.576 2592.321,1023.064 "
         id="polygon1171" />
      <polygon
         points="2605.355,1029.576 2426.326,1030.01 2518.399,1025.57 "
         id="polygon1173" />
      <polygon
         fill="#1b1313"
         points="2605.355,1029.576 2518.399,1025.57 2592.321,1023.064 "
         id="polygon1175" />
      <polygon
         fill="#2e2020"
         points="2502.819,821.984 2508.767,733.21 2516.803,857.43 "
         id="polygon1177" />
      <polygon
         fill="#1f1f1f"
         points="2502.819,821.984 2516.803,857.43 2533.102,874.106 "
         id="polygon1179" />
      <polygon
         fill="#dddddd"
         points="2533.102,874.106 2516.803,857.43 2594.23,937.998 "
         id="polygon1181" />
      <polygon
         fill="#1c1414"
         points="2288.489,990.787 2313.624,970.696 2331.59,970.287 "
         id="polygon1183" />
      <polygon
         fill="#2c1e1e"
         points="2331.59,970.287 2313.624,970.696 2319.65,939.663 "
         id="polygon1185" />
      <polygon
         points="2390.409,729.366 2376.879,682.967 2379.337,685.94 "
         id="polygon1187" />
      <polygon
         points="2376.879,682.967 2418.625,674.985 2379.337,685.94 "
         id="polygon1189" />
      <polygon
         fill="#101010"
         points="2503.743,634.545 2505.342,619.81 2494.239,674.577 "
         id="polygon1191" />
      <polygon
         fill="#211717"
         points="2476.526,584.249 2505.342,619.81 2503.743,634.545 "
         id="polygon1193" />
      <polygon
         fill="#3b3b3b"
         points="2393.449,640.43 2434.447,588.208 2419.805,586.847 "
         id="polygon1195" />
      <polygon
         fill="#434343"
         points="2434.447,588.208 2505.342,619.81 2476.526,584.249 "
         id="polygon1197" />
      <polygon
         fill="#131313"
         points="2434.447,588.208 2476.526,584.249 2419.805,586.847 "
         id="polygon1199" />
      <polygon
         fill="#7f7f7f"
         points="2505.342,619.81 2447.962,677.479 2494.239,674.577 "
         id="polygon1201" />
      <polygon
         fill="#1e1e1e"
         points="2376.879,682.967 2447.962,677.479 2418.625,674.985 "
         id="polygon1203" />
      <polygon
         fill="#4b4b4b"
         points="2447.962,677.479 2393.449,640.43 2418.625,674.985 "
         id="polygon1205" />
      <polygon
         fill="#848484"
         points="2508.767,733.21 2481.489,734.863 2516.803,857.43 "
         id="polygon1207" />
      <polygon
         fill="#767676"
         points="2535.708,688.176 2481.489,734.863 2508.767,733.21 "
         id="polygon1209" />
      <polygon
         points="2314.196,938.871 2319.65,939.663 2313.624,970.696 "
         id="polygon1211" />
      <polygon
         points="2319.65,939.663 2314.196,938.871 2387.509,849.819 "
         id="polygon1213" />
      <polygon
         fill="#949494"
         points="2444.29,640.399 2434.447,588.208 2393.449,640.43 "
         id="polygon1215" />
      <polygon
         fill="#aaaaaa"
         points="2505.342,619.81 2444.29,640.399 2447.962,677.479 "
         id="polygon1217" />
      <polygon
         fill="#8b8b8b"
         points="2444.29,640.399 2393.449,640.43 2447.962,677.479 "
         id="polygon1219" />
      <polygon
         fill="#b7b7b7"
         points="2434.447,588.208 2444.29,640.399 2505.342,619.81 "
         id="polygon1221" />
      <polygon
         fill="#636363"
         points="2390.409,729.366 2387.509,849.819 2426.109,712.792 "
         id="polygon1223" />
      <polygon
         fill="#6c6c6c"
         points="2426.109,712.792 2376.879,682.967 2390.409,729.366 "
         id="polygon1225" />
      <polygon
         fill="#8d8d8d"
         points="2516.803,857.43 2481.489,734.863 2481.591,860.329 "
         id="polygon1227" />
      <polygon
         fill="#cacaca"
         points="2481.591,860.329 2481.489,734.863 2436.101,850.637 "
         id="polygon1229" />
      <polygon
         fill="#c4c4c4"
         points="2481.489,734.863 2426.109,712.792 2436.101,850.637 "
         id="polygon1231" />
      <polygon
         fill="#9b9b9b"
         points="2436.101,850.637 2426.109,712.792 2387.509,849.819 "
         id="polygon1233" />
      <polygon
         fill="#b9b9b9"
         points="2481.489,734.863 2488.79,683.937 2426.109,712.792 "
         id="polygon1235" />
      <polygon
         fill="#b9b9b9"
         points="2426.109,712.792 2488.79,683.937 2376.879,682.967 "
         id="polygon1237" />
      <polygon
         fill="#252525"
         points="2447.962,677.479 2488.79,683.937 2494.239,674.577 "
         id="polygon1239" />
      <polygon
         fill="#272727"
         points="2494.239,674.577 2488.79,683.937 2535.708,688.176 "
         id="polygon1241" />
      <polygon
         fill="#808080"
         points="2535.708,688.176 2488.79,683.937 2481.489,734.863 "
         id="polygon1243" />
      <polygon
         fill="#494949"
         points="2376.879,682.967 2488.79,683.937 2447.962,677.479 "
         id="polygon1245" />
      <polygon
         fill="#272727"
         points="2302.295,989.949 2288.489,990.787 2288.798,1028.583 "
         id="polygon1247" />
      <polygon
         fill="#202020"
         points="2288.489,990.787 2302.295,989.949 2313.624,970.696 "
         id="polygon1249" />
      <polygon
         fill="#282828"
         points="2577.003,941.475 2594.23,937.998 2516.803,857.43 "
         id="polygon1251" />
      <polygon
         fill="#2a2a2a"
         points="2577.003,941.475 2589.798,970.649 2594.23,937.998 "
         id="polygon1253" />
      <polygon
         fill="#717171"
         points="2481.591,860.329 2577.003,941.475 2516.803,857.43 "
         id="polygon1255" />
      <polygon
         fill="#393939"
         points="2577.003,941.475 2563.594,969.008 2589.798,970.649 "
         id="polygon1257" />
      <polygon
         fill="#272727"
         points="2617.121,991.395 2589.798,970.649 2563.594,969.008 "
         id="polygon1259" />
      <polygon
         fill="#373737"
         points="2617.121,991.395 2588.371,1010.848 2605.355,1029.576 "
         id="polygon1261" />
      <polygon
         fill="#404040"
         points="2588.371,1010.848 2617.121,991.395 2563.594,969.008 "
         id="polygon1263" />
      <polygon
         fill="#484848"
         points="2332.011,1020.159 2302.295,989.949 2288.798,1028.583 "
         id="polygon1265" />
      <polygon
         fill="#474747"
         points="2313.624,970.696 2302.295,989.949 2384.513,969.523 "
         id="polygon1267" />
      <polygon
         fill="#7b7b7b"
         points="2384.513,969.523 2314.196,938.871 2313.624,970.696 "
         id="polygon1269" />
      <polygon
         fill="#797979"
         points="2481.591,860.329 2511.82,940.095 2577.003,941.475 "
         id="polygon1271" />
      <polygon
         fill="#9d9d9d"
         points="2511.82,940.095 2563.594,969.008 2577.003,941.475 "
         id="polygon1273" />
      <polygon
         fill="#a2a2a2"
         points="2468.294,970.574 2563.594,969.008 2511.82,940.095 "
         id="polygon1275" />
      <polygon
         fill="#797979"
         points="2314.196,938.871 2409.273,935.508 2387.509,849.819 "
         id="polygon1277" />
      <polygon
         fill="#bdbdbd"
         points="2409.273,935.508 2384.513,969.523 2468.294,970.574 "
         id="polygon1279" />
      <polygon
         fill="#7a7a7a"
         points="2387.509,849.819 2409.273,935.508 2436.101,850.637 "
         id="polygon1281" />
      <polygon
         fill="#9d9d9d"
         points="2409.273,935.508 2511.82,940.095 2481.591,860.329 "
         id="polygon1283" />
      <polygon
         fill="#a0a0a0"
         points="2436.101,850.637 2409.273,935.508 2481.591,860.329 "
         id="polygon1285" />
      <polygon
         fill="#cacaca"
         points="2468.294,970.574 2511.82,940.095 2409.273,935.508 "
         id="polygon1287" />
      <polygon
         fill="#9b9b9b"
         points="2384.513,969.523 2409.273,935.508 2314.196,938.871 "
         id="polygon1289" />
      <polygon
         fill="#5f5f5f"
         points="2528.884,990.035 2563.594,969.008 2468.294,970.574 "
         id="polygon1291" />
      <polygon
         fill="#767676"
         points="2528.884,990.035 2588.371,1010.848 2563.594,969.008 "
         id="polygon1293" />
      <polygon
         fill="#212121"
         points="2446.614,1029.631 2332.011,1020.159 2288.798,1028.583 "
         id="polygon1295" />
      <polygon
         fill="#424242"
         points="2588.371,1010.848 2446.614,1029.631 2605.355,1029.576 "
         id="polygon1297" />
      <polygon
         fill="#a0a0a0"
         points="2528.884,990.035 2446.614,1029.631 2588.371,1010.848 "
         id="polygon1299" />
      <polygon
         fill="#dddddd"
         points="2446.614,1029.631 2288.798,1028.583 2426.326,1030.01 "
         id="polygon1301" />
      <polygon
         fill="#cccccc"
         points="2446.614,1029.631 2426.326,1030.01 2605.355,1029.576 "
         id="polygon1303" />
      <polygon
         fill="#979797"
         points="2332.011,1020.159 2402.987,990.997 2302.295,989.949 "
         id="polygon1305" />
      <polygon
         fill="#a5a5a5"
         points="2402.987,990.997 2332.011,1020.159 2446.614,1029.631 "
         id="polygon1307" />
      <polygon
         fill="#c8c8c8"
         points="2528.884,990.035 2402.987,990.997 2446.614,1029.631 "
         id="polygon1309" />
      <polygon
         fill="#a2a2a2"
         points="2402.987,990.997 2528.884,990.035 2468.294,970.574 "
         id="polygon1311" />
      <polygon
         fill="#7c7c7c"
         points="2302.295,989.949 2402.987,990.997 2384.513,969.523 "
         id="polygon1313" />
      <polygon
         fill="#6d6d6d"
         points="2402.987,990.997 2468.294,970.574 2384.513,969.523 "
         id="polygon1315" />
    </g>
  </g>
</svg>
