<?xml version="1.0" encoding="UTF-8" standalone="no"?>
<!-- Created with Inkscape (http://www.inkscape.org/) -->

<svg
   width="111.11706mm"
   height="190.0219mm"
   viewBox="0 0 111.11706 190.0219"
   version="1.1"
   id="svg10296"
   xmlns="http://www.w3.org/2000/svg"
   xmlns:svg="http://www.w3.org/2000/svg">
  <defs
     id="defs10293" />
  <g
     id="layer1">
    <g
       id="g7051"
       transform="matrix(0.26458333,0,0,0.26458333,-367.00989,-82.658743)">
      <polygon
         fill="#b67f7f"
         points="1668.236,928.147 1659.466,971.479 1535.436,925.903 "
         id="polygon6659" />
      <polygon
         fill="#bb8383"
         points="1535.436,925.903 1659.466,971.479 1561.669,970.623 "
         id="polygon6661" />
      <polygon
         fill="#aa7777"
         points="1659.466,971.479 1696.42,1013.53 1543.052,1004.564 "
         id="polygon6663" />
      <polygon
         fill="#906464"
         points="1561.669,970.623 1659.466,971.479 1543.052,1004.564 "
         id="polygon6665" />
      <polygon
         fill="#704e4e"
         points="1543.052,1004.564 1696.42,1013.53 1548.054,1029.623 "
         id="polygon6667" />
      <polygon
         fill="#916565"
         points="1621.62,890.935 1668.236,928.147 1535.436,925.903 "
         id="polygon6669" />
      <polygon
         fill="#c08787"
         points="1555.516,815.816 1621.62,890.935 1523.26,891.743 "
         id="polygon6671" />
      <polygon
         fill="#6b4b4b"
         points="1621.62,890.935 1535.436,925.903 1523.26,891.743 "
         id="polygon6673" />
      <polygon
         fill="#c88c8c"
         points="1555.516,815.816 1650.983,697.662 1621.62,890.935 "
         id="polygon6675" />
      <polygon
         fill="#c88c8c"
         points="1582.315,682.28 1650.983,697.662 1555.516,815.816 "
         id="polygon6677" />
      <polygon
         fill="#694949"
         points="1668.236,928.147 1621.62,890.935 1758.702,919.918 "
         id="polygon6679" />
      <polygon
         fill="#805959"
         points="1621.62,890.935 1702.371,890.103 1758.702,919.918 "
         id="polygon6681" />
      <polygon
         fill="#b98181"
         points="1650.983,697.662 1702.371,890.103 1621.62,890.935 "
         id="polygon6683" />
      <polygon
         fill="#b17c7c"
         points="1523.26,891.743 1484.307,842.834 1555.516,815.816 "
         id="polygon6685" />
      <polygon
         fill="#a97676"
         points="1555.516,815.816 1484.307,842.834 1499.538,717.5 "
         id="polygon6687" />
      <polygon
         fill="#4b3434"
         points="1741.279,1029.475 1696.42,1013.53 1775.713,1010.642 "
         id="polygon6689" />
      <polygon
         fill="#352525"
         points="1741.279,1029.475 1548.054,1029.623 1696.42,1013.53 "
         id="polygon6691" />
      <polygon
         fill="#8b6161"
         points="1561.669,970.623 1463.762,971.525 1535.436,925.903 "
         id="polygon6693" />
      <polygon
         fill="#6f4e4e"
         points="1561.669,970.623 1543.052,1004.564 1463.762,971.525 "
         id="polygon6695" />
      <polygon
         fill="#926666"
         points="1668.236,928.147 1758.702,919.918 1749.95,970.762 "
         id="polygon6697" />
      <polygon
         fill="#7d5858"
         points="1775.713,1010.642 1696.42,1013.53 1749.95,970.762 "
         id="polygon6699" />
      <polygon
         fill="#7a5656"
         points="1749.95,970.762 1696.42,1013.53 1659.466,971.479 "
         id="polygon6701" />
      <polygon
         fill="#916666"
         points="1668.236,928.147 1749.95,970.762 1659.466,971.479 "
         id="polygon6703" />
      <polygon
         fill="#ad7979"
         points="1650.983,697.662 1715.942,763.864 1702.371,890.103 "
         id="polygon6705" />
      <polygon
         fill="#8e6363"
         points="1436.787,924.765 1535.436,925.903 1463.762,971.525 "
         id="polygon6707" />
      <polygon
         fill="#6b4a4a"
         points="1436.787,924.765 1523.26,891.743 1535.436,925.903 "
         id="polygon6709" />
      <polygon
         fill="#604343"
         points="1417.034,1008.927 1543.052,1004.564 1548.054,1029.623 "
         id="polygon6711" />
      <polygon
         fill="#805a5a"
         points="1543.052,1004.564 1417.034,1008.927 1463.762,971.525 "
         id="polygon6713" />
      <polygon
         fill="#936666"
         points="1474.828,549.382 1555.516,815.816 1499.538,717.5 "
         id="polygon6715" />
      <polygon
         fill="#c48989"
         points="1474.828,549.382 1582.315,682.28 1555.516,815.816 "
         id="polygon6717" />
      <polygon
         fill="#bb8383"
         points="1560.701,543.446 1650.983,697.662 1582.315,682.28 "
         id="polygon6719" />
      <polygon
         fill="#bf8585"
         points="1474.828,549.382 1560.701,543.446 1582.315,682.28 "
         id="polygon6721" />
      <polygon
         fill="#cb8e8e"
         points="1474.828,549.382 1508.192,404.035 1560.701,543.446 "
         id="polygon6723" />
      <polygon
         fill="#c88c8c"
         points="1508.192,404.035 1474.828,549.382 1448.507,435.406 "
         id="polygon6725" />
      <polygon
         fill="#c48989"
         points="1448.507,435.406 1507.542,343.314 1508.192,404.035 "
         id="polygon6727" />
      <polygon
         fill="#cb8e8e"
         points="1508.192,404.035 1744.553,439.031 1560.701,543.446 "
         id="polygon6729" />
      <polygon
         fill="#473232"
         points="1523.26,891.743 1436.787,924.765 1472.545,891.41 "
         id="polygon6731" />
      <polygon
         fill="#6d4c4c"
         points="1484.307,842.834 1523.26,891.743 1472.545,891.41 "
         id="polygon6733" />
      <polygon
         fill="#ca8d8d"
         points="1680.791,512.195 1744.553,439.031 1757.122,494.412 "
         id="polygon6735" />
      <polygon
         fill="#b07b7b"
         points="1744.553,439.031 1680.791,512.195 1560.701,543.446 "
         id="polygon6737" />
      <polygon
         fill="#c08787"
         points="1507.542,343.314 1596.433,392.028 1508.192,404.035 "
         id="polygon6739" />
      <polygon
         fill="#966969"
         points="1508.192,404.035 1596.433,392.028 1744.553,439.031 "
         id="polygon6741" />
      <polygon
         fill="#916565"
         points="1650.983,697.662 1719.426,660.879 1715.942,763.864 "
         id="polygon6743" />
      <polygon
         fill="#926666"
         points="1680.791,512.195 1631.413,547.96 1560.701,543.446 "
         id="polygon6745" />
      <polygon
         fill="#906565"
         points="1650.983,697.662 1631.413,547.96 1719.426,660.879 "
         id="polygon6747" />
      <polygon
         fill="#9e6e6e"
         points="1560.701,543.446 1631.413,547.96 1650.983,697.662 "
         id="polygon6749" />
      <polygon
         fill="#674848"
         points="1499.538,717.5 1484.307,842.834 1448.423,831.64 "
         id="polygon6751" />
      <polygon
         fill="#5a3f3f"
         points="1448.423,831.64 1484.307,842.834 1472.545,891.41 "
         id="polygon6753" />
      <polygon
         fill="#8d6262"
         points="1744.553,439.031 1596.433,392.028 1766.622,420.155 "
         id="polygon6755" />
      <polygon
         fill="#926666"
         points="1744.553,439.031 1766.622,420.155 1757.122,494.412 "
         id="polygon6757" />
      <polygon
         fill="#5b3f3f"
         points="1471.023,712.14 1499.538,717.5 1448.423,831.64 "
         id="polygon6759" />
      <polygon
         fill="#785454"
         points="1715.942,763.864 1719.426,660.879 1763.764,790.547 "
         id="polygon6761" />
      <polygon
         fill="#875e5e"
         points="1763.764,790.547 1702.371,890.103 1715.942,763.864 "
         id="polygon6763" />
      <polygon
         fill="#704e4e"
         points="1448.507,435.406 1469.557,364.69 1507.542,343.314 "
         id="polygon6765" />
      <polygon
         fill="#624545"
         points="1469.557,364.69 1448.507,435.406 1417.695,445.217 "
         id="polygon6767" />
      <polygon
         fill="#916565"
         points="1417.695,445.217 1474.828,549.382 1499.538,717.5 "
         id="polygon6769" />
      <polygon
         fill="#7f5858"
         points="1448.507,435.406 1474.828,549.382 1417.695,445.217 "
         id="polygon6771" />
      <polygon
         fill="#563c3c"
         points="1417.695,445.217 1499.538,717.5 1471.023,712.14 "
         id="polygon6773" />
      <polygon
         fill="#624545"
         points="1702.371,890.103 1763.764,790.547 1750.181,889.983 "
         id="polygon6775" />
      <polygon
         fill="#362626"
         points="1758.702,919.918 1702.371,890.103 1750.181,889.983 "
         id="polygon6777" />
      <polygon
         fill="#535353"
         points="1469.557,364.69 1555.523,355.005 1507.542,343.314 "
         id="polygon6779" />
      <polygon
         fill="#412d2d"
         points="1596.433,392.028 1507.542,343.314 1555.523,355.005 "
         id="polygon6781" />
      <polygon
         fill="#c38888"
         points="1555.523,355.005 1469.557,364.69 1559.465,312.411 "
         id="polygon6783" />
      <polygon
         fill="#a87575"
         points="1417.695,445.217 1432.744,338.25 1469.557,364.69 "
         id="polygon6785" />
      <polygon
         fill="#966969"
         points="1432.744,338.25 1559.465,312.411 1469.557,364.69 "
         id="polygon6787" />
      <polygon
         fill="#885f5f"
         points="1471.023,712.14 1448.423,831.64 1441.175,709.172 "
         id="polygon6789" />
      <polygon
         fill="#865e5e"
         points="1471.023,712.14 1441.175,709.172 1417.695,445.217 "
         id="polygon6791" />
      <polygon
         fill="#291d1d"
         points="1794.831,928.06 1758.702,919.918 1750.181,889.983 "
         id="polygon6793" />
      <polygon
         fill="#432f2f"
         points="1794.831,928.06 1749.95,970.762 1758.702,919.918 "
         id="polygon6795" />
      <polygon
         fill="#926666"
         points="1387.124,452.024 1432.744,338.25 1417.695,445.217 "
         id="polygon6797" />
      <polygon
         fill="#9d6e6e"
         points="1387.124,452.024 1417.695,445.217 1441.175,709.172 "
         id="polygon6799" />
      <polygon
         fill="#463131"
         points="1733.838,400.617 1766.622,420.155 1596.433,392.028 "
         id="polygon6801" />
      <polygon
         fill="#755252"
         points="1441.175,709.172 1448.423,831.64 1419.803,819.434 "
         id="polygon6803" />
      <polygon
         fill="#2d1f1f"
         points="1463.762,971.525 1417.258,924.088 1436.787,924.765 "
         id="polygon6805" />
      <polygon
         fill="#241919"
         points="1436.787,924.765 1417.258,924.088 1472.545,891.41 "
         id="polygon6807" />
      <polygon
         fill="#322323"
         points="1622.752,384.4 1733.838,400.617 1596.433,392.028 "
         id="polygon6809" />
      <polygon
         fill="#4b3535"
         points="1555.523,355.005 1622.752,384.4 1596.433,392.028 "
         id="polygon6811" />
      <polygon
         fill="#573d3d"
         points="1680.791,512.195 1757.122,494.412 1736.61,528.54 "
         id="polygon6813" />
      <polygon
         fill="#322323"
         points="1807.094,1010.015 1775.713,1010.642 1749.95,970.762 "
         id="polygon6815" />
      <polygon
         fill="#211717"
         points="1741.279,1029.475 1775.713,1010.642 1807.094,1010.015 "
         id="polygon6817" />
      <polygon
         fill="#8b8b8b"
         points="1432.744,338.25 1387.124,452.024 1432.872,396.157 "
         id="polygon6819" />
      <polygon
         fill="#231818"
         points="1767.629,970.389 1749.95,970.762 1794.831,928.06 "
         id="polygon6821" />
      <polygon
         fill="#201616"
         points="1807.094,1010.015 1749.95,970.762 1767.629,970.389 "
         id="polygon6823" />
      <polygon
         points="1417.258,924.088 1468.309,890.461 1472.545,891.41 "
         id="polygon6825" />
      <polygon
         fill="#241919"
         points="1463.762,971.525 1417.034,1008.927 1442.631,969.057 "
         id="polygon6827" />
      <polygon
         fill="#261a1a"
         points="1463.762,971.525 1442.631,969.057 1417.258,924.088 "
         id="polygon6829" />
      <polygon
         fill="#2f2121"
         points="1719.426,660.879 1757.916,736.015 1763.764,790.547 "
         id="polygon6831" />
      <polygon
         fill="#999999"
         points="1425.066,483.155 1387.124,452.024 1441.175,709.172 "
         id="polygon6833" />
      <polygon
         fill="#acacac"
         points="1387.124,452.024 1425.066,483.155 1432.872,396.157 "
         id="polygon6835" />
      <polygon
         fill="#7c7c7c"
         points="1555.523,355.005 1559.465,312.411 1523.397,348.058 "
         id="polygon6837" />
      <polygon
         fill="#232323"
         points="1523.397,348.058 1622.752,384.4 1555.523,355.005 "
         id="polygon6839" />
      <polygon
         fill="#858585"
         points="1559.465,312.411 1432.744,338.25 1523.397,348.058 "
         id="polygon6841" />
      <polygon
         fill="#b4b4b4"
         points="1432.872,396.157 1523.397,348.058 1432.744,338.25 "
         id="polygon6843" />
      <polygon
         points="1736.61,528.54 1684.727,517.13 1680.791,512.195 "
         id="polygon6845" />
      <polygon
         fill="#868686"
         points="1419.803,819.434 1470.317,715.7 1441.175,709.172 "
         id="polygon6847" />
      <polygon
         fill="#808080"
         points="1425.066,483.155 1441.175,709.172 1470.317,715.7 "
         id="polygon6849" />
      <polygon
         fill="#1a1212"
         points="1684.727,517.13 1629.101,551.35 1680.791,512.195 "
         id="polygon6851" />
      <polygon
         points="1680.791,512.195 1629.101,551.35 1631.413,547.96 "
         id="polygon6853" />
      <polygon
         fill="#251a1a"
         points="1548.054,1029.623 1425.037,1027.272 1417.034,1008.927 "
         id="polygon6855" />
      <polygon
         points="1719.426,660.879 1631.413,547.96 1712.786,646.346 "
         id="polygon6857" />
      <polygon
         fill="#ee9999"
         points="1712.786,646.346 1757.916,736.015 1719.426,660.879 "
         id="polygon6859" />
      <polygon
         fill="#161616"
         points="1712.786,646.346 1631.413,547.96 1629.101,551.35 "
         id="polygon6861" />
      <polygon
         fill="#271b1b"
         points="1766.622,420.155 1774.251,465.204 1757.122,494.412 "
         id="polygon6863" />
      <polygon
         fill="#dddddd"
         points="1757.122,494.412 1774.251,465.204 1736.61,528.54 "
         id="polygon6865" />
      <polygon
         fill="#848484"
         points="1470.317,715.7 1419.803,819.434 1450.919,839.778 "
         id="polygon6867" />
      <polygon
         fill="#191111"
         points="1448.423,831.64 1450.919,839.778 1419.803,819.434 "
         id="polygon6869" />
      <polygon
         fill="#ee9999"
         points="1450.919,839.778 1448.423,831.64 1472.545,891.41 "
         id="polygon6871" />
      <polygon
         points="1450.919,839.778 1472.545,891.41 1468.309,890.461 "
         id="polygon6873" />
      <polygon
         fill="#ffaaaa"
         points="1421.983,998.428 1442.631,969.057 1417.034,1008.927 "
         id="polygon6875" />
      <polygon
         fill="#151515"
         points="1421.983,998.428 1417.034,1008.927 1425.037,1027.272 "
         id="polygon6877" />
      <polygon
         fill="#555555"
         points="1622.752,384.4 1751.034,427.067 1733.838,400.617 "
         id="polygon6879" />
      <polygon
         fill="#2a2a2a"
         points="1751.034,427.067 1766.622,420.155 1733.838,400.617 "
         id="polygon6881" />
      <polygon
         fill="#2d2d2d"
         points="1766.622,420.155 1751.034,427.067 1774.251,465.204 "
         id="polygon6883" />
      <polygon
         fill="#202020"
         points="1763.764,790.547 1750.446,814.148 1750.181,889.983 "
         id="polygon6885" />
      <polygon
         fill="#242424"
         points="1757.916,736.015 1750.446,814.148 1763.764,790.547 "
         id="polygon6887" />
      <polygon
         fill="#595959"
         points="1729.442,503.818 1684.727,517.13 1736.61,528.54 "
         id="polygon6889" />
      <polygon
         fill="#515151"
         points="1774.251,465.204 1729.442,503.818 1736.61,528.54 "
         id="polygon6891" />
      <polygon
         fill="#aeaeae"
         points="1729.442,503.818 1774.251,465.204 1751.034,427.067 "
         id="polygon6893" />
      <polygon
         fill="#767676"
         points="1664.33,491.371 1684.727,517.13 1729.442,503.818 "
         id="polygon6895" />
      <polygon
         fill="#949494"
         points="1684.727,517.13 1664.33,491.371 1629.101,551.35 "
         id="polygon6897" />
      <polygon
         fill="#cbcbcb"
         points="1597.889,412.481 1664.33,491.371 1729.442,503.818 "
         id="polygon6899" />
      <polygon
         fill="#cbcbcb"
         points="1751.034,427.067 1597.889,412.481 1729.442,503.818 "
         id="polygon6901" />
      <polygon
         fill="#646464"
         points="1597.889,412.481 1751.034,427.067 1622.752,384.4 "
         id="polygon6903" />
      <polygon
         fill="#dddddd"
         points="1750.385,1030.604 1425.037,1027.272 1548.054,1029.623 "
         id="polygon6905" />
      <polygon
         points="1807.094,1010.015 1750.385,1030.604 1741.279,1029.475 "
         id="polygon6907" />
      <polygon
         fill="#ee9999"
         points="1750.385,1030.604 1548.054,1029.623 1741.279,1029.475 "
         id="polygon6909" />
      <polygon
         fill="#616161"
         points="1451.722,430.648 1432.872,396.157 1425.066,483.155 "
         id="polygon6911" />
      <polygon
         fill="#717171"
         points="1506.492,354.368 1597.889,412.481 1622.752,384.4 "
         id="polygon6913" />
      <polygon
         fill="#808080"
         points="1506.492,354.368 1432.872,396.157 1451.722,430.648 "
         id="polygon6915" />
      <polygon
         fill="#c9c9c9"
         points="1597.889,412.481 1506.492,354.368 1664.33,491.371 "
         id="polygon6917" />
      <polygon
         fill="#454545"
         points="1523.397,348.058 1506.492,354.368 1622.752,384.4 "
         id="polygon6919" />
      <polygon
         fill="#171010"
         points="1506.492,354.368 1523.397,348.058 1432.872,396.157 "
         id="polygon6921" />
      <polygon
         fill="#cacaca"
         points="1664.33,491.371 1506.492,354.368 1567.264,548.936 "
         id="polygon6923" />
      <polygon
         fill="#8f8f8f"
         points="1629.101,551.35 1664.33,491.371 1567.264,548.936 "
         id="polygon6925" />
      <polygon
         fill="#cbcbcb"
         points="1567.264,548.936 1506.492,354.368 1473.362,549.808 "
         id="polygon6927" />
      <polygon
         fill="#c9c9c9"
         points="1506.492,354.368 1451.722,430.648 1473.362,549.808 "
         id="polygon6929" />
      <polygon
         fill="#828282"
         points="1451.722,430.648 1425.066,483.155 1473.362,549.808 "
         id="polygon6931" />
      <polygon
         fill="#494949"
         points="1750.181,889.983 1750.446,814.148 1711.647,890.689 "
         id="polygon6933" />
      <polygon
         fill="#3b3b3b"
         points="1453.93,925.476 1468.309,890.461 1417.258,924.088 "
         id="polygon6935" />
      <polygon
         fill="#4d4d4d"
         points="1442.631,969.057 1453.93,925.476 1417.258,924.088 "
         id="polygon6937" />
      <polygon
         fill="#656565"
         points="1712.786,646.346 1691.001,684.224 1757.916,736.015 "
         id="polygon6939" />
      <polygon
         fill="#767676"
         points="1757.916,736.015 1691.001,684.224 1750.446,814.148 "
         id="polygon6941" />
      <polygon
         fill="#737373"
         points="1629.101,551.35 1691.001,684.224 1712.786,646.346 "
         id="polygon6943" />
      <polygon
         fill="#8d8d8d"
         points="1691.001,684.224 1629.101,551.35 1567.264,548.936 "
         id="polygon6945" />
      <polygon
         fill="#575757"
         points="1470.317,715.7 1503.191,717.532 1425.066,483.155 "
         id="polygon6947" />
      <polygon
         fill="#585858"
         points="1470.317,715.7 1450.919,839.778 1503.191,717.532 "
         id="polygon6949" />
      <polygon
         fill="#8d8d8d"
         points="1473.362,549.808 1425.066,483.155 1503.191,717.532 "
         id="polygon6951" />
      <polygon
         fill="#686868"
         points="1450.919,839.778 1468.309,890.461 1526.671,891.076 "
         id="polygon6953" />
      <polygon
         fill="#464646"
         points="1468.309,890.461 1453.93,925.476 1526.671,891.076 "
         id="polygon6955" />
      <polygon
         fill="#313131"
         points="1751.71,924.437 1794.831,928.06 1750.181,889.983 "
         id="polygon6957" />
      <polygon
         fill="#595959"
         points="1719.752,971.197 1767.629,970.389 1751.71,924.437 "
         id="polygon6959" />
      <polygon
         fill="#333333"
         points="1751.71,924.437 1750.181,889.983 1711.647,890.689 "
         id="polygon6961" />
      <polygon
         fill="#4c4c4c"
         points="1751.71,924.437 1767.629,970.389 1794.831,928.06 "
         id="polygon6963" />
      <polygon
         fill="#505050"
         points="1719.752,971.197 1755.597,1010.144 1767.629,970.389 "
         id="polygon6965" />
      <polygon
         fill="#3b3b3b"
         points="1807.094,1010.015 1755.597,1010.144 1750.385,1030.604 "
         id="polygon6967" />
      <polygon
         fill="#4c4c4c"
         points="1755.597,1010.144 1807.094,1010.015 1767.629,970.389 "
         id="polygon6969" />
      <polygon
         fill="#757575"
         points="1450.919,839.778 1500.916,837.611 1503.191,717.532 "
         id="polygon6971" />
      <polygon
         fill="#6b6b6b"
         points="1526.671,891.076 1500.916,837.611 1450.919,839.778 "
         id="polygon6973" />
      <polygon
         fill="#575757"
         points="1421.983,998.428 1473.637,1005.195 1442.631,969.057 "
         id="polygon6975" />
      <polygon
         fill="#676767"
         points="1425.037,1027.272 1473.637,1005.195 1421.983,998.428 "
         id="polygon6977" />
      <polygon
         fill="#646464"
         points="1442.631,969.057 1525.515,972.081 1453.93,925.476 "
         id="polygon6979" />
      <polygon
         fill="#565656"
         points="1473.637,1005.195 1525.515,972.081 1442.631,969.057 "
         id="polygon6981" />
      <polygon
         fill="#aeaeae"
         points="1590.264,680.242 1691.001,684.224 1567.264,548.936 "
         id="polygon6983" />
      <polygon
         fill="#bababa"
         points="1567.264,548.936 1473.362,549.808 1590.264,680.242 "
         id="polygon6985" />
      <polygon
         fill="#515151"
         points="1540.859,1026.985 1473.637,1005.195 1425.037,1027.272 "
         id="polygon6987" />
      <polygon
         fill="#ffffff"
         points="1750.385,1030.604 1540.859,1026.985 1425.037,1027.272 "
         id="polygon6989" />
      <polygon
         fill="#b0b0b0"
         points="1633.578,803.629 1633.74,893.89 1711.647,890.689 "
         id="polygon6991" />
      <polygon
         fill="#bebebe"
         points="1691.001,684.224 1590.264,680.242 1633.578,803.629 "
         id="polygon6993" />
      <polygon
         fill="#a6a6a6"
         points="1711.647,890.689 1750.446,814.148 1633.578,803.629 "
         id="polygon6995" />
      <polygon
         fill="#a6a6a6"
         points="1750.446,814.148 1691.001,684.224 1633.578,803.629 "
         id="polygon6997" />
      <polygon
         fill="#adadad"
         points="1633.74,893.89 1549.546,829.455 1526.671,891.076 "
         id="polygon6999" />
      <polygon
         fill="#cbcbcb"
         points="1633.578,803.629 1590.264,680.242 1549.546,829.455 "
         id="polygon7001" />
      <polygon
         fill="#c0c0c0"
         points="1590.264,680.242 1473.362,549.808 1549.546,829.455 "
         id="polygon7003" />
      <polygon
         fill="#a7a7a7"
         points="1526.671,891.076 1549.546,829.455 1500.916,837.611 "
         id="polygon7005" />
      <polygon
         fill="#acacac"
         points="1500.916,837.611 1549.546,829.455 1503.191,717.532 "
         id="polygon7007" />
      <polygon
         fill="#c6c6c6"
         points="1633.578,803.629 1549.546,829.455 1633.74,893.89 "
         id="polygon7009" />
      <polygon
         fill="#969696"
         points="1473.362,549.808 1503.191,717.532 1549.546,829.455 "
         id="polygon7011" />
      <polygon
         fill="#757575"
         points="1453.93,925.476 1543.752,924.951 1526.671,891.076 "
         id="polygon7013" />
      <polygon
         fill="#9d9d9d"
         points="1525.515,972.081 1543.752,924.951 1453.93,925.476 "
         id="polygon7015" />
      <polygon
         fill="#adadad"
         points="1639.521,971.512 1543.752,924.951 1525.515,972.081 "
         id="polygon7017" />
      <polygon
         fill="#717171"
         points="1643.519,922.505 1751.71,924.437 1711.647,890.689 "
         id="polygon7019" />
      <polygon
         fill="#a8a8a8"
         points="1639.521,971.512 1719.752,971.197 1643.519,922.505 "
         id="polygon7021" />
      <polygon
         fill="#6f6f6f"
         points="1543.752,924.951 1643.519,922.505 1526.671,891.076 "
         id="polygon7023" />
      <polygon
         fill="#6b6b6b"
         points="1643.519,922.505 1711.647,890.689 1633.74,893.89 "
         id="polygon7025" />
      <polygon
         fill="#777777"
         points="1643.519,922.505 1633.74,893.89 1526.671,891.076 "
         id="polygon7027" />
      <polygon
         fill="#bababa"
         points="1643.519,922.505 1543.752,924.951 1639.521,971.512 "
         id="polygon7029" />
      <polygon
         fill="#a8a8a8"
         points="1751.71,924.437 1643.519,922.505 1719.752,971.197 "
         id="polygon7031" />
      <polygon
         fill="#898989"
         points="1664.124,1012.886 1719.752,971.197 1639.521,971.512 "
         id="polygon7033" />
      <polygon
         fill="#484848"
         points="1664.124,1012.886 1750.385,1030.604 1755.597,1010.144 "
         id="polygon7035" />
      <polygon
         fill="#8e8e8e"
         points="1664.124,1012.886 1755.597,1010.144 1719.752,971.197 "
         id="polygon7037" />
      <polygon
         fill="#313131"
         points="1664.124,1012.886 1540.859,1026.985 1750.385,1030.604 "
         id="polygon7039" />
      <polygon
         fill="#a2a2a2"
         points="1556.02,1005.183 1664.124,1012.886 1639.521,971.512 "
         id="polygon7041" />
      <polygon
         fill="#838383"
         points="1556.02,1005.183 1639.521,971.512 1525.515,972.081 "
         id="polygon7043" />
      <polygon
         fill="#929292"
         points="1556.02,1005.183 1525.515,972.081 1473.637,1005.195 "
         id="polygon7045" />
      <polygon
         fill="#777777"
         points="1556.02,1005.183 1540.859,1026.985 1664.124,1012.886 "
         id="polygon7047" />
      <polygon
         fill="#818181"
         points="1556.02,1005.183 1473.637,1005.195 1540.859,1026.985 "
         id="polygon7049" />
    </g>
  </g>
</svg>
