<?xml version="1.0" encoding="UTF-8" standalone="no"?>
<!-- Created with Inkscape (http://www.inkscape.org/) -->

<svg
   width="97.156319mm"
   height="201.58366mm"
   viewBox="0 0 97.156319 201.58366"
   version="1.1"
   id="svg9020"
   xmlns="http://www.w3.org/2000/svg"
   xmlns:svg="http://www.w3.org/2000/svg">
  <defs
     id="defs9017" />
  <g
     id="layer1">
    <g
       id="g7695"
       transform="matrix(0.26458333,0,0,0.26458333,-262.92095,-70.961514)">
      <polygon
         fill="#7f5959"
         points="1264.635,1030.092 1080.382,1022.825 1147.681,996.246 "
         id="polygon7315" />
      <polygon
         fill="#c08686"
         points="1274.446,987.956 1264.635,1030.092 1147.681,996.246 "
         id="polygon7317" />
      <polygon
         fill="#a07070"
         points="1213.399,960.736 1274.446,987.956 1147.681,996.246 "
         id="polygon7319" />
      <polygon
         fill="#c48989"
         points="1125.31,919.06 1225.248,926.335 1130.094,962.852 "
         id="polygon7321" />
      <polygon
         fill="#825b5b"
         points="1147.681,996.246 1130.094,962.852 1213.399,960.736 "
         id="polygon7323" />
      <polygon
         fill="#bb8282"
         points="1130.094,962.852 1225.248,926.335 1213.399,960.736 "
         id="polygon7325" />
      <polygon
         fill="#ac7878"
         points="1125.31,919.06 1130.094,962.852 1053.118,924.195 "
         id="polygon7327" />
      <polygon
         fill="#ab7878"
         points="1080.382,1022.825 1025.156,983.846 1147.681,996.246 "
         id="polygon7329" />
      <polygon
         fill="#8a6161"
         points="1210.266,845.238 1302.064,922.102 1225.248,926.335 "
         id="polygon7331" />
      <polygon
         fill="#9e6f6f"
         points="1210.266,845.238 1125.31,919.06 1141.874,856.331 "
         id="polygon7333" />
      <polygon
         fill="#a37272"
         points="1225.248,926.335 1125.31,919.06 1210.266,845.238 "
         id="polygon7335" />
      <polygon
         fill="#996b6b"
         points="1130.094,962.852 1049.964,961.215 1053.118,924.195 "
         id="polygon7337" />
      <polygon
         fill="#895f5f"
         points="1147.681,996.246 1049.964,961.215 1130.094,962.852 "
         id="polygon7339" />
      <polygon
         fill="#785454"
         points="1147.681,996.246 1025.156,983.846 1049.964,961.215 "
         id="polygon7341" />
      <polygon
         fill="#624545"
         points="1301.668,962.272 1274.446,987.956 1213.399,960.736 "
         id="polygon7343" />
      <polygon
         fill="#976a6a"
         points="1225.248,926.335 1301.668,962.272 1213.399,960.736 "
         id="polygon7345" />
      <polygon
         fill="#9c6d6d"
         points="1225.248,926.335 1302.064,922.102 1301.668,962.272 "
         id="polygon7347" />
      <polygon
         fill="#906565"
         points="1264.635,1030.092 1274.446,987.956 1335.563,1022.322 "
         id="polygon7349" />
      <polygon
         fill="#694949"
         points="1338.432,984.864 1274.446,987.956 1301.668,962.272 "
         id="polygon7351" />
      <polygon
         fill="#875e5e"
         points="1338.432,984.864 1335.563,1022.322 1274.446,987.956 "
         id="polygon7353" />
      <polygon
         fill="#c88c8c"
         points="1153.655,332.55 1181.729,439.702 1126.135,405.657 "
         id="polygon7355" />
      <polygon
         fill="#c18787"
         points="1181.729,439.702 1206.227,437.649 1166.913,520.838 "
         id="polygon7357" />
      <polygon
         fill="#ca8d8d"
         points="1126.135,405.657 1181.729,439.702 1166.913,520.838 "
         id="polygon7359" />
      <polygon
         fill="#cb8e8e"
         points="1137.462,780.387 1161.183,604.342 1201.979,769.752 "
         id="polygon7361" />
      <polygon
         fill="#b88181"
         points="1210.266,845.238 1141.874,856.331 1137.462,780.387 "
         id="polygon7363" />
      <polygon
         fill="#bf8686"
         points="1210.266,845.238 1137.462,780.387 1201.979,769.752 "
         id="polygon7365" />
      <polygon
         fill="#7a5555"
         points="1080.382,1022.825 1012.164,1028.383 1025.156,983.846 "
         id="polygon7367" />
      <polygon
         fill="#1e1515"
         points="1012.164,1028.383 1080.382,1022.825 1264.635,1030.092 "
         id="polygon7369" />
      <polygon
         fill="#9b6c6c"
         points="1088.356,846.081 1137.462,780.387 1141.874,856.331 "
         id="polygon7371" />
      <polygon
         fill="#865e5e"
         points="1125.31,919.06 1053.118,924.195 1088.356,846.081 "
         id="polygon7373" />
      <polygon
         fill="#865e5e"
         points="1125.31,919.06 1088.356,846.081 1141.874,856.331 "
         id="polygon7375" />
      <polygon
         fill="#5a3f3f"
         points="1213.645,604.688 1161.183,604.342 1149.664,591.184 "
         id="polygon7377" />
      <polygon
         fill="#5f4242"
         points="1233.253,592.041 1213.645,604.688 1149.664,591.184 "
         id="polygon7379" />
      <polygon
         fill="#c78b8b"
         points="1161.183,604.342 1213.645,604.688 1201.979,769.752 "
         id="polygon7381" />
      <polygon
         fill="#b98282"
         points="1222.91,517.426 1233.253,592.041 1149.664,591.184 "
         id="polygon7383" />
      <polygon
         fill="#bf8585"
         points="1166.913,520.838 1206.227,437.649 1222.91,517.426 "
         id="polygon7385" />
      <polygon
         fill="#bc8484"
         points="1206.227,437.649 1222.183,387.076 1222.91,517.426 "
         id="polygon7387" />
      <polygon
         fill="#ba8282"
         points="1166.913,520.838 1222.91,517.426 1149.664,591.184 "
         id="polygon7389" />
      <polygon
         fill="#ab7777"
         points="1166.913,520.838 1122.656,519.274 1126.135,405.657 "
         id="polygon7391" />
      <polygon
         fill="#a27171"
         points="1149.664,591.184 1122.656,519.274 1166.913,520.838 "
         id="polygon7393" />
      <polygon
         fill="#976969"
         points="1126.135,405.657 1122.656,519.274 1090.682,438.866 "
         id="polygon7395" />
      <polygon
         fill="#a87676"
         points="1161.183,604.342 1137.462,780.387 1120.281,606.568 "
         id="polygon7397" />
      <polygon
         fill="#4a3434"
         points="1161.183,604.342 1120.281,606.568 1149.664,591.184 "
         id="polygon7399" />
      <polygon
         fill="#604343"
         points="1301.668,962.272 1302.064,922.102 1337.209,922.482 "
         id="polygon7401" />
      <polygon
         fill="#916666"
         points="1153.655,332.55 1126.135,405.657 1093.019,365.024 "
         id="polygon7403" />
      <polygon
         fill="#7e5858"
         points="1093.019,365.024 1126.135,405.657 1090.682,438.866 "
         id="polygon7405" />
      <polygon
         fill="#8f6464"
         points="1122.656,519.274 1149.664,591.184 1081.417,591.435 "
         id="polygon7407" />
      <polygon
         fill="#593e3e"
         points="1120.281,606.568 1081.417,591.435 1149.664,591.184 "
         id="polygon7409" />
      <polygon
         fill="#513939"
         points="1278.275,846.037 1337.209,922.482 1302.064,922.102 "
         id="polygon7411" />
      <polygon
         fill="#6e4d4d"
         points="1302.064,922.102 1210.266,845.238 1278.275,846.037 "
         id="polygon7413" />
      <polygon
         fill="#926666"
         points="1201.979,769.752 1213.645,604.688 1246.749,768.103 "
         id="polygon7415" />
      <polygon
         fill="#8c6262"
         points="1210.266,845.238 1201.979,769.752 1246.749,768.103 "
         id="polygon7417" />
      <polygon
         fill="#8b6161"
         points="1210.266,845.238 1246.749,768.103 1278.275,846.037 "
         id="polygon7419" />
      <polygon
         fill="#936666"
         points="1181.729,439.702 1153.655,332.55 1182.627,272.716 "
         id="polygon7421" />
      <polygon
         fill="#5c4141"
         points="1053.118,924.195 1049.964,961.215 1008.901,922.811 "
         id="polygon7423" />
      <polygon
         fill="#513838"
         points="1053.118,924.195 1008.901,922.811 1088.356,846.081 "
         id="polygon7425" />
      <polygon
         fill="#765353"
         points="1246.749,768.103 1213.645,604.688 1242.239,605.62 "
         id="polygon7427" />
      <polygon
         fill="#3a2828"
         points="1242.239,605.62 1213.645,604.688 1233.253,592.041 "
         id="polygon7429" />
      <polygon
         fill="#8e6363"
         points="1222.91,517.426 1222.183,387.076 1278.732,415.841 "
         id="polygon7431" />
      <polygon
         fill="#755252"
         points="1120.281,606.568 1137.462,780.387 1100.694,768.142 "
         id="polygon7433" />
      <polygon
         fill="#765353"
         points="1137.462,780.387 1088.356,846.081 1100.694,768.142 "
         id="polygon7435" />
      <polygon
         fill="#442f2f"
         points="1025.156,983.846 1012.164,1028.383 993.717,987.59 "
         id="polygon7437" />
      <polygon
         fill="#835b5b"
         points="1222.183,387.076 1216.701,312.192 1261.302,336.638 "
         id="polygon7439" />
      <polygon
         fill="#7a5555"
         points="1278.732,415.841 1222.183,387.076 1261.302,336.638 "
         id="polygon7441" />
      <polygon
         fill="#6b4b4b"
         points="1233.253,592.041 1222.91,517.426 1276.882,582.894 "
         id="polygon7443" />
      <polygon
         fill="#3b2929"
         points="1276.882,582.894 1242.239,605.62 1233.253,592.041 "
         id="polygon7445" />
      <polygon
         fill="#2e2020"
         points="1049.964,961.215 1025.156,983.846 1025.515,960.049 "
         id="polygon7447" />
      <polygon
         fill="#382727"
         points="1049.964,961.215 1025.515,960.049 1008.901,922.811 "
         id="polygon7449" />
      <polygon
         fill="#2c1f1f"
         points="993.717,987.59 1025.515,960.049 1025.156,983.846 "
         id="polygon7451" />
      <polygon
         fill="#8b6161"
         points="1153.655,332.55 1145.903,268.201 1182.627,272.716 "
         id="polygon7453" />
      <polygon
         fill="#785454"
         points="1153.655,332.55 1093.019,365.024 1145.903,268.201 "
         id="polygon7455" />
      <polygon
         fill="#3d2a2a"
         points="1103.663,525.605 1122.656,519.274 1081.417,591.435 "
         id="polygon7457" />
      <polygon
         fill="#503838"
         points="1090.682,438.866 1122.656,519.274 1103.663,525.605 "
         id="polygon7459" />
      <polygon
         fill="#3d2b2b"
         points="1120.281,606.568 1100.694,768.142 1106.703,605.166 "
         id="polygon7461" />
      <polygon
         fill="#1a1212"
         points="1106.703,605.166 1081.417,591.435 1120.281,606.568 "
         id="polygon7463" />
      <polygon
         fill="#402d2d"
         points="1241.644,513.371 1276.882,582.894 1222.91,517.426 "
         id="polygon7465" />
      <polygon
         fill="#392727"
         points="1241.644,513.371 1222.91,517.426 1278.732,415.841 "
         id="polygon7467" />
      <polygon
         fill="#281c1c"
         points="1090.682,438.866 1081.45,424.398 1093.019,365.024 "
         id="polygon7469" />
      <polygon
         fill="#1d1414"
         points="1103.663,525.605 1081.45,424.398 1090.682,438.866 "
         id="polygon7471" />
      <polygon
         fill="#2a1d1d"
         points="1301.668,962.272 1337.209,922.482 1325.655,960.411 "
         id="polygon7473" />
      <polygon
         fill="#231818"
         points="1325.655,960.411 1338.432,984.864 1301.668,962.272 "
         id="polygon7475" />
      <polygon
         fill="#181818"
         points="1276.882,582.894 1233.786,607.091 1242.239,605.62 "
         id="polygon7477" />
      <polygon
         fill="#333333"
         points="1110.564,761.799 1106.703,605.166 1100.694,768.142 "
         id="polygon7479" />
      <polygon
         fill="#332323"
         points="1338.432,984.864 1360.922,1003.356 1335.563,1022.322 "
         id="polygon7481" />
      <polygon
         points="1360.922,1003.356 1338.432,984.864 1325.655,960.411 "
         id="polygon7483" />
      <polygon
         fill="#272727"
         points="1110.564,761.799 1100.694,768.142 1078.031,842.928 "
         id="polygon7485" />
      <polygon
         fill="#221717"
         points="1100.694,768.142 1088.356,846.081 1078.031,842.928 "
         id="polygon7487" />
      <polygon
         fill="#1f1616"
         points="1008.901,922.811 1078.031,842.928 1088.356,846.081 "
         id="polygon7489" />
      <polygon
         fill="#1c1414"
         points="1261.302,336.638 1216.701,312.192 1226.174,310.661 "
         id="polygon7491" />
      <polygon
         fill="#6d6d6d"
         points="1261.302,336.638 1226.174,310.661 1263.554,412.658 "
         id="polygon7493" />
      <polygon
         fill="#414141"
         points="1278.732,415.841 1261.302,336.638 1263.554,412.658 "
         id="polygon7495" />
      <polygon
         fill="#454545"
         points="1263.554,412.658 1241.644,513.371 1278.732,415.841 "
         id="polygon7497" />
      <polygon
         fill="#1c1414"
         points="1012.164,1028.383 1001.49,1023.145 993.717,987.59 "
         id="polygon7499" />
      <polygon
         fill="#2c2c2c"
         points="1233.786,607.091 1242.146,781.781 1242.239,605.62 "
         id="polygon7501" />
      <polygon
         fill="#1b1b1b"
         points="1246.749,768.103 1242.239,605.62 1242.146,781.781 "
         id="polygon7503" />
      <polygon
         fill="#282828"
         points="1246.749,768.103 1242.146,781.781 1278.275,846.037 "
         id="polygon7505" />
      <polygon
         fill="#121212"
         points="1145.903,268.201 1093.019,365.024 1100.393,355.902 "
         id="polygon7507" />
      <polygon
         fill="#181818"
         points="1100.393,355.902 1093.019,365.024 1081.45,424.398 "
         id="polygon7509" />
      <polygon
         fill="#878787"
         points="1100.393,355.902 1179.276,290.083 1145.903,268.201 "
         id="polygon7511" />
      <polygon
         fill="#151515"
         points="1182.627,272.716 1179.276,290.083 1181.729,439.702 "
         id="polygon7513" />
      <polygon
         fill="#3d3d3d"
         points="1179.276,290.083 1182.627,272.716 1145.903,268.201 "
         id="polygon7515" />
      <polygon
         fill="#1f1f1f"
         points="1081.417,591.435 1089.658,591.353 1103.663,525.605 "
         id="polygon7517" />
      <polygon
         fill="#171717"
         points="1089.658,591.353 1081.417,591.435 1106.703,605.166 "
         id="polygon7519" />
      <polygon
         fill="#2f2f2f"
         points="1130.547,605.692 1089.658,591.353 1106.703,605.166 "
         id="polygon7521" />
      <polygon
         fill="#6c6c6c"
         points="1130.547,605.692 1106.703,605.166 1110.564,761.799 "
         id="polygon7523" />
      <polygon
         fill="#747474"
         points="1103.663,525.605 1132.151,517.278 1081.45,424.398 "
         id="polygon7525" />
      <polygon
         fill="#5c5c5c"
         points="1132.151,517.278 1103.663,525.605 1089.658,591.353 "
         id="polygon7527" />
      <polygon
         fill="#292929"
         points="1266.885,852.989 1278.275,846.037 1242.146,781.781 "
         id="polygon7529" />
      <polygon
         fill="#292929"
         points="1330.315,922.568 1278.275,846.037 1266.885,852.989 "
         id="polygon7531" />
      <polygon
         fill="#171717"
         points="1330.315,922.568 1337.209,922.482 1278.275,846.037 "
         id="polygon7533" />
      <polygon
         fill="#1a1a1a"
         points="1337.209,922.482 1330.315,922.568 1325.655,960.411 "
         id="polygon7535" />
      <polygon
         fill="#262626"
         points="1008.901,922.811 1024.199,922.496 1078.031,842.928 "
         id="polygon7537" />
      <polygon
         fill="#767676"
         points="1203.311,508.908 1241.644,513.371 1263.554,412.658 "
         id="polygon7539" />
      <polygon
         fill="#717171"
         points="1241.644,513.371 1203.311,508.908 1276.882,582.894 "
         id="polygon7541" />
      <polygon
         fill="#6f6f6f"
         points="1132.151,517.278 1113.368,438.286 1081.45,424.398 "
         id="polygon7543" />
      <polygon
         fill="#828282"
         points="1113.368,438.286 1100.393,355.902 1081.45,424.398 "
         id="polygon7545" />
      <polygon
         fill="#a9a9a9"
         points="1242.146,781.781 1233.786,607.091 1184.742,604.985 "
         id="polygon7547" />
      <polygon
         fill="#9a9a9a"
         points="1078.031,842.928 1149.724,766.504 1110.564,761.799 "
         id="polygon7549" />
      <polygon
         fill="#9c9c9c"
         points="1110.564,761.799 1149.724,766.504 1130.547,605.692 "
         id="polygon7551" />
      <polygon
         fill="#c1c1c1"
         points="1184.742,604.985 1130.547,605.692 1149.724,766.504 "
         id="polygon7553" />
      <polygon
         fill="#a1a1a1"
         points="1242.146,781.781 1184.742,604.985 1202.167,778.742 "
         id="polygon7555" />
      <polygon
         fill="#cbcbcb"
         points="1184.742,604.985 1149.724,766.504 1202.167,778.742 "
         id="polygon7557" />
      <polygon
         fill="#232323"
         points="1226.174,310.661 1216.701,312.192 1216.251,416.961 "
         id="polygon7559" />
      <polygon
         fill="#101010"
         points="1222.183,387.076 1206.227,437.649 1216.251,416.961 "
         id="polygon7561" />
      <polygon
         fill="#9f9f9f"
         points="1263.554,412.658 1226.174,310.661 1216.251,416.961 "
         id="polygon7563" />
      <polygon
         points="1216.701,312.192 1222.183,387.076 1216.251,416.961 "
         id="polygon7565" />
      <polygon
         fill="#9d9d9d"
         points="1216.251,416.961 1203.311,508.908 1263.554,412.658 "
         id="polygon7567" />
      <polygon
         fill="#212121"
         points="993.717,987.59 1013.858,982.517 1025.515,960.049 "
         id="polygon7569" />
      <polygon
         fill="#373737"
         points="1013.858,982.517 993.717,987.59 1001.49,1023.145 "
         id="polygon7571" />
      <polygon
         fill="#414141"
         points="1233.786,607.091 1233.022,593.69 1184.742,604.985 "
         id="polygon7573" />
      <polygon
         fill="#656565"
         points="1276.882,582.894 1203.311,508.908 1233.022,593.69 "
         id="polygon7575" />
      <polygon
         fill="#383838"
         points="1276.882,582.894 1233.022,593.69 1233.786,607.091 "
         id="polygon7577" />
      <polygon
         fill="#292929"
         points="1025.515,960.049 1013.858,982.517 1045.907,962.483 "
         id="polygon7579" />
      <polygon
         fill="#2a2a2a"
         points="1045.907,962.483 1024.199,922.496 1008.901,922.811 "
         id="polygon7581" />
      <polygon
         fill="#343434"
         points="1045.907,962.483 1008.901,922.811 1025.515,960.049 "
         id="polygon7583" />
      <polygon
         fill="#bebebe"
         points="1132.151,517.278 1180.918,446.002 1113.368,438.286 "
         id="polygon7585" />
      <polygon
         fill="#181111"
         points="1206.227,437.649 1180.918,446.002 1216.251,416.961 "
         id="polygon7587" />
      <polygon
         fill="#bbbbbb"
         points="1180.918,446.002 1203.311,508.908 1216.251,416.961 "
         id="polygon7589" />
      <polygon
         fill="#dddddd"
         points="1181.729,439.702 1179.276,290.083 1180.918,446.002 "
         id="polygon7591" />
      <polygon
         fill="#bfbfbf"
         points="1203.311,508.908 1180.918,446.002 1132.151,517.278 "
         id="polygon7593" />
      <polygon
         fill="#131313"
         points="1181.729,439.702 1180.918,446.002 1206.227,437.649 "
         id="polygon7595" />
      <polygon
         fill="#a0a0a0"
         points="1179.276,290.083 1100.393,355.902 1145.249,387.7 "
         id="polygon7597" />
      <polygon
         fill="#b5b5b5"
         points="1179.276,290.083 1145.249,387.7 1180.918,446.002 "
         id="polygon7599" />
      <polygon
         fill="#c1c1c1"
         points="1180.918,446.002 1145.249,387.7 1113.368,438.286 "
         id="polygon7601" />
      <polygon
         fill="#9d9d9d"
         points="1145.249,387.7 1100.393,355.902 1113.368,438.286 "
         id="polygon7603" />
      <polygon
         fill="#575757"
         points="1142.936,591.411 1089.658,591.353 1130.547,605.692 "
         id="polygon7605" />
      <polygon
         fill="#4f4f4f"
         points="1184.742,604.985 1142.936,591.411 1130.547,605.692 "
         id="polygon7607" />
      <polygon
         fill="#b3b3b3"
         points="1203.311,508.908 1132.151,517.278 1142.936,591.411 "
         id="polygon7609" />
      <polygon
         fill="#c6c6c6"
         points="1203.311,508.908 1142.936,591.411 1233.022,593.69 "
         id="polygon7611" />
      <polygon
         fill="#777777"
         points="1233.022,593.69 1142.936,591.411 1184.742,604.985 "
         id="polygon7613" />
      <polygon
         fill="#989898"
         points="1142.936,591.411 1132.151,517.278 1089.658,591.353 "
         id="polygon7615" />
      <polygon
         fill="#bfbfbf"
         points="1149.724,766.504 1143.975,846.193 1202.167,778.742 "
         id="polygon7617" />
      <polygon
         fill="#919191"
         points="1143.975,846.193 1149.724,766.504 1078.031,842.928 "
         id="polygon7619" />
      <polygon
         fill="#979797"
         points="1266.885,852.989 1242.146,781.781 1210.087,856.352 "
         id="polygon7621" />
      <polygon
         fill="#959595"
         points="1210.087,856.352 1242.146,781.781 1202.167,778.742 "
         id="polygon7623" />
      <polygon
         fill="#bcbcbc"
         points="1202.167,778.742 1143.975,846.193 1210.087,856.352 "
         id="polygon7625" />
      <polygon
         fill="#5d5d5d"
         points="1013.858,982.517 1001.49,1023.145 1037.6,1017.242 "
         id="polygon7627" />
      <polygon
         fill="#7c7c7c"
         points="1210.087,856.352 1277.016,920.885 1266.885,852.989 "
         id="polygon7629" />
      <polygon
         fill="#686868"
         points="1266.885,852.989 1277.016,920.885 1330.315,922.568 "
         id="polygon7631" />
      <polygon
         fill="#171717"
         points="1360.922,1003.356 1291.309,1028.792 1335.563,1022.322 "
         id="polygon7633" />
      <polygon
         fill="#dd9999"
         points="1335.563,1022.322 1291.309,1028.792 1264.635,1030.092 "
         id="polygon7635" />
      <polygon
         fill="#7a7a7a"
         points="1277.016,920.885 1250.36,963.222 1330.315,922.568 "
         id="polygon7637" />
      <polygon
         fill="#717171"
         points="1325.655,960.411 1330.315,922.568 1250.36,963.222 "
         id="polygon7639" />
      <polygon
         fill="#4f4f4f"
         points="1250.36,963.222 1285.718,985.313 1325.655,960.411 "
         id="polygon7641" />
      <polygon
         fill="#7a7a7a"
         points="1360.922,1003.356 1285.718,985.313 1291.309,1028.792 "
         id="polygon7643" />
      <polygon
         fill="#575757"
         points="1285.718,985.313 1360.922,1003.356 1325.655,960.411 "
         id="polygon7645" />
      <polygon
         fill="#959595"
         points="1136.479,961.697 1098.999,920.96 1045.907,962.483 "
         id="polygon7647" />
      <polygon
         fill="#8c8c8c"
         points="1045.907,962.483 1098.999,920.96 1024.199,922.496 "
         id="polygon7649" />
      <polygon
         fill="#767676"
         points="1078.031,842.928 1098.999,920.96 1143.975,846.193 "
         id="polygon7651" />
      <polygon
         fill="#717171"
         points="1024.199,922.496 1098.999,920.96 1078.031,842.928 "
         id="polygon7653" />
      <polygon
         fill="#676767"
         points="1013.858,982.517 1079.766,984.054 1045.907,962.483 "
         id="polygon7655" />
      <polygon
         fill="#8c8c8c"
         points="1037.6,1017.242 1079.766,984.054 1013.858,982.517 "
         id="polygon7657" />
      <polygon
         fill="#5c5c5c"
         points="1079.766,984.054 1136.479,961.697 1045.907,962.483 "
         id="polygon7659" />
      <polygon
         fill="#9d9d9d"
         points="1206.726,922.994 1210.087,856.352 1143.975,846.193 "
         id="polygon7661" />
      <polygon
         fill="#a6a6a6"
         points="1098.999,920.96 1206.726,922.994 1143.975,846.193 "
         id="polygon7663" />
      <polygon
         fill="#c7c7c7"
         points="1136.479,961.697 1206.726,922.994 1098.999,920.96 "
         id="polygon7665" />
      <polygon
         fill="#b2b2b2"
         points="1250.36,963.222 1206.726,922.994 1136.479,961.697 "
         id="polygon7667" />
      <polygon
         fill="#979797"
         points="1206.726,922.994 1277.016,920.885 1210.087,856.352 "
         id="polygon7669" />
      <polygon
         fill="#b8b8b8"
         points="1250.36,963.222 1277.016,920.885 1206.726,922.994 "
         id="polygon7671" />
      <polygon
         fill="#cc9999"
         points="1264.635,1030.092 1138.412,1029.587 1012.164,1028.383 "
         id="polygon7673" />
      <polygon
         fill="#dddddd"
         points="1291.309,1028.792 1138.412,1029.587 1264.635,1030.092 "
         id="polygon7675" />
      <polygon
         fill="#141414"
         points="1138.412,1029.587 1001.49,1023.145 1012.164,1028.383 "
         id="polygon7677" />
      <polygon
         fill="#2c2c2c"
         points="1138.412,1029.587 1037.6,1017.242 1001.49,1023.145 "
         id="polygon7679" />
      <polygon
         fill="#ababab"
         points="1079.766,984.054 1037.6,1017.242 1138.412,1029.587 "
         id="polygon7681" />
      <polygon
         fill="#c3c3c3"
         points="1187.296,989.642 1079.766,984.054 1138.412,1029.587 "
         id="polygon7683" />
      <polygon
         fill="#bababa"
         points="1285.718,985.313 1187.296,989.642 1291.309,1028.792 "
         id="polygon7685" />
      <polygon
         fill="#717171"
         points="1187.296,989.642 1250.36,963.222 1136.479,961.697 "
         id="polygon7687" />
      <polygon
         fill="#8d8d8d"
         points="1187.296,989.642 1285.718,985.313 1250.36,963.222 "
         id="polygon7689" />
      <polygon
         fill="#969696"
         points="1187.296,989.642 1136.479,961.697 1079.766,984.054 "
         id="polygon7691" />
      <polygon
         fill="#a8a8a8"
         points="1138.412,1029.587 1291.309,1028.792 1187.296,989.642 "
         id="polygon7693" />
    </g>
  </g>
</svg>
