<?xml version="1.0" encoding="UTF-8" standalone="no"?>
<!-- Created with Inkscape (http://www.inkscape.org/) -->

<svg
   width="100.06541mm"
   height="236.02737mm"
   viewBox="0 0 100.06541 236.02737"
   version="1.1"
   id="svg7305"
   xmlns="http://www.w3.org/2000/svg"
   xmlns:svg="http://www.w3.org/2000/svg">
  <defs
     id="defs7302" />
  <g
     id="layer1">
    <g
       id="g4866"
       transform="matrix(0.26458333,0,0,0.26458333,-148.97444,-36.471489)">
      <polygon
         fill="#c68b8b"
         points="756.41,1018.605 701.957,983.651 805.007,982.595 "
         id="polygon4386" />
      <polygon
         fill="#c28787"
         points="709.334,919.544 795.784,916.485 799.776,961.945 "
         id="polygon4388" />
      <polygon
         fill="#bd8484"
         points="644.319,1025.713 701.957,983.651 756.41,1018.605 "
         id="polygon4390" />
      <polygon
         fill="#ba8282"
         points="709.334,919.544 799.776,961.945 705.344,961.197 "
         id="polygon4392" />
      <polygon
         fill="#7e5858"
         points="805.007,982.595 705.344,961.197 799.776,961.945 "
         id="polygon4394" />
      <polygon
         fill="#7d5757"
         points="705.344,961.197 805.007,982.595 701.957,983.651 "
         id="polygon4396" />
      <polygon
         fill="#ac7878"
         points="705.344,961.197 641.993,920.006 709.334,919.544 "
         id="polygon4398" />
      <polygon
         fill="#2f2121"
         points="887.352,1029.019 644.319,1025.713 756.41,1018.605 "
         id="polygon4400" />
      <polygon
         fill="#b57f7f"
         points="805.007,982.595 887.352,1029.019 756.41,1018.605 "
         id="polygon4402" />
      <polygon
         fill="#b17c7c"
         points="870.8,921.713 799.776,961.945 795.784,916.485 "
         id="polygon4404" />
      <polygon
         fill="#5f4242"
         points="814.202,225.117 746.25,221.539 814.225,200.809 "
         id="polygon4406" />
      <polygon
         fill="#845c5c"
         points="814.202,225.117 750.573,259.925 746.25,221.539 "
         id="polygon4408" />
      <polygon
         fill="#775353"
         points="750.573,259.925 683.086,212.173 746.25,221.539 "
         id="polygon4410" />
      <polygon
         fill="#a77474"
         points="594.835,977.752 701.957,983.651 644.319,1025.713 "
         id="polygon4412" />
      <polygon
         fill="#725050"
         points="701.957,983.651 594.835,977.752 705.344,961.197 "
         id="polygon4414" />
      <polygon
         fill="#463131"
         points="864.457,253.704 814.202,225.117 814.225,200.809 "
         id="polygon4416" />
      <polygon
         fill="#6e4d4d"
         points="799.776,961.945 913.182,981.726 805.007,982.595 "
         id="polygon4418" />
      <polygon
         fill="#a47373"
         points="913.182,981.726 887.352,1029.019 805.007,982.595 "
         id="polygon4420" />
      <polygon
         fill="#956868"
         points="870.8,921.713 872.466,963.449 799.776,961.945 "
         id="polygon4422" />
      <polygon
         fill="#614444"
         points="913.182,981.726 799.776,961.945 872.466,963.449 "
         id="polygon4424" />
      <polygon
         fill="#b17c7c"
         points="795.784,916.485 709.334,919.544 770.497,786.338 "
         id="polygon4426" />
      <polygon
         fill="#a47373"
         points="689.559,317.993 683.086,212.173 750.573,259.925 "
         id="polygon4428" />
      <polygon
         fill="#916666"
         points="644.337,258.355 683.086,212.173 689.559,317.993 "
         id="polygon4430" />
      <polygon
         fill="#563c3c"
         points="705.344,961.197 594.835,977.752 619.383,962.9 "
         id="polygon4432" />
      <polygon
         fill="#976969"
         points="705.344,961.197 619.383,962.9 641.993,920.006 "
         id="polygon4434" />
      <polygon
         fill="#b07b7b"
         points="722.353,786.012 770.497,786.338 709.334,919.544 "
         id="polygon4436" />
      <polygon
         fill="#9f6f6f"
         points="641.993,920.006 722.353,786.012 709.334,919.544 "
         id="polygon4438" />
      <polygon
         fill="#815a5a"
         points="814.202,225.117 864.457,253.704 826.987,305.755 "
         id="polygon4440" />
      <polygon
         fill="#906464"
         points="750.573,259.925 814.202,225.117 826.987,305.755 "
         id="polygon4442" />
      <polygon
         fill="#6e4d4d"
         points="752.117,465.846 726.003,447.086 823.042,454.489 "
         id="polygon4444" />
      <polygon
         fill="#cb8e8e"
         points="722.353,786.012 752.117,465.846 770.497,786.338 "
         id="polygon4446" />
      <polygon
         fill="#b67f7f"
         points="719.845,381.735 774.348,372.073 726.003,447.086 "
         id="polygon4448" />
      <polygon
         fill="#ca8d8d"
         points="689.559,317.993 774.348,372.073 719.845,381.735 "
         id="polygon4450" />
      <polygon
         fill="#bf8686"
         points="774.348,372.073 823.042,454.489 726.003,447.086 "
         id="polygon4452" />
      <polygon
         fill="#aa7777"
         points="750.573,259.925 826.987,305.755 774.348,372.073 "
         id="polygon4454" />
      <polygon
         fill="#a77575"
         points="774.348,372.073 689.559,317.993 750.573,259.925 "
         id="polygon4456" />
      <polygon
         fill="#262626"
         points="668.687,223.317 746.25,221.539 683.086,212.173 "
         id="polygon4458" />
      <polygon
         fill="#171010"
         points="644.337,258.355 668.687,223.317 683.086,212.173 "
         id="polygon4460" />
      <polygon
         fill="#8d6363"
         points="594.835,977.752 644.319,1025.713 575.481,1015.939 "
         id="polygon4462" />
      <polygon
         fill="#212121"
         points="827.821,221.553 864.457,253.704 814.225,200.809 "
         id="polygon4464" />
      <polygon
         fill="#5c5c5c"
         points="814.225,200.809 746.25,221.539 827.821,221.553 "
         id="polygon4466" />
      <polygon
         fill="#453030"
         points="800.01,466.132 752.117,465.846 823.042,454.489 "
         id="polygon4468" />
      <polygon
         fill="#c28888"
         points="752.117,465.846 800.01,466.132 770.497,786.338 "
         id="polygon4470" />
      <polygon
         fill="#a47373"
         points="864.457,253.704 827.821,221.553 921.174,210.783 "
         id="polygon4472" />
      <polygon
         fill="#a87676"
         points="582.372,214.628 668.687,223.317 644.337,258.355 "
         id="polygon4474" />
      <polygon
         fill="#9b6c6c"
         points="795.784,916.485 818.748,786.855 870.8,921.713 "
         id="polygon4476" />
      <polygon
         fill="#9d6e6e"
         points="770.497,786.338 818.748,786.855 795.784,916.485 "
         id="polygon4478" />
      <polygon
         fill="#b67f7f"
         points="770.497,786.338 800.01,466.132 818.748,786.855 "
         id="polygon4480" />
      <polygon
         fill="#362626"
         points="827.821,221.553 746.25,221.539 770.682,213.791 "
         id="polygon4482" />
      <polygon
         fill="#a47272"
         points="646.073,445.329 719.845,381.735 726.003,447.086 "
         id="polygon4484" />
      <polygon
         fill="#5d4141"
         points="698.381,467.512 726.003,447.086 752.117,465.846 "
         id="polygon4486" />
      <polygon
         fill="#6d4c4c"
         points="698.381,467.512 646.073,445.329 726.003,447.086 "
         id="polygon4488" />
      <polygon
         fill="#c28787"
         points="698.381,467.512 752.117,465.846 722.353,786.012 "
         id="polygon4490" />
      <polygon
         fill="#7c5757"
         points="619.383,962.9 587.799,917.304 641.993,920.006 "
         id="polygon4492" />
      <polygon
         fill="#735050"
         points="641.993,920.006 587.799,917.304 671.669,786.418 "
         id="polygon4494" />
      <polygon
         fill="#8c6262"
         points="722.353,786.012 641.993,920.006 671.669,786.418 "
         id="polygon4496" />
      <polygon
         fill="#a47373"
         points="698.381,467.512 722.353,786.012 671.669,786.418 "
         id="polygon4498" />
      <polygon
         fill="#996b6b"
         points="774.348,372.073 826.987,305.755 822.102,378.051 "
         id="polygon4500" />
      <polygon
         fill="#8e6363"
         points="774.348,372.073 822.102,378.051 823.042,454.489 "
         id="polygon4502" />
      <polygon
         fill="#b78080"
         points="719.755,164.14 780.645,171.611 770.682,213.791 "
         id="polygon4504" />
      <polygon
         fill="#5b4040"
         points="644.337,258.355 689.559,317.993 629.828,284.246 "
         id="polygon4506" />
      <polygon
         fill="#5b4040"
         points="644.337,258.355 629.828,284.246 582.372,214.628 "
         id="polygon4508" />
      <polygon
         fill="#614444"
         points="870.8,921.713 818.748,786.855 925.484,922.511 "
         id="polygon4510" />
      <polygon
         fill="#6a4a4a"
         points="870.8,921.713 925.484,922.511 872.466,963.449 "
         id="polygon4512" />
      <polygon
         fill="#bb8383"
         points="691.882,214.177 719.755,164.14 770.682,213.791 "
         id="polygon4514" />
      <polygon
         fill="#261b1b"
         points="691.882,214.177 770.682,213.791 746.25,221.539 "
         id="polygon4516" />
      <polygon
         fill="#7c5757"
         points="689.559,317.993 719.845,381.735 674.157,378.661 "
         id="polygon4518" />
      <polygon
         fill="#7c5757"
         points="629.828,284.246 689.559,317.993 674.157,378.661 "
         id="polygon4520" />
      <polygon
         fill="#775353"
         points="674.157,378.661 719.845,381.735 646.073,445.329 "
         id="polygon4522" />
      <polygon
         fill="#342424"
         points="907.925,961.519 913.182,981.726 872.466,963.449 "
         id="polygon4524" />
      <polygon
         fill="#523939"
         points="907.925,961.519 872.466,963.449 925.484,922.511 "
         id="polygon4526" />
      <polygon
         fill="#735050"
         points="669.994,465.272 698.381,467.512 671.669,786.418 "
         id="polygon4528" />
      <polygon
         fill="#533a3a"
         points="838.086,465.53 840.049,720.295 818.748,786.855 "
         id="polygon4530" />
      <polygon
         fill="#2c1e1e"
         points="823.042,454.489 838.086,465.53 800.01,466.132 "
         id="polygon4532" />
      <polygon
         fill="#755252"
         points="800.01,466.132 838.086,465.53 818.748,786.855 "
         id="polygon4534" />
      <polygon
         fill="#6e4d4d"
         points="840.049,720.295 856.293,808.24 818.748,786.855 "
         id="polygon4536" />
      <polygon
         fill="#483232"
         points="925.484,922.511 818.748,786.855 856.293,808.24 "
         id="polygon4538" />
      <polygon
         fill="#432f2f"
         points="864.457,253.704 921.174,210.783 895.235,261.962 "
         id="polygon4540" />
      <polygon
         fill="#6c4c4c"
         points="822.102,378.051 826.987,305.755 895.235,261.962 "
         id="polygon4542" />
      <polygon
         fill="#453030"
         points="895.235,261.962 826.987,305.755 864.457,253.704 "
         id="polygon4544" />
      <polygon
         fill="#6c4b4b"
         points="877.205,442.743 823.042,454.489 822.102,378.051 "
         id="polygon4546" />
      <polygon
         fill="#312222"
         points="877.205,442.743 838.086,465.53 823.042,454.489 "
         id="polygon4548" />
      <polygon
         fill="#503838"
         points="913.182,981.726 941.253,1018.684 887.352,1029.019 "
         id="polygon4550" />
      <polygon
         points="643.845,220.682 746.25,221.539 668.687,223.317 "
         id="polygon4552" />
      <polygon
         fill="#dd9999"
         points="643.845,220.682 668.687,223.317 582.372,214.628 "
         id="polygon4554" />
      <polygon
         fill="#463131"
         points="746.25,221.539 643.845,220.682 691.882,214.177 "
         id="polygon4556" />
      <polygon
         fill="#372626"
         points="629.828,284.246 674.157,378.661 605.819,258.565 "
         id="polygon4558" />
      <polygon
         fill="#1f1616"
         points="605.819,258.565 582.372,214.628 629.828,284.246 "
         id="polygon4560" />
      <polygon
         fill="#797979"
         points="582.372,214.628 605.819,258.565 643.845,220.682 "
         id="polygon4562" />
      <polygon
         fill="#171010"
         points="770.682,213.791 858.57,220.634 827.821,221.553 "
         id="polygon4564" />
      <polygon
         fill="#868686"
         points="895.235,261.962 921.174,210.783 858.57,220.634 "
         id="polygon4566" />
      <polygon
         fill="#131313"
         points="858.57,220.634 921.174,210.783 827.821,221.553 "
         id="polygon4568" />
      <polygon
         fill="#704e4e"
         points="754.213,137.845 780.645,171.611 719.755,164.14 "
         id="polygon4570" />
      <polygon
         fill="#372626"
         points="657.976,787.702 669.994,465.272 671.669,786.418 "
         id="polygon4572" />
      <polygon
         fill="#2e2020"
         points="587.799,917.304 657.976,787.702 671.669,786.418 "
         id="polygon4574" />
      <polygon
         fill="#221818"
         points="780.645,171.611 754.213,137.845 820.357,201.118 "
         id="polygon4576" />
      <polygon
         fill="#533a3a"
         points="820.357,201.118 858.57,220.634 770.682,213.791 "
         id="polygon4578" />
      <polygon
         fill="#755252"
         points="780.645,171.611 820.357,201.118 770.682,213.791 "
         id="polygon4580" />
      <polygon
         fill="#261b1b"
         points="877.205,442.743 822.102,378.051 834.969,381.002 "
         id="polygon4582" />
      <polygon
         fill="#322323"
         points="834.969,381.002 822.102,378.051 895.235,261.962 "
         id="polygon4584" />
      <polygon
         fill="#eeeeee"
         points="670.38,466.543 669.994,465.272 657.976,787.702 "
         id="polygon4586" />
      <polygon
         fill="#201616"
         points="646.073,445.329 668.684,376.828 674.157,378.661 "
         id="polygon4588" />
      <polygon
         fill="#241919"
         points="686.758,207.116 719.755,164.14 691.882,214.177 "
         id="polygon4590" />
      <polygon
         fill="#202020"
         points="754.213,137.845 719.755,164.14 686.758,207.116 "
         id="polygon4592" />
      <polygon
         fill="#241919"
         points="686.758,207.116 691.882,214.177 643.845,220.682 "
         id="polygon4594" />
      <polygon
         fill="#171010"
         points="657.976,787.702 587.799,917.304 579.676,921.32 "
         id="polygon4596" />
      <polygon
         fill="#201717"
         points="594.835,977.752 592.721,962.342 619.383,962.9 "
         id="polygon4598" />
      <polygon
         fill="#2f2121"
         points="587.799,917.304 619.383,962.9 592.721,962.342 "
         id="polygon4600" />
      <polygon
         fill="#1e1515"
         points="592.721,962.342 579.676,921.32 587.799,917.304 "
         id="polygon4602" />
      <polygon
         fill="#2d1f1f"
         points="913.182,981.726 938.484,985.378 941.253,1018.684 "
         id="polygon4604" />
      <polygon
         fill="#231919"
         points="938.484,985.378 913.182,981.726 907.925,961.519 "
         id="polygon4606" />
      <polygon
         fill="#1c1313"
         points="668.684,376.828 646.073,445.329 632.413,455.055 "
         id="polygon4608" />
      <polygon
         fill="#735050"
         points="698.381,467.512 669.994,465.272 632.413,455.055 "
         id="polygon4610" />
      <polygon
         points="670.38,466.543 632.413,455.055 669.994,465.272 "
         id="polygon4612" />
      <polygon
         fill="#261a1a"
         points="698.381,467.512 632.413,455.055 646.073,445.329 "
         id="polygon4614" />
      <polygon
         fill="#2d2d2d"
         points="840.049,720.295 838.086,465.53 830.256,730.066 "
         id="polygon4616" />
      <polygon
         fill="#2d1f1f"
         points="563.053,985.884 594.835,977.752 575.481,1015.939 "
         id="polygon4618" />
      <polygon
         fill="#1e1515"
         points="592.721,962.342 594.835,977.752 563.053,985.884 "
         id="polygon4620" />
      <polygon
         fill="#825b5b"
         points="895.235,261.962 858.57,220.634 889.761,198.731 "
         id="polygon4622" />
      <polygon
         fill="#2e2e2e"
         points="674.157,378.661 631.212,282.299 605.819,258.565 "
         id="polygon4624" />
      <polygon
         fill="#1c1313"
         points="668.684,376.828 631.212,282.299 674.157,378.661 "
         id="polygon4626" />
      <polygon
         fill="#3d3d3d"
         points="895.235,261.962 867.151,285.696 834.969,381.002 "
         id="polygon4628" />
      <polygon
         fill="#454545"
         points="818.389,465.482 830.256,730.066 838.086,465.53 "
         id="polygon4630" />
      <polygon
         points="580.633,1029.917 644.319,1025.713 887.352,1029.019 "
         id="polygon4632" />
      <polygon
         fill="#dd9999"
         points="575.481,1015.939 580.633,1029.917 563.053,985.884 "
         id="polygon4634" />
      <polygon
         fill="#1e1515"
         points="644.319,1025.713 580.633,1029.917 575.481,1015.939 "
         id="polygon4636" />
      <polygon
         fill="#474747"
         points="674.428,789.185 657.976,787.702 579.676,921.32 "
         id="polygon4638" />
      <polygon
         fill="#4e4e4e"
         points="670.38,466.543 657.976,787.702 674.428,789.185 "
         id="polygon4640" />
      <polygon
         fill="#727272"
         points="686.758,207.116 759.714,177.777 754.213,137.845 "
         id="polygon4642" />
      <polygon
         fill="#5c5c5c"
         points="754.213,137.845 759.714,177.777 820.357,201.118 "
         id="polygon4644" />
      <polygon
         fill="#1a1a1a"
         points="896.013,961.266 938.484,985.378 907.925,961.519 "
         id="polygon4646" />
      <polygon
         fill="#252525"
         points="925.484,922.511 896.013,961.266 907.925,961.519 "
         id="polygon4648" />
      <polygon
         fill="#313131"
         points="839.287,807.945 840.049,720.295 830.256,730.066 "
         id="polygon4650" />
      <polygon
         fill="#363636"
         points="856.293,808.24 840.049,720.295 839.287,807.945 "
         id="polygon4652" />
      <polygon
         fill="#5e5e5e"
         points="834.969,381.002 804.145,371.604 877.205,442.743 "
         id="polygon4654" />
      <polygon
         fill="#727272"
         points="804.145,371.604 834.969,381.002 867.151,285.696 "
         id="polygon4656" />
      <polygon
         fill="#848484"
         points="763.869,214.961 858.57,220.634 820.357,201.118 "
         id="polygon4658" />
      <polygon
         fill="#bbbbbb"
         points="759.714,177.777 686.758,207.116 763.869,214.961 "
         id="polygon4660" />
      <polygon
         fill="#979797"
         points="820.357,201.118 759.714,177.777 763.869,214.961 "
         id="polygon4662" />
      <polygon
         fill="#212121"
         points="605.819,258.565 631.212,282.299 579.047,213.102 "
         id="polygon4664" />
      <polygon
         fill="#825b5b"
         points="605.819,258.565 579.047,213.102 643.845,220.682 "
         id="polygon4666" />
      <polygon
         fill="#1c1c1c"
         points="851.727,454.88 818.389,465.482 838.086,465.53 "
         id="polygon4668" />
      <polygon
         fill="#515151"
         points="877.205,442.743 804.145,371.604 851.727,454.88 "
         id="polygon4670" />
      <polygon
         fill="#121212"
         points="877.205,442.743 851.727,454.88 838.086,465.53 "
         id="polygon4672" />
      <polygon
         fill="#7a7a7a"
         points="702.919,465.954 670.38,466.543 674.428,789.185 "
         id="polygon4674" />
      <polygon
         fill="#2d2d2d"
         points="702.919,465.954 632.413,455.055 670.38,466.543 "
         id="polygon4676" />
      <polygon
         fill="#787878"
         points="703.231,373.37 631.212,282.299 668.684,376.828 "
         id="polygon4678" />
      <polygon
         fill="#707070"
         points="632.413,455.055 703.231,373.37 668.684,376.828 "
         id="polygon4680" />
      <polygon
         fill="#181818"
         points="895.235,261.962 923.198,225.614 867.151,285.696 "
         id="polygon4682" />
      <polygon
         fill="#624444"
         points="895.235,261.962 889.761,198.731 923.198,225.614 "
         id="polygon4684" />
      <polygon
         fill="#ffaaaa"
         points="676.434,222.88 643.845,220.682 579.047,213.102 "
         id="polygon4686" />
      <polygon
         fill="#323232"
         points="676.434,222.88 686.758,207.116 643.845,220.682 "
         id="polygon4688" />
      <polygon
         fill="#474747"
         points="676.434,222.88 763.869,214.961 686.758,207.116 "
         id="polygon4690" />
      <polygon
         fill="#161616"
         points="763.869,214.961 834.007,222.397 858.57,220.634 "
         id="polygon4692" />
      <polygon
         fill="#8c8c8c"
         points="834.007,222.397 923.198,225.614 889.761,198.731 "
         id="polygon4694" />
      <polygon
         fill="#231818"
         points="858.57,220.634 834.007,222.397 889.761,198.731 "
         id="polygon4696" />
      <polygon
         fill="#aaaaaa"
         points="715.042,713.715 702.919,465.954 674.428,789.185 "
         id="polygon4698" />
      <polygon
         fill="#c6c6c6"
         points="702.919,465.954 715.042,713.715 766.153,466.668 "
         id="polygon4700" />
      <polygon
         fill="#3d3d3d"
         points="851.727,454.88 766.153,466.668 818.389,465.482 "
         id="polygon4702" />
      <polygon
         fill="#303030"
         points="906.464,917.172 856.293,808.24 839.287,807.945 "
         id="polygon4704" />
      <polygon
         fill="#222222"
         points="906.464,917.172 925.484,922.511 856.293,808.24 "
         id="polygon4706" />
      <polygon
         fill="#2b2b2b"
         points="925.484,922.511 906.464,917.172 896.013,961.266 "
         id="polygon4708" />
      <polygon
         fill="#cacaca"
         points="766.153,466.668 715.042,713.715 776.557,730.106 "
         id="polygon4710" />
      <polygon
         fill="#a2a2a2"
         points="830.256,730.066 818.389,465.482 776.557,730.106 "
         id="polygon4712" />
      <polygon
         fill="#afafaf"
         points="766.153,466.668 776.557,730.106 818.389,465.482 "
         id="polygon4714" />
      <polygon
         fill="#9d9d9d"
         points="839.287,807.945 830.256,730.066 776.557,730.106 "
         id="polygon4716" />
      <polygon
         fill="#8d8d8d"
         points="706.87,804.694 715.042,713.715 674.428,789.185 "
         id="polygon4718" />
      <polygon
         fill="#b0b0b0"
         points="766.046,810.537 839.287,807.945 776.557,730.106 "
         id="polygon4720" />
      <polygon
         fill="#c6c6c6"
         points="776.557,730.106 715.042,713.715 766.046,810.537 "
         id="polygon4722" />
      <polygon
         fill="#c6c6c6"
         points="715.042,713.715 706.87,804.694 766.046,810.537 "
         id="polygon4724" />
      <polygon
         fill="#646464"
         points="867.151,285.696 923.198,225.614 852.202,261.064 "
         id="polygon4726" />
      <polygon
         fill="#5d5d5d"
         points="852.202,261.064 804.145,371.604 867.151,285.696 "
         id="polygon4728" />
      <polygon
         fill="#a9a9a9"
         points="923.198,225.614 834.007,222.397 852.202,261.064 "
         id="polygon4730" />
      <polygon
         fill="#292929"
         points="676.434,222.88 748.359,222.608 763.869,214.961 "
         id="polygon4732" />
      <polygon
         fill="#323232"
         points="834.007,222.397 763.869,214.961 748.359,222.608 "
         id="polygon4734" />
      <polygon
         fill="#a7a7a7"
         points="804.145,371.604 754.319,378.535 790.256,436.795 "
         id="polygon4736" />
      <polygon
         fill="#939393"
         points="851.727,454.88 804.145,371.604 790.256,436.795 "
         id="polygon4738" />
      <polygon
         fill="#8f8f8f"
         points="579.047,213.102 653.527,254.32 676.434,222.88 "
         id="polygon4740" />
      <polygon
         fill="#6b6b6b"
         points="653.527,254.32 579.047,213.102 631.212,282.299 "
         id="polygon4742" />
      <polygon
         fill="#686868"
         points="653.527,254.32 631.212,282.299 703.231,373.37 "
         id="polygon4744" />
      <polygon
         fill="#414141"
         points="901.164,984.478 938.484,985.378 896.013,961.266 "
         id="polygon4746" />
      <polygon
         fill="#afafaf"
         points="754.319,378.535 703.231,373.37 717.502,453.493 "
         id="polygon4748" />
      <polygon
         fill="#919191"
         points="717.502,453.493 703.231,373.37 632.413,455.055 "
         id="polygon4750" />
      <polygon
         fill="#bebebe"
         points="790.256,436.795 754.319,378.535 717.502,453.493 "
         id="polygon4752" />
      <polygon
         fill="#868686"
         points="851.727,454.88 790.256,436.795 717.502,453.493 "
         id="polygon4754" />
      <polygon
         fill="#404040"
         points="717.502,453.493 702.919,465.954 766.153,466.668 "
         id="polygon4756" />
      <polygon
         fill="#838383"
         points="717.502,453.493 766.153,466.668 851.727,454.88 "
         id="polygon4758" />
      <polygon
         fill="#494949"
         points="717.502,453.493 632.413,455.055 702.919,465.954 "
         id="polygon4760" />
      <polygon
         fill="#b4b4b4"
         points="759.3,301.933 703.231,373.37 754.319,378.535 "
         id="polygon4762" />
      <polygon
         fill="#b4b4b4"
         points="653.527,254.32 703.231,373.37 759.3,301.933 "
         id="polygon4764" />
      <polygon
         fill="#aaaaaa"
         points="804.145,371.604 759.3,301.933 754.319,378.535 "
         id="polygon4766" />
      <polygon
         fill="#acacac"
         points="804.145,371.604 852.202,261.064 759.3,301.933 "
         id="polygon4768" />
      <polygon
         fill="#606060"
         points="592.721,962.342 624.002,917.419 579.676,921.32 "
         id="polygon4770" />
      <polygon
         fill="#535353"
         points="624.002,917.419 674.428,789.185 579.676,921.32 "
         id="polygon4772" />
      <polygon
         fill="#8b8b8b"
         points="674.428,789.185 624.002,917.419 706.87,804.694 "
         id="polygon4774" />
      <polygon
         fill="#dddddd"
         points="580.633,1029.917 887.352,1029.019 890.215,1028.364 "
         id="polygon4776" />
      <polygon
         fill="#4c4c4c"
         points="938.484,985.378 890.215,1028.364 941.253,1018.684 "
         id="polygon4778" />
      <polygon
         fill="#cccccc"
         points="890.215,1028.364 887.352,1029.019 941.253,1018.684 "
         id="polygon4780" />
      <polygon
         fill="#5d5d5d"
         points="938.484,985.378 901.164,984.478 890.215,1028.364 "
         id="polygon4782" />
      <polygon
         fill="#6c6c6c"
         points="592.721,962.342 657.156,960.857 624.002,917.419 "
         id="polygon4784" />
      <polygon
         fill="#484848"
         points="592.721,962.342 563.053,985.884 657.156,960.857 "
         id="polygon4786" />
      <polygon
         fill="#777777"
         points="896.013,961.266 906.464,917.172 835.662,961.728 "
         id="polygon4788" />
      <polygon
         fill="#4d4d4d"
         points="835.662,961.728 901.164,984.478 896.013,961.266 "
         id="polygon4790" />
      <polygon
         fill="#5d4141"
         points="748.359,222.608 676.434,222.88 694.427,198.007 "
         id="polygon4792" />
      <polygon
         fill="#cc9999"
         points="653.527,254.32 694.427,198.007 676.434,222.88 "
         id="polygon4794" />
      <polygon
         fill="#696969"
         points="580.633,1029.917 629.829,1017.256 563.053,985.884 "
         id="polygon4796" />
      <polygon
         fill="#5e5e5e"
         points="757.647,252.305 748.359,222.608 694.427,198.007 "
         id="polygon4798" />
      <polygon
         fill="#7e7e7e"
         points="629.829,1017.256 641.029,980.292 563.053,985.884 "
         id="polygon4800" />
      <polygon
         fill="#4c4c4c"
         points="563.053,985.884 641.029,980.292 657.156,960.857 "
         id="polygon4802" />
      <polygon
         fill="#747474"
         points="641.029,980.292 733.016,960.71 657.156,960.857 "
         id="polygon4804" />
      <polygon
         fill="#b4b4b4"
         points="835.662,961.728 817.167,919.93 733.016,960.71 "
         id="polygon4806" />
      <polygon
         fill="#979797"
         points="839.287,807.945 766.046,810.537 817.167,919.93 "
         id="polygon4808" />
      <polygon
         fill="#8d8d8d"
         points="817.167,919.93 906.464,917.172 839.287,807.945 "
         id="polygon4810" />
      <polygon
         fill="#9b9b9b"
         points="906.464,917.172 817.167,919.93 835.662,961.728 "
         id="polygon4812" />
      <polygon
         fill="#909090"
         points="820.058,211.693 759.3,301.933 852.202,261.064 "
         id="polygon4814" />
      <polygon
         fill="#1c1c1c"
         points="834.007,222.397 820.058,211.693 852.202,261.064 "
         id="polygon4816" />
      <polygon
         fill="#251a1a"
         points="834.007,222.397 748.359,222.608 820.058,211.693 "
         id="polygon4818" />
      <polygon
         fill="#7d7d7d"
         points="748.359,222.608 757.647,252.305 820.058,211.693 "
         id="polygon4820" />
      <polygon
         fill="#b4b4b4"
         points="759.3,301.933 820.058,211.693 757.647,252.305 "
         id="polygon4822" />
      <polygon
         fill="#767676"
         points="822.875,981.325 901.164,984.478 835.662,961.728 "
         id="polygon4824" />
      <polygon
         fill="#6e6e6e"
         points="822.875,981.325 835.662,961.728 733.016,960.71 "
         id="polygon4826" />
      <polygon
         fill="#a4a4a4"
         points="901.164,984.478 822.875,981.325 890.215,1028.364 "
         id="polygon4828" />
      <polygon
         fill="#b2b2b2"
         points="722.391,920.643 817.167,919.93 766.046,810.537 "
         id="polygon4830" />
      <polygon
         fill="#aaaaaa"
         points="766.046,810.537 706.87,804.694 722.391,920.643 "
         id="polygon4832" />
      <polygon
         fill="#afafaf"
         points="722.391,920.643 624.002,917.419 657.156,960.857 "
         id="polygon4834" />
      <polygon
         fill="#bebebe"
         points="817.167,919.93 722.391,920.643 733.016,960.71 "
         id="polygon4836" />
      <polygon
         fill="#acacac"
         points="733.016,960.71 722.391,920.643 657.156,960.857 "
         id="polygon4838" />
      <polygon
         fill="#a1a1a1"
         points="624.002,917.419 722.391,920.643 706.87,804.694 "
         id="polygon4840" />
      <polygon
         fill="#b2b2b2"
         points="759.3,301.933 757.647,252.305 684.15,226.612 "
         id="polygon4842" />
      <polygon
         fill="#2e2e2e"
         points="653.527,254.32 684.15,226.612 694.427,198.007 "
         id="polygon4844" />
      <polygon
         fill="#707070"
         points="684.15,226.612 653.527,254.32 759.3,301.933 "
         id="polygon4846" />
      <polygon
         fill="#858585"
         points="694.427,198.007 684.15,226.612 757.647,252.305 "
         id="polygon4848" />
      <polygon
         fill="#313131"
         points="772.223,1024.48 629.829,1017.256 580.633,1029.917 "
         id="polygon4850" />
      <polygon
         fill="#b2b2b2"
         points="890.215,1028.364 822.875,981.325 772.223,1024.48 "
         id="polygon4852" />
      <polygon
         fill="#161616"
         points="772.223,1024.48 580.633,1029.917 890.215,1028.364 "
         id="polygon4854" />
      <polygon
         fill="#c8c8c8"
         points="772.223,1024.48 822.875,981.325 724.896,992.917 "
         id="polygon4856" />
      <polygon
         fill="#a6a6a6"
         points="724.896,992.917 629.829,1017.256 772.223,1024.48 "
         id="polygon4858" />
      <polygon
         fill="#868686"
         points="733.016,960.71 641.029,980.292 724.896,992.917 "
         id="polygon4860" />
      <polygon
         fill="#8f8f8f"
         points="724.896,992.917 822.875,981.325 733.016,960.71 "
         id="polygon4862" />
      <polygon
         fill="#b7b7b7"
         points="724.896,992.917 641.029,980.292 629.829,1017.256 "
         id="polygon4864" />
    </g>
  </g>
</svg>
